<svg xmlns="http://www.w3.org/2000/svg" viewBox="0 0 691 691"><defs><style>.cls-1{fill:#009ba4;}.cls-2{fill:#fbb03b;}.cls-3,.cls-4,.cls-7{fill:#fff;}.cls-4{font-size:51px;font-family:CooperBlack, Cooper Black;}.cls-4,.cls-7{stroke:#fff;stroke-miterlimit:10;}.cls-5{letter-spacing:0em;}.cls-6{letter-spacing:0em;}.cls-7{stroke-linecap:round;stroke-width:4px;}</style></defs><g id="Layer_2" data-name="Layer 2"><g id="Calque_1" data-name="Calque 1"><circle id="CERCLE_EXTÉRIEUR" data-name="CERCLE EXTÉRIEUR" class="cls-1" cx="345.5" cy="345.5" r="345.5"/><g id="CERCLE_INTÉRIEUR" data-name="CERCLE INTÉRIEUR"><path class="cls-2" d="M345.5,21C524.72,21,670,166.28,670,345.5S524.72,670,345.5,670,21,524.72,21,345.5,166.28,21,345.5,21m0-8A332.59,332.59,0,0,0,216.07,651.87,332.59,332.59,0,0,0,474.93,39.13,330.47,330.47,0,0,0,345.5,13Z"/></g><g id="CERCLE_INTÉRIEUR_PETIT" data-name="CERCLE INTÉRIEUR PETIT"><path class="cls-3" d="M345.5,118.5a226.27,226.27,0,1,1-88.36,17.84A225.49,225.49,0,0,1,345.5,118.5m0-8c-129.79,0-235,105.21-235,235s105.21,235,235,235,235-105.21,235-235-105.21-235-235-235Z"/></g><path id="DEMI-LUNE" class="cls-2" d="M332.5,608.5c-10.05,0-16,1-25,1v26c193,2,323-116,319-292C629.84,490.58,495.5,608.5,332.5,608.5Z"/><g id="Y_DROIT" data-name="Y DROIT"><path class="cls-2" d="M305.5,368l64.23-121.44,29-51.05c1.08-2.11,27.79-53.83,65.22-63.94.49-.14,53.58-15.41,98.44-15.41,3.89,0,7.66.12,11.21.34l1.54.1.29,1.53c0,.22,4.09,22.72-15.24,30.23-.52.2-48.82,18.13-72.23,42.48-1.45,1.71-38.41,45.64-57.83,74.77L346.5,393.51c0,9.1-.2,118-.2,118.79a17,17,0,0,0,17,17l.37,0h.16l.15,0a14.64,14.64,0,0,1-2,29.15l-56.5,0Z"/><path class="cls-1" d="M562.42,118.16c3.76,0,7.47.11,11.08.34,0,0,4,21-14,28,0,0-49,18-73,43,0,0-38,45-58,75l-84,128.41s-.2,118.5-.2,119.39a19,19,0,0,0,19,19l.41,0A12.64,12.64,0,0,1,362,556.45l-54.5,0v-188l64-121,29-51s27-53,64-63c0,0,52.83-15.34,97.92-15.34m0-4c-44.92,0-96.35,14.72-99,15.49-37.87,10.26-64.8,61.74-66.44,64.95l-29,50.92,0,.06,0,0-64,121-.46.88v193h4l54.5,0a16.64,16.64,0,0,0,2.25-33.13l-.31-.05h-.31l-.39,0h0a15,15,0,0,1-14.94-15c0-.83.18-105.77.2-118.19l83.35-127.42c19.18-28.77,55.64-72.15,57.62-74.51,23.13-24,70.93-41.75,71.41-41.93H561c16.69-6.49,18.08-24.08,16.48-32.48l-.58-3-3.1-.2c-3.59-.23-7.4-.35-11.33-.35Z"/></g><path class="cls-3" d="M248.19,558.45a14.64,14.64,0,0,1-2-29.15l.15,0h.45a17,17,0,0,0,17.08-17c0-.37-.2-16.78-.2-16.78v-102L240,358.62l-59.14-87c-7.25-10.13-15.77-21.33-17.46-22.46-.35-.23-.72-.51-1.13-.81-2.92-2.19-7.81-5.85-26.76-5.85-14.91,0-23.93,0-24-9.88-.14-1.44.07-8,14.58-11.08l58.9-13a31.87,31.87,0,0,1,9-1.19c9,0,25.83,3.4,38.25,26.16,18.45,33.84,71.66,133,72.19,134l.24.45V558.5Z"/><path class="cls-1" d="M194,209.38c9.43,0,24.84,3.77,36.49,25.12,18.67,34.22,72.19,134,72.19,134v188l-54.5,0a12.64,12.64,0,0,1-1.71-25.17l.41,0a19,19,0,0,0,19-19c0-.21-.2-16.8-.2-16.8V392.91L241.64,357.5l-59.14-87s-15-21-18-23-7-7-29-7c-15,0-22,0-22-8,0,0-1-6,13-9l59-13a29.46,29.46,0,0,1,8.51-1.12m0-4a34.24,34.24,0,0,0-9.54,1.25l-58.83,13c-15.54,3.33-16.27,10.89-16.14,13.07,0,5.59,2.85,9.19,8.31,10.7,4.15,1.14,9.83,1.14,17.69,1.14,18.29,0,23,3.55,25.56,5.45.4.3.77.58,1.17.85,1.86,1.49,10.24,12.54,17,22l59.12,87,23.35,34.39V495.5c.07,5.69.2,16.45.2,16.82a15,15,0,0,1-14.94,15l-.39,0h-.31l-.31.05a16.64,16.64,0,0,0,2.25,33.13l54.5,0h4v-193l-.48-.88c-.53-1-53.74-100.18-72.2-134-12.91-23.67-30.6-27.2-40-27.2Z"/><g id="RECTANGLE_POUR_TEXTE" data-name="RECTANGLE POUR TEXTE"><rect class="cls-1" x="61.5" y="425.5" width="565" height="69" rx="4.02"/></g><g id="TEXTE"><text class="cls-4" transform="translate(65.27 477.54)">YUMMYMAKER.<tspan class="cls-5" x="431.04" y="0">C</tspan><tspan class="cls-6" x="467.92" y="0">OM</tspan></text><line class="cls-7" x1="67.5" y1="431.5" x2="620.5" y2="431.5"/><line class="cls-7" x1="67.5" y1="487.5" x2="620.5" y2="487.5"/></g></g></g></svg>