<svg id="football" xmlns="http://www.w3.org/2000/svg" viewBox="0 0 520 520"><defs><style>.cls-1{fill:#5b5ea2;}</style></defs><g id="_1" data-name="1"><path class="cls-1" d="M296.61,291c-5.88-3.3-16.39-7.84-20.81-1.21-4,6.05-9.06,9.68-14.53,10.5s-11-1.11-16.55-5.7A150.87,150.87,0,0,1,225,274.72c-4.59-5.58-6.5-11.15-5.7-16.55s4.45-10.49,10.5-14.53c6.63-4.42,2.09-14.93-1.21-20.8-2.52-4.5-5.91-7.24-10.06-8.13a13.7,13.7,0,0,0-5.75,0c-.93.33-11.74,4.54-16.91,26.37-2,8.48,1.1,19.93,9,33.13a149.92,149.92,0,0,0,16.93,22.62c1.8,1.71,34.28,32.14,56.6,26.86,22-5.21,26.19-16.39,26.37-16.89a14,14,0,0,0,0-5.77C303.84,296.86,301.11,293.47,296.61,291Z"/><polygon class="cls-1" points="212.73 214.7 212.68 214.72 212.73 214.7 212.73 214.7"/><path class="cls-1" d="M260,137.84A122.16,122.16,0,1,0,382.16,260,122.17,122.17,0,0,0,260,137.84Zm-2.24,90.67a4.77,4.77,0,0,1,5-4.76A33.91,33.91,0,0,1,295,256a4.76,4.76,0,0,1-4.76,5h0a4.78,4.78,0,0,1-4.76-4.58,24.31,24.31,0,0,0-23.15-23.15,4.78,4.78,0,0,1-4.58-4.76Zm54.3,80.38c-.19.65-4.91,15.79-31.93,22.18a30.53,30.53,0,0,1-7.09.8c-25.62,0-55.26-28.34-56.62-29.66l-.16-.16a156.07,156.07,0,0,1-17.94-23.95c-9-15.15-12.37-28.2-9.86-38.79,6.4-27,21.53-31.73,22.17-31.92,5.37-1.56,17.4-1.1,24.59,11.72,3.95,7,5.83,13.3,5.57,18.57A15.05,15.05,0,0,1,234,250c-2.94,2-6.57,5.17-7.19,9.32-.48,3.18.89,6.75,4.05,10.61a142.78,142.78,0,0,0,18.68,18.76c3.85,3.16,7.42,4.53,10.6,4,4.15-.62,7.36-4.25,9.32-7.19a15.05,15.05,0,0,1,12.29-6.78c5.27-.26,11.52,1.62,18.57,5.57C313.15,291.5,313.61,303.53,312.06,308.89Zm-3.71-53.83h0a4.78,4.78,0,0,1-4.76-4.63,36.47,36.47,0,0,0-35.23-35.22,4.77,4.77,0,1,1,.29-9.53,45.95,45.95,0,0,1,44.46,44.46A4.76,4.76,0,0,1,308.35,255.06Zm17.55-5.17h0a4.74,4.74,0,0,1-4.76-4.6,48.78,48.78,0,0,0-47.63-47.62,4.75,4.75,0,0,1-4.6-4.76v0a4.78,4.78,0,0,1,4.93-4.76A58.31,58.31,0,0,1,330.66,245,4.77,4.77,0,0,1,325.9,249.89Z"/></g></svg>