<?xml version="1.0" encoding="UTF-8"?>
<svg viewBox="0 0 640 480" xmlns="http://www.w3.org/2000/svg" xmlns:xlink="http://www.w3.org/1999/xlink">
 <defs>
  <filter id="ap">
   <feGaussianBlur stdDeviation="0.08026"/>
  </filter>
  <linearGradient id="a">
   <stop stop-color="#fff" offset="0"/>
   <stop stop-color="#fff" offset="1"/>
  </linearGradient>
  <filter id="af">
   <feGaussianBlur stdDeviation="0.0695"/>
  </filter>
  <linearGradient id="b">
   <stop offset="0"/>
   <stop offset="1"/>
  </linearGradient>
  <filter id="an">
   <feGaussianBlur stdDeviation="0.05277"/>
  </filter>
  <filter id="am">
   <feGaussianBlur stdDeviation="0.10493"/>
  </filter>
  <filter id="al">
   <feGaussianBlur stdDeviation="0.08378"/>
  </filter>
  <filter id="ao">
   <feGaussianBlur stdDeviation="0.14911"/>
  </filter>
  <filter id="aj" x="-.024" width="1.048" height="1.201">
   <feGaussianBlur stdDeviation="0.13989"/>
  </filter>
  <filter id="ai">
   <feGaussianBlur stdDeviation="0.07952"/>
  </filter>
  <filter id="ad">
   <feGaussianBlur stdDeviation="0.15094"/>
  </filter>
  <filter id="ag">
   <feGaussianBlur stdDeviation="0.14603"/>
  </filter>
  <filter id="bd">
   <feGaussianBlur stdDeviation="0.19096"/>
  </filter>
  <filter id="bb">
   <feGaussianBlur stdDeviation="0.29144"/>
  </filter>
  <filter id="ae">
   <feGaussianBlur stdDeviation="0.18002"/>
  </filter>
  <filter id="bc" x="-.727" y="-.024" width="2.454" height="1.049">
   <feGaussianBlur stdDeviation="0.15719"/>
  </filter>
  <filter id="ah">
   <feGaussianBlur stdDeviation="0.28665"/>
  </filter>
  <filter id="ak" x="-.06" y="-.133" width="1.119" height="1.266">
   <feGaussianBlur stdDeviation="2.38617"/>
  </filter>
  <radialGradient id="az" cx="985.76" cy="238.35" r="11.03" gradientTransform="matrix(291.18 -494.09 511.77 301.6 -4.1847e5 4.2338e5)" gradientUnits="userSpaceOnUse" xlink:href="#a"/>
  <linearGradient id="aq" x2="0" xlink:href="#a"/>
  <linearGradient id="ar" x1=".143" x2=".15" gradientTransform="translate(16.514 -35.636)" xlink:href="#a"/>
  <linearGradient id="as" x2="0">
   <stop stop-color="#4d4d4d" offset="0"/>
   <stop stop-color="#4d4d4d" offset="1"/>
  </linearGradient>
  <linearGradient id="at" x1=".5" x2=".346">
   <stop stop-color="#7f7f7f" offset="0"/>
   <stop offset="1"/>
  </linearGradient>
  <linearGradient id="au" x1=".914" x2=".145" xlink:href="#b"/>
  <linearGradient id="av" x1="-.044" x2=".661" xlink:href="#b"/>
  <linearGradient id="aw" x1="-3.047" x2="-2.787" gradientTransform="translate(22.425 .7176)" xlink:href="#b"/>
  <linearGradient id="ax" x1=".362" x2=".5" xlink:href="#a"/>
  <linearGradient id="ay" x1="2.992" x2="3.02" gradientTransform="matrix(15.815 0 0 15.815 -15731 -2436.6)">
   <stop stop-color="#ccc" offset="0"/>
   <stop stop-color="#191919" offset="1"/>
  </linearGradient>
  <linearGradient id="ba" x1="11.449" x2="11.46" gradientTransform="matrix(15.815 0 0 15.815 -15470 -3000.2)">
   <stop stop-color="#1f1d6c" offset="0"/>
   <stop offset="0"/>
  </linearGradient>
 </defs>
 <path d="m-0.001119 544.19l370.64 147.92 297.49-210.59-370.64-97.775-297.49 160.45z" fill-rule="evenodd" filter="url(#ak)" opacity=".756"/>
 <path d="m18.633 250.45v277.03l354.8 128.85 273.95-183.15v-263.18l-281.65 149.29-347.11-108.84z" fill="#74b92c" fill-rule="evenodd" stroke-width=".2"/>
 <path d="m21.562 521.86l349.04 130.71v-270.04l-349.04-106.29v245.62z" fill="url(#az)" fill-rule="evenodd" filter="url(#ah)" opacity=".525"/>
 <rect transform="matrix(18.002 0 0 18.002 -17663 -3520.4)" x="1001.6" y="215.88" width=".439" height="15.805" fill="url(#aq)" filter="url(#bc)" opacity=".522" stroke-width=".2"/>
 <path d="m299.28 102.04l355.65 56.072-0.87463 95.519-279.88 141.64-360.75-110.9 0.5877-97.647 285.26-84.682z" fill="#74b92c" stroke-width=".2"/>
 <path d="m15.816 214.48l1.4364 68.945 350.47 109.16 1.4383-80.436-353.35-97.673z" fill="#74b92c" fill-rule="evenodd" filter="url(#ae)" opacity=".5"/>
 <path d="m18.405 189.52l353.81 93.955 278.16-121.68-0.35522 7.2269-273.7 121.3-1.3543 98.527h-8.2098l-0.014496-98.527-347.93-92.466-0.41218-8.3308z" fill="url(#ar)" fill-rule="evenodd" filter="url(#bb)"/>
 <path d="m442.83 137.35l-289.69 91.287-3.9317 341.83 74.01 29.603 2.8737-350.29 294.84-111.97-78.101-0.46407z" fill-rule="evenodd" filter="url(#bd)" stroke-width=".2"/>
 <path d="m446.91 125.33l-296.48 97.896-4.4141 351.7 73.66 26.465 3.7056-357.02 297.45-107.8-73.928-11.242z" fill="#1f1d6c" fill-rule="evenodd" stroke-width=".2"/>
 <path d="m656.97 178.87l-5.6721 74.259-281.62 140.34-1.4383-80.087 288.73-134.52z" fill="#74b92c" fill-rule="evenodd" filter="url(#ae)" opacity=".5"/>
 <path d="m148.86 147.4l343.54 88.048 0.6564 338.85 66.86-44.554-4.0812-324.95-340.49-75.132-66.479 17.745z" fill-rule="evenodd" filter="url(#ag)" stroke-width=".2"/>
 <path d="m223.79 54.978s3.4494 28.5 23.26 54.729c9.4007 12.449 45.835 33.522 45.835 33.522l19.84 23.944s-20.524 6.8411-30.786 5.4729c-10.261-1.3682-61.166-16.138-80.322-27.084s-53.361-49.525-55.414-58.419c-2.0513-8.8935-11.501-32.019-3.2912-47.07 8.2082-15.051 24.096-22.038 28.885-22.722 4.7889-0.68417 49.94 22.576 49.94 22.576l2.0528 15.051z" fill="#1f1d6c" fill-rule="evenodd" opacity=".75"/>
 <path d="m153.72 228.01l65.765 16.172-4.3129 183.28-63.609-56.062 2.1574-143.39z" fill="#1f1d6c" fill-rule="evenodd" filter="url(#ad)" opacity=".75"/>
 <path d="m148.41 533.97l-1.183 39.963 71.34 25.754 0.59151-44.107-70.749-21.61z" fill="url(#ba)" fill-rule="evenodd"/>
 <path d="m557.49 209.31l-53.165 23.88 2.2628 146.57 52.688-46.437-1.7854-124.01z" fill="url(#as)" fill-rule="evenodd" filter="url(#ad)" opacity=".674"/>
 <g fill="#1f1d6c" fill-rule="evenodd" opacity=".75" stroke-width=".2">
  <path d="m304.94 183.59s30.255 0.68932 32.978 18.923c2.723 18.234-13.792 37.97 20.689 76.131 11.667-4.4835 13.859-15.502 13.859-15.502l27.741 15.046s-20.019-36.758-18.615-51.222c1.4035-14.464 6.4686-31.942-3.0049-38.477-9.4735-6.5345-58.428-11.285-58.428-11.285l-15.218 6.385z" filter="url(#ai)" opacity=".953"/>
  <path d="m306.83 181.63s30.255 0.68956 32.978 18.923c2.723 18.234-13.792 37.97 20.69 76.131 11.666-4.4834 13.858-15.502 13.858-15.502l27.741 15.046s-20.019-36.758-18.615-51.222c1.4035-14.464 6.4686-31.942-3.0049-38.477-9.4735-6.5345-58.428-11.285-58.428-11.285l-15.218 6.3848z"/>
 </g>
 <path d="m229.46 162.27s-29.064 14.532-42.477 19.003c-13.415 4.4713-87.192-1.1178-87.192-1.1178l38.007 12.296-10.06 22.357s55.73 0.54419 76.013-2.2356c29.921-4.1013 39.124-27.946 80.484-29.064 24.811-0.67064 38.008 2.2356 38.008 2.2356s-33.535-26.828-92.781-23.475z" fill-rule="evenodd" filter="url(#aj)" stroke-width=".2"/>
 <path d="m200.24 31.807s-17.426-9.957-24.064-9.957c-6.6374 0-30.7 9.1274-33.19 21.573-2.4895 12.446-5.8092 38.169 5.8092 53.104 11.616 14.936 29.04 30.701 29.04 30.701s-26.298-50.069-14.934-73.018c12.459-25.161 38.167-22.403 37.339-22.403z" fill="url(#at)" fill-rule="evenodd" filter="url(#ao)"/>
 <path d="m212.03 0.17844c-29.761 2.0892-61.203 23.057-71.663 41.021-13.948 23.953 8.0184 67.132 40.304 92.088 44.245 34.2 110.44 35.473 110.44 35.473 0-1.0316 43.236 11.951 25.7-38.599-25.178-72.577-42.191-108.02-76.112-125.04-8.6859-4.3589-18.744-5.6387-28.665-4.9423zm-41.615 28.341c30.182-9.4105 49.033 31.589 62.373 48.265 16.42 20.524 57.826 81.054 57.826 81.054l8.4012 10.873s-4.5754 0.072754-50.412-10.873c-45.835-10.946-78.797-41.999-80.165-44.736-27.31-32.413-35.347-72.428 1.9769-84.583z" fill="#1f1d6c" fill-rule="evenodd" stroke-width=".2"/>
 <path d="m233.49 158.64s-29.064 14.532-42.479 19.003c-13.413 4.4713-87.19-1.1178-87.19-1.1178l38.006 12.296-10.06 22.357s55.73 0.54422 76.012-2.2357c29.923-4.1013 39.124-27.946 80.485-29.064 24.811-0.67056 38.006 2.2357 38.006 2.2357s-33.535-26.828-92.78-23.475z" fill="#1f1d6c" fill-rule="evenodd" opacity=".75" stroke-width=".2"/>
 <path d="m379.3 156.31s-48.487-22.696-59.835-22.696c-11.347 0-29.916 21.664-24.759 35.075 5.1586 13.411 45.392 22.696 57.77 22.696 11.024-2.8274 21.047-6.3227 31.98-11.348 0-7.2211-5.1566-23.727-5.1566-23.727z" fill-rule="evenodd" filter="url(#al)" stroke-width=".2"/>
 <path d="m252.6 87.045l43.99 69.284 21.995-16.496s-21.995-49.488-34.092-71.483c-12.098-21.995-20.896-31.893-20.896-31.893s18.697 46.189 14.297 54.987c-4.3979 8.798-23.095-4.3991-25.294-4.3991z" fill="#1f1d6c" fill-rule="evenodd" filter="url(#am)"/>
 <path d="m377.81 155.08c-4.8854-4.128-49.561-24.038-60.908-24.038-11.348 0-29.916 21.664-24.759 35.075 5.159 13.411 45.392 22.696 57.771 22.696 11.023-2.8273 21.047-6.3228 31.98-11.348 0-7.2213 2.1477-15.291-4.0836-22.386z" fill="#1f1d6c" fill-rule="evenodd" stroke-width=".2"/>
 <path d="m359.25 188.38s35.533 13.026 57.424 16.446c21.892 3.4206 66.401 10.918 77.347 6.8136 10.946-4.1046 70.464-16.419 78.674-29.417 8.2098-12.998-43.783-15.051-43.783-15.051s-29.418 18.471-49.942 19.839c-20.522 1.3683-80.725-12.998-80.725-12.998l-38.311 10.262-0.68323 4.1047z" fill="url(#ay)" fill-rule="evenodd" stroke-width=".2"/>
 <path d="m311.46 133.91s5.4993-2.5776 10.198-1.0734c6.7069 2.1468 12.087 2.9557 26.567 9.1242 15.615 6.6516 26.154 11.883 27.227 12.688 8.8189 7.5766 2.8158 15.601 3.0966 24.346-5.367 2.6838-22.005 8.0508-24.42 8.5875-11.173-10.313 1.3031-27.789 16.635-29.101-2.0281-3.393-19.068-11.612-23.102-13.49-13.098-5.209-27.613-10.276-27.613-10.276s-13.408-1.6606-19.323 9.6612c1.3427-5.6357 11.272-11.003 10.735-10.466z" fill="url(#au)" fill-rule="evenodd" filter="url(#an)"/>
 <g fill="#1f1d6c" fill-rule="evenodd" opacity=".75" stroke-width=".2">
  <path d="m365.4 183.59l33.523-8.2094s54.728-46.52 60.885-49.256c31.533-25.993 70.885-35.591 103.3-23.944 0 0-3.421-41.731-14.367-47.204-10.945-5.473-41.046-9.5777-41.046-9.5777s-40.716 27.303-45.503 32.092c-4.7898 4.7891-74.434 73.248-74.434 73.248l-21.782 25.608-4.3564 8.9379 3.7801-1.6931z"/>
  <path d="m535.26 32.304c-53.36 3.4205-158.02 127.41-164.18 134.25-6.1566 6.8413-15.467 21.592-14.784 20.908 0 0 66.64 29.643 124.11 26.222 57.466-3.4205 129.37-38.122 136.88-87.613 8.6317-56.888-28.654-97.191-82.016-93.77zm-36.347 23.603c18.028-3.289 56.611-3.5718 49.693 53.991-4.284 35.639-29.862 92.156-82.539 94.893-52.676 2.7364-104.16-20.046-103.48-20.73 0 2.44e-4 83.746-88.724 87.169-91.46 3.4191-2.7366 28.526-31.667 49.152-36.693z"/>
 </g>
 <path d="m139.22 49.768c-2.336-12.823 23.201-31.72 44.773-40.017 21.573-8.2975 48.492-5.6349 48.492-5.6349s-23.643 10.613-33.428 17.772c-19.715-2.004-37.795 6.446-37.795 6.446s-11.374 4.3866-22.042 21.435z" fill="url(#av)" fill-rule="evenodd" filter="url(#af)" opacity=".558"/>
 <path d="m486.97 56.864c16.859-14.596 25.414-20.852 52.493-22.549 23.07-1.4455 55.473 23.57 55.473 23.57s-24.765 16.635-35.9 21.428c-7.2418-16.815-34.225-27.598-34.225-27.598s-15.76-5.9367-37.84 5.1494z" fill="url(#aw)" fill-rule="evenodd" filter="url(#af)" opacity=".558"/>
 <path d="m551.28 66.275s11.288 27.788 5.2107 51.235c-6.0795 23.446-16.501 37.341-16.501 37.341s32.131 6.0787 47.763-0.86853c15.63-6.9468 24.314-19.973 24.314-19.973s6.9462-39.077-2.6063-57.313c-9.5507-18.236-20.839-22.578-20.839-22.578s-23.447 0-37.342 12.157z" fill="url(#ax)" fill-rule="evenodd" filter="url(#ap)"/>
</svg>
