<?xml version="1.0" encoding="UTF-8"?>
<!DOCTYPE svg  PUBLIC '-//W3C//DTD SVG 1.1//EN'  'http://www.w3.org/Graphics/SVG/1.1/DTD/svg11.dtd'>
<svg enable-background="new 0 0 46.5 37.35" version="1.1" viewBox="0 0 46.5 37.35" xml:space="preserve" xmlns="http://www.w3.org/2000/svg">
<g clip-rule="evenodd" fill-rule="evenodd">
	<path d="m12.4 19.35c8.167-2.333 12.534-3.5 13.1-3.5 0.5 0 4.1 1.533 10.8 4.6 6.566 3 9.934 4.583 10.101 4.75 0.233 0.2 0.017 0.767-0.65 1.7-0.767 0.966-1.2 1.517-1.3 1.649-0.2 0.3-8.733 3.434-25.6 9.4-0.533 0.1-6.067-3.467-16.6-10.7-0.4-0.566-0.8-1.15-1.2-1.75-0.768-1.266-1.117-2.065-1.051-2.399 0.067-0.166 4.2-1.416 12.4-3.75z" fill="#4B4330"/>
	<path d="m44.45 28.55l-25.4 9.101-0.3-2.95 27.65-9.5c-0.134 0.967-0.434 1.649-0.9 2.05-0.3 0.267-0.566 0.566-0.8 0.9l-0.25 0.399z" fill="#060C00"/>
	<path d="m0.45 23l18.5 11.4-0.1 3.55-16.6-10.7-2.05-2.9c-0.133-0.199-0.133-0.483 0-0.85l0.25-0.5z" fill="#1D191A"/>
	<polygon points="1.45 23.1 25.6 16.4 25.95 19.85 5.45 25.9" fill="#362F22"/>
	<polygon points="25.7 19.65 25.6 16.75 44.9 25 41.1 26.45" fill="#262118"/>
	<path d="m25.95 17.9c0.399 0 1.267-0.133 2.6-0.4 1.167-0.1 1.733 0.333 1.7 1.3l0.15 0.3c0.333-0.266 0.666-0.433 1-0.5 0.433-0.067 0.699 0.1 0.8 0.5 0.233-0.1 0.517-0.133 0.85-0.1 0.334 0.066 0.601 0.2 0.8 0.4 0.567 0.633 0.851 1.116 0.851 1.449 0 0.267 0.116 0.551 0.35 0.851 0.2 0.267 0.233 0.616 0.101 1.05-0.067 0.267-0.034 0.616 0.1 1.05 0.1 0.367 0.1 0.566 0 0.601-0.267 0.066-0.816 0.3-1.65 0.699-0.866 0.434-1.416 0.717-1.649 0.851-0.3 0.233-0.733 0.333-1.3 0.3s-0.95 0.033-1.15 0.2c-0.267 0.166-0.783 0.267-1.55 0.3-1.033 0.066-1.601 0.1-1.7 0.1-0.934 0.101-1.517 0.233-1.75 0.4-0.167 0.1-0.35 0.283-0.55 0.55-0.267 0.3-0.467 0.5-0.601 0.601-1.033 0.8-2.1 0.916-3.2 0.35-1.767-0.833-2.767-1.267-3-1.3-0.8-0.101-1.25-0.167-1.35-0.2-0.4-0.1-0.767-0.333-1.1-0.7l-0.452-0.552c-0.167-0.2-0.35-0.35-0.55-0.45-0.534-0.033-0.934-0.116-1.2-0.25-0.867-0.399-1.183-1.05-0.95-1.95 0.167-0.8 0.634-1.466 1.4-2 0.367-0.267 0.767-0.433 1.2-0.5 0.267-0.033 0.717-0.1 1.35-0.199 0.434-0.134 0.767-0.367 1-0.7 0.1-0.2 0.283-0.517 0.55-0.95 0.233-0.267 0.784-0.75 1.65-1.45 0.3-0.3 0.633-0.5 1-0.6 0.2-0.067 0.583-0.133 1.15-0.2 0.7-0.067 1.5 0.067 2.4 0.4 0.267 0.1 0.717 0.25 1.35 0.45 0.567 0.199 1.016 0.299 1.35 0.299z" fill="#D9B456"/>
	<path d="m24.25 17.9l-0.85-0.2c0.166 0.2 0.166 0.4 0 0.6-0.134 0.2-0.367 0.267-0.7 0.2-0.367-0.1-0.633-0.167-0.8-0.2-1.566-0.133-2.867 0.45-3.9 1.75 0.233-0.967 1.117-1.783 2.65-2.45 1.633-0.667 2.833-0.567 3.6 0.3z" fill="#FFD465"/>
	<path d="m32.6 19.6h-0.475c0.324 0.026 0.499 0.143 0.525 0.351 0.033 0.267-0.2 0.416-0.7 0.45-0.233 0.033-0.566-0.034-1-0.2-0.367-0.167-0.667-0.217-0.9-0.15-0.133 0.033-0.283 0.15-0.45 0.351-0.199 0.199-0.35 0.3-0.449 0.3-0.233 0.033-0.384 0-0.45-0.101-0.134-0.1-0.25-0.166-0.351-0.199-0.267-0.067-0.517-0.184-0.75-0.351-0.366-0.233-0.583-0.366-0.649-0.399-0.5-0.233-0.9-0.301-1.2-0.2-0.134 0.033-0.483 0.217-1.05 0.55-0.334 0.167-0.783 0.3-1.351 0.4-0.6 0.133-1.066 0.267-1.399 0.399l-1.35 0.75c-0.267-0.033-0.417-0.149-0.45-0.35-0.033-0.167 0.05-0.334 0.25-0.5 0.1-0.101 0.3-0.15 0.6-0.15 0.167-0.033 0.383-0.05 0.65-0.05 0.1-0.033 0.534-0.217 1.3-0.55 0.533-0.2 1.383-0.601 2.55-1.2 1.066-0.4 1.983-0.45 2.75-0.15 0.233 0.1 0.55 0.333 0.95 0.7 0.3 0.267 0.616 0.4 0.95 0.4 0.066 0 0.483-0.117 1.25-0.351 0.499-0.133 0.899-0.05 1.199 0.25z" fill="#FFD465"/>
	<path d="m18.15 20.9v0.024c-0.104 0.484-0.37 0.759-0.8 0.825-0.233 0.033-0.7 0-1.4-0.1-0.833-0.167-1.367-0.167-1.6 0-0.033 0-0.4 0.383-1.1 1.149-0.533-0.267-0.566-0.633-0.1-1.1 0.4-0.434 0.85-0.717 1.35-0.851 0.533-0.166 1.167-0.25 1.9-0.25 0.484 0 0.917 0.051 1.3 0.15 0.159 0.044 0.309 0.095 0.45 0.153z" fill="#FFD465"/>
	<path d="m21.6 22.25l-0.35-0.3c0.067 0 0.283 0.033 0.65 0.1 0.034 0.434-0.233 0.733-0.8 0.9-0.4 0.1-0.867 0.1-1.4 0-0.567-0.167-1.017-0.267-1.35-0.3-0.667-0.067-0.85 0.166-0.55 0.699 0.1 0.2 0.85 0.384 2.25 0.551 0.467 0.1 0.85 0.267 1.15 0.5 0.433 0.3 0.3 0.55-0.4 0.75-0.233 0.1-0.616-0.034-1.15-0.4-0.633-0.467-1.017-0.717-1.15-0.75-0.667-0.1-1.133-0.184-1.4-0.25-0.434-0.134-0.533-0.434-0.3-0.9 0.3-0.5 1.05-0.767 2.25-0.8 0.967-0.067 1.817 0 2.55 0.2z" fill="#FFD465"/>
	<path d="m29.6 21.35c-0.4 0.867-1.05 1.084-1.95 0.65-1-0.5-1.667-0.55-2-0.15-0.2 0.233-0.184 0.5 0.05 0.801 0.233 0.333 0.316 0.616 0.25 0.85-0.167 0.434-0.566 0.7-1.2 0.8-0.566 0.066-1.1 0-1.6-0.2 0.1-0.066 0.483-0.149 1.149-0.25 0.533-0.1 0.816-0.35 0.851-0.75 0.033-0.199-0.15-0.533-0.551-1-0.267-0.333-0.199-0.683 0.2-1.05 0.367-0.3 0.75-0.399 1.15-0.3 0.233 0.066 0.633 0.2 1.2 0.4 0.666 0.115 1.484 0.181 2.451 0.199z" fill="#FFD465"/>
	<path d="m23.3 18.85c-0.466 0.066-0.85 0.133-1.15 0.2-0.3 0.066-0.7 0.351-1.2 0.851-0.5 0.433-0.867 0.649-1.1 0.649 0.1-0.899 0.7-1.667 1.8-2.3 1.053-0.631 1.927-0.657 2.625-0.075l0.025 0.025c-0.02 0.024-0.036 0.049-0.05 0.075-0.291 0.321-0.607 0.513-0.95 0.575z" fill="#91793A"/>
	<g fill="#91793A">
		<path d="m32.55 20.9c-0.166 0.133-0.366 0.449-0.6 0.949-0.267 0.467-0.5 0.801-0.7 1 0.033-0.466 0.066-0.85 0.1-1.149 0.067-0.566 0.217-0.884 0.45-0.95 0.167-0.033 0.417 0.017 0.75 0.15z"/>
		<path d="m29.8 23.45c0.634 0 1.117-0.2 1.45-0.601-0.033 0.434-0.1 1.017-0.2 1.75-0.066 0.634-0.184 1.184-0.35 1.65-0.634 0-1.033 0.066-1.2 0.2-0.267 0.166-0.783 0.267-1.55 0.3-1.033 0.066-1.601 0.1-1.7 0.1-0.934 0.101-1.517 0.233-1.75 0.4-0.167 0.1-0.35 0.283-0.55 0.55-0.267 0.3-0.467 0.5-0.601 0.601-1.033 0.8-2.1 0.916-3.2 0.35-1.767-0.833-2.767-1.267-3-1.3-0.8-0.101-1.25-0.167-1.35-0.2-0.4-0.1-0.767-0.333-1.1-0.7l-0.449-0.55c-0.167-0.2-0.35-0.35-0.55-0.45-0.534-0.033-0.934-0.116-1.2-0.25-0.7-0.3-1.05-0.816-1.05-1.55 0.4-0.267 0.767-0.35 1.1-0.25 0.2 0.066 0.55 0.25 1.05 0.55 0.367 0.167 0.833 0.233 1.4 0.2 0.767 0 1.25 0.017 1.45 0.05 0.533 0.066 0.966 0.233 1.3 0.5 0.233 0.2 0.517 0.533 0.85 1 0.566 0.767 1.133 1.283 1.7 1.55 0.8 0.4 1.467 0.184 2-0.649 0.2-0.267 0.367-0.566 0.5-0.9 0.167-0.166 0.55-0.233 1.15-0.2 0.3 0.034 0.75 0.084 1.35 0.15 0.566 0.066 1.033 0.017 1.4-0.15 0.366-0.133 0.583-0.366 0.649-0.699 0.101-0.5 0.217-0.867 0.351-1.101 0.3-0.5 0.616-0.717 0.95-0.649 0.2 0.032 0.583 0.131 1.15 0.298z"/>
		<path d="m34.7 20.65v0.199c0 0.233 0.05 0.434 0.149 0.601 0.067 0.1 0.167 0.233 0.301 0.399l-0.551 0.2c-0.3 0.033-0.649-0.1-1.05-0.399-0.434-0.367-0.767-0.617-1-0.75 0.334-0.267 0.8-0.317 1.4-0.15l0.1-0.3 0.651 0.2z"/>
	</g>
	<path d="m22.75 24.8c0.2 0.434 0 0.617-0.6 0.55 0.034-0.4-0.15-0.784-0.55-1.15-0.367-0.4-0.767-0.634-1.2-0.7 0-0.233 0.434-0.45 1.3-0.65 0.864-0.179 1.405-0.412 1.625-0.699 0.16 0.055 0.285 0.171 0.375 0.35-0.101 0.167-0.4 0.366-0.9 0.6-0.4 0.2-0.583 0.45-0.55 0.75 0 0.099 0.167 0.416 0.5 0.949z" fill="#91793A"/>
	<path d="m18.05 21.15l0.1-0.301c0-0.233 0.083-0.416 0.25-0.55l0.85 0.5c0.1 0.5 0.017 0.8-0.25 0.9-0.433 0.066-0.783 0.149-1.05 0.25-0.133 0.068-0.45 0.284-0.95 0.651-0.367 0.233-0.75 0.334-1.15 0.301-0.033-0.467 0.3-0.817 1-1.051 0.8-0.333 1.267-0.6 1.4-0.8-0.033-0.067-0.1-0.033-0.2 0.1z" fill="#91793A"/>
	<path d="m34.15 24.55c-1.034 0.167-1.667 0.316-1.9 0.45l-0.6 0.9c-0.267 0.433-0.584 0.583-0.95 0.449-0.367-0.166-0.334-0.416 0.1-0.75 0.5-0.433 0.733-0.699 0.7-0.8-0.033-0.2-0.283-0.333-0.75-0.399-0.366-0.101-0.483-0.351-0.35-0.75 0.166-0.634 0.833-0.75 2-0.351 0.923 0.28 1.456 0.172 1.6-0.325 0.124 0.045 0.424 0.119 0.9 0.226 0.433 0.1 0.666 0.3 0.699 0.6 0.034 0.334-0.116 0.533-0.449 0.601-0.433 0.066-0.766 0.116-1 0.149z" fill="#91793A"/>
		<path d="m11.15 18.9c0.9-0.733 3.017-0.933 6.35-0.6-1.066 0.434-2.117 0.983-3.15 1.65-2.067 1.366-3.05 2.684-2.95 3.95 0.067 1.1 0.867 1.733 2.4 1.899 1.4 0.134 2.034 0.483 1.9 1.05-0.267 1.233-1.45 1.95-3.55 2.15-2.267 0.2-4-0.717-5.2-2.75-1.133-1.866-0.767-3.65 1.1-5.35 0.933-0.866 1.967-1.533 3.1-1.999z" fill="#F9BE70"/>
		<path d="m10.3 19.55c1.134-0.6 2.233-1.05 3.3-1.35 1.7-0.434 3.55-0.434 5.55 0-2.133 0.6-3.716 1.166-4.75 1.7-0.633 0.3-1.316 0.833-2.05 1.6l-0.85 1.05c-0.233-0.8-0.533-1.333-0.9-1.6-0.233-0.167-0.583-0.3-1.05-0.4l-0.6-0.15 1.35-0.85z" fill="#D9742E"/>
		<path d="m7.4 27.05c-0.1-0.1-0.183-0.217-0.25-0.35-0.167-0.267-0.233-0.417-0.2-0.45 0.066-0.066-0.167-0.517-0.7-1.35l0.7-0.7c0.566-0.533 1.083-0.934 1.55-1.2 0.733-0.366 1.65-0.366 2.75 0l0.15 1.8c-0.9-0.2-1.683-0.1-2.35 0.3-0.4 0.267-0.8 0.667-1.2 1.2l-0.45 0.75z" fill="#D9742E"/>
		<path d="m12.05 25.5l1.55 0.35-0.65 1.2c-0.1 0.267-0.117 0.584-0.05 0.95 0.034 0.2 0.083 0.366 0.15 0.5-0.667 0.333-1.183 0.533-1.55 0.6-0.233 0.034-0.517-0.033-0.85-0.199l-0.4-0.301c0.1-0.899 0.217-1.55 0.35-1.949 0.1-0.233 0.367-0.5 0.8-0.801 0.233-0.133 0.45-0.25 0.65-0.35z" fill="#D9742E"/>
		<path d="m9.4 21.85c-0.633 0.034-1.25 0.184-1.85 0.45l-0.7 0.351 0.35-0.651c0.233-0.467 0.45-0.783 0.65-0.95 0.267-0.267 0.85-0.684 1.75-1.25l1.65 0.101c0.767 0 1.333 0.283 1.7 0.85l-1.45 1.8c-0.367-0.534-1.066-0.768-2.1-0.701z" fill="#E15E18"/>
		<path d="m10.4 25.3v-0.1c0.333 0.1 0.45 0.316 0.35 0.649-0.1 0.301-0.3 0.534-0.6 0.7-0.433-0.3-0.65-0.583-0.65-0.85s0.3-0.399 0.9-0.399z" fill="#FFE0B7"/>
		<path d="m14.025 26.2c0.144 0.104 0.369 0.255 0.675 0.45 0.267 0.233 0.167 0.449-0.3 0.649-0.4 0.167-0.633 0.05-0.7-0.35-0.058-0.35 0.05-0.6 0.325-0.749z" fill="#FFE0B7"/>
		<path d="m9.95 22.25l-0.35-0.1c0.467-0.034 0.9 0 1.3 0.1 0 0.233-0.167 0.434-0.5 0.6-0.333 0.134-0.633 0.134-0.9 0-0.3-0.133-0.383-0.283-0.25-0.449 0.167-0.168 0.4-0.217 0.7-0.151z" fill="#FFE0B7"/>
		<path d="m10.875 19.7c0.287-0.201 0.612-0.435 0.975-0.7 0.8-0.533 1.533-0.867 2.2-1 0.733-0.1 1.467-0.15 2.2-0.15 1.033 0.033 1.667 0.217 1.9 0.55 0.034 0-0.017 0.067-0.15 0.2-0.6-0.4-1.483-0.45-2.65-0.15-1.267 0.433-2.15 0.684-2.65 0.75-0.72 0.131-1.328 0.297-1.825 0.5zm-0.95 0.55c-0.585 0.449-0.994 1.05-1.225 1.8-0.367-0.066-0.75-0.066-1.15 0-0.184 0.037-0.334 0.087-0.45 0.15l0.15-0.25-0.2 0.2c0-0.534 0.333-0.983 1-1.351 0.367-0.233 0.95-0.499 1.75-0.799 0.054 0.106 0.095 0.19 0.125 0.25 0.085-0.07 0.177-0.138 0.275-0.2 0.196-0.127 0.421-0.243 0.675-0.35-0.384 0.278-0.693 0.495-0.925 0.649l-0.025-0.099z" fill="#A84612"/>
		<path d="m7.5 24c-0.033 0.333 0.017 0.833 0.15 1.5 0.1 0.566 0.083 1.05-0.05 1.45-0.434-0.2-0.733-0.667-0.9-1.4-0.2-0.767-0.15-1.316 0.15-1.649l0.65 0.099z" fill="#A84612"/>
		<path d="m10.45 27.3c0.534 0.157 1.101 0.107 1.7-0.149 0.3 0.133 0.467 0.399 0.5 0.8 0.034 0.233 0.05 0.583 0.05 1.05-0.967 0.134-1.517 0.167-1.65 0.1-0.167-0.133-0.233-0.35-0.2-0.649v-0.7l-0.4-0.452z" fill="#A84612"/>
		<path d="m21.15 20c-1.033 0.434-2.066 0.983-3.1 1.65-2.066 1.366-3.066 2.683-3 3.949 0.067 1.101 0.867 1.717 2.4 1.851 1.433 0.133 2.083 0.483 1.95 1.05-0.267 1.233-1.45 1.95-3.55 2.15-2.3 0.233-4.05-0.667-5.25-2.7-1.1-1.9-0.717-3.7 1.15-5.4 0.934-0.866 1.967-1.533 3.1-2 0.867-0.7 2.967-0.883 6.3-0.55z" fill="#F9BE70"/>
		<path d="m12.6 22.05l1.35-0.85c1.133-0.601 2.233-1.033 3.3-1.3 1.7-0.467 3.55-0.467 5.55 0-2.133 0.566-3.716 1.116-4.75 1.649-0.633 0.334-1.316 0.884-2.05 1.65l-0.85 1c-0.2-0.8-0.5-1.316-0.9-1.55-0.233-0.167-0.583-0.317-1.05-0.45l-0.6-0.149z" fill="#D9742E"/>
		<path d="m12.15 24.7c0.733-0.4 1.667-0.4 2.8 0l0.1 1.75c-0.9-0.2-1.683-0.101-2.35 0.3-0.4 0.267-0.8 0.667-1.2 1.2l-0.45 0.75c-0.1-0.101-0.183-0.217-0.25-0.351-0.167-0.233-0.233-0.366-0.2-0.399 0.066-0.066-0.15-0.533-0.65-1.4l0.7-0.7c0.534-0.5 1.034-0.883 1.5-1.15z" fill="#D9742E"/>
		<path d="m14.25 28.35c0.1-0.233 0.367-0.5 0.8-0.8 0.233-0.166 0.45-0.3 0.65-0.399l1.55 0.399-0.65 1.15c-0.133 0.399-0.1 0.899 0.1 1.5-0.667 0.333-1.184 0.533-1.55 0.6-0.233 0.033-0.5-0.033-0.8-0.2l-0.4-0.3c0.067-0.934 0.167-1.583 0.3-1.95z" fill="#D9742E"/>
		<path d="m16.6 22.45l-1.45 1.75c-0.367-0.533-1.066-0.767-2.1-0.7-0.633 0.033-1.25 0.184-1.85 0.45l-0.7 0.35 0.35-0.649c0.233-0.467 0.45-0.767 0.65-0.9 0.3-0.267 0.883-0.7 1.75-1.3l1.7 0.1c0.734-1e-3 1.283 0.299 1.65 0.899z" fill="#E15E18"/>
		<path d="m14.05 26.95v-0.1c0.333 0.101 0.45 0.317 0.35 0.65-0.1 0.3-0.3 0.55-0.6 0.75-0.433-0.333-0.65-0.616-0.65-0.85 0-0.266 0.3-0.417 0.9-0.45z" fill="#FFE0B7"/>
		<path d="m17.7 27.9c0.371 0.237 0.588 0.388 0.65 0.449 0.267 0.233 0.167 0.45-0.3 0.65-0.4 0.167-0.616 0.05-0.65-0.35-0.059-0.35 0.041-0.6 0.3-0.749z" fill="#FFE0B7"/>
		<path d="m13.6 23.9l-0.35-0.1c0.434-0.033 0.883 0 1.35 0.101-0.033 0.267-0.217 0.466-0.55 0.6s-0.633 0.134-0.9 0c-0.3-0.134-0.367-0.283-0.2-0.45 0.133-0.167 0.35-0.218 0.65-0.151z" fill="#FFE0B7"/>
		<path d="m13.45 21.65l0.125 0.274c-0.583 0.425-0.992 1.017-1.225 1.775-0.367-0.066-0.75-0.066-1.15 0-0.159 0.031-0.292 0.073-0.4 0.125l0.15-0.226-0.2 0.2c0-0.533 0.333-0.983 1-1.35 0.367-0.231 0.934-0.498 1.7-0.798zm4.25-1.95c0.667-0.134 1.4-0.184 2.2-0.15 1.034 0 1.684 0.184 1.95 0.55l-0.15 0.15c-0.6-0.366-1.483-0.4-2.65-0.1-1.267 0.433-2.15 0.683-2.65 0.75-0.719 0.127-1.327 0.285-1.825 0.475 0.287-0.204 0.612-0.446 0.975-0.725 0.767-0.534 1.483-0.85 2.15-0.95z" fill="#A84612"/>
		<path d="m11.15 25.7c-0.033 0.333 0.017 0.816 0.15 1.45 0.1 0.566 0.083 1.05-0.05 1.449-0.4-0.166-0.7-0.633-0.9-1.399-0.2-0.733-0.15-1.267 0.15-1.601l0.65 0.101z" fill="#A84612"/>
		<path d="m13.85 28.9c-0.033-0.067-0.033-0.101 0-0.101 0.066-0.033 0.1-0.066 0.1-0.1l0.225 0.274c0.529 0.111 1.071 0.069 1.625-0.125 0.3 0.134 0.467 0.4 0.5 0.801 0.034 0.233 0.05 0.566 0.05 1-0.967 0.133-1.5 0.166-1.6 0.1-0.167-0.1-0.25-0.316-0.25-0.65v-0.699l-0.325-0.426c-0.11-0.015-0.218-0.04-0.325-0.074z" fill="#A84612"/>
		<path d="m18.4 23.2c0.333-0.601 1.367-1.217 3.1-1.851 0.867-0.333 1.7-0.6 2.5-0.8-0.8 0.733-1.533 1.584-2.2 2.55-1.333 1.967-1.683 3.517-1.05 4.65 0.567 1 1.583 1.316 3.05 0.95 1.367-0.367 2.117-0.25 2.25 0.35 0.267 1.2-0.517 2.25-2.35 3.15-2.034 0.967-4.034 0.717-6-0.75-1.867-1.367-2.3-3.15-1.3-5.351l2-2.898z" fill="#F9BE70"/>
		<path d="m25.5 19.9c-1.733 1.267-2.967 2.316-3.7 3.149-0.466 0.533-0.85 1.25-1.15 2.15-0.167 0.467-0.283 0.883-0.35 1.25-0.566-0.634-1.066-1.017-1.5-1.15-0.3-0.066-0.683-0.083-1.15-0.05l-0.65 0.051 0.9-1.2c0.767-0.933 1.583-1.716 2.45-2.35 1.4-1 3.117-1.616 5.15-1.85z" fill="#D9742E"/>
		<path d="m18.45 32c-0.133-0.066-0.267-0.15-0.4-0.25-0.267-0.167-0.383-0.267-0.35-0.3 0.033-0.101-0.383-0.45-1.25-1.05 0.1-0.267 0.216-0.567 0.35-0.9 0.3-0.667 0.6-1.2 0.9-1.6 0.533-0.601 1.4-0.9 2.6-0.9l0.85 1.6c-0.9 0.101-1.583 0.45-2.05 1.051-0.267 0.366-0.45 0.866-0.55 1.5-0.067 0.332-0.1 0.616-0.1 0.849z" fill="#D9742E"/>
		<path d="m22.05 29l1.601-0.15-0.101 1.3c0.033 0.399 0.283 0.833 0.75 1.3-0.467 0.533-0.866 0.899-1.2 1.1-0.2 0.101-0.483 0.117-0.85 0.05l-0.5-0.1c-0.3-0.866-0.467-1.517-0.5-1.95-0.033-0.233 0.1-0.566 0.4-1 0.133-0.2 0.267-0.383 0.4-0.55z" fill="#D9742E"/>
		<path d="m20.85 24.35l-0.55 2.1c-0.566-0.367-1.316-0.334-2.25 0.1-0.566 0.267-1.083 0.601-1.55 1l-0.5 0.55c0-0.199 0.017-0.433 0.05-0.699 0.034-0.5 0.1-0.867 0.2-1.101l1.1-1.75 1.6-0.45c0.667-0.267 1.3-0.183 1.9 0.25z" fill="#E15E18"/>
		<path d="m20.45 29.35l-0.05-0.05c0.367-0.033 0.567 0.117 0.6 0.45 0.033 0.3-0.033 0.6-0.2 0.9-0.566-0.134-0.9-0.317-1-0.551-0.133-0.266 0.083-0.516 0.65-0.749z" fill="#FFE0B7"/>
		<path d="m24.2 29.025c0.174 0.032 0.457 0.091 0.85 0.175 0.334 0.133 0.316 0.366-0.05 0.7-0.3 0.3-0.55 0.267-0.75-0.101-0.195-0.307-0.212-0.565-0.05-0.774z" fill="#FFE0B7"/>
		<path d="m18.7 26.7h-0.35c0.533-0.2 0.967-0.3 1.3-0.3 0.1 0.233 0.017 0.466-0.25 0.699s-0.55 0.334-0.85 0.301c-0.333-0.034-0.466-0.15-0.4-0.351 0.067-0.165 0.25-0.282 0.55-0.349z" fill="#FFE0B7"/>
		<path d="m17.85 24.85c-0.355 0.608-0.488 1.309-0.4 2.101-0.333 0.033-0.684 0.149-1.05 0.35-0.141 0.087-0.25 0.171-0.325 0.25l0.025-0.2-0.1 0.2c-0.233-0.5-0.133-1.033 0.3-1.6 0.267-0.3 0.717-0.733 1.35-1.3l0.2 0.199zm6.85-4.45l-0.1 0.2c-0.699-0.133-1.533 0.134-2.5 0.801-0.967 0.833-1.667 1.366-2.1 1.6-0.617 0.353-1.117 0.703-1.5 1.05-0.233 0.391-0.417 0.69-0.55 0.9l-0.1-0.101c0.044-0.087 0.094-0.17 0.15-0.25 0.135-0.181 0.302-0.363 0.5-0.55 0.172-0.281 0.372-0.615 0.6-1 0.5-0.767 1.033-1.316 1.6-1.649 0.633-0.367 1.283-0.65 1.95-0.851 0.966-0.333 1.65-0.383 2.05-0.15z" fill="#A84612"/>
		<path d="m17.2 29.15c0.1 0.3 0.367 0.75 0.8 1.35 0.333 0.467 0.517 0.917 0.55 1.35-0.466-0.066-0.95-0.399-1.45-1-0.5-0.6-0.684-1.116-0.55-1.55l0.65-0.15z" fill="#A84612"/>
		<path d="m21.425 31.225c-0.107 0.017-0.216 0.025-0.325 0.025-0.067-0.066-0.083-0.116-0.05-0.15 0.034 0 0.05-0.017 0.05-0.05l0.325 0.175c0.532-0.064 1.007-0.307 1.425-0.725 0.333 0.033 0.617 0.233 0.85 0.6l0.5 0.9c-0.867 0.467-1.367 0.684-1.5 0.65-0.2-0.034-0.35-0.2-0.45-0.5-0.167-0.367-0.283-0.584-0.35-0.65l-0.475-0.275z" fill="#A84612"/>
	<path d="m32.1 18.5c2.034 2.1 3.417 3.45 4.15 4.05 0.1 0.101 1.1 0.783 3 2.05 1 0.667 1.384 1.167 1.15 1.5-0.4 0.567-1.15 0.534-2.25-0.1 0.633 0.833 0.716 1.384 0.25 1.65-0.301 0.199-0.717 0.1-1.25-0.301l-0.75-0.6-1.45 0.95c-2.967-3-5-4.917-6.101-5.75-0.699-0.533-1.933-1.634-3.699-3.3l-2.45-2.349 2.5 0.95-2.5-3 3.899 2.7-1.399-2.6 6.3 6.4-2.2-5.25 2.8 3z" fill="#3B5200"/>
	<path d="m40.4 26.1c-0.4 0.567-1.15 0.534-2.25-0.1 0.833 0.9 1 1.483 0.5 1.75-0.301 0.2-0.767 0.167-1.4-0.1l-0.9-0.45c-0.399 0.333-0.866 0.5-1.399 0.5-0.267 0-0.584-0.217-0.95-0.65-0.566-0.8-1-1.333-1.3-1.6l0.6-0.2c0.101-0.033 0.316-0.05 0.65-0.05 0.267-0.033 0.45-0.084 0.55-0.15 0.167-0.066 0.3-0.267 0.4-0.6 0.1-0.066 0.716-0.134 1.85-0.2 0.8-0.033 1.066-0.283 0.8-0.75 1.4 0.934 2.134 1.417 2.2 1.45 0.633 0.5 0.849 0.883 0.649 1.15z" fill="#92A661"/>
	<path d="m24.95 17.25l0.55 0.15c0.467 0.2 0.917 0.5 1.35 0.9 0.634 0.534 2.034 1.8 4.2 3.8 2.233 2.034 3.334 3.051 3.3 3.051-0.267 0-0.816-0.45-1.649-1.351-0.3-0.333-1.684-1.517-4.15-3.55l-3.601-3z" fill="#90A701"/>
	<polygon points="23.3 14.8 28.15 18.4 25.9 14.65 33.45 22.25 29.8 19.4 33.95 23.65" fill="#90A701"/>
	<path d="m32 18.8l-1.9-2.55 8 7.8c-2.166-1.267-3.416-2.05-3.75-2.35-0.234-0.2-1.017-1.167-2.35-2.9z" fill="#90A701"/>
	<path d="m38.075 24.225c0.098 0.115 0.256 0.156 0.475 0.125 0.066 0 0.25 0.117 0.55 0.351 0.601 0.434 0.767 0.75 0.5 0.95-0.166 0.166-0.517 0.05-1.05-0.351-0.366-0.366-0.566-0.616-0.6-0.75 0.1-0.1 0.149-0.184 0.149-0.25l-0.024-0.075z" fill="#BDD67D"/>
	<path d="m37.15 25.5l0.6 0.75c0.366 0.467 0.55 0.717 0.55 0.75 0.033 0.533-0.283 0.467-0.95-0.2-0.5-0.399-0.783-0.666-0.85-0.8-0.033-0.366-0.083-0.65-0.15-0.85l-0.15-0.225c0.192 0.153 0.508 0.345 0.95 0.575z" fill="#BDD67D"/>
	<path d="m34.35 25.7l-0.05-0.15 0.55 0.351c0.534 0.533 0.801 0.816 0.801 0.85 0.033 0.3-0.167 0.333-0.601 0.1-0.133-0.1-0.3-0.283-0.5-0.55-0.2-0.301-0.267-0.501-0.2-0.601z" fill="#BDD67D"/>
	<path d="m35.1 24.8c0.055 0.027 0.122 0.061 0.2 0.101 0.3 0.233 0.45 0.483 0.45 0.75-0.134 0-0.3-0.117-0.5-0.351-0.2-0.267-0.25-0.434-0.15-0.5z" fill="#BDD67D"/>
	<path d="m37.45 24.9c0.434 0.566 0.85 0.983 1.25 1.25-0.3-0.101-0.517-0.2-0.65-0.301-0.267-0.267-0.467-0.449-0.6-0.55l-1.55-1.149h0.149c0.066 0.066 0.267 0.017 0.601-0.15 0.133 0.233 0.4 0.533 0.8 0.9z" fill="#3B5200"/>
	<path d="m34.85 24.05c-0.033-0.033 0-0.083 0.101-0.149 0.066-0.068 0.149-0.101 0.249-0.101 0.133 0.367 0.35 0.733 0.649 1.101-0.166 0-0.35-0.101-0.55-0.301-0.267-0.267-0.434-0.416-0.5-0.449l0.051-0.101z" fill="#3B5200"/>
	<path d="m34.5 24.9v-0.55c0.033 0.101 0.217 0.317 0.55 0.65l0.5 0.85c0.033 0.067 0.233 0.334 0.601 0.801 0.267 0.333 0.433 0.616 0.5 0.85l-0.45-0.4c-0.134 0.034-0.267-0.033-0.4-0.199-0.133-0.167-0.233-0.284-0.3-0.351-0.267-0.333-0.483-0.583-0.65-0.75-0.238-0.298-0.396-0.557-0.475-0.774l0.124-0.127z" fill="#3B5200"/>
	<path d="m27.95 20.75l5.05 4.35c0.267 0.267 0.483 0.934 0.65 2l-3.4-3.449c-0.233-0.233-1.184-1.017-2.85-2.351-1.567-1.233-2.334-1.85-2.301-1.85l2.851 1.3z" fill="#3B5200"/>
		<path d="m25.95 22.7c3.066-1.167 5.399-0.584 7 1.75 0.633 0.934 0.816 1.883 0.55 2.85-0.3 1.033-1.134 1.8-2.5 2.3-2.667 1.034-4.65 0.334-5.95-2.1-0.533-0.967-0.733-1.917-0.6-2.85 0.166-0.966 0.666-1.617 1.5-1.95z" fill="#989A13"/>
		<path d="m26.5 23.4c2.434-0.934 4.283-0.483 5.55 1.35s0.75 3.184-1.55 4.05c-2.1 0.834-3.667 0.283-4.7-1.649-1.033-1.901-0.8-3.151 0.7-3.751z" fill="#C6D077"/>
		<polygon points="27.6 23.2 28.65 23.05 28.9 25.8" fill="#FEFFEB"/>
		<polygon points="32.45 25.8 32.45 27.1 28.9 25.8" fill="#FEFFEB"/>
		<path d="m28.8 28.9c-0.434 0.1-0.783 0.1-1.05 0l-0.9-0.551 1.95-2.3v2.851z" fill="#FEFFEB"/>
		<path d="m26.65 26.5l0.1 0.05c0.1 0.033 0.116 0.134 0.05 0.3h-0.35c-0.033-0.166-0.017-0.267 0.05-0.3 0.052-0.026 0.102-0.042 0.15-0.05z" fill="#FEFFEB"/>
		<path d="m30.2 27.55l-0.25-0.1c0.3-0.134 0.5-0.101 0.6 0.1 0.134 0.2 0.117 0.417-0.05 0.65-0.333-0.033-0.533-0.117-0.6-0.25-0.1-0.134 0-0.266 0.3-0.4z" fill="#FEFFEB"/>
		<path d="m27.35 24.65l-0.1-0.2c0.967 0.366 1.083 0.6 0.35 0.7-0.9 0.166-0.984 0-0.25-0.5z" fill="#FEFFEB"/>
		<path d="m29.85 24.2l-0.3 0.149c0.634-0.433 0.917-0.283 0.851 0.45-0.034 0.167-0.167 0.184-0.4 0.05-0.268-0.132-0.317-0.349-0.151-0.649z" fill="#FEFFEB"/>
	<path d="m45.8 24.75l0.6 0.45-26.9 9.6c-0.367 0.033-6.867-3.866-19.5-11.7l0.65-0.2c12.067 7.3 18.3 10.949 18.7 10.949 0.267 0 4.75-1.517 13.45-4.55 4.367-1.499 8.7-3.016 13-4.549z" fill="#9C8B63"/>
</g>
</svg>
