<?xml version="1.0" encoding="UTF-8"?>
<!DOCTYPE svg  PUBLIC '-//W3C//DTD SVG 1.1//EN'  'http://www.w3.org/Graphics/SVG/1.1/DTD/svg11.dtd'>
<svg enable-background="new 0 0 44.95 32.65" version="1.1" viewBox="0 0 44.95 32.65" xml:space="preserve" xmlns="http://www.w3.org/2000/svg" xmlns:xlink="http://www.w3.org/1999/xlink">
<symbol id="ba" viewBox="-0.05 -0.6 0.45 0.622">
		<path d="m0.4-0.25c-0.033-0.233-0.117-0.35-0.25-0.35s-0.2 0.083-0.2 0.25c0.033 0.167 0.117 0.283 0.25 0.35s0.2-0.017 0.2-0.25z" clip-rule="evenodd" fill="#FFE9B3" fill-rule="evenodd"/>
</symbol>
<symbol id="bb" viewBox="-0.014 -0.625 0.91 0.664">
		<path d="m0.65-0.05c0.267-0.2 0.317-0.367 0.15-0.5-0.2-0.1-0.417-0.1-0.65 0-0.2 0.133-0.217 0.283-0.05 0.45 0.2 0.167 0.383 0.183 0.55 0.05z" clip-rule="evenodd" fill="#FFE9B3" fill-rule="evenodd"/>
</symbol>
<symbol id="bc" viewBox="0 -2.464 6.2 2.469">
		<path d="m5.15-0.95c0.667-0.466 1.017-0.867 1.05-1.2 0-0.2-0.117-0.283-0.35-0.25-0.333 0.033-0.55 0.033-0.65 0-0.2-0.1-0.383-0.083-0.55 0.05-0.4 0.3-0.65 0.483-0.75 0.55-0.267 0.133-0.583 0.15-0.95 0.05-0.433-0.2-0.783-0.317-1.05-0.35-0.333-0.1-0.517-0.067-0.55 0.1 0 0.2-0.033 0.367-0.1 0.5-0.067 0.1-0.333 0.1-0.8 0-0.4-0.067-0.534-0.017-0.4 0.15 0.2 0.333 0.534 0.633 1 0.9 0.5 0.333 1.017 0.483 1.55 0.45 0.9-0.067 1.75-0.383 2.55-0.95z" clip-rule="evenodd" fill="#FFE9B3" fill-rule="evenodd"/>
</symbol>
<symbol id="bd" viewBox="0.395 -16.045 20.678 13.596">
		<path d="m11.25-9.75c0.014 0.071 0.014 0.122 0 0.15-0.067 0.033-0.117 0.067-0.15 0.1-0.057 0.113-0.124 0.122-0.2 0.025-0.242 0.117-0.509 0.175-0.8 0.175h-0.125c0.012 0.035 0.021 0.068 0.025 0.1 0.033 0.267-0.083 0.517-0.35 0.75-0.233 0.2-0.533 0.3-0.9 0.3-0.067 0.033-0.317-0.017-0.75-0.15-0.233-0.1-0.433-0.033-0.6 0.2-0.1 0.167-0.183 0.367-0.25 0.6-0.066 0.2-0.2 0.383-0.4 0.55-0.433 0.267-1.133 0.183-2.1-0.25-0.367-0.133-1.05-0.917-2.05-2.35-0.267-0.3-0.617-0.684-1.05-1.15-0.3-0.333-0.55-0.467-0.75-0.4-0.3 0.1-0.433 0.233-0.4 0.4 0.033 0.267 0.217 0.517 0.55 0.75 0.8 0.467 1.566 1.1 2.3 1.9 0.4 0.466 0.7 0.9 0.9 1.3 0.167 0.433 0.117 0.7-0.15 0.8s-0.617-0.017-1.05-0.35c-0.6-0.367-0.917-0.55-0.95-0.55-0.2-0.033-0.15 0.15 0.15 0.55 0.267 0.3 0.55 0.6 0.85 0.9 0.4 0.333 0.85 0.633 1.35 0.9 0.508 0.254 1.183 0.296 2.025 0.125-0.017-0.04-0.025-0.082-0.025-0.125 0-0.2 0.117-0.367 0.35-0.5s0.517-0.2 0.85-0.2c0.322 0 0.597 0.059 0.825 0.175l0.375-0.175c1.033-0.667 1.85-1.417 2.45-2.25 0.458-0.655 0.55-1.505 0.275-2.55-0.064 0.09-0.139 0.173-0.225 0.25zm4.9 5.7c0.367-0.433 0.617-0.75 0.75-0.95 0.133-0.3 0.217-0.617 0.25-0.95 0-0.3-0.033-0.5-0.1-0.6-0.1-0.1-0.25-0.133-0.45-0.1-0.167 0-0.233 0.2-0.2 0.6 0.067 0.367 0.067 0.6 0 0.7-0.033 0.067-0.1 0.05-0.2-0.05-0.1-0.2-0.15-0.4-0.15-0.6 0-0.333-0.05-0.717-0.15-1.15-0.1-0.467-0.25-0.767-0.45-0.9-0.4-0.3-0.434 0.066-0.1 1.1 0.133 0.4 0.2 0.8 0.2 1.2 0.034 0.167 0.034 0.3 0 0.4l0.1 0.05c-0.066 0.167-0.133 0.3-0.2 0.4-0.2 0.2-0.6 0.283-1.2 0.25-0.233-0.033-0.35-0.117-0.35-0.25 0-0.1 0.017-0.267 0.05-0.5-0.034-0.667-0.233-0.883-0.6-0.65-0.2 0.1-0.283 0.233-0.25 0.4 0.133 0.167 0.217 0.3 0.25 0.4 0.066 0.133 0.033 0.25-0.1 0.35-0.233 0.1-0.45 0.133-0.65 0.1-0.267-0.034-0.417-0.383-0.45-1.05 0.133-0.767-0.033-1.183-0.5-1.25-0.3 0.033-0.3 0.417 0 1.15 0.133 0.267 0.017 0.55-0.35 0.85-0.3 0.233-0.583 0.333-0.85 0.3l-0.85-0.35c0.067 0.067 0.117 0.15 0.15 0.25 0.033 0.167-0.05 0.35-0.25 0.55-0.167 0.167-0.417 0.3-0.75 0.4-0.233 0.067-0.433 0.083-0.6 0.05l0.95 0.55c0.233 0.1 0.6 0.283 1.1 0.55 0.533 0.233 1.216 0.35 2.05 0.35 1.6 0.033 2.9-0.5 3.9-1.6zm4.3-7.65c0.6-0.566 0.767-0.933 0.5-1.1-0.4-0.167-0.85 0.283-1.35 1.35-0.1 0.267-0.25 0.45-0.45 0.55-0.033-0.033-0.333 0.017-0.9 0.15-0.367 0.033-0.6-0.05-0.7-0.25-0.033-0.2 0-0.417 0.1-0.65 0.067-0.133 0.083-0.283 0.05-0.45-0.067-0.2-0.15-0.333-0.25-0.4-0.067-0.067-0.2 0-0.4 0.2-0.167 0.133-0.267 0.283-0.3 0.45 0 0.2-0.117 0.35-0.35 0.45l-0.4 0.25c-0.1-0.067-0.167-0.167-0.2-0.3-0.167-0.167-0.216-0.35-0.15-0.55 0.033-0.133 0.1-0.35 0.2-0.65 0.066-0.233 0.017-0.467-0.15-0.7-0.233-0.233-0.467-0.25-0.7-0.05-0.233 0.133-0.4 0.333-0.5 0.6s-0.183 0.466-0.25 0.6c-0.1 0.167-0.333 0.333-0.7 0.5-0.433 0.167-0.85 0.083-1.25-0.25-0.4-0.267-0.716-0.583-0.95-0.95-0.1-0.333-0.217-0.7-0.35-1.1-0.067-0.233-0.15-0.533-0.25-0.9-0.033-0.067-0.033-0.283 0-0.65 0-0.267-0.05-0.417-0.15-0.45-0.233-0.1-0.383-0.033-0.45 0.2-0.1 0.267-0.05 0.517 0.15 0.75 0.1 0.133 0.117 0.417 0.05 0.85 0 0.534 0.017 0.917 0.05 1.15 0.133 0.3 0.25 0.617 0.35 0.95 0.167 0.1 0.3 0.267 0.4 0.5 0.233 0.267 0.3 0.567 0.2 0.9-0.033 0.167-0.1 0.317-0.2 0.45l2.3 0.3c2.1 0.4 3.417 0.517 3.95 0.35 0.633-0.133 1.3-0.467 2-1l1.05-1.1z" clip-rule="evenodd" fill="#E6B63C" fill-rule="evenodd"/>
</symbol>
<symbol id="be" viewBox="0.05 -0.6 0.446 0.578">
		<path d="m0.25-0.1c0.267-0.233 0.317-0.383 0.15-0.45-0.167-0.1-0.267-0.05-0.3 0.15-0.1 0.367-0.05 0.467 0.15 0.3z" clip-rule="evenodd" fill="#FFE9B3" fill-rule="evenodd"/>
</symbol>
<symbol id="bf" viewBox="0 -4.8 3.35 4.8">
		<path d="m0-2.35l1.75 1.45c0.333 0.3 0.867 0.6 1.6 0.9-0.033-0.333-0.133-0.733-0.3-1.2-0.633-1.733-1.117-2.717-1.45-2.95-0.2-0.167-0.55-0.383-1.05-0.65l-0.55 2.45z" clip-rule="evenodd" fill="#3D1606" fill-rule="evenodd"/>
</symbol>
<symbol id="bg" viewBox="-0.025 -0.614 0.3 0.603">
		<path d="m0.2-0.15c0.1-0.2 0.1-0.333 0-0.4-0.1-0.1-0.167-0.083-0.2 0.05-0.033 0.167-0.033 0.3 0 0.4 0.033 0.133 0.1 0.117 0.2-0.05z" clip-rule="evenodd" fill="#FFE9B3" fill-rule="evenodd"/>
</symbol>
<symbol id="bh" viewBox="-0.012 -1.067 0.722 1.077">
		<path d="m0.3-0.1c0.233-0.167 0.367-0.35 0.4-0.55 0.033-0.167-0.017-0.283-0.15-0.35-0.1-0.067-0.2-0.083-0.3-0.05-0.1 0.066-0.167 0.167-0.2 0.3-0.133 0.7-0.05 0.917 0.25 0.65z" clip-rule="evenodd" fill="#FFE9B3" fill-rule="evenodd"/>
</symbol>
<symbol id="bi" viewBox="-0.03 -9.5 20.224 9.51">
		<path d="m17.4-5.85c0.767-0.267 1.383-0.6 1.85-1 0.767-0.667 1.067-1.55 0.9-2.65-3.066 0.367-6.183 0.733-9.35 1.1-6.3 0.767-9.633 1.133-10 1.1-1.867-0.133-0.583 0.883 3.85 3.05 2.233 1.1 4.633 2.217 7.2 3.35l-0.25 0.6 0.35 0.15c0.3 0.133 0.566 0.183 0.8 0.15 0.6 0 1.383-0.083 2.35-0.25l1.35-5.3 0.95-0.3z" clip-rule="evenodd" fill-rule="evenodd"/>
</symbol>
<symbol id="bj" viewBox="-0.048 -1.456 6.539 1.431">
		<path d="m2.35-0.1c2.3 0.1 3.617 0.1 3.95 0 0.5-0.1 0.017-0.183-1.45-0.25-0.367-0.133-0.65-0.233-0.85-0.3-0.333-0.133-0.717-0.167-1.15-0.1-0.367 0.067-0.833-0.05-1.4-0.35-0.6-0.267-1.017-0.383-1.25-0.35-0.4 0.1-0.317 0.35 0.25 0.75 0.6 0.4 1.233 0.6 1.9 0.6z" clip-rule="evenodd" fill="#FFE9B3" fill-rule="evenodd"/>
</symbol>
<symbol id="bk" viewBox="-0.022 -1.214 1.545 1.194">
		<path d="m1.1-0.05c0.433-0.067 0.533-0.283 0.3-0.65-0.233-0.4-0.566-0.566-1-0.5-0.433 0.067-0.533 0.3-0.3 0.7 0.267 0.4 0.6 0.55 1 0.45z" clip-rule="evenodd" fill="#FFE9B3" fill-rule="evenodd"/>
</symbol>
<symbol id="bl" viewBox="-0.025 -0.707 0.45 0.702">
		<path d="m0.35-0.05c0.1-0.1 0.1-0.233 0-0.4-0.1-0.2-0.2-0.283-0.3-0.25-0.1 0.067-0.1 0.217 0 0.45s0.2 0.3 0.3 0.2z" clip-rule="evenodd" fill="#FFE9B3" fill-rule="evenodd"/>
</symbol>
<symbol id="bm" viewBox="-0.006 -2.18 3.084 2.182">
		<path d="m2.95-0.4c0.2-0.367 0.167-0.684-0.1-0.95-0.133-0.133-0.35-0.2-0.65-0.2-0.367 0-0.667-0.034-0.9-0.1-0.1-0.033-0.417-0.183-0.95-0.45-0.267-0.133-0.383-0.1-0.35 0.1 0.033 0.3 0.2 0.617 0.5 0.95 0.367 0.367 0.783 0.667 1.25 0.9 0.567 0.267 0.967 0.183 1.2-0.25z" clip-rule="evenodd" fill="#FFE9B3" fill-rule="evenodd"/>
</symbol>
<symbol id="cb" viewBox="-0.039 -0.8 0.968 0.8">
		<path d="m0.55 0c0.4 0 0.483-0.133 0.25-0.4s-0.467-0.4-0.7-0.4c-0.167 0-0.184 0.133-0.05 0.4s0.3 0.4 0.5 0.4z" clip-rule="evenodd" fill="#FFE9B3" fill-rule="evenodd"/>
</symbol>
		<linearGradient id="bx" x1="-.0093" x2="44.916" y1="17.363" y2="17.363" gradientTransform="matrix(.9337 -.00036101 -.00050744 .6487 1.2501 11.8)" gradientUnits="userSpaceOnUse">
		<stop stop-color="#A0A1A3" offset=".0235"/>
		<stop stop-color="#78797A" offset="1"/>
	</linearGradient>
	<path d="m38.41 16.438c3.673 1.946 5.245 4.26 4.715 6.941-0.56 2.682-3.065 4.931-7.516 6.747-4.481 1.838-9.617 2.714-15.406 2.627-5.757-0.086-10.488-1.113-14.192-3.081-3.672-1.946-5.229-4.26-4.668-6.941 0.529-2.682 3.035-4.931 7.516-6.747 4.482-1.838 9.602-2.714 15.359-2.627 5.759 0.108 10.489 1.135 14.192 3.081z" clip-rule="evenodd" fill="url(#bx)" fill-rule="evenodd"/>
		<linearGradient id="as" x1="-48.19" x2=".9808" y1="-10.218" y2="-10.218" gradientTransform="matrix(-.9032 -.1643 .2365 -.6276 1.2502 11.799)" gradientUnits="userSpaceOnUse">
		<stop stop-color="#ccc" offset="0"/>
		<stop stop-color="#fff" offset="1"/>
	</linearGradient>
	<path d="m38.41 16.276c3.704 1.838 5.276 4.012 4.715 6.52-0.56 2.509-3.065 4.617-7.516 6.325-4.481 1.708-9.602 2.52-15.359 2.433-5.789-0.086-10.52-1.049-14.192-2.887-3.704-1.838-5.275-4.012-4.715-6.52 0.529-2.509 3.035-4.617 7.516-6.325 4.482-1.73 9.602-2.552 15.359-2.465 5.759 0.108 10.489 1.081 14.192 2.919z" clip-rule="evenodd" fill="url(#as)" fill-rule="evenodd"/>
		<linearGradient id="at" x1="-3.6226" x2="37.632" y1="16.21" y2="16.21" gradientTransform="matrix(.9337 .00039342 .00059206 .6487 1.2502 11.65)" gradientUnits="userSpaceOnUse">
		<stop stop-color="#ccc" offset="0"/>
		<stop stop-color="#fff" offset="1"/>
	</linearGradient>
	<path d="m37.617 17.002c3.392 1.557 4.84 3.385 4.341 5.482-0.497 2.098-2.801 3.859-6.908 5.286-4.108 1.428-8.793 2.098-14.052 2.012-5.291-0.087-9.632-0.897-13.025-2.433-3.392-1.536-4.84-3.363-4.342-5.482 0.529-2.098 2.833-3.859 6.91-5.287 4.108-1.428 8.808-2.098 14.098-2.011 5.291 0.087 9.617 0.898 12.978 2.433z" clip-rule="evenodd" fill="url(#at)" fill-rule="evenodd"/>
		<g clip-rule="evenodd" fill-rule="evenodd">
				<path d="m23.29 13.739l0.277-0.077c0.37-0.103 1.016-0.215 1.936-0.335s1.464 0.217 1.632 1.014c0.084 0.398 0.073 0.81-0.034 1.233l1.459-0.274c1.175-0.154 2.256-0.132 3.244 0.066 0.991 0.224 1.708 0.758 2.146 1.602 0.254 0.43 0.388 0.835 0.403 1.216-0.09 0.503-0.68 1.112-1.768 1.828-2.172 1.459-5.806 2.713-10.9 3.764-5.058 1.072-9.217 1.223-12.478 0.449-1.03-0.246-1.914-0.568-2.648-0.963l-0.745-0.516c-0.293-0.153-0.534-0.367-0.722-0.643-0.371-0.524-0.25-1.113 0.362-1.767 0.613-0.654 1.332-1.034 2.156-1.143 0.413-0.055 0.758-0.045 1.034 0.028-0.258-0.294-0.41-0.629-0.456-1.006-0.104-0.805 0.328-1.462 1.297-1.971 0.963-0.536 2.177-0.654 3.643-0.355 0.743 0.121 1.386 0.31 1.929 0.566l0.329-1.23c0.525-0.915 1.563-1.556 3.117-1.923 1.426-0.351 2.642-0.387 3.646-0.11 0.52 0.151 0.901 0.333 1.141 0.547z" fill="#EFDFC8"/>
				<path d="m26.682 13.581c0.617 0.3 0.871 0.732 0.761 1.292-0.044 0.252-0.158 0.485-0.342 0.701l-0.529 0.97c-0.151 0.675 0.298 1.107 1.35 1.297 1.057 0.216 1.924 0.308 2.602 0.272 0.55-0.018 1.848-0.133 3.89-0.346 0.019 0.243-0.055 0.512-0.222 0.807-0.264 0.608-0.743 1.039-1.439 1.294-0.453 0.169-1.653 0.203-3.599 0.104-1.654-0.11-2.582 0.053-2.783 0.488-0.26 0.471 0.286 0.74 1.638 0.809 0.688 0.02 1.386-4e-3 2.089-0.069l-4.542 1.66c-0.708-0.262-1.634-0.55-2.775-0.864-0.729-0.204-1.481-0.297-2.26-0.276l-0.921 0.039 4.616-2.243c0.731-0.396 0.586-0.855-0.437-1.376-0.996-0.551-2.102-0.611-3.315-0.179-2.196 0.725-3.354 1.108-3.476 1.151-1.335 0.476-2.23 0.948-2.686 1.417-0.462 0.442 0.205 0.819 1.999 1.129 0.904 0.153 1.848 0.261 2.833 0.325-0.243-0.012-0.69 0.155-1.338 0.503-0.442 0.222-0.687 0.608-0.734 1.161-0.039 0.277-0.036 0.522 8e-3 0.735-0.103-0.178-0.325-0.381-0.667-0.608-0.672-0.403-1.522-0.646-2.55-0.729-0.732-0.068-1.705 0.195-2.916 0.792-1.091 0.552-2.106 0.686-3.047 0.399-1.079-0.323-1.909-0.855-2.489-1.598l-0.503-0.999 0.639 0.244c0.558 0.173 1.202 0.293 1.934 0.36 0.896 0.073 1.788-0.029 2.674-0.31 0.855-0.276 1.448-0.641 1.776-1.093 0.396-0.598-0.696-1.137-3.276-1.617-0.086-0.099-0.146-0.228-0.18-0.386-0.074-0.346 5e-3 -0.671 0.235-0.974 0.172-0.268 0.909-0.173 2.212 0.283 1.564 0.614 2.542 0.922 2.934 0.925 0.626 0.028 1.01-0.391 1.154-1.256l0.056-1.359 1.625 0.279c1.14 0.15 1.874 0.15 2.201-2e-3 0.858-0.413 1.273-1 1.243-1.76-0.055-0.729 0.122-1.203 0.533-1.42 0.621-0.3 1.246-0.354 1.873-0.164 0.314 0.096 0.567 0.212 0.759 0.351l1.148-0.355c0.91-0.175 1.658-0.109 2.244 0.196z" fill="#F7DAA1"/>
				<path d="m20.115 20.501c0.607 0.248 1.093 0.307 1.457 0.178 0.766-0.237 1.075-0.087 0.927 0.452-1.437 0.461-2.802 0.79-4.098 0.987-0.819 0.135-1.625 0.104-2.417-0.093l-0.94-0.286c-0.478-0.101-0.807-0.344-0.986-0.729l-0.109-0.519 1.484-0.154c1.117-0.118 2.046-0.199 2.787-0.242 0.582-0.022 1.215 0.113 1.895 0.406z" fill="#F7DAA1"/>
				<path d="m21.409 13.167l0.636-1e-3c0.423-1e-3 0.729 0.054 0.915 0.167 0.272 0.209 0.616 0.601 1.03 1.175 0.081 0.072 0.165 0.319 0.255 0.745 0.035 0.323 0.207 0.519 0.515 0.587 0.51 0.097 1.41-0.348 2.703-1.337l-0.362 1.071c-0.224 0.329-0.686 0.69-1.386 1.082-0.399 0.271-0.71 0.503-0.931 0.695l-0.148 0.225-2.845-0.733c-0.011-0.053 0.015-0.165 0.076-0.337 0.097-0.313 0.302-0.736 0.614-1.268 0.348-0.51 0.277-1.006-0.216-1.486l-0.856-0.585z" fill="#C9B284"/>
				<path d="m19.478 17.474c0.884-0.144 1.763-0.614 2.639-1.411l2.8 0.983-0.171 0.351c-0.065 0.309-0.033 0.618 0.099 0.929 0.232 0.488 0.672 0.867 1.315 1.138-1.824 0.321-3.165 0.456-4.024 0.404-0.366-0.033-0.797-0.222-1.294-0.566-0.453-0.296-1.005-0.441-1.657-0.438-0.778 0.02-1.65 0.217-2.615 0.589l-1.21 0.527c-1e-3 -0.164 0.023-0.358 0.073-0.583 0.069-0.445 0.193-0.79 0.37-1.031 0.319-0.342 0.071-0.979-0.745-1.909l0.457 0.309c0.373 0.224 0.754 0.406 1.142 0.546 0.599 0.221 1.54 0.275 2.821 0.162z" fill="#C9B284"/>
				<path d="m22.44 16.675c0.628-0.273 1.142-0.082 1.541 0.576 0.313 0.56 0.465 1.127 0.455 1.7 4e-3 0.328-0.215 0.451-0.655 0.373-0.627-0.19-1.126-0.315-1.497-0.377-0.605-0.084-1.072-0.282-1.398-0.594-0.396-0.331-0.375-0.62 0.062-0.868l1.492-0.81z" fill="#F7DAA1"/>
				<path d="m11.911 20.104l-3.267-0.881-0.404-1.217 0.994 0.771c0.886 0.484 1.836 0.742 2.853 0.771 1.632 4e-3 2.849 0.05 3.649 0.136-0.481 0.036-0.939 0.109-1.372 0.222-0.834 0.218-1.112 0.527-0.832 0.928 0.409 0.547 1.063 0.938 1.96 1.176 0.245 0.077 0.601 0.453 1.07 1.129-0.261-0.157-0.634-0.299-1.118-0.427-0.903-0.264-1.807-0.296-2.711-0.095-0.903 0.2-1.84 0.555-2.809 1.064l-1.224 0.692c-0.38 0.05-0.787-0.02-1.217-0.209l-1.358-0.641 0.994 0.074c0.841-0.028 1.745-0.229 2.71-0.601 0.365-0.13 1.22-0.405 2.565-0.828 0.518-0.177 0.728-0.341 0.63-0.492-0.04-0.349-0.083-0.631-0.127-0.843-0.105-0.34-0.434-0.584-0.986-0.729z" fill="#C9B284"/>
				<path d="m23.429 19.739l0.269 0.579c0.26 0.457 0.66 0.813 1.204 1.07 0.867 0.404 2.056 0.549 3.563 0.433l-2.323 1.042c-0.655-0.323-1.406-0.634-2.251-0.933-0.495-0.182-1.156-0.299-1.983-0.354l-1.082-0.021 1.673-0.424c0.528-0.124 0.838-0.589 0.93-1.392z" fill="#C9B284"/>
				<path d="m34.078 18.506c0.161 0.143 0.081 0.385-0.237 0.728l-0.875 0.729c-1.147 0.124-2.132 0.171-2.954 0.143l-4.455-0.481-0.428-0.639 1.4 0.144c1.123 0.071 2.252 0.086 3.386 0.047 1.651-0.055 3.039-0.278 4.163-0.671z" fill="#C9B284"/>
				<path d="m19.188 13.541c0.532-0.261 0.826-0.259 0.881 7e-3 0.019 0.243-0.352 0.496-1.112 0.76-0.332 0.126-0.544 0.276-0.638 0.452-0.041 0.115-0.088 0.435-0.14 0.96-0.049 0.388-0.307 0.559-0.773 0.511-0.106-0.041-0.526-0.177-1.26-0.408-0.319-0.122-0.397-0.262-0.234-0.419 0.104-0.124 0.376-0.377 0.818-0.763 0.486-0.474 1.307-0.841 2.458-1.1z" fill="#FFFBE8"/>
				<path d="m28.168 15.76c0.252-0.197 0.542-0.29 0.871-0.278 0.228-2e-3 0.739 0.026 1.534 0.086 0.752 0.01 1.368 0.147 1.849 0.413 0.479 0.265 0.745 0.598 0.797 1 2e-3 0.164-0.375 0.077-1.131-0.261-1.15-0.504-2.308-0.584-3.475-0.24-0.618 0.163-0.928 0.162-0.93-1e-3 -0.033-0.159 0.129-0.398 0.485-0.719z" fill="#FFFBE8"/>
				<path d="m22.611 16.325c0.354-0.183 0.558-0.223 0.611-0.121 0.093 0.289 0.232 0.488 0.42 0.6 0.373 0.224 0.625 0.491 0.755 0.802 0.163 0.306 0.134 0.556-0.087 0.747-0.226 0.167-0.682 0.172-1.365 0.017-0.686-0.156-1.236-0.37-1.652-0.644-0.31-0.232-0.297-0.479 0.039-0.742 0.116-0.069 0.543-0.289 1.279-0.659z" fill="#EFDFC8"/>
				<path d="m9.876 16.481c1.008-0.323 2.019-0.401 3.033-0.234 0.975 0.145 1.426 0.427 1.351 0.847-0.065 0.308-0.415 0.354-1.047 0.137-1.079-0.322-1.684-0.489-1.817-0.499-0.815-2e-3 -1.356-0.013-1.622-0.033-0.359-7e-3 -0.325-0.08 0.102-0.218z" fill="#FFFBE8"/>
				<path d="m26.705 19.965c0.834-0.219 1.898-0.276 3.192-0.174 1.299 0.13 1.862 0.329 1.69 0.598-0.113 0.233-0.664 0.332-1.649 0.298-1.44-0.029-2.257-0.031-2.447-6e-3 -0.608 0.053-0.985-0.035-1.131-0.262-0.108-0.204 6e-3 -0.356 0.345-0.454z" fill="#FFFBE8"/>
				<path d="m12.302 23.123c0.87-0.359 1.728-0.473 2.571-0.337 0.711 0.125 1.092 0.307 1.142 0.546 0.044 0.212-0.765 0.318-2.428 0.318-0.165-6e-3 -0.604 0.079-1.317 0.255-0.719 0.148-1.308 0.212-1.769 0.191-0.53-0.04-0.524-0.164 0.019-0.371 0.339-0.099 0.932-0.299 1.782-0.602z" fill="#FFFBE8"/>
				<path d="m15.693 22.965l1.552-0.531-0.076 0.337c0.03 0.297 0.182 0.55 0.454 0.76 0.496 0.344 2.049 0.358 4.657 0.045l-2.664 0.595c-1.569 0.287-2.884 0.474-3.942 0.558-0.735 0.069-1.387 0.072-1.955 0.011l-0.669-0.157 1.868-0.654c0.505-0.233 0.764-0.554 0.775-0.964z" fill="#F7DAA1"/>
				<path d="m16.494 22.123c0.562 0.035 1.198 0.034 1.907-5e-3l-1.157 0.315c-0.465 0.115-0.632 0.328-0.501 0.64 0.066 0.154 0.185 0.412 0.358 0.771-0.019 0.221 0.319 0.354 1.014 0.398 0.36 8e-3 0.718 2e-3 1.072-0.018-1.105 0.173-1.906 0.318-2.403 0.438l-2.112 0.196c0.848-0.467 1.423-0.911 1.727-1.332 0.333-0.426 0.14-0.729-0.583-0.906l-1.613-0.689 2.291 0.192z" fill="#C9B284"/>
				<path d="m20.306 21.868c-0.976 0.319-1.71 0.553-2.202 0.698-0.871 0.196-1.634 0.215-2.288 0.055-0.685-0.155-1.264-0.503-1.735-1.041l-0.549-0.747 0.552 0.296c0.432 0.189 0.853 0.256 1.266 0.202 0.444-0.059 1.969-0.095 4.576-0.108 0.651-4e-3 1.653 0.028 3.004 0.097-0.793 0.104-1.669 0.286-2.624 0.548z" fill="#C9B284"/>
				<path d="m21.284 23.03c0.108-0.046 0.234-0.068 0.377-0.07l-0.045 0.251c-0.032 4e-3 -0.124 0.03-0.277 0.078l-0.055-0.259z" fill="#865517"/>
				<path d="m17.019 21.01c0.121-0.032 0.276-0.031 0.464 1e-3 0.024 0.27-0.118 0.37-0.426 0.301-0.251-0.067-0.263-0.167-0.038-0.302z" fill="#865517"/>
				<path d="m19.567 20.451c-0.206-0.164-0.162-0.267 0.132-0.305 0.296 0.016 0.488 0.072 0.574 0.17-0.236 0.278-0.471 0.323-0.706 0.135z" fill="#865517"/>
				<path d="m29.528 18.038l-0.438 0.017c0.402-0.107 0.631-0.028 0.687 0.238-0.285 0.037-0.497 0.037-0.636 1e-3 0.047-0.088 0.176-0.174 0.387-0.256z" fill="#865517"/>
				<path d="m27.21 16.787l-0.118 0.138c0.223-0.029 0.345 9e-3 0.367 0.116 0.017 0.079-0.062 0.172-0.235 0.276-0.299-0.179-0.304-0.356-0.014-0.53z" fill="#865517"/>
				<path d="m32.618 17.961c0.108-0.024 0.23-0.026 0.365-7e-3 -0.056 0.198-0.214 0.3-0.473 0.307-0.023-0.109 0.013-0.209 0.108-0.3z" fill="#865517"/>
				<path d="m21.949 13.874l-0.096 0.013c0.274 0.373 0.212 0.463-0.188 0.27-0.367-0.198-0.272-0.292 0.284-0.283z" fill="#865517"/>
				<path d="m20.422 15.221l0.238-0.031c0.019 0.243-0.14 0.346-0.474 0.308-0.053-0.103 0.025-0.195 0.236-0.277z" fill="#865517"/>
				<path d="m14.199 18.657c-0.174-0.104-0.206-0.182-0.098-0.233l0.38-0.05c0.125 0.011 0.244 0.035 0.359 0.076-0.154 0.348-0.368 0.417-0.641 0.207z" fill="#865517"/>
				<path d="m11.66 18.213l0.216 0.094c-0.146 0.237-0.336 0.263-0.572 0.075 0.043-0.08 0.161-0.137 0.356-0.169z" fill="#865517"/>
				<path d="m7.73 21.512c0.198 0.035 0.17 0.175-0.083 0.42-0.098 0.149-0.189 0.107-0.271-0.128-0.036-0.172 0.082-0.27 0.354-0.292z" fill="#865517"/>
				<path d="m10.622 22.115l-0.397-0.029c0.4-0.108 0.727-0.109 0.977-6e-3 -0.025 0.194-0.147 0.306-0.37 0.335-0.185 0.052-0.33-0.012-0.432-0.189l0.222-0.111z" fill="#865517"/>
				<path d="m11.364 20.994l-0.162 0.042c0.212-0.045 0.36-3e-3 0.442 0.126-0.157 0.185-0.336 0.181-0.541-0.011-0.208-0.218-0.121-0.271 0.261-0.157z" fill="#865517"/>
				<path d="m14.637 23.759l-0.125 0.098c0.032-4e-3 0.214 0.013 0.549 0.052 0.115 0.394-0.074 0.5-0.569 0.319s-0.446-0.337 0.145-0.469z" fill="#865517"/>
				<path d="m22.956 18.655l-0.135 0.058c0.217-0.056 0.374-8e-3 0.471 0.144s0.016 0.229-0.244 0.236c-0.291 0.012-0.438-0.064-0.439-0.229-3e-3 -0.163 0.114-0.233 0.347-0.209z" fill="#865517"/>
				<path d="m21.021 17.599l0.34 2.084c-0.74-0.422-1.326-0.645-1.755-0.67-0.298-0.017-0.946 1e-3 -1.946 0.051l-1.406 0.061 0.566-0.564 2.117-0.401c0.432-0.111 0.887-0.197 1.363-0.26 0.125-0.023 0.236-0.038 0.334-0.044 0.015-0.086 0.145-0.171 0.387-0.257z" fill="#968563"/>
				<path d="m25.363 20.796l-0.325 0.083c0.254-0.033 0.459 9e-3 0.614 0.124-0.107 0.424-0.308 0.478-0.603 0.161-0.3-0.343-0.195-0.466 0.314-0.368z" fill="#865517"/>
				<path d="m27.902 21.937l-0.517-0.137c0.211-0.082 0.438-0.085 0.684-8e-3 0.067 0.318-0.133 0.454-0.6 0.406 4e-3 -0.137 0.034-0.224 0.093-0.258 0.031-4e-3 0.145-5e-3 0.34-3e-3z" fill="#865517"/>
				<path d="m20.007 18.592c-0.564 0.265-1.114 0.364-1.649 0.298l-0.208-0.055c0.241-0.116 0.502-0.273 0.781-0.471 0.768-0.538 1.355-0.847 1.762-0.927 0.128 0.447-0.102 0.833-0.686 1.155zm-1.857 0.243c-0.368 0.19-0.69 0.287-0.966 0.291-0.646 0.029-1.11-0.237-1.392-0.801-0.384-0.741-0.654-1.169-0.81-1.286 0.213 0.082 0.825 0.274 1.834 0.579 0.852 0.324 1.141 0.696 0.871 1.113l0.463 0.104z" fill="#91C401"/>
				<path d="m27.321 19.639c-0.211 0.082-0.421 0.014-0.631-0.205-0.197-0.165-0.337-0.365-0.419-0.6 0.663 0.05 1.267 0.284 1.812 0.704 0.044-0.252 0.307-0.478 0.787-0.677 0.39-0.16 0.778-0.252 1.165-0.275 0.018 0.243-0.153 0.512-0.516 0.805-0.415 0.354-0.635 0.547-0.661 0.578-0.192-0.139-0.45-0.2-0.772-0.186-0.292 0.012-0.519 0.096-0.681 0.254l-0.084-0.398z" fill="#91C401"/>
				<path d="m24.599 13.445c0.076-0.256 0.322-0.561 0.737-0.916 0.44-0.386 0.759-0.495 0.957-0.33 0.229 0.161 0.19 0.439-0.117 0.834-0.251 0.36-0.495 0.597-0.731 0.71-0.262-0.157-0.614-0.207-1.059-0.148-0.318 0.042-0.618 0.129-0.899 0.261l0.376-0.192c-0.355 0.019-0.528-0.108-0.521-0.382 8e-3 -0.273 0.146-0.469 0.415-0.586l0.842 0.749z" fill="#91C401"/>
				<path d="m12.734 21.224c0.317-0.041 0.491 0.168 0.523 0.627 0.056-0.198 0.221-0.342 0.496-0.433 0.19 0.438 0.12 0.803-0.21 1.092-0.305 0.259-0.711 0.339-1.221 0.242-0.239-0.051-0.479-0.183-0.72-0.396-0.247-0.241-0.323-0.45-0.229-0.625 0.108-0.261 0.396-0.285 0.865-0.073 0.288 0.127 0.513 0.268 0.677 0.424l-0.181-0.858z" fill="#728501"/>
				<path d="m11.417 15.665c-0.335-0.202-0.551-0.447-0.644-0.734-0.104-0.341 0.02-0.603 0.373-0.786 0.087 0.262 0.286 0.659 0.594 1.192 0.287-0.338 0.578-0.581 0.874-0.729 0.065 0.155 0.066 0.469 2e-3 0.941l0.42-0.096c0.048 0.075 0.058 0.197 0.028 0.365-0.765-0.227-1.344-0.26-1.733-0.1l0.086-0.053z" fill="#91C401"/>
				<path d="m21.596 23.582c0.036 0.323-0.487 0.556-1.565 0.697-1.402 0.156-2.132 0.252-2.19 0.287l0.117-0.139c-0.563-0.198-0.888-0.347-0.974-0.445 0.414 0.109 0.751 0.16 1.011 0.154-9e-3 -0.354 0.165-0.608 0.523-0.765 0.359-0.156 0.52-0.014 0.482 0.429 0.263-0.145 0.452-0.333 0.566-0.566 0.011 0.053 0.101 0.246 0.268 0.579 0.629-0.573 1.12-0.884 1.468-0.929 0.033 0.158 0.019 0.475-0.045 0.946l0.339-0.248z" fill="#728501"/>
				<path d="m23.865 21.811c-0.516-0.123-1.005-0.127-1.47-0.012-0.344-0.392-0.414-0.642-0.208-0.751 0.147-0.073 0.336-0.03 0.566 0.131 0.117 0.094 0.278 0.237 0.48 0.429 0.061-0.336 0.304-0.572 0.731-0.71 0.097 0.15 0.061 0.442-0.109 0.874 0.058-0.035 0.209-0.097 0.451-0.183l0.067 0.319 0.372-0.09c0.019 0.243-0.078 0.323-0.291 0.243-0.254-0.13-0.451-0.213-0.589-0.25z" fill="#728501"/>
			<path d="m30.122 17.142c0.029-0.168 0.448-0.195 1.254-0.082 0.77 0.09 1.018 0.262 0.745 0.517-0.272 0.254-0.688 0.295-1.246 0.121-0.526-0.177-0.777-0.362-0.753-0.556z" fill="#FFFBE8"/>
			<path d="m10.11 19.685c0.765 0.227 1.208 0.47 1.327 0.727 0.065 0.155-0.05 0.225-0.348 0.21-0.403-0.057-0.756-0.105-1.058-0.147-0.441-0.079-0.777-0.131-1.011-0.155-0.386 0.023-0.928 0.163-1.625 0.418-1.418 0.541-1.894 0.453-1.425-0.263l0.338-0.249c0.316-0.206 0.796-0.404 1.44-0.599 0.672-0.226 1.46-0.206 2.362 0.058z" fill="#FFFBE8"/>
			<path d="m20.346 19.038c0.76 0.201 1.098 0.416 1.016 0.645-0.061 0.172-0.419 0.179-1.072 0.018-0.829-0.219-1.354-0.313-1.576-0.284-0.747 0.017-1.136 0.026-1.168 0.03-0.366-0.033-0.486-0.141-0.361-0.32l1.506-0.28c0.444-0.06 0.996 5e-3 1.655 0.191z" fill="#FFFBE8"/>
			<path d="m22.576 16.739c0.867 0.411 1.133 0.704 0.797 0.878-0.263 0.145-0.555 0.073-0.876-0.212-0.262-0.262-0.235-0.484 0.079-0.666z" fill="#FFFBE8"/>
			<path d="m15.932 19.453c-0.698 0.092-0.917-0.016-0.655-0.323 0.026-0.031 0.352-0.033 0.978-6e-3 -0.358-0.308-0.553-0.609-0.583-0.906 0.297 0.016 0.867 0.241 1.709 0.678l-0.219 8e-3c0.037 0.022 0.071 0.065 0.101 0.13l0.387-0.256c-0.257 0.334-0.829 0.559-1.718 0.675z" fill="#728501"/>
			<path d="m20.981 19.037l0.098 0.232c-0.05-0.238 0.062-0.404 0.336-0.494 0.102 0.178 0.241 0.445 0.414 0.806-0.056-0.267 0.072-0.433 0.383-0.501 0.049 0.075 0.141 0.2 0.275 0.373 0.158-0.021 0.44-0.153 0.846-0.397 0.019 0.243-0.11 0.561-0.388 0.952-0.844-0.136-1.47-0.326-1.881-0.572l-0.083-0.399z" fill="#728501"/>
			<path d="m30.703 20.136c-0.306-0.369-0.765-0.459-1.377-0.27l0.062-0.172c-0.381 0.05-0.56-0.104-0.538-0.461 0.26-7e-3 0.525 0.094 0.799 0.305 0.193-0.162 0.374-0.391 0.54-0.686l0.093 0.438c0.231-0.14 0.5-0.257 0.807-0.352 0.045 0.213-9e-3 0.424-0.16 0.635-0.179 0.243-0.253 0.431-0.226 0.563z" fill="#728501"/>
			<path d="m12.692 20.329l0.921-0.039 0.286 0.658c0.264 0.484 0.543 0.803 0.836 0.955 0.506 0.233 1.617 0.319 3.333 0.259l-2.375 0.803-2.307-0.271c-0.106-0.041-0.203-0.11-0.288-0.208-0.14-0.2-0.087-0.412 0.16-0.636 0.419-0.327 0.231-0.834-0.566-1.521z" fill="#968563"/>
			<path d="m18.735 21.379c0.326-0.152 0.634-0.166 0.921-0.039 0.288 0.126 0.268 0.265-0.059 0.417-0.326 0.152-0.62 0.149-0.882-8e-3 -0.287-0.125-0.28-0.249 0.02-0.37z" fill="#968563"/>
			<path d="m25.022 17.319l-0.384 0.501c-0.173-0.359-0.505-0.698-0.996-1.016-0.336-0.202-0.688-0.319-1.053-0.353l-0.429 0.056 0.684-0.704c0.299-0.285 0.443-0.604 0.434-0.958l0.143 0.677c0.202 0.492 0.542 0.789 1.021 0.89 0.785 0.169 1.673-0.11 2.659-0.84-0.629 0.573-1.091 0.934-1.386 1.082-0.174 0.106-0.404 0.327-0.693 0.665z" fill="#968563"/>
			<path d="m26.464 22.534c-0.131 0.154-0.344 0.305-0.639 0.452-0.18 0.078-0.508 0.148-0.984 0.211l-0.674 0.048c-0.147-0.391-0.617-0.684-1.408-0.88-0.483-0.128-1.284-0.214-2.403-0.258l-1.518-6e-3 1.061-0.303c0.835-0.219 1.522-0.363 2.061-0.434 0.54-0.071 1.022-0.025 1.448 0.137 0.25 0.104 0.591 0.251 1.022 0.439 0.51 0.098 1.187 0.296 2.034 0.594z" fill="#968563"/>
			<path d="m19.46 13.668c-0.047 0.088-0.395 0.448-1.045 1.079l-0.249-0.254 0.165-0.145c-0.243 0.086-0.541-0.093-0.896-0.538-0.329-0.476-0.401-0.82-0.218-1.036 0.183-0.215 0.44-0.154 0.773 0.185 0.254 0.289 0.406 0.549 0.458 0.78-0.048-0.258 0.102-0.557 0.447-0.898 0.357-0.319 0.712-0.489 1.067-0.509 0.052 0.404-0.115 0.849-0.502 1.336z" fill="#91C401"/>
			<path d="m15.581 14.996c-0.504-0.07-0.928-0.301-1.271-0.693 1.283-0.219 2.276-0.151 2.979 0.204-2e-3 -0.069 0.039-0.107 0.122-0.119l0.042 0.199c-0.053-0.031-0.108-0.059-0.164-0.081l4e-3 0.02c0.15 0.09 0.316 0.108 0.501 0.057 0.122-0.043 0.284-0.12 0.49-0.228-0.076 0.255 0.014 0.531 0.272 0.824-0.276-0.072-0.474-0.156-0.591-0.25-0.519 0.478-1.027 0.694-1.526 0.65 0.03-0.168 0.25-0.36 0.661-0.579-0.711 0.04-1.217 0.038-1.519-4e-3z" fill="#91C401"/>
			<path d="m6.809 19.34c0.074 0.045 0.233-0.208 0.477-0.758 0.321 0.284 0.407 0.615 0.257 0.989-0.176 0.404-0.459 0.374-0.852-0.093l-0.092 0.258c-0.222 0.029-0.549-0.052-0.98-0.24-0.5-0.207-0.704-0.398-0.61-0.575 0.094-0.176 0.406-0.162 0.938 0.041 0.489 0.154 0.777 0.279 0.862 0.378z" fill="#91C401"/>
			<path d="m28.454 15.723l-0.025-0.119c-0.409-0.083-0.618-0.301-0.627-0.655 0.132 0.01 0.32 0.053 0.565 0.13 0.213 0.082 0.382 0.114 0.51 0.097-0.043-0.513 0.289-0.871 0.997-1.073 0.076 0.208 9e-3 0.586-0.202 1.132l0.364-0.13c-0.077 0.255-0.361 0.375-0.854 0.357-0.461-0.02-0.704 0.066-0.728 0.261z" fill="#91C401"/>
		</g>
	<g clip-rule="evenodd" fill-rule="evenodd">
		<path d="m41.632 18.77l-0.233 1.428c-0.595 0.155-1.365 0.295-2.311 0.42-1.865 0.237-3.626 0.264-5.283 0.077-1.645-0.176-2.939-0.367-3.885-0.574-0.466-0.104-0.771-0.191-0.912-0.264v-1.428c0.245-0.187 0.673-0.378 1.281-0.574 1.23-0.383 2.745-0.574 4.545-0.574 2.629 0 4.552 0.248 5.769 0.744 0.608 0.248 0.951 0.496 1.029 0.745z" fill="#A3A3A3"/>
			<linearGradient id="au" x1="1.3496" x2="32.6" y1="25.149" y2="25.149" gradientTransform="matrix(.3884 0 0 .3104 28.6 14.75)" gradientUnits="userSpaceOnUse">
			<stop stop-color="#D9D9D9" offset="0"/>
			<stop stop-color="#EDEDED" offset=".3216"/>
			<stop stop-color="#B0B0B0" offset="1"/>
		</linearGradient>
		<path d="m29.124 19.607l6.06 0.466 6.079-0.466-1.476 4.688h-0.02c-0.052 0.29-0.518 0.559-1.398 0.807-0.945 0.27-2.007 0.404-3.186 0.404-1.217 0-2.305-0.135-3.263-0.404-0.906-0.269-1.359-0.548-1.359-0.837v-0.017l-1.437-4.641z" fill="url(#au)"/>
		<path d="m40.117 21.765c-0.609 0.187-1.521 0.311-2.739 0.373-2.227 0.114-4.188 0.011-5.885-0.311-0.842-0.155-1.463-0.326-1.864-0.512l-0.077-0.171-0.175-0.745 0.058-1.009 11.323 1.521-0.116 0.605c-0.052 0.084-0.227 0.167-0.525 0.249z" fill="#8A8A8A"/>
		<path d="m41.146 18.584c-0.013-0.342-0.603-0.632-1.768-0.87-1.152-0.237-2.538-0.356-4.156-0.356s-3.004 0.119-4.156 0.356c-1.152 0.238-1.741 0.528-1.768 0.87h-0.68c0.168-0.373 0.874-0.688 2.117-0.947 1.256-0.259 2.731-0.388 4.428-0.388s3.173 0.129 4.429 0.388c1.243 0.259 1.948 0.574 2.117 0.947h-0.563z" fill="#fff"/>
		<path d="m34.912 16.255c0.064 0.279-0.078 0.548-0.428 0.807 0.57-0.373 0.751-0.398 0.544-0.078-0.104 0.166-0.22 0.347-0.35 0.543-0.116 0.135-0.33 0.223-0.641 0.264-0.57-0.383-0.854-0.657-0.854-0.823 0-0.103 0.136-0.14 0.407-0.108 0.13 0.021 0.259 0.046 0.389 0.078-0.182-0.083-0.356-0.176-0.524-0.279-0.337-0.207-0.46-0.352-0.369-0.435 0.155-0.135 0.362-0.129 0.622 0.015-0.13-0.083-0.253-0.176-0.369-0.279-0.221-0.196-0.285-0.336-0.194-0.419 0.155-0.124 0.369-0.083 0.641 0.124-0.091-0.114-0.181-0.238-0.271-0.372-0.169-0.259-0.214-0.414-0.137-0.466 0.208-0.155 0.383-0.093 0.524 0.186 0.065 0.145 0.11 0.3 0.137 0.466l0.155-0.295c0.129-0.176 0.232-0.223 0.311-0.14 0.13 0.134 0.052 0.393-0.233 0.776 0.35-0.341 0.544-0.424 0.583-0.248 0.031 0.149-0.053 0.349-0.252 0.598 0.166-0.158 0.269-0.129 0.309 0.085z" fill="#547526"/>
			<radialGradient id="av" cx="9.9985" cy="-11.865" r="17.246" gradientTransform="matrix(.12 .2952 .3694 -.0959 37.367 12.474)" gradientUnits="userSpaceOnUse">
			<stop stop-color="#F6FCCC" offset="0"/>
			<stop stop-color="#87BB44" offset="1"/>
		</radialGradient>
		<path d="m37.32 15.728c0.182 0.135 0.401 0.254 0.66 0.357 0.155 0.063 0.369 0.14 0.641 0.233 0.44 0.197 0.68 0.331 0.719 0.404 0.026 0.042 0.059 0.186 0.098 0.434 0.064 0.238 0.155 0.373 0.271 0.404 0.155 0.052 0.253 0.093 0.291 0.124 0.052 0.041 0.124 0.129 0.214 0.264 0.026 0.052 0.071 0.176 0.136 0.372 0.039 0.114 0.098 0.187 0.175 0.218 0.104 0.052 0.201 0.135 0.292 0.248 0.104 0.114 0.155 0.223 0.155 0.326 0 0.196-0.576 0.522-1.729 0.978-1.359 0.518-2.687 0.745-3.981 0.684-3.587-0.207-5.497-0.688-5.729-1.444-0.052-0.124-0.052-0.269 0-0.435 0.064-0.165 0.109-0.295 0.136-0.388 0.025-0.093 0.123-0.181 0.291-0.264 0.155-0.072 0.227-0.14 0.214-0.202-0.052-0.186 0.052-0.372 0.311-0.559 0.091-0.083 0.233-0.186 0.428-0.311 0.22-0.145 0.389-0.232 0.505-0.264 0.077-0.031 0.232-0.052 0.466-0.062 0.246-0.01 0.46-0.042 0.641-0.093 0.194-0.042 0.356-0.109 0.486-0.202 0.168-0.104 0.298-0.17 0.388-0.202 0.117-0.052 0.266-0.078 0.447-0.078s0.323-0.026 0.427-0.078c0.078-0.042 0.149-0.114 0.214-0.217 0.052-0.072 0.162-0.119 0.33-0.14 0.207-0.031 0.524-0.119 0.952-0.264 0.246-0.093 0.505-0.129 0.776-0.109 0.309 0.023 0.568 0.111 0.775 0.266z" fill="url(#av)"/>
			<radialGradient id="aw" cx="10.855" cy="-11.556" r="16.86" gradientTransform="matrix(.1201 .2952 .3694 -.0959 37.138 12.532)" gradientUnits="userSpaceOnUse">
			<stop stop-color="#D3DB97" offset="0"/>
			<stop stop-color="#75B327" offset="1"/>
		</radialGradient>
		<path d="m39.34 18.195c0.078-0.082 0.149-0.196 0.214-0.341 0.039-0.104 0.084-0.155 0.136-0.155 0.026 0.01 0.084 0.015 0.175 0.015 0.039 0 0.052 0.016 0.039 0.047s-0.059 0.104-0.136 0.218c-0.065 0.104-0.091 0.171-0.078 0.201 0.026 0.114 0.098 0.176 0.214 0.187 0.052 0.011 0.136 0 0.253-0.031 0.064-0.01 0.019 0.036-0.137 0.14-0.323 0.228-0.355 0.362-0.097 0.403 0.077 0.021 0.123 0 0.136-0.062 0.025-0.072 0.052-0.114 0.078-0.124 0.052-0.011 0.097-0.026 0.136-0.047 0.025 0 0.059 0.026 0.097 0.078l0.116 0.248c0.014 0.021 0.026 0.01 0.039-0.031l0.039 0.155c0.039 0.114 0.162 0.223 0.369 0.326 0.091 0.113-0.084 0.295-0.524 0.543-0.492 0.279-1.987 0.518-4.486 0.714-2.396 0.196-3.846 0.232-4.351 0.108-0.389-0.093-0.81-0.264-1.263-0.512-0.414-0.228-0.628-0.378-0.641-0.45-0.039-0.145-0.071-0.279-0.098-0.403-0.052-0.228-0.064-0.394-0.038-0.497l0.038-0.264 0.292-0.14 0.039 0.202c0.142 0.145 0.278 0.217 0.407 0.217 0.078 0 0.175-0.063 0.291-0.187 0.143-0.145 0.24-0.232 0.292-0.264 0.077-0.041 0.058-0.072-0.059-0.093-0.182-0.052-0.298-0.104-0.35-0.155-0.104-0.093-0.168-0.16-0.194-0.202-0.052-0.062-0.045-0.134 0.02-0.217l0.524-0.513 0.098 0.326c0.038 0.063 0.077 0.15 0.116 0.264 0.052 0.094 0.148 0.146 0.291 0.155 0.169 0.011 0.317-5e-3 0.447-0.046 0.116-0.031 0.168-0.063 0.155-0.094-0.182-0.165-0.285-0.29-0.312-0.372-0.013-0.042 0.014-0.119 0.078-0.233l0.078-0.14 0.213 0.218c0 0.041 0.033 0.072 0.098 0.093 0.064 0.011 0.104-5e-3 0.116-0.047 0.014-0.01 0.02-0.062 0.02-0.154 0-0.052 0.02-0.073 0.059-0.063l0.232 0.108c0.026 0.021 0.098 0.099 0.214 0.233 0.143 0.113 0.272 0.14 0.389 0.077 0.13-0.072 0.2-0.119 0.214-0.14 0-0.021-0.052-0.099-0.155-0.232-0.091-0.104-0.149-0.171-0.175-0.202s-0.033-0.098-0.02-0.202c0.013-0.114 0.077-0.228 0.194-0.341 0.052-0.063 0.104-0.114 0.155-0.155l-0.039 0.14c-0.013 0.093-7e-3 0.171 0.02 0.233 0 0.01 0.02 0.067 0.058 0.17 0 0.031 0.052 0.037 0.156 0.016 0.168-0.021 0.259-0.031 0.271-0.031 0.052-0.021 0.078-0.062 0.078-0.124-0.026-0.072-0.046-0.119-0.059-0.14-0.013-0.031 0.013-0.067 0.077-0.108 0.065-0.031 0.11-0.067 0.137-0.109 0.025-0.031 0.058-0.052 0.097-0.062 0.052-0.01 0.123-0.031 0.214-0.062 0.064-0.031 0.104-0.078 0.116-0.14l0.039-0.171 0.098 0.047c0.064 0.031 0.104 0.067 0.116 0.108 0.013 0.021 0.039 0.046 0.077 0.078 0.014 0.01 0 0.046-0.038 0.108-0.065 0.125-0.098 0.191-0.098 0.202-0.052 0.052-0.123 0.067-0.214 0.046-0.09-0.01-0.168 0-0.232 0.031-0.065 0.021-0.104 0.051-0.117 0.093l0.039 0.202c-0.052 0.052-0.091 0.099-0.116 0.14-0.065 0.083-0.059 0.119 0.02 0.109 0.064-0.011 0.104-0.063 0.116-0.156s0.045-0.155 0.097-0.186c0.065-0.031 0.169-0.078 0.312-0.14 0.116-0.062 0.194-0.14 0.232-0.233 0.078-0.155 0.156-0.331 0.233-0.528l0.33-0.124c-0.077 0.104-0.136 0.228-0.175 0.373-0.025 0.134-0.091 0.264-0.194 0.388 0 0.031 0.032 0.047 0.098 0.047 0.077 0 0.129-0.021 0.155-0.062 0.155-0.145 0.214-0.187 0.175-0.125-0.026 0.073-0.098 0.166-0.214 0.28-0.039 0.062-0.13 0.129-0.271 0.202-0.156 0.062-0.266 0.108-0.33 0.139-0.104 0.052-0.162 0.114-0.176 0.187 0 0.031 0.046 0.187 0.137 0.466 0.013 0.052 6e-3 0.108-0.02 0.171-0.013 0.041-7e-3 0.067 0.02 0.077 0.143 0.042 0.291 0.011 0.446-0.093 0.052-0.031 0.13-0.052 0.233-0.063 0.052-0.01 0.064-0.036 0.039-0.077-0.026-0.042-0.091-0.114-0.194-0.218-0.104-0.093-0.162-0.149-0.175-0.17l0.02-0.187 0.136 0.016c0.091 0.01 0.143 0.041 0.155 0.093 0.039 0.083 0.123 0.212 0.253 0.388 0.025 0.052 0.122 0.114 0.291 0.187 0.194 0.072 0.278 0.13 0.252 0.171-0.052-0.021-0.214-5e-3 -0.485 0.047-0.492 0.093-0.751 0.145-0.776 0.154l-0.059 0.063c-0.013 0.011-0.078 0.021-0.194 0.031-0.168-0.021-0.285-0.026-0.35-0.016-0.104 0.01-0.201 0.072-0.291 0.187-0.065 0.093-0.175 0.191-0.33 0.295-0.078 0.072-0.059 0.129 0.058 0.17 0.104 0.042 0.227 0.099 0.369 0.171 0.117 0.031 0.182 5e-3 0.194-0.077 0.013-0.063 0-0.146-0.039-0.248-0.025-0.083-0.025-0.135 0-0.155 0.039-0.042 0.065-0.063 0.078-0.063 0.025 0 0.071 0.025 0.136 0.077 0.026 0.021 0.136 0.037 0.33 0.047 0.13 0.011 0.155 0.083 0.078 0.218-0.078 0.134-0.182 0.253-0.312 0.356-0.129 0.094-0.2 0.155-0.213 0.187-0.052 0.113-0.078 0.181-0.078 0.201 0 0.073 0.052 0.104 0.155 0.094 0.078 0 0.162 0.016 0.253 0.047 0.077 0 0.143-0.053 0.194-0.155 0.038-0.083 0.077-0.213 0.116-0.389 0.039-0.165 0.084-0.279 0.136-0.341 0.052-0.063 0.104-0.124 0.155-0.187 0.026-0.041 0.091-0.067 0.194-0.078 0.169-0.021 0.298-0.01 0.389 0.031 0.376 0.228 0.563 0.352 0.563 0.373 0 0.03-0.052 0.077-0.155 0.14-0.143-0.114-0.292-0.166-0.447-0.155-0.194 0.01-0.311 0.021-0.35 0.031-0.104 0.03-0.181 0.098-0.232 0.201-0.039 0.083-0.098 0.187-0.175 0.311-0.053 0.083-0.02 0.13 0.097 0.14 0.183 0.02 0.318 0.03 0.408 0.031 2e-3 -0.015 0.034-0.062 0.097-0.14 0.091-0.104 0.188-0.171 0.291-0.202 0.26-0.082 0.408-0.113 0.447-0.093 0.104 0.021 0.032 0.104-0.214 0.248-0.013 0.011-0.084 0.042-0.214 0.093-0.052 0.021-0.064 0.063-0.039 0.125 0.026 0.082 0.085 0.14 0.176 0.17 0.09 0.042 0.168 0.037 0.232-0.015 0.091-0.073 0.207-0.182 0.35-0.326 0.064-0.042 0.221-0.108 0.467-0.202 0.207-0.082 0.369-0.181 0.485-0.295 0.285-0.269 0.439-0.408 0.466-0.419 0.155-0.124 0.324-0.181 0.505-0.171 0.143 0.011 0.259 0.063 0.35 0.155 0.064 0.072 0.143 0.078 0.233 0.016 0.091-0.052 0.136-0.119 0.136-0.202 0.014-0.091 0.06-0.174 0.137-0.247z" fill="url(#aw)"/>
			<radialGradient id="ax" cx="10.808" cy="-19.201" r="7.0837" gradientTransform="matrix(.12 .2952 .3695 -.0959 42.788 11.069)" gradientUnits="userSpaceOnUse">
			<stop stop-color="#BEDB7F" offset="0"/>
			<stop stop-color="#96CF4F" offset="1"/>
		</radialGradient>
		<path d="m37.417 15.93c0.052 0.021 0.078 0.021 0.078 0l0.077-0.031 0.253 0.14 0.311 0.109c-0.104 0.01-0.175 0.036-0.214 0.078-0.09 0.104-0.161 0.176-0.213 0.217-0.246 0.134-0.376 0.217-0.389 0.248 0 0.042 0.025 0.099 0.078 0.171 0.051 0.093 0.109 0.129 0.174 0.108l0.233-0.124c0.064-0.052 0.148-0.062 0.252-0.031l0.137 0.031c-0.026 0-0.052 5e-3 -0.078 0.016-0.052 0.021-0.071 0.067-0.059 0.139 0 0.052-6e-3 0.109-0.019 0.171 0 0.031 0.052 0.052 0.155 0.063 0.246 0.01 0.375 0.016 0.389 0.016 0.025 0 0.051-0.026 0.077-0.078 0.013-0.03 0.071-0.036 0.175-0.016 0.091 0.021 0.175 0.042 0.253 0.063 0.038 0.011 0.064 0.031 0.077 0.063 0.014 0.021 0.052 0.041 0.117 0.062 0.052 0.031 0.084 0.063 0.097 0.093 0.013 0.042 0.025 0.099 0.039 0.171 0.013 0.052-7e-3 0.083-0.059 0.094-0.052 0.01-0.194-0.021-0.428-0.094-0.259-0.083-0.395-0.124-0.407-0.124-0.104 0.041-0.239 0.078-0.408 0.108-0.401 0.094-0.653 0.171-0.757 0.233-0.324 0.196-0.512 0.305-0.563 0.326-0.065 0.021-0.175 0.015-0.33-0.016-0.182-0.031-0.298-0.067-0.35-0.109-0.026-0.021-0.11-0.124-0.253-0.311-0.116-0.165-0.2-0.253-0.252-0.264-0.182-0.113-0.272-0.201-0.272-0.264-0.013-0.062 0.02-0.165 0.098-0.31 0.025-0.073 0.052-0.129 0.077-0.171 0.039-0.072 0.098-0.129 0.175-0.171l0.641-0.232c0.233-0.063 0.356-0.15 0.369-0.264l0.02-0.497 0.155 0.171c0.065 0.124 0.098 0.264 0.098 0.419 0 0.176-0.039 0.29-0.116 0.341-0.091 0.042-0.149 0.067-0.176 0.078-0.052 0.021-0.052 0.042 0 0.062 0.052 0.031 0.13 0.042 0.233 0.031s0.182-0.036 0.233-0.078 0.091-0.129 0.116-0.264c0.026-0.125 0.033-0.207 0.02-0.249 0-0.01-0.02-0.052-0.059-0.124-0.025-0.052-0.019-0.072 0.02-0.062 0.013 0 0.071 0.02 0.175 0.062z" fill="url(#ax)"/>
			<radialGradient id="ay" cx="9.458" cy="-3.7114" r="5.5065" gradientTransform="matrix(.1199 .2952 .3695 -.0958 31.342 14.039)" gradientUnits="userSpaceOnUse">
			<stop stop-color="#83AB4F" offset="0"/>
			<stop stop-color="#739C40" offset="1"/>
		</radialGradient>
		<path d="m30.406 17.528c0.181-0.238 0.382-0.419 0.602-0.543 0.143-0.083 0.253-0.129 0.33-0.14 0.065-0.01 0.214-0.021 0.447-0.031 0.311-0.021 0.576-0.057 0.796-0.108-0.039 0.031-0.071 0.067-0.097 0.108-0.052 0.063-0.052 0.093 0 0.093-0.159 5e-3 -0.386 0.037-0.68 0.093-0.389 0.083-0.642 0.177-0.758 0.28-0.052 0.03-0.11 0.077-0.175 0.14-0.13 0.113-0.239 0.232-0.33 0.356-0.233 0.321-0.291 0.513-0.175 0.574 0.077 0.031 0.252 0.078 0.524 0.14 0.232 0.135 0.453 0.233 0.66 0.295l-0.175 0.248c-0.428-0.103-0.699-0.191-0.815-0.264-0.298-0.196-0.46-0.419-0.486-0.667-0.013-0.114 0-0.202 0.039-0.264 0.014-0.02 0.112-0.124 0.293-0.31z" fill="url(#ay)"/>
			<linearGradient id="az" x1="13.261" x2="15.71" y1="-19.25" y2="-19.25" gradientTransform="matrix(.1625 .2819 -.3528 .1299 28.6 14.75)" gradientUnits="userSpaceOnUse">
			<stop stop-color="#FFE000" offset="0"/>
			<stop stop-color="#FFF7B5" offset="1"/>
		</linearGradient>
		<path d="m38.466 16.24c0.078 0.104 0.084 0.217 0.02 0.342-0.025 0.052-0.071 0.093-0.136 0.124-0.064 0.021-0.194 0.047-0.389 0.078-0.181 0.031-0.317 0.036-0.408 0.016l-0.097-0.046c-0.194-0.083-0.337-0.192-0.427-0.326-0.143-0.166-0.156-0.311-0.039-0.435 0.064-0.073 0.193-0.134 0.388-0.187 0.246-0.041 0.454-0.025 0.622 0.047 0.259 0.103 0.414 0.231 0.466 0.387z" fill="url(#az)"/>
			<radialGradient id="bn" cx="8.8877" cy="-9.5747" r="10.736" gradientTransform="matrix(.1198 .2953 .3695 -.0958 35.676 12.916)" gradientUnits="userSpaceOnUse">
			<stop stop-color="#83AB4F" offset="0"/>
			<stop stop-color="#739C40" offset="1"/>
		</radialGradient>
		<path d="m35.397 15.611c-0.075 0.05-0.14 0.109-0.194 0.179-0.064 0.093-0.116 0.191-0.155 0.294-0.052 0.135-0.091 0.228-0.116 0.28-0.039 0.093-0.085 0.155-0.137 0.186-0.09 0.072-0.193 0.15-0.311 0.233-0.129 0.093-0.298 0.191-0.505 0.295-0.194 0.093-0.317 0.16-0.369 0.202-0.091 0.113-0.162 0.196-0.214 0.248-0.09 0.093-0.2 0.171-0.33 0.232-0.22 0.094-0.621 0.207-1.204 0.342l0.059 0.171c0.039 0.124 0.097 0.217 0.175 0.279 0.039 0.041 0.168 0.108 0.389 0.201 0.22 0.094 0.382 0.191 0.485 0.295 0.116 0.124 0.194 0.254 0.233 0.389 0.013 0.041 0.032 0.186 0.058 0.435 0.026 0.217-0.109 0.336-0.407 0.356l-0.292-0.108c0.207-0.507 0.201-0.838-0.02-0.993-0.375-0.218-0.634-0.388-0.776-0.513-0.091-0.072-0.175-0.155-0.253-0.248l-0.077-0.108c0.259-0.072 0.453-0.166 0.582-0.279l0.214-0.171 0.563-0.248c0.22-0.083 0.317-0.155 0.291-0.218l-0.155-0.14c0.505-0.072 0.933-0.238 1.282-0.497 0.116-0.083 0.232-0.166 0.35-0.249 0.052-0.051 0.071-0.124 0.058-0.217s0.039-0.207 0.155-0.341c0.052-0.072 0.104-0.134 0.156-0.186h0.116c0.091-0.01 0.2-0.042 0.33-0.093l0.019-8e-3z" fill="url(#bn)"/>
			<radialGradient id="bo" cx="12.488" cy="-10.142" r="15.638" gradientTransform="matrix(.1199 .2953 .3695 -.0958 36.094 12.807)" gradientUnits="userSpaceOnUse">
			<stop stop-color="#AFD67C" offset="0"/>
			<stop stop-color="#709C39" offset="1"/>
		</radialGradient>
		<path d="m37.417 16.954c0.13-0.145 0.207-0.264 0.233-0.357l0.389 0.17c-0.052 0.031-0.098 0.067-0.136 0.109-0.078 0.093-0.065 0.197 0.038 0.31 0.376 0.425 0.479 0.756 0.311 0.993l-0.311 0.373c-0.077 0.155-0.071 0.311 0.02 0.466 0.285 0.527 0.557 0.766 0.816 0.714 0.104-0.021 0.258-0.058 0.466-0.109 0.143-0.062 0.175-0.154 0.097-0.279-0.143-0.176-0.246-0.3-0.311-0.372-0.091-0.124-0.11-0.243-0.059-0.357 0.026-0.041 0.117-0.145 0.272-0.31 0.091-0.094 0.097-0.197 0.02-0.311l-0.369-0.435 0.136-0.14 0.271 0.14c0.194 0.134 0.285 0.284 0.272 0.45 0 0.113-0.084 0.264-0.253 0.449-0.116 0.135-0.123 0.265-0.02 0.389 0.091 0.113 0.214 0.228 0.369 0.341 0.104 0.073 0.162 0.146 0.175 0.218 0.014 0.104 0.085 0.16 0.214 0.171 0.143 0.01 0.214-0.031 0.214-0.124 0-0.073-0.045-0.202-0.136-0.389l-0.135-0.248 0.117-0.187 0.136 0.171c0.104 0.135 0.162 0.264 0.175 0.388 0.039 0.218 0.025 0.394-0.039 0.528-0.104 0.217-0.375 0.419-0.815 0.605-0.518 0.217-1.58 0.356-3.186 0.419-1.657 0.072-2.978 0.01-3.962-0.187-0.854-0.176-1.638-0.455-2.351-0.838l-0.796-0.528 0.272-0.807 0.213 0.124 0.098 0.016-0.253 0.497c-0.039 0.145-0.039 0.243 0 0.295 0.155 0.021 0.344-0.094 0.563-0.342 0.337-0.383 0.738-0.646 1.204-0.792 0.233-0.072 0.382-0.14 0.446-0.201 0.065-0.083 0.137-0.166 0.214-0.249 0.182-0.165 0.344-0.264 0.485-0.295l0.428 0.047c-0.104 0.031-0.266 0.124-0.485 0.279-0.078 0.052-0.175 0.15-0.291 0.295-0.078 0.104-0.194 0.182-0.351 0.233-0.505 0.176-0.789 0.315-0.854 0.419-0.013 0.021-0.097 0.124-0.252 0.311-0.143 0.206-0.169 0.383-0.078 0.527 0.117 0.196 0.194 0.3 0.233 0.311 0.052 0.041 0.182 0.052 0.389 0.031 0.388-0.042 0.673-0.238 0.854-0.59 0.052-0.104 0.155-0.213 0.311-0.326 0.182-0.135 0.311-0.264 0.389-0.388l0.232-0.513c0.091-0.196 0.227-0.342 0.408-0.435 0.233-0.135 0.369-0.223 0.408-0.264 0.052-0.063 0.045-0.166-0.02-0.311-0.052-0.124-0.123-0.228-0.214-0.31l-0.116-0.078 0.388-0.063 0.156 0.14c0.116 0.114 0.188 0.227 0.213 0.341 0.039 0.124 0.039 0.228 0 0.311-0.038 0.062-0.116 0.129-0.232 0.201-0.155 0.083-0.259 0.14-0.311 0.171-0.091 0.063-0.149 0.14-0.175 0.233-0.053 0.196-0.182 0.424-0.389 0.683-0.052 0.062-0.207 0.207-0.467 0.435-0.194 0.155-0.291 0.269-0.291 0.342 0 0.062-0.025 0.129-0.077 0.201-0.026 0.063 0.025 0.108 0.155 0.14 0.194 0.052 0.421 0.093 0.68 0.124 0.323 0.042 0.55 0.052 0.68 0.031 0.143-0.031 0.304-0.145 0.485-0.342 0.168-0.196 0.259-0.377 0.272-0.543 0.013-0.217 0.038-0.362 0.077-0.435 0.064-0.135 0.233-0.253 0.505-0.356 0.207-0.073 0.421-0.15 0.641-0.233 0.13-0.062 0.201-0.176 0.214-0.342 0.013-0.165-6e-3 -0.336-0.058-0.512l-0.098-0.233h0.33c0.116 0.073 0.155 0.285 0.116 0.636-0.038 0.238-0.129 0.435-0.271 0.59-0.091 0.083-0.253 0.187-0.485 0.311-0.194 0.104-0.324 0.181-0.389 0.233-0.077 0.082-0.123 0.176-0.136 0.279-0.013 0.093-0.071 0.232-0.175 0.419-0.052 0.093-0.13 0.228-0.233 0.403-0.052 0.135 0.032 0.248 0.253 0.342 0.246 0.113 0.563 0.145 0.951 0.093 0.052-0.011 0.473 0 1.263 0.031 0.414 0.01 0.628-0.114 0.641-0.373 0.014-0.238-0.02-0.491-0.097-0.761-0.064-0.237-0.091-0.397-0.078-0.48 0.014-0.094 0.084-0.212 0.214-0.357 0.143-0.155 0.221-0.279 0.233-0.372 0.013-0.083-0.104-0.259-0.35-0.528-0.23-0.244-0.314-0.405-0.25-0.477z" fill="url(#bo)"/>
			<radialGradient id="bp" cx="10.789" cy="-15.894" r="9.8705" gradientTransform="matrix(.12 .2952 .3694 -.0959 40.344 11.701)" gradientUnits="userSpaceOnUse">
			<stop stop-color="#83AB4F" offset="0"/>
			<stop stop-color="#739C40" offset="1"/>
		</radialGradient>
		<path d="m36.543 15.417l0.312 0.062 0.038 0.186c0.078 0.249 0.071 0.466-0.02 0.652-0.025 0.063-0.181 0.129-0.466 0.202-0.35 0.093-0.537 0.145-0.563 0.155-0.077 0.041-0.155 0.119-0.232 0.232-0.052 0.135-0.091 0.212-0.117 0.233-0.013 0.03-0.013 0.052 0 0.062 0.052 0.021 0.104 0.063 0.155 0.124 0.143 0.176 0.467 0.383 0.972 0.621 0.194 0.093 0.356 0.274 0.485 0.543 0.026 0.207-0.077 0.409-0.311 0.605-0.117 0.104-0.285 0.187-0.505 0.248-0.233 0.072-0.389 0.135-0.467 0.187-0.168 0.124-0.271 0.347-0.311 0.667l-0.68-0.108c0.194-0.165 0.362-0.352 0.505-0.559 0.091-0.124 0.266-0.238 0.524-0.342 0.401-0.165 0.608-0.253 0.622-0.264 0.323-0.176 0.395-0.362 0.213-0.559-0.142-0.165-0.349-0.3-0.621-0.403-0.194-0.041-0.337-0.083-0.428-0.124-0.155-0.052-0.252-0.14-0.291-0.264-0.039-0.114-0.129-0.223-0.271-0.326l-0.194-0.124 0.33-0.14c0.064-0.01 0.201-0.166 0.408-0.465 0.064-0.083 0.252-0.171 0.563-0.264 0.208-0.052 0.324-0.114 0.35-0.186 0.014-0.042-6e-3 -0.14-0.058-0.295-0.039-0.176-0.143-0.295-0.312-0.357h0.37z" fill="url(#bp)"/>
			<radialGradient id="bq" cx="16.017" cy="-19.092" r="6.6489" gradientTransform="matrix(.1198 .2953 .3695 -.0957 42.71 11.096)" gradientUnits="userSpaceOnUse">
			<stop stop-color="#86B548" offset="0"/>
			<stop stop-color="#5B802D" offset="1"/>
		</radialGradient>
		<path d="m36.912 17.839c0.065-0.072 0.207-0.15 0.428-0.233 0.116-0.052 0.266-0.108 0.446-0.171 0.143-0.062 0.305-0.176 0.486-0.341 0.025 0.031 0.142 0.041 0.349 0.031l-0.271 0.31c-0.091 0.104-0.175 0.187-0.253 0.249-0.116 0.104-0.278 0.191-0.485 0.264s-0.401 0.196-0.582 0.372l-0.233 0.249 0.136 0.077c0.13 0.052 0.266 0.099 0.408 0.14 0.246 0.052 0.776 0.155 1.592 0.311 0.208 0.072 0.447 0.218 0.72 0.435l-0.563 0.187c-0.182-0.166-0.415-0.326-0.699-0.481-0.155-0.083-0.337-0.119-0.544-0.108-0.285 0-0.557-0.026-0.815-0.078-0.337-0.072-0.583-0.186-0.738-0.341l-0.155-0.218 0.773-0.654z" fill="url(#bq)"/>
			<linearGradient id="br" x1="15.836" x2="18.397" y1="-7.2642" y2="-7.2642" gradientTransform="matrix(.163 .2818 -.3526 .1303 28.6 14.75)" gradientUnits="userSpaceOnUse">
			<stop stop-color="#FFE000" offset="0"/>
			<stop stop-color="#FFF7B5" offset="1"/>
		</linearGradient>
		<path d="m33.164 18.289c0.091-0.083 0.232-0.161 0.427-0.233 0.259-0.093 0.473-0.108 0.642-0.046 0.259 0.104 0.395 0.284 0.407 0.543 0.039 0.052 0 0.181-0.116 0.388-0.039 0.072-0.064 0.114-0.078 0.124-0.052 0.031-0.161 0.063-0.33 0.094-0.181 0.03-0.323 0.03-0.427 0l-0.098-0.063c0.104 0.041-0.025-0.077-0.388-0.356l-0.039-0.078c-0.078-0.166-0.078-0.291 0-0.373z" fill="url(#br)"/>
			<radialGradient id="bs" cx="17.453" cy="-24.201" r="5.0322" gradientTransform="matrix(.1196 .2953 .3696 -.0956 46.487 10.122)" gradientUnits="userSpaceOnUse">
			<stop stop-color="#83AB4F" offset="0"/>
			<stop stop-color="#739C40" offset="1"/>
		</radialGradient>
		<path d="m40.408 18.273c0.013 0.093 0.039 0.16 0.077 0.201 0.039 0.031 0.117 0.094 0.233 0.187 0.155 0.135 0.221 0.238 0.194 0.311-0.284 0.196-0.485 0.311-0.602 0.342-0.246 0.062-0.435-0.011-0.563-0.218-0.039-0.063-0.162-0.119-0.369-0.171-0.233-0.052-0.401-0.129-0.505-0.232-0.13-0.114-0.143-0.233-0.039-0.357 0.064-0.083 0.194-0.237 0.389-0.466 0.168-0.248 0.123-0.491-0.136-0.729 0.064 0.062 0.162 0.098 0.291 0.108 0.155 0.124 0.246 0.232 0.272 0.326 0.051 0.165-0.072 0.383-0.369 0.651-0.065 0.063-0.078 0.14-0.039 0.232 0.039 0.083 0.104 0.146 0.194 0.187 0.285 0.124 0.498 0.259 0.641 0.403 0.091 0.104 0.188 0.14 0.291 0.109 0.052-0.011 0.13-0.058 0.233-0.14 0.077-0.083 0.013-0.207-0.194-0.373-0.143-0.104-0.227-0.243-0.252-0.419-0.012-0.071-0.064-0.179-0.155-0.325l-0.136-0.201 0.155 0.077c0.078 0.042 0.13 0.057 0.155 0.047l0.117 0.14c0.065 0.113 0.105 0.217 0.117 0.31z" fill="url(#bs)"/>
			<radialGradient id="bt" cx="12.792" cy="-23.08" r="2.8778" gradientTransform="matrix(.1198 .2953 .3695 -.0957 45.656 10.331)" gradientUnits="userSpaceOnUse">
			<stop stop-color="#83AB4F" offset="0"/>
			<stop stop-color="#739C40" offset="1"/>
		</radialGradient>
		<path d="m38.621 16.333l0.039 0.093c0.026 0.031 0.064 0.098 0.117 0.202 0.064 0.093 0.161 0.161 0.291 0.202l0.389 0.14 0.038 0.28-0.175-0.124c-0.271-0.073-0.466-0.135-0.582-0.187-0.078-0.042-0.155-0.125-0.233-0.249-0.064-0.124-0.104-0.238-0.116-0.341-0.013-0.093-0.071-0.166-0.175-0.217l-0.136-0.062c0.168 0.02 0.349 0.108 0.543 0.263z" fill="url(#bt)"/>
			<linearGradient id="bu" x1="12.161" x2="14.616" y1="-2.2432" y2="-2.2432" gradientTransform="matrix(.3164 .1801 -.2254 .2528 28.6 14.75)" gradientUnits="userSpaceOnUse">
			<stop stop-color="#FFE000" offset="0"/>
			<stop stop-color="#FFF7B5" offset="1"/>
		</linearGradient>
		<path d="m33.921 16.24c0.143 0.083 0.221 0.176 0.233 0.28 0.013 0.062-7e-3 0.114-0.059 0.155-0.025 0.041-0.123 0.119-0.291 0.232-0.22 0.145-0.369 0.196-0.446 0.155-0.233 0.011-0.428-0.021-0.583-0.093-0.207-0.114-0.311-0.243-0.311-0.388 0.013-0.083 0.097-0.181 0.252-0.295 0.169-0.135 0.35-0.207 0.544-0.217 0.299-0.01 0.519 0.047 0.661 0.171z" fill="url(#bu)"/>
			<radialGradient id="bv" cx="11.687" cy="-11.4" r="8.7519" gradientTransform="matrix(.1198 .2953 .3695 -.0958 37.025 12.566)" gradientUnits="userSpaceOnUse">
			<stop stop-color="#83AB4F" offset="0"/>
			<stop stop-color="#608C2B" offset="1"/>
		</radialGradient>
		<path d="m32.659 16.612c0.155-0.021 0.259-0.057 0.311-0.108 0.091-0.073 0.233-0.124 0.427-0.155-0.013 0.062-0.071 0.135-0.175 0.217-0.09 0.083-0.077 0.269 0.039 0.559 0.052 0.082 0.123 0.149 0.214 0.201 0.064 0.021 0.148 0.052 0.253 0.094 0.323 0.228 0.537 0.413 0.641 0.559 0.052 0.082 0.207 0.165 0.466 0.248 0.155 0.052 0.408 0.119 0.758 0.202 0.246 0.072 0.473 0.207 0.68 0.403 0.182 0.176 0.304 0.352 0.369 0.527 0.064 0.218-0.014 0.435-0.233 0.652l-0.524-0.031c0.246-0.248 0.376-0.476 0.389-0.683 0.013-0.146-0.188-0.337-0.603-0.574-0.401-0.238-0.692-0.353-0.874-0.342-0.298 0.011-0.596-0.13-0.894-0.419-0.116-0.114-0.362-0.27-0.737-0.466-0.362-0.187-0.557-0.311-0.583-0.372-0.052-0.094-0.052-0.208 0-0.342l0.076-0.17z" fill="url(#bv)"/>
			<radialGradient id="bw" cx="13.918" cy="-5.7837" r="6.1508" gradientTransform="matrix(.12 .2952 .3694 -.0959 32.873 13.641)" gradientUnits="userSpaceOnUse">
			<stop stop-color="#83AB4F" offset="0"/>
			<stop stop-color="#668A38" offset="1"/>
		</radialGradient>
		<path d="m31.571 18.211l0.311-0.466 0.02 0.265c0.039 0.206 0.104 0.372 0.194 0.496 0.091 0.155 0.239 0.284 0.446 0.388 0.182 0.104 0.473 0.223 0.874 0.357 0.324 0.114 0.512 0.331 0.563 0.651 0.026 0.166 0.02 0.315-0.02 0.45-0.427 0.094-0.913 0.063-1.457-0.093-0.259-0.072-0.498-0.196-0.718-0.372-0.298-0.228-0.46-0.477-0.485-0.745-0.013-0.248 0.078-0.558 0.272-0.931z" fill="url(#bw)"/>
		<path d="m38.389 17.265l0.116-0.155c0.104-0.114 0.201-0.187 0.291-0.218 0.091-0.031 0.13 0.026 0.117 0.171-0.014 0.145-0.052 0.248-0.117 0.311l-0.116 0.108 0.175-0.14c0.116-0.083 0.188-0.083 0.214 0 0.025 0.135-0.098 0.284-0.369 0.45l0.271-0.108c0.182-0.052 0.253-0.021 0.214 0.093-0.064 0.176-0.214 0.3-0.446 0.373l0.252-0.016c0.155 0 0.214 0.052 0.175 0.155-0.052 0.165-0.304 0.341-0.757 0.527 0.375-0.124 0.53-0.108 0.466 0.047-0.052 0.155-0.253 0.315-0.602 0.48l0.252-0.016c0.168 0 0.253 0.021 0.253 0.063 0 0.104-0.162 0.238-0.486 0.403-0.388 0.207-0.81 0.285-1.262 0.233-0.26-0.094-0.415-0.249-0.467-0.466-0.025-0.166-0.039-0.306-0.039-0.419 0.014-0.124 0.039-0.166 0.078-0.124l0.136 0.14c-0.077-0.362-0.091-0.621-0.039-0.776 0.039-0.093 0.123-0.104 0.253-0.031 0.064 0.042 0.123 0.093 0.175 0.155-0.064-0.248-0.059-0.46 0.02-0.637 0.052-0.103 0.123-0.108 0.214-0.015 0.039 0.041 0.077 0.093 0.116 0.155v-0.218c0.013-0.155 0.059-0.274 0.136-0.357 0.116-0.145 0.201-0.093 0.253 0.155l0.291-0.48c0.089-0.102 0.166-0.05 0.232 0.157z" fill="#60872B"/>
			<radialGradient id="by" cx="13.739" cy="-2.6719" r="6.6417" gradientTransform="matrix(.1586 .2833 .3546 -.1268 30.495 14.072)" gradientUnits="userSpaceOnUse">
			<stop stop-color="#95C755" offset="0"/>
			<stop stop-color="#6E963E" offset="1"/>
		</radialGradient>
		<path d="m32.174 18.987l-0.117 0.186 0.175 0.233 0.098 0.093c0.09-0.072 0.148-0.155 0.174-0.248l0.078-0.342v0.373c-0.013 0.124-0.064 0.228-0.155 0.311l0.233 0.186c0.129 0.072 0.213 0.109 0.252 0.109 0.026-0.104 0.039-0.228 0.039-0.373v-0.311l0.194 0.403c0.025 0.114 0.064 0.229 0.116 0.342 0.104 0.093 0.168 0.083 0.194-0.031 0.013-0.062 7e-3 -0.155-0.02-0.279l-0.059-0.17 0.117 0.17c0.077 0.124 0.123 0.218 0.136 0.279 0.013 0.052 0.052 0.124 0.116 0.218 0.014 0.062-0.084 0.072-0.291 0.031-0.518-0.114-0.815-0.207-0.894-0.279l-0.214-0.233c-0.116 0.011-0.278-0.016-0.485-0.077l-0.369-0.187 0.369 0.078 0.312 0.03c-0.091-0.124-0.156-0.196-0.194-0.217l-0.039-0.047c-0.052 0-0.143-0.025-0.272-0.077-0.077-0.042-0.143-0.094-0.194-0.155l-0.058-0.094 0.213 0.124c0.091 0.042 0.176 0.063 0.253 0.063-0.064-0.052-0.116-0.124-0.155-0.218l-0.039-0.403 0.136 0.389 0.156 0.232 0.213-0.295-0.019 0.186z" fill="url(#by)"/>
			<radialGradient id="bz" cx="-.7583" cy="-27.12" r="8.6845" gradientTransform="matrix(-.1213 .2949 .369 .097 48.615 20.009)" gradientUnits="userSpaceOnUse">
			<stop stop-color="#537525" offset="0"/>
			<stop stop-color="#547828" offset="1"/>
		</radialGradient>
		<path d="m38.252 17.621l0.486-0.543-0.233 0.356-0.214 0.249 0.059 0.03c0.039 0.011 0.084 0 0.136-0.03 0.091-0.042 0.188-0.104 0.292-0.187-0.13 0.135-0.24 0.223-0.331 0.264l-0.232 0.047-0.117 0.311v0.093l0.816-0.372-0.505 0.341-0.312 0.155-0.077 0.218c-0.013 0.083-0.052 0.181-0.116 0.295l0.932-0.466-1.01 0.698c-0.025 0.228-0.052 0.357-0.078 0.389l-0.038 0.03 0.718-0.48c-0.271 0.3-0.466 0.491-0.582 0.574-0.064 0.041-0.084 0.118-0.059 0.232 0.026 0.104 7e-3 0.16-0.059 0.171-0.077 0.01-0.181 0-0.311-0.031l-0.155-0.063c-0.116-0.104-0.207-0.248-0.271-0.434-0.039-0.114-0.059-0.254-0.059-0.42v-0.217l0.039 0.264c0.039 0.187 0.097 0.32 0.175 0.403 0.116 0.135 0.253 0.191 0.407 0.171l0.137-0.621-0.35-0.931 0.446 0.729 0.098-0.45c-0.065-0.104-0.123-0.228-0.175-0.373-0.026-0.093-0.039-0.191-0.039-0.295v-0.14l0.233 0.544 0.077 0.077 0.155-0.45 0.059-0.527 0.058 0.389z" fill="url(#bz)"/>
		<path d="m35.98 15.588c0.077 0 0.129 0.015 0.155 0.046 0.013 0.021 0.025 0.057 0.038 0.108 0.104 0.135 0.143 0.223 0.117 0.264-0.014 0.031-0.065 0.026-0.155-0.016-0.091-0.062-0.155-0.104-0.194-0.124-0.026-0.021-0.098-0.042-0.214-0.063-0.104-0.01-0.168-0.021-0.194-0.031-0.077 0-0.039-0.036 0.116-0.109 0.13-0.049 0.241-0.075 0.331-0.075z" fill="#EBFFBF"/>
		<path d="m35.417 16.116c0.143-0.01 0.155 0.052 0.039 0.187l-0.272 0.046c-0.052 0.01-0.059-5e-3 -0.02-0.046 0.026-0.021 0.059-0.057 0.098-0.109 0.012-0.042 0.064-0.068 0.155-0.078z" fill="#EBFFBF"/>
		<path d="m35.824 16.193c0.156 0 0.233 0.01 0.233 0.031l-0.116 0.062c-0.169 0.052-0.311 0.114-0.428 0.186-0.052 0.021-0.038-0.026 0.039-0.14 0.065-0.092 0.156-0.139 0.272-0.139z" fill="#EBFFBF"/>
		<path d="m33.203 16.162c0.09 0 0.109 0.037 0.058 0.109-0.077 0.031-0.148 0.072-0.214 0.124-0.09 0.073-0.155 0.104-0.193 0.093-0.078-0.031-0.11-0.078-0.098-0.14 0-0.042 0.059-0.083 0.175-0.124 0.09-0.041 0.181-0.062 0.272-0.062z" fill="#EBFFBF"/>
		<path d="m31.474 17.357c-0.052 0.031-0.077 0.077-0.077 0.14l0.02 0.171c0 0.062-0.026 0.099-0.078 0.108-0.025 0-0.097-0.01-0.214-0.031-0.077-0.021-0.116-0.067-0.116-0.14 0-0.062 0.026-0.129 0.078-0.201 0.038-0.052 0.097-0.094 0.175-0.124 0.052-0.011 0.143-0.037 0.271-0.078 0.064-0.01 0.084 5e-3 0.059 0.047-0.015 0.041-0.053 0.077-0.118 0.108z" fill="#EBFFBF"/>
		<path d="m32.271 17.016c0.091 0.021 0.116 0.047 0.077 0.078-0.064 0.031-0.116 0.052-0.155 0.062-0.077 0.052-0.129 0.042-0.155-0.03-0.013-0.042 7e-3 -0.073 0.059-0.094s0.109-0.026 0.174-0.016z" fill="#EBFFBF"/>
		<path d="m32.717 18.056c0.065-0.01 0.065 0.042 0 0.155-0.064 0.104-0.136 0.191-0.214 0.264-0.052 0.052-0.09 0.058-0.116 0.016-0.025-0.083-0.052-0.155-0.077-0.217-0.039-0.115 0.096-0.187 0.407-0.218z" fill="#EBFFBF"/>
		<path d="m34.388 17.637c0.038 0.011 0.064 0.036 0.077 0.077 0 0.042-0.013 0.073-0.039 0.094-0.013 0.041-0.077 0-0.193-0.124-0.079-0.073-0.027-0.088 0.155-0.047z" fill="#EBFFBF"/>
		<path d="m35.767 17.094c0.077 0.021 0.11 0.062 0.097 0.124 0 0.041-0.013 0.088-0.039 0.14-0.013 0.052-0.084 5e-3 -0.213-0.14-0.026-0.031-0.026-0.063 0-0.093 0.037-0.031 0.089-0.042 0.155-0.031z" fill="#EBFFBF"/>
		<path d="m36.698 17.233c0.052 0.021 0.085 0.052 0.098 0.093 0.013 0.031 0.052 0.058 0.116 0.078 0.13 0.03 0.13 0.108 0 0.232-0.129 0.104-0.246 0.145-0.35 0.124-0.091-0.021-0.136-0.077-0.136-0.171 0.039-0.124 0.052-0.217 0.039-0.279-0.013-0.082 0-0.129 0.039-0.14 0.014 1e-3 0.078 0.022 0.194 0.063z" fill="#EBFFBF"/>
		<path d="m35.494 18.754c0.13 0.011 0.175 0.058 0.137 0.14-0.052 0.011-0.104 0.016-0.155 0.016-0.078 0-0.143-0.01-0.194-0.031-0.065-0.021-0.065-0.046 0-0.077 0.064-0.032 0.135-0.048 0.212-0.048z" fill="#EBFFBF"/>
		<path d="m33.533 18.987c0.077 0.01 0.136 0.041 0.175 0.093 0.052 0.052 0.032 0.078-0.059 0.078-0.052 0-0.188-0.052-0.408-0.155-0.038-0.031-0.02-0.047 0.059-0.047 0.077 0 0.155 0.011 0.233 0.031z" fill="#EBFFBF"/>
		<path d="m37.204 16.023c0.091 0 0.123 0.015 0.097 0.046-0.026 0.021-0.059 0.052-0.097 0.093-0.014 0.021 0.013 0.052 0.077 0.093 0.039 0.031 0.104 0.078 0.194 0.14 0.077 0.042 0.13 0.088 0.155 0.14 0.013 0.052-0.013 0.052-0.078 0-0.298-0.155-0.472-0.258-0.523-0.31-0.039-0.031-0.033-0.073 0.019-0.125s0.103-0.077 0.156-0.077z" fill="#EBFFBF"/>
		<path d="m33.766 18.164c0.117 0 0.169 0.031 0.155 0.094-0.025 0.062-0.077 0.098-0.155 0.108-0.181 0-0.323 0.041-0.427 0.124-0.039 0.021-0.065 0.016-0.078-0.016-0.025-0.031-0.02-0.067 0.02-0.108 0.167-0.135 0.329-0.202 0.485-0.202z" fill="#EBFFBF"/>
			<radialGradient id="ca" cx="-26.582" cy="21.256" r="4.5455" gradientTransform="matrix(-.1677 -.28 -.3504 .134 43.495 9.0522)" gradientUnits="userSpaceOnUse">
			<stop stop-color="#639C35" offset="0"/>
			<stop stop-color="#79BD40" offset=".3098"/>
			<stop stop-color="#699632" offset="1"/>
		</radialGradient>
		<path d="m40.369 18.692l0.389 0.527-0.524 0.218c-0.298-0.031-0.55-0.202-0.758-0.513-0.155-0.228-0.226-0.45-0.213-0.667l0.077-0.248 0.486-0.265 0.543 0.948z" fill="url(#ca)"/>
		<path d="m40.583 19.235c-0.168-0.072-0.337-0.181-0.505-0.326-0.323-0.279-0.46-0.59-0.408-0.931 0.039-0.29 0.233-0.347 0.583-0.171 0.323 0.165 0.537 0.372 0.641 0.621 0.233 0.569 0.129 0.839-0.311 0.807z" fill="#68AB2E"/>
		<path d="m40.816 18.956c-0.078 0.124-0.24 0.108-0.485-0.047-0.26-0.155-0.415-0.347-0.467-0.574-0.077-0.466 0.104-0.554 0.544-0.264 0.168 0.114 0.298 0.259 0.389 0.435 0.091 0.186 0.097 0.336 0.019 0.45z" fill="#6AA338"/>
			<radialGradient id="ao" cx="-18.579" cy="-8.9453" r="4.5384" gradientTransform="matrix(-.3627 .1111 .1391 .2898 31.088 19.935)" gradientUnits="userSpaceOnUse">
			<stop stop-color="#639C35" offset="0"/>
			<stop stop-color="#79BD40" offset=".3098"/>
			<stop stop-color="#699632" offset="1"/>
		</radialGradient>
		<path d="m35.767 15.34l0.68-0.264 0.232 0.435c-0.064 0.228-0.297 0.419-0.698 0.574-0.298 0.114-0.576 0.15-0.836 0.109l-0.311-0.094-0.291-0.403 1.224-0.357z" fill="url(#ao)"/>
		<path d="m36.466 15.216c-0.104 0.134-0.253 0.258-0.447 0.373-0.375 0.238-0.776 0.326-1.204 0.264-0.362-0.062-0.421-0.223-0.175-0.481 0.233-0.248 0.512-0.403 0.836-0.465 0.311-0.062 0.557-0.073 0.737-0.031 0.207 0.05 0.292 0.164 0.253 0.34z" fill="#7FC743"/>
		<path d="m36.136 15.014c0.142 0.062 0.109 0.191-0.098 0.388-0.22 0.197-0.473 0.3-0.757 0.311-0.596 0.042-0.693-0.109-0.292-0.45 0.169-0.124 0.362-0.212 0.583-0.264 0.233-0.052 0.421-0.047 0.564 0.015z" fill="#8CD64D"/>
			<radialGradient id="ap" cx=".5981" cy="-10.714" r="5.2665" gradientTransform="matrix(-.2121 .2601 .3255 .1695 35.574 18.381)" gradientUnits="userSpaceOnUse">
			<stop stop-color="#639C35" offset="0"/>
			<stop stop-color="#79BD40" offset=".3098"/>
			<stop stop-color="#699632" offset="1"/>
		</radialGradient>
		<path d="m31.144 17.109l0.35-0.559 0.505 0.249c0.182 0.32 0.182 0.636 0 0.946-0.181 0.311-0.466 0.461-0.854 0.45l-0.854-0.279 0.853-0.807z" fill="url(#ap)"/>
		<path d="m31.707 16.737c0 0.155-0.045 0.321-0.136 0.497-0.182 0.362-0.473 0.6-0.874 0.714-0.337 0.104-0.485-5e-3 -0.446-0.326 0.038-0.311 0.175-0.559 0.407-0.745 0.221-0.187 0.421-0.295 0.603-0.326 0.207-0.052 0.355 0.01 0.446 0.186z" fill="#7FC743"/>
		<path d="m31.28 16.69c0.181 0 0.239 0.124 0.175 0.373-0.052 0.259-0.201 0.455-0.447 0.59-0.505 0.279-0.68 0.191-0.524-0.264 0.052-0.176 0.155-0.337 0.311-0.481 0.168-0.145 0.329-0.218 0.485-0.218z" fill="#8CD64D"/>
		<path d="m32.057 17.141c0.013 0.041 7e-3 0.093-0.02 0.155 0.013 0.021-0.045 0.01-0.175-0.031-0.143-0.052-0.188-0.119-0.136-0.202 0.013-0.031 0.071-0.036 0.175-0.016 0.091 0.02 0.143 0.052 0.156 0.094z" fill="#fff"/>
		<path d="m36.329 15.526c0.117 0.093 0.156 0.155 0.117 0.187-0.013 0.021-0.052 0.021-0.117 0-0.038-0.021-0.058-0.062-0.058-0.124 0.013-0.063 0.033-0.084 0.058-0.063z" fill="#fff"/>
			<linearGradient id="aq" x1="-.00048828" x2="33.799" y1="18.025" y2="18.025" gradientTransform="matrix(.3884 0 0 .3104 28.6 14.75)" gradientUnits="userSpaceOnUse">
			<stop stop-color="#D9D9D9" offset="0"/>
			<stop stop-color="#fff" offset=".3216"/>
			<stop stop-color="#BDBDBD" offset="1"/>
		</linearGradient>
		<path d="m41.729 18.754v1.724c-0.038 0.403-0.692 0.75-1.961 1.039-1.282 0.279-2.816 0.42-4.604 0.42s-3.314-0.141-4.583-0.42c-1.282-0.289-1.942-0.636-1.981-1.039v-1.724h0.311c0.13 0.331 0.783 0.605 1.962 0.823 1.191 0.217 2.603 0.325 4.234 0.325 1.644 0 3.062-0.108 4.253-0.325 1.179-0.218 1.832-0.492 1.962-0.823h0.407z" fill="url(#aq)"/>
		<path d="m41.146 18.584h0.563l0.019 0.155c0 0.413-0.641 0.766-1.923 1.055-1.281 0.29-2.828 0.435-4.642 0.435-1.813 0-3.359-0.145-4.642-0.435-1.282-0.289-1.923-0.642-1.923-1.055l0.02-0.155h0.68l-0.02 0.03c0 0.342 0.583 0.637 1.748 0.885 1.152 0.238 2.551 0.357 4.195 0.357s3.043-0.119 4.195-0.357c1.165-0.248 1.748-0.543 1.748-0.885l-0.018-0.03z" fill="#fff"/>
	</g>
			<use transform="matrix(.9337 0 0 -.7107 16.1 17.85)" x="-0.03" y="-9.5" width="20.224" height="9.51" enable-background="new" opacity=".25" xlink:href="#bi"/>
			<linearGradient id="ar" x1="4.4751" x2="40.725" y1="23.428" y2="23.428" gradientTransform="matrix(.9337 0 0 .6413 1.2499 11.15)" gradientUnits="userSpaceOnUse">
			<stop stop-color="#9C5227" offset="0"/>
			<stop stop-color="#80411C" offset="1"/>
		</linearGradient>
		<path d="m29.54 22.789c0.811 0.043 1.898 0.268 3.269 0.674 1.494 0.449 2.35 0.865 2.567 1.25 0.125 0.257 0.669 0.406 1.634 0.449 1.027 0.064 1.729 0.299 2.101 0.705 0.249 0.278 0.156 0.513-0.279 0.705-0.031 0.021-1.027 0.363-2.988 1.026-2.583 0.897-5.99 1.496-10.224 1.796-4.575 0.32-8.699 0.171-12.371-0.449-1.183-0.214-2.599-0.631-4.249-1.25-1.681-0.62-2.739-1.134-3.174-1.539-0.405-0.32-0.452-0.546-0.14-0.674 0.031-0.021 0.763-0.16 2.194-0.417 1.245-0.214 2.754-0.694 4.528-1.442 0.498-0.214 1.198-0.3 2.101-0.257 1.338 0.064 2.459 0.054 3.361-0.032 1.805-0.171 3.143-0.277 4.015-0.32 1.37-0.063 2.911-0.032 4.622 0.097 0.841 0.042 1.447 0 1.821-0.129 0.435-0.128 0.84-0.193 1.212-0.193z" clip-rule="evenodd" fill="url(#ar)" fill-rule="evenodd"/>
			<path d="m29.586 18.363c0.31 0.313 0.443 0.667 0.399 1.059-3e-3 0.217-0.137 0.695-0.401 1.437-0.171 0.587-0.615 1.392-1.334 2.416-0.674 1.015-1.232 1.679-1.677 1.993-0.539 0.387-1.803 0.227-3.789-0.479l0.477-1.366 4.1-5.736 1.534 0.158c0.161 0.063 0.391 0.236 0.691 0.518zm-7.024 6.05l1.164-2.279-0.465 1.288-0.699 0.991z" clip-rule="evenodd" fill="#9E7957" fill-rule="evenodd"/>
			<path d="m26.797 17.012c1.06 0.147 1.794 0.425 2.203 0.833 0.347 0.356 0.316 1.053-0.092 2.091-0.252 0.555-0.669 1.371-1.253 2.448-0.692 1.335-1.476 2.224-2.351 2.667-0.508 0.263-1.549 0.137-3.123-0.379-1.6-0.525-2.573-1.116-2.918-1.771l0.892-4.064c0.532-0.334 1.107-0.72 1.725-1.156 0.463-0.252 1.118-0.456 1.966-0.61 0.963-0.166 1.946-0.185 2.951-0.059z" clip-rule="evenodd" fill="#D6AF8B" fill-rule="evenodd"/>
			<path d="m26.342 17.363c0.925 0.094 1.551 0.329 1.88 0.705 0.292 0.334 0.229 0.963-0.19 1.888-0.234 0.534-0.631 1.304-1.19 2.31-0.694 1.252-1.431 2.104-2.207 2.561-0.464 0.252-1.375 0.164-2.733-0.266-1.413-0.452-2.26-0.979-2.542-1.581l1.045-3.799c1.028-0.711 1.55-1.076 1.567-1.097 0.446-0.232 1.031-0.437 1.753-0.613 0.837-0.187 1.709-0.223 2.617-0.108z" clip-rule="evenodd" fill="#804522" fill-rule="evenodd"/>
			<path d="m27.568 19.036c-0.028 0.289-0.202 0.752-0.522 1.388-0.232 0.617-0.787 1.597-1.666 2.939l-1.011-0.523 0.495-0.908c0.148-0.433 0.081-0.949-0.2-1.553-0.188-0.374-0.513-0.816-0.979-1.329l-0.654-0.627 0.842-0.362c0.499-0.211 0.899-0.324 1.201-0.342 0.46-0.035 1.034 0.07 1.724 0.316 0.608 0.214 0.865 0.548 0.77 1.001z" clip-rule="evenodd" fill="#914E27" fill-rule="evenodd"/>
			<path d="m26.114 18.336c0.438 0.119 0.722 0.314 0.853 0.584 0.112 0.208 0.095 0.379-0.054 0.511-0.096 0.071-0.461 0.145-1.098 0.219-0.318 0.038-0.743-0.267-1.274-0.914-0.155-0.198-0.013-0.347 0.429-0.444 0.449-0.067 0.832-0.052 1.144 0.044z" clip-rule="evenodd" fill="#A86237" fill-rule="evenodd"/>
			<path d="m26.181 20.367c0.085 0.197 0.027 0.393-0.172 0.587-0.198 0.193-0.363 0.155-0.494-0.115-0.132-0.271-0.075-0.466 0.17-0.587 0.218-0.131 0.383-0.093 0.496 0.115z" clip-rule="evenodd" fill="#A86237" fill-rule="evenodd"/>
				<use transform="matrix(.8063 .3198 .516 -.6134 24.4 15.95)" x="-0.006" y="-2.18" width="3.084" height="2.182" enable-background="new" opacity=".3398" xlink:href="#bm"/>
				<use transform="matrix(.8063 .3198 .516 -.6134 25.45 19.5)" x="-0.025" y="-0.707" width="0.45" height="0.702" enable-background="new" opacity=".3398" xlink:href="#bl"/>
				<use transform="matrix(.8063 .3198 .516 -.6134 27.75 17.45)" x="-0.022" y="-1.214" width="1.545" height="1.194" enable-background="new" opacity=".3398" xlink:href="#bk"/>
		<path d="m11.333 27.425c-0.498-0.236-1.026-0.568-1.587-0.994-0.312-0.19-0.514-0.332-0.607-0.427-0.156-0.166-0.109-0.379 0.14-0.64l1.307 0.995c0.965 0.687 1.587 1.102 1.867 1.243 0.555 0.311 1.084 0.536 1.587 0.675-1.318-0.337-2.22-0.621-2.707-0.852z" clip-rule="evenodd" fill="#AE694C" fill-rule="evenodd"/>
		<path d="m8.72 25.506l-0.234 0.214c-0.031 0.213 0.203 0.485 0.701 0.817l1.774 1.137-2.568-1.102c-0.467-0.142-0.669-0.284-0.607-0.427 0.063-0.142 0.109-0.236 0.14-0.284 0.031-0.095 0.109-0.166 0.233-0.213l0.561-0.142z" clip-rule="evenodd" fill="#AE694C" fill-rule="evenodd"/>
		<path d="m7.039 25.897c0.374 0 0.544 0.047 0.513 0.142 0 0.071-0.109 0.154-0.327 0.249l-0.233 0.143c-0.062 0-0.203-0.024-0.42-0.071-0.218-0.023-0.25-0.106-0.094-0.249s0.343-0.214 0.561-0.214z" clip-rule="evenodd" fill="#AE694C" fill-rule="evenodd"/>
		<path d="m7.692 26.537c0.249-0.048 0.405 0.012 0.467 0.178 0.031 0.166-0.062 0.248-0.28 0.248-0.187 0-0.312-0.059-0.374-0.177-0.03-0.119 0.032-0.202 0.187-0.249z" clip-rule="evenodd" fill="#AE694C" fill-rule="evenodd"/>
		<path d="m23.379 27.816l0.279 0.142c0.28 0.118 0.654 0.202 1.121 0.249 0.777 0.07 1.54 0.047 2.287-0.071-0.934 0.331-1.82 0.497-2.661 0.497-1.151 0-1.773-0.153-1.867-0.461-0.031-0.143 0.109-0.249 0.42-0.32 0.125-0.024 0.265-0.036 0.421-0.036z" clip-rule="evenodd" fill="#AE694C" fill-rule="evenodd"/>
		<path d="m35.283 25.897c0.249 0.118 0.731 0.142 1.447 0.07 0.03 0.071-0.047 0.178-0.233 0.32-0.468 0.45-1.447 0.853-2.942 1.208-0.685 0.191-1.555 0.285-2.614 0.285l-1.354-0.035 3.782-0.711c0.498-0.118 1.135-0.497 1.914-1.137z" clip-rule="evenodd" fill="#693517" fill-rule="evenodd"/>
		<path d="m20.857 27.531c0.529-0.095 0.84-0.07 0.934 0.071 0.031 0.071 0.016 0.154-0.046 0.249-0.467 0.309-1.261 0.474-2.381 0.498h-2.241l1.868-0.355c0.684-0.071 1.306-0.225 1.866-0.463z" clip-rule="evenodd" fill="#693517" fill-rule="evenodd"/>
		<path d="m21.932 28.313c0.652 0.071 0.777 0.153 0.373 0.249-0.405 0.094-0.793 0.118-1.167 0.07-0.311-0.047-0.373-0.105-0.187-0.178 0.156-0.07 0.436-0.117 0.84-0.142h0.141z" clip-rule="evenodd" fill="#693517" fill-rule="evenodd"/>
		<path d="m21.044 24.831c0.996-0.118 2.039-0.118 3.127 0 1.12 0.143 2.91 0.332 5.368 0.568 2.46 0.213 3.876 0.32 4.248 0.32 0.903 0 1.464 0.095 1.682 0.284 0.124 0.142-0.047 0.344-0.514 0.604-0.529 0.308-1.245 0.544-2.147 0.71-3.05 0.568-4.964 0.842-5.742 0.817-2.022-0.237-3.221-0.367-3.595-0.391-1.026-0.166-1.774-0.226-2.241-0.178-0.187 0-0.482 0.06-0.887 0.178-0.499 0.166-1.074 0.296-1.728 0.391-0.747 0.095-1.463 0.142-2.148 0.142l-0.747-0.07c0.374-0.402 0.778-0.829 1.213-1.279 0.903-0.9 1.572-1.445 2.008-1.635 0.562-0.212 1.263-0.366 2.103-0.461z" clip-rule="evenodd" fill="#693517" fill-rule="evenodd"/>
		<path d="m25.806 23.588c0.872 2.416 1.059 3.79 0.561 4.121-0.467 0.332-1.292 0.367-2.475 0.107-0.187 0.023-0.513-0.297-0.979-0.96-0.28-0.402-0.498-0.947-0.654-1.635l-0.141-0.888 1.915-1.493 1.773 0.748z" clip-rule="evenodd" fill="#947151" fill-rule="evenodd"/>
		<path d="m31.314 22.521c1.556 0.876 2.506 1.552 2.848 2.025 0.342 0.521 0.529 0.889 0.561 1.102-0.063 0.118-0.28 0.272-0.653 0.462-0.748 0.379-1.899 0.711-3.455 0.995l-4.762 0.781c-0.965-0.497-1.665-1.16-2.102-1.989-0.342-0.688-0.544-1.113-0.605-1.279-0.095-0.402-0.031-0.817 0.187-1.244 0.218-0.402 0.685-0.698 1.4-0.888 0.404-0.096 1.229-0.202 2.474-0.32 1.121-0.095 1.93-0.13 2.429-0.106 0.651 0.046 1.212 0.201 1.678 0.461z" clip-rule="evenodd" fill="#C7A381" fill-rule="evenodd"/>
		<path d="m31.454 22.771c1.339 0.758 2.18 1.409 2.521 1.954 0.312 0.497 0.482 0.853 0.514 1.065-0.249 0.475-1.494 0.925-3.735 1.351l-4.341 0.746c-0.902-0.521-1.525-1.172-1.867-1.954-0.28-0.616-0.451-1.03-0.514-1.243-0.094-0.379-0.032-0.771 0.187-1.173 0.218-0.403 0.638-0.688 1.261-0.854 0.404-0.095 1.151-0.189 2.24-0.284 1.027-0.07 1.759-0.095 2.194-0.07 0.591 0.046 1.106 0.201 1.54 0.462z" clip-rule="evenodd" fill="#753F1F" fill-rule="evenodd"/>
			<use transform="matrix(.9337 0 0 -.7107 19.35 22.65)" y="-4.8" width="3.35" height="4.8" enable-background="new" opacity=".4102" xlink:href="#bf"/>
		<path d="m29.728 22.593c0.374-0.024 0.7-0.012 0.98 0.035 0.373 0.071 0.84 0.355 1.4 0.853 0.592 0.498 0.934 0.948 1.027 1.351 0.093 0.355-0.078 0.545-0.515 0.568h-1.446c-2.272 0.332-3.859 0.521-4.762 0.568-0.592 0.024-1.012-0.248-1.261-0.816-0.187-0.427-0.249-0.936-0.187-1.528 0.063-0.663 1.214-0.995 3.454-0.995 0.158-1e-3 0.594-0.013 1.31-0.036z" clip-rule="evenodd" fill="#854724" fill-rule="evenodd"/>
		<path d="m30.381 22.841c0.373 0 0.622 0.119 0.747 0.355 0.125 0.237 0.125 0.427 0 0.569-0.093 0.118-0.56-0.024-1.4-0.427-0.342-0.166-0.405-0.297-0.188-0.392 0.156-0.069 0.437-0.105 0.841-0.105z" clip-rule="evenodd" fill="#9C5B33" fill-rule="evenodd"/>
		<path d="m26.366 23.09c0.902 0 1.136 0.154 0.7 0.462-0.467 0.309-0.871 0.438-1.214 0.392-0.249-0.024-0.296-0.178-0.14-0.463 0.156-0.261 0.374-0.391 0.654-0.391z" clip-rule="evenodd" fill="#9C5B33" fill-rule="evenodd"/>
		<path d="m25.899 24.298c0.498 0 0.7 0.178 0.606 0.533-0.093 0.379-0.279 0.557-0.56 0.533-0.188 0-0.312-0.178-0.374-0.533-0.03-0.355 0.079-0.533 0.328-0.533z" clip-rule="evenodd" fill="#9C5B33" fill-rule="evenodd"/>
		<path d="m24.032 20.567c0.342 0.497 0.357 1.196 0.047 2.096-0.313 0.948-0.686 1.671-1.121 2.168-0.528 0.592-1.105 1.137-1.727 1.635-0.28 0.237-0.731 0.557-1.354 0.959-0.218 0.024-0.623 0.119-1.214 0.284-1.649 0.379-2.614 0.521-2.895 0.427-0.155-0.023-0.544-0.308-1.167-0.853l2.848-6.574 0.934-1.102c0.622-0.734 0.98-1.102 1.074-1.102 0.311 0 1.042 0.189 2.194 0.569 1.028 0.356 1.821 0.854 2.381 1.493z" clip-rule="evenodd" fill="#9E7957" fill-rule="evenodd"/>
		<path d="m20.624 18.79c0.342 0.143 0.809 0.403 1.4 0.782 0.872 0.545 1.292 1.208 1.26 1.99-0.03 0.497-0.218 1.065-0.56 1.705-0.404 0.688-0.872 1.244-1.4 1.67-0.716 0.616-1.261 1.066-1.634 1.351-0.591 0.427-1.214 0.806-1.868 1.137-1.027 0.498-1.649 0.735-1.867 0.711h-0.187l-0.7 0.071c-1.027-0.332-1.79-0.616-2.287-0.853-0.249-0.119-0.514-0.272-0.794-0.462-0.312-0.214-0.622-0.403-0.934-0.569-0.654-0.308-1.089-0.616-1.307-0.924l-0.14-0.355c0.623-0.568 1.245-1.077 1.868-1.527 0.374-0.237 1.011-0.723 1.914-1.457 0.374-0.308 1.136-1.102 2.288-2.381 0.747-0.853 1.82-1.268 3.221-1.243 0.591 0 1.166 0.118 1.727 0.354z" clip-rule="evenodd" fill="#D6AF8B" fill-rule="evenodd"/>
		<path d="m20.157 25.364c-0.871 0.711-1.587 1.208-2.147 1.492l-2.941 1.351c-0.965-0.023-2.101-0.45-3.408-1.279-0.062-0.142-0.374-0.379-0.934-0.711-0.311-0.166-0.576-0.355-0.794-0.568l-0.233-0.25c1.681-1.113 3.097-2.203 4.249-3.269 0.56-0.521 1.198-1.208 1.914-2.062 0.591-0.64 1.229-1.054 1.914-1.243 0.747-0.213 1.478-0.189 2.194 0.071 0.436 0.165 1.121 0.557 2.054 1.172 0.654 0.45 0.902 1.066 0.747 1.848-0.093 0.569-0.373 1.149-0.84 1.741-0.374 0.476-0.966 1.044-1.775 1.707z" clip-rule="evenodd" fill="#804522" fill-rule="evenodd"/>
		<path d="m21.464 20.603c0.28 0.474 0.233 1.138-0.14 1.99-0.467 1.042-2.147 2.025-5.042 2.949-0.623 0.189-1.385 0.248-2.288 0.178-0.685-0.071-1.307-0.189-1.867-0.355-0.342-0.118-0.404-0.355-0.187-0.711 0.155-0.236 0.498-0.604 1.027-1.102 1.525-1.492 2.521-2.522 2.988-3.092 0.404-0.497 0.887-0.864 1.447-1.101 0.467-0.214 0.872-0.284 1.214-0.214 1.526 0.356 2.475 0.841 2.848 1.458z" clip-rule="evenodd" fill="#914E27" fill-rule="evenodd"/>
		<path d="m18.15 19.572c0.404 0.023 0.653 0.059 0.747 0.106 0.031 0 0.14 0.106 0.327 0.319 0.125 0.166 0.125 0.272 0 0.32-0.218 0.023-0.405 0.047-0.561 0.071-0.155 0.047-0.264 0.153-0.327 0.319-0.093 0.189-0.202 0.309-0.327 0.355-0.312 0.048-0.529 0.083-0.654 0.106-0.218 0.024-0.327 0.154-0.327 0.392 0 0.236-0.187 0.379-0.561 0.426h-0.934c-0.217 0-0.249-0.106-0.093-0.319 0.093-0.143 0.295-0.403 0.606-0.782 0.249-0.332 0.561-0.628 0.934-0.889 0.438-0.306 0.828-0.447 1.17-0.424z" clip-rule="evenodd" fill="#A86237" fill-rule="evenodd"/>
		<path d="m13.948 23.445c0.529 0 0.84 0.095 0.934 0.284s0.016 0.355-0.233 0.498c-0.436 0.26-0.98 0.343-1.634 0.248-0.249-0.023-0.233-0.201 0.046-0.532 0.28-0.332 0.576-0.498 0.887-0.498z" clip-rule="evenodd" fill="#A86237" fill-rule="evenodd"/>
		<path d="m19.97 22.237c0.405 0.166 0.467 0.367 0.187 0.604-0.312 0.261-0.747 0.309-1.307 0.143-0.561-0.143-0.623-0.344-0.187-0.604 0.436-0.261 0.872-0.309 1.307-0.143z" clip-rule="evenodd" fill="#A86237" fill-rule="evenodd"/>
			<use transform="matrix(.9337 0 0 -.7107 13.85 15.45)" x="0.395" y="-16.045" width="20.678" height="13.596" enable-background="new" opacity=".2813" xlink:href="#bd"/>
			<use transform="matrix(.9337 0 0 -.7107 16.1 18.35)" y="-2.464" width="6.2" height="2.469" enable-background="new" opacity=".3398" xlink:href="#bc"/>
			<use transform="matrix(.9337 0 0 -.7107 20.2 20.35)" x="-0.014" y="-0.625" width="0.91" height="0.664" enable-background="new" opacity=".3398" xlink:href="#bb"/>
			<use transform="matrix(.9337 0 0 -.7107 13.85 23)" x="-0.039" y="-0.8" width="0.968" height="0.8" enable-background="new" opacity=".3398" xlink:href="#cb"/>
			<use transform="matrix(.9337 0 0 -.7107 24 22.4)" x="-0.048" y="-1.456" width="6.539" height="1.431" enable-background="new" opacity=".3398" xlink:href="#bj"/>
			<use transform="matrix(.9337 0 0 -.7107 27.75 23.6)" x="-0.012" y="-1.067" width="0.722" height="1.077" enable-background="new" opacity=".3398" xlink:href="#bh"/>
			<use transform="matrix(.9337 0 0 -.7107 30.3 23.5)" x="-0.025" y="-0.614" width="0.3" height="0.603" enable-background="new" opacity=".3398" xlink:href="#bg"/>
			<use transform="matrix(.9337 0 0 -.7107 32.9 24)" x="0.05" y="-0.6" width="0.446" height="0.578" enable-background="new" opacity=".3398" xlink:href="#be"/>
			<use transform="matrix(.9337 0 0 -.7107 23.35 25.75)" x="-0.05" y="-0.6" width="0.45" height="0.622" enable-background="new" opacity=".3398" xlink:href="#ba"/>
</svg>
