<?xml version="1.0" encoding="UTF-8"?>
<!DOCTYPE svg  PUBLIC '-//W3C//DTD SVG 1.1//EN'  'http://www.w3.org/Graphics/SVG/1.1/DTD/svg11.dtd'>
<svg enable-background="new 0 0 44.75 31.55" version="1.1" viewBox="0 0 44.75 31.55" xml:space="preserve" xmlns="http://www.w3.org/2000/svg" xmlns:xlink="http://www.w3.org/1999/xlink">
<symbol id="ao" viewBox="0 -10.85 24.8 10.85">
			<linearGradient id="bk" x1="-21.853" x2="-5.8529" y1="-31.002" y2="-31.002" gradientTransform="matrix(1 -.0031 .0031 1 25.55 25.531)" gradientUnits="userSpaceOnUse">
			<stop stop-color="#fff" offset="0"/>
			<stop offset="1"/>
		</linearGradient>
		<path d="m24.8-1.45l-3.25-9.4-5.25 0.05c-1.133 0.167-2.4 0.45-3.8 0.85-1.467 0.467-2.683 0.967-3.65 1.5-3.133 1.733-5.55 3.667-7.25 5.8-0.833 1.067-1.367 1.95-1.6 2.65l2.75-0.45c4.5-0.733 10.017-1.1 16.55-1.1l5.5 0.1z" clip-rule="evenodd" fill="url(#bk)" fill-rule="evenodd"/>
</symbol>
<symbol id="ap" viewBox="-0.009 -1.49 6.759 1.486">
		<path d="m6.75-1.2c-0.9-0.1-1.767-0.117-2.6-0.05-0.333 0-1.083-0.05-2.25-0.15-0.967-0.1-1.567-0.117-1.8-0.05-0.4 0.133 0.3 0.583 2.1 1.35 0.466 0.167 1.15 0.117 2.05-0.15l2.5-0.95z" clip-rule="evenodd" fill="#ff0" fill-rule="evenodd"/>
</symbol>
<symbol id="aq" viewBox="-0.006 -2.55 4.261 2.52">
		<path d="m4.1-2.55l-2.65 1.1c-1.033 0.433-1.517 0.7-1.45 0.8 0.033 0.066 0.317 0.167 0.85 0.3 1.433 0.267 2.433 0.367 3 0.3 0.3-0.034 0.433-0.15 0.4-0.35-0.067-0.233-0.117-0.433-0.15-0.6v-1.55z" clip-rule="evenodd" fill="#ff0" fill-rule="evenodd"/>
</symbol>
<symbol id="ar" viewBox="0.029 -1.4 5.521 1.405">
		<path d="m5.55-1.4l-2.1 0.45c-0.633 0.133-1.75 0.317-3.35 0.55-0.3 0.133 0.35 0.267 1.95 0.4 0.4 0.033 0.967-0.1 1.7-0.4l1.8-1z" clip-rule="evenodd" fill="#ff0" fill-rule="evenodd"/>
</symbol>
<symbol id="as" viewBox="0.033 -1.8 3.54 1.75">
		<path d="m3-1.8l-1.95 1.05c-0.767 0.4-1.1 0.633-1 0.7h0.7c1.067 0 1.917-0.117 2.55-0.35 0.233-0.067 0.317-0.15 0.25-0.25-0.1-0.133-0.167-0.233-0.2-0.3l-0.35-0.85z" clip-rule="evenodd" fill="#ff0" fill-rule="evenodd"/>
</symbol>
<symbol id="at" viewBox="0 -1.2 3.464 1.213">
		<path d="m0-1.2c0.167 0.367 0.367 0.617 0.6 0.75 0.067 0.033 0.15 0.15 0.25 0.35 0.067 0.1 0.217 0.133 0.45 0.1 0.9-0.167 1.583-0.45 2.05-0.85 0.167-0.133 0.15-0.2-0.05-0.2-0.033 0-0.3 0.017-0.8 0.05-0.433 0.033-1.267-0.033-2.5-0.2z" clip-rule="evenodd" fill="#ff0" fill-rule="evenodd"/>
</symbol>
<symbol id="au" viewBox="0 -1.867 5.056 1.867">
		<path d="m0-0.05l3.45 0.05 0.75-0.35c0.333-0.167 0.567-0.417 0.7-0.75 0.167-0.267 0.2-0.5 0.1-0.7-0.067-0.133-0.4-0.067-1 0.2-0.7 0.333-1.2 0.567-1.5 0.7-0.567 0.233-1.4 0.517-2.5 0.85z" clip-rule="evenodd" fill="#ff0" fill-rule="evenodd"/>
</symbol>
<symbol id="av" viewBox="0 -3.029 4.583 3.029">
		<path d="m0 0c2.367-0.933 3.783-1.633 4.25-2.1 0.333-0.333 0.417-0.583 0.25-0.75s-0.517-0.217-1.05-0.15c-0.434 0.033-0.8 0.2-1.1 0.5 0 0.033-0.15 0.267-0.45 0.7-0.1 0.2-0.733 0.8-1.9 1.8z" clip-rule="evenodd" fill="#ff0" fill-rule="evenodd"/>
</symbol>
<symbol id="aw" viewBox="0.018 -2.312 2.584 2.312">
		<path d="m0.55 0c0.567-0.367 1-0.7 1.3-1 0.633-0.633 0.867-1.05 0.7-1.25-0.1-0.167-0.65 0-1.65 0.5-0.7 0.267-0.983 0.5-0.85 0.7l0.5 1.05z" clip-rule="evenodd" fill="#ff0" fill-rule="evenodd"/>
</symbol>
<symbol id="ax" viewBox="-0.031 -1.088 5.381 1.088">
		<path d="m5.35 0c-0.133-0.4-0.4-0.717-0.8-0.95-0.367-0.2-1.05-0.183-2.05 0.05-0.2 0.067-0.683 0.183-1.45 0.35-0.566 0.133-0.9 0.233-1 0.3-0.367 0.2 0.517 0.233 2.65 0.1 0.467-0.033 1.35 0.017 2.65 0.15z" clip-rule="evenodd" fill="#ff0" fill-rule="evenodd"/>
</symbol>
<symbol id="ay" viewBox="0 -2.4 3.875 2.408">
		<path d="m0-2.4c0.067 0.633 0.2 1.117 0.4 1.45 0.033 0.067 0.083 0.283 0.15 0.65 0.033 0.167 0.183 0.267 0.45 0.3 0.333 0.033 0.8-0.033 1.4-0.2s1.033-0.333 1.3-0.5c0.233-0.167 0.233-0.283 0-0.35-0.034 0-0.333-0.067-0.9-0.2-0.5-0.067-1.433-0.45-2.8-1.15z" clip-rule="evenodd" fill="#ff0" fill-rule="evenodd"/>
</symbol>
<symbol id="az" viewBox="-0.035 -1.14 7.235 1.14">
		<path d="m7.2-1.05c-0.867-0.1-1.667-0.117-2.4-0.05-0.433 0.067-0.967 0.083-1.6 0.05h-1.65c-0.633 0.033-1.017 0.083-1.15 0.15-0.133 0.033-0.267 0.15-0.4 0.35-0.133 0.267 0.117 0.45 0.75 0.55 0.767 0 1.533-0.067 2.3-0.2l4.15-0.85z" clip-rule="evenodd" fill="#ff0" fill-rule="evenodd"/>
</symbol>
<symbol id="ba" viewBox="0 -2.675 6.368 2.675">
		<path d="m0-1.25l3.9 1.25 0.95-0.35c0.467-0.167 0.85-0.483 1.15-0.95 0.3-0.434 0.417-0.833 0.35-1.2-0.033-0.233-0.434-0.233-1.2 0-0.933 0.367-1.583 0.6-1.95 0.7-0.767 0.167-1.833 0.35-3.2 0.55z" clip-rule="evenodd" fill="#ff0" fill-rule="evenodd"/>
</symbol>
<symbol id="bb" viewBox="-0.016 -12.653 31.766 12.653">
		<path d="m24.15 0c3.1 0 5.633-0.25 7.6-0.75-0.233-0.1-0.517-0.15-0.85-0.15s-0.917 0.033-1.75 0.1c-0.8 0.066-1.483 0.1-2.05 0.1-1.8 0-3.717-0.25-5.75-0.75-2.167-0.533-4.1-1.316-5.8-2.35-1.2-0.633-2.033-1.083-2.5-1.35-0.767-0.434-1.383-0.983-1.85-1.65-0.434-0.6-1.15-1.284-2.15-2.05-1.2-0.9-1.983-1.533-2.35-1.9-0.633-0.667-1.017-1.033-1.15-1.1-0.2 0.033-0.433 0.05-0.7 0.05-0.767 0-2.217-0.267-4.35-0.8-0.567-0.133-0.667-0.017-0.3 0.35 0.633 0.533 1.066 0.917 1.3 1.15 1.067 0.933 1.85 1.633 2.35 2.1 0.367 0.067 0.6 0.217 0.7 0.45 1.6 1.367 3.633 2.75 6.1 4.15 2.467 1.433 4.483 2.383 6.05 2.85 2.133 0.633 4.617 1.15 7.45 1.55z" clip-rule="evenodd" fill="#FF9947" fill-rule="evenodd"/>
</symbol>
<symbol id="bc" viewBox="0 -3.863 6.29 3.863">
		<path d="m0 0c3.067-0.733 4.95-1.417 5.65-2.05 0.533-0.467 0.733-0.867 0.6-1.2-0.133-0.3-0.517-0.5-1.15-0.6-0.733-0.1-1.467 0.4-2.2 1.5-0.2 0.267-1.167 1.05-2.9 2.35z" clip-rule="evenodd" fill="#ff0" fill-rule="evenodd"/>
</symbol>
<symbol id="bd" viewBox="0 -3.3 3.374 3.3">
		<path d="m0.2 0c0.767-0.4 1.4-0.817 1.9-1.25 0.967-0.833 1.383-1.45 1.25-1.85-0.033-0.2-0.283-0.25-0.75-0.15-0.6 0.2-1.033 0.35-1.3 0.45-0.867 0.2-1.3 0.5-1.3 0.9l0.2 1.9z" clip-rule="evenodd" fill="#ff0" fill-rule="evenodd"/>
</symbol>
<symbol id="be" viewBox="-0.003 -2.425 6.003 2.425">
		<path d="m6 0c0-0.7-0.183-1.3-0.55-1.8-0.233-0.333-0.55-0.533-0.95-0.6-0.2-0.033-0.667-0.033-1.4 0h-1.75c-0.7 0.033-1.133 0.1-1.3 0.2-0.3 0.133 0.683 0.483 2.95 1.05 0.567 0.133 1.567 0.517 3 1.15z" clip-rule="evenodd" fill="#ff0" fill-rule="evenodd"/>
</symbol>
<symbol id="bl" viewBox="-0.01 -2.108 8.46 2.125">
		<path d="m8.45-0.05c-0.9-0.4-1.8-0.667-2.7-0.8-0.467-0.067-1.083-0.233-1.85-0.5-0.833-0.267-1.467-0.45-1.9-0.55-0.7-0.167-1.133-0.233-1.3-0.2-0.2 0.033-0.4 0.2-0.6 0.5-0.267 0.367-0.05 0.733 0.65 1.1 0.833 0.3 1.717 0.467 2.65 0.5s2.617 0.017 5.05-0.05z" clip-rule="evenodd" fill="#ff0" fill-rule="evenodd"/>
</symbol>
			<path d="m38.912 22.274l0.15-0.037c-0.975 2.675-3.074 4.875-6.301 6.6-3.274 1.751-7.012 2.625-11.211 2.625-4.225 0-7.988-0.888-11.288-2.662-3.249-1.75-5.337-3.975-6.262-6.675l0.3 0.037c0.976 0.65 3.063 1.188 6.263 1.612 3.25 0.426 6.95 0.638 11.1 0.638 4.075 0 7.713-0.2 10.912-0.6 3.15-0.4 5.262-0.913 6.337-1.538z" clip-rule="evenodd" fill="#D7EAF2" fill-rule="evenodd"/>
			<path d="m37.525 22.837c-0.225 0.601-0.588 1.226-1.088 1.875-0.95 1.275-2.425 2.563-4.426 3.863-1.574 1.024-3.512 1.85-5.813 2.475-1.074 0.15-1.675 0.225-1.799 0.225 3.024-0.925 5.2-2.274 6.525-4.05 0.574-0.775 0.938-1.5 1.086-2.175 0.076-0.625 0.126-1.037 0.15-1.237 2.328-0.25 4.115-0.576 5.365-0.976z" clip-rule="evenodd" fill="#BDD4DE" fill-rule="evenodd"/>
				<use transform="matrix(.75 0 0 -.75 7.2002 23.25)" y="-10.85" width="24.8" height="10.85" enable-background="new" opacity=".4414" xlink:href="#ao"/>
			<path d="m6.85 25.649c1.584 1.874 3.585 3.306 6 4.294-2.063-0.762-3.837-1.756-5.324-2.981-1.726-1.425-2.901-3.037-3.526-4.837l0.3 0.037c0.175 0.125 0.363 0.226 0.563 0.3 0.425 1.051 1.087 2.113 1.987 3.187z" clip-rule="evenodd" fill="#BDD4DE" fill-rule="evenodd"/>
				<linearGradient id="ag" x1="1.1006" x2="46.151" y1="10.2" y2="10.2" gradientTransform="matrix(.75 0 0 .75 4 13.8)" gradientUnits="userSpaceOnUse">
				<stop stop-color="#9CADB5" offset="0"/>
				<stop stop-color="#E0E0E0" offset="1"/>
			</linearGradient>
			<path d="m33.662 16.95c3.301 1.25 4.951 2.75 4.951 4.5 0 1.749-1.65 3.237-4.951 4.462-3.299 1.25-7.275 1.875-11.924 1.875-4.675 0-8.663-0.625-11.962-1.875-3.301-1.225-4.95-2.713-4.95-4.462 0-1.75 1.649-3.25 4.95-4.5 3.3-1.225 7.287-1.838 11.962-1.838 4.649 0 8.625 0.613 11.924 1.838z" clip-rule="evenodd" fill="url(#ag)" fill-rule="evenodd"/>
			<path d="m39.025 21h-1.088c-0.225-1.551-1.912-2.863-5.063-3.938-3.124-1.075-6.874-1.612-11.249-1.612-4.35 0-8.087 0.537-11.213 1.612-3.149 1.075-4.837 2.387-5.062 3.938h-1.275c0.4-1.7 2.262-3.125 5.587-4.275 3.375-1.15 7.338-1.725 11.888-1.725 4.575 0 8.538 0.575 11.887 1.725 3.35 1.15 5.213 2.575 5.588 4.275z" clip-rule="evenodd" fill="#fff" fill-rule="evenodd"/>
				<radialGradient id="ah" cx="2.2554" cy="-21.613" r="21.012" gradientTransform="matrix(-.0816 .7455 .696 .0879 35.126 17.73)" gradientUnits="userSpaceOnUse">
				<stop stop-color="#F2DB8A" offset="0"/>
				<stop stop-color="#877531" offset="1"/>
			</radialGradient>
			<path d="m37.713 23.587c-1.125 0.65-2.75 1.363-4.875 2.138-3.076 1.125-5.713 1.7-7.912 1.726-2.4 0.024-5.025-0.088-7.876-0.338-2.6-0.25-4.587-0.538-5.962-0.862-1.125-0.275-2.226-0.7-3.301-1.275-0.95-0.5-1.437-0.85-1.462-1.05-0.025-0.1 0.125-0.287 0.45-0.563 0.375-0.325 0.575-0.525 0.6-0.6 0.4-1.125 1.987-2.088 4.763-2.888 0.725-0.2 1.462-0.801 2.212-1.8 0.7-0.95 1.288-1.438 1.763-1.463 2.35-0.175 4.275-0.15 5.775 0.075 0.525 0.075 1.338 0.337 2.437 0.787 0.9 0.375 1.663 0.55 2.289 0.525 0.574-0.025 1.875-0.125 3.898-0.3 1.826-0.101 2.951 0.05 3.375 0.449 0.626 0.601 1.288 1.363 1.988 2.288 0.824 1.05 1.226 1.763 1.199 2.138-0.024 0.274 0.214 0.462 0.713 0.563 0.325 0.075 0.301 0.225-0.074 0.45z" clip-rule="evenodd" fill="url(#ah)" fill-rule="evenodd"/>
				<radialGradient id="ai" cx="1.939" cy="-16.343" r="2.9554" gradientTransform="matrix(-.0825 .7455 .6947 .0888 27.513 16.806)" gradientUnits="userSpaceOnUse">
				<stop stop-color="#D4C17D" offset="0"/>
				<stop stop-color="#B3A051" offset="1"/>
			</radialGradient>
			<path d="m16.112 16.612c0.725-0.125 0.838 0.05 0.338 0.525-0.625 0.624-0.85 1.012-0.675 1.162 0.2 0.2 0.625 0.175 1.274-0.075 0.601-0.25 0.925-0.313 0.976-0.188 0.1 0.275-0.088 0.513-0.563 0.713-0.525 0.225-1.225 0.263-2.101 0.112-0.875-0.175-1.125-0.575-0.75-1.2 0.376-0.574 0.877-0.924 1.501-1.049z" clip-rule="evenodd" fill="url(#ai)" fill-rule="evenodd"/>
				<radialGradient id="aj" cx="7.0215" cy="-16.098" r="3.295" gradientTransform="matrix(-.0825 .7454 .6971 .0882 27.2 16.736)" gradientUnits="userSpaceOnUse">
				<stop stop-color="#D4C17D" offset="0"/>
				<stop stop-color="#B3A051" offset="1"/>
			</radialGradient>
			<path d="m16.938 20.287c0.375-0.05 0.563 0.112 0.563 0.487 0 0.2-0.05 0.538-0.15 1.013-0.05 0.351-0.188 0.65-0.412 0.9-0.25 0.275-0.525 0.399-0.825 0.375-0.275-0.051-0.737-0.051-1.388 0l-0.899 0.075c0.075-0.15 0.212-0.301 0.412-0.45 0.375-0.325 0.85-0.5 1.425-0.525 0.5-0.05 0.738-0.362 0.713-0.938-2e-3 -0.599 0.186-0.911 0.561-0.937z" clip-rule="evenodd" fill="url(#aj)" fill-rule="evenodd"/>
				<radialGradient id="ak" cx="4.6558" cy="-36.492" r="2.5399" gradientTransform="matrix(-.0812 .7456 .6939 .0886 56.476 20.498)" gradientUnits="userSpaceOnUse">
				<stop stop-color="#D4C17D" offset="0"/>
				<stop stop-color="#B3A051" offset="1"/>
			</radialGradient>
			<path d="m31.863 20.625c0.898 0.225 1.099 0.638 0.6 1.237-0.5 0.575-1.263 0.726-2.287 0.45-0.977-0.25-1.138-0.638-0.488-1.163 0.625-0.549 1.349-0.724 2.175-0.524z" clip-rule="evenodd" fill="url(#ak)" fill-rule="evenodd"/>
				<radialGradient id="al" cx="4.3125" cy="-21.334" r="19.176" gradientTransform="matrix(-.0816 .7455 .6957 .0875 34.717 17.664)" gradientUnits="userSpaceOnUse">
				<stop stop-color="#D4C17D" offset="0"/>
				<stop stop-color="#B3A051" offset="1"/>
			</radialGradient>
			<path d="m35.537 22.425c-0.475-0.25-1.1-0.612-1.875-1.088-0.874-0.55-1.45-0.899-1.725-1.05-0.824-0.5-2.025-0.688-3.6-0.563-0.8 0.125-1.45 0.213-1.951 0.263-0.898 0.1-1.574 0.05-2.023-0.15-0.2-0.074-0.451-0.3-0.75-0.675-0.2-0.225-0.688-0.324-1.463-0.3-0.676 0.024-1.588 0.2-2.738 0.525-1.149 0.324-1.975 0.5-2.475 0.524-0.975 0.075-1.637 0.163-1.987 0.263-0.601 0.15-1.05 0.45-1.351 0.9-0.475 0.675-0.837 1.138-1.087 1.387-0.425 0.426-0.9 0.676-1.425 0.75-0.625 0.101-1.213 0.263-1.763 0.488-0.625 0.225-0.95 0.425-0.976 0.6-0.07 0.194-0.07 0.388 0 0.581-0.6-0.234-0.987-0.428-1.162-0.581-0.625-0.525-0.525-0.95 0.3-1.275 0.65-0.274 1.488-0.412 2.513-0.412 0.7 0 1.262-0.15 1.688-0.45 0.2-0.149 0.5-0.475 0.9-0.975 0.2-0.25 0.487-0.638 0.862-1.163 0.425-0.399 1.087-0.587 1.987-0.563 0.825 0.051 1.625-0.074 2.4-0.375 0.399-0.175 0.924-0.399 1.574-0.675 0.576-0.149 1.013-0.225 1.313-0.225 0.425 0 1.075 0.1 1.951 0.3 0.349 0.075 0.799 0.325 1.35 0.75 0.299 0.25 1.1 0.325 2.4 0.225 1.125-0.074 2.337-0.188 3.637-0.337 0.851 0.024 1.613 0.324 2.287 0.899 0.476 0.4 1.389 0.925 2.738 1.575 1 0.475 1.475 0.838 1.424 1.088-0.049 0.55-0.148 1.063-0.299 1.537-0.2 0.625-0.388 0.813-0.563 0.563-0.076-0.125 0.012-0.512 0.262-1.162 0.227-0.549 0.103-0.949-0.373-1.199zm-8.588 0c-0.925-0.375-1.562-0.612-1.912-0.713-0.6-0.2-1.075-0.2-1.424 0-0.15 0.075-0.688 0.275-1.613 0.601-0.7 0.25-1.162 0.5-1.387 0.75-0.475 0.575-0.85 1.025-1.125 1.35-0.55 0.65-0.987 1.025-1.313 1.125-0.5 0.15-1.112 0.238-1.837 0.263-0.825 0.024-1.351-0.088-1.575-0.338-0.3-0.324-0.513-0.524-0.638-0.6-0.25-0.125-0.65-0.212-1.2-0.263-0.6-0.05-1.2 0.063-1.8 0.338-0.552 0.264-0.758 0.495-0.619 0.693-0.467-0.147-0.886-0.285-1.256-0.412 0.058-0.039 0.121-0.082 0.188-0.132 0.6-0.425 1.35-0.8 2.25-1.125 0.975-0.375 1.688-0.5 2.138-0.375 0.225 0.051 0.575 0.4 1.05 1.051 0.375 0.5 0.862 0.688 1.463 0.563 0.824-0.2 1.387-0.388 1.688-0.563 0.325-0.2 0.625-0.575 0.899-1.125 0.75-1.375 1.688-2.063 2.813-2.063 0.325 0 0.724-0.175 1.2-0.525 0.375-0.275 0.875-0.313 1.5-0.112 1.1 0.35 2.263 0.65 3.488 0.899 0.475 0.126 1.137 0.138 1.986 0.038 0.676-0.075 1.213 0.024 1.613 0.3 0.499 0.375 0.774 0.65 0.824 0.825 0 0.05-0.063 0.362-0.188 0.938-0.074 0.324 0.063 0.838 0.412 1.537 0.251 0.525 0.238 0.801-0.037 0.825-0.274 0.024-0.513 0.101-0.713 0.225-0.049 0.025-0.1-0.024-0.148-0.149-0.051-0.226-0.088-0.613-0.113-1.163-0.05-0.649-0.037-1.149 0.037-1.5 0.2-0.85-0.274-1.274-1.424-1.274-0.15 0-0.65 0.088-1.5 0.263-0.551 0.098-1.125 0.048-1.727-0.152zm-7.199 4.275c-0.825 0.074-1.325 0.138-1.5 0.188-0.3 0.1-0.5 0.162-0.6 0.188-0.15 0.05-0.5 0.074-1.051 0.074-0.296 0-0.758-0.068-1.387-0.206 0.332-0.069 0.944-0.238 1.837-0.506 0.9-0.3 1.588-0.45 2.063-0.45h1.462c0.425-0.075 0.8-0.313 1.125-0.713 0.401-0.475 1.05-0.837 1.951-1.087 0.975-0.25 1.688-0.2 2.137 0.149 0.425 0.325 0.975 0.601 1.65 0.825 0.5 0.15 0.925 0.238 1.275 0.263 0.274 0.024 0.612 0.088 1.012 0.188 0.425 0.1 0.688 0.2 0.787 0.3 0.15 0.1 0.163 0.313 0.039 0.638-0.15 0.3-0.375 0.412-0.676 0.338-0.25-0.075-0.7-0.275-1.35-0.601-0.8-0.425-1.362-0.699-1.688-0.825-0.75-0.324-1.275-0.524-1.576-0.6-0.6-0.15-1.125-0.125-1.574 0.075-0.35 0.149-0.763 0.399-1.238 0.75-0.474 0.324-0.837 0.55-1.086 0.675-0.324 0.124-0.862 0.237-1.612 0.337zm-11.4-1.819c0.258 0.105 0.558 0.218 0.9 0.338-0.375 0.217-0.637 0.186-0.787-0.094-0.052-0.081-0.089-0.162-0.113-0.244zm2.156 0.75c0.365 0.111 0.759 0.23 1.182 0.356 1.486 0.447 2.661 0.767 3.525 0.956-0.043 7e-3 -0.081 0.014-0.113 0.019-0.524 0.075-1.4-0.074-2.625-0.449-1.125-0.375-1.775-0.663-1.949-0.863l-0.02-0.019z" clip-rule="evenodd" fill="url(#al)" fill-rule="evenodd"/>
				<radialGradient id="am" cx="-.499" cy="-22.418" r="19.718" gradientTransform="matrix(-.0818 .7455 .6961 .0875 36.289 17.858)" gradientUnits="userSpaceOnUse">
				<stop stop-color="#C7B577" offset="0"/>
				<stop stop-color="#BDAA57" offset="1"/>
			</radialGradient>
			<path d="m35.688 19.837c-0.4-0.55-0.963-0.887-1.688-1.012-1.625-0.325-3.15-0.525-4.574-0.601-0.676-0.05-1.451-0.375-2.326-0.975-0.949-0.625-1.65-0.976-2.1-1.05-0.925-0.301-1.613-0.488-2.063-0.563-0.8-0.175-1.638 0.012-2.513 0.563-1.225 0.85-2.087 1.438-2.587 1.762-0.8 0.525-1.488 0.813-2.063 0.863-0.175 0.024-1-0.051-2.476-0.226-1.025-0.1-1.763 0.013-2.212 0.338-0.9 0.774-1.55 1.325-1.95 1.649-0.675 0.601-0.95 0.688-0.825 0.263 0.625-2 1.7-3 3.225-3h1.426c2.225 0.25 3.712 0.051 4.462-0.6 0.9-0.75 1.825-1.375 2.775-1.875 1.425-0.775 2.575-1.063 3.45-0.862 0.6 0.149 1.475 0.65 2.625 1.5 1.1 0.8 2.112 1.262 3.037 1.387 2.075 0.275 3.175 0.426 3.301 0.45 1.024 0.175 1.824 0.413 2.398 0.713 0.701 0.399 1.264 0.85 1.688 1.35 0.476 0.525 0.688 1 0.639 1.425-0.05 0.45-0.488 0.925-1.313 1.426-0.851 0.524-1.788 0.837-2.813 0.938-0.75 0.074-1.563 0.437-2.438 1.087-0.826 0.625-1.413 0.938-1.764 0.938h-1.236c-0.15-0.024-0.225-0.088-0.225-0.188 0-0.175 0.375-0.412 1.125-0.712 0.6-0.226 1.937-0.713 4.012-1.463 1.85-0.7 2.913-1.3 3.188-1.8 0.327-0.575 0.264-1.15-0.185-1.725z" clip-rule="evenodd" fill="url(#am)" fill-rule="evenodd"/>
				<radialGradient id="an" cx="-.8521" cy="-22.026" r="19.718" gradientTransform="matrix(-.0818 .7455 .6961 .0875 35.725 17.787)" gradientUnits="userSpaceOnUse">
				<stop stop-color="#E3D49D" offset="0"/>
				<stop stop-color="#E0CA70" offset="1"/>
			</radialGradient>
			<path d="m35.426 19.537c-0.426-0.55-0.988-0.887-1.688-1.013-1.626-0.324-3.15-0.524-4.576-0.6-0.674-0.05-1.45-0.375-2.324-0.975-0.95-0.625-1.663-0.976-2.139-1.051-0.925-0.3-1.611-0.487-2.063-0.563-0.774-0.174-1.599 0.013-2.475 0.563-1.25 0.851-2.112 1.438-2.587 1.763-0.8 0.525-1.5 0.813-2.101 0.862-0.174 0.025-0.987-0.05-2.438-0.225-1.05-0.1-1.787 0.013-2.212 0.338-0.9 0.774-1.55 1.325-1.95 1.649-0.673 0.603-0.948 0.69-0.823 0.265 0.625-2 1.7-3 3.226-3h1.424c2.225 0.25 3.712 0.063 4.462-0.563 0.8-0.726 1.726-1.363 2.775-1.912 1.425-0.775 2.575-1.063 3.449-0.863 0.575 0.15 1.451 0.65 2.625 1.5 1.101 0.801 2.113 1.263 3.039 1.388 2.124 0.275 3.225 0.426 3.299 0.45 1.001 0.175 1.788 0.412 2.363 0.713 0.7 0.399 1.275 0.85 1.725 1.35 0.476 0.525 0.688 1 0.637 1.425-0.049 0.45-0.486 0.925-1.313 1.425-0.874 0.525-1.812 0.838-2.813 0.938-0.774 0.075-1.587 0.438-2.438 1.088-0.824 0.625-1.424 0.938-1.799 0.938h-1.201l0.826-0.675c0.7-0.525 1.424-0.938 2.174-1.237 0.602-0.226 1.588-0.538 2.963-0.938 1.15-0.375 1.863-0.813 2.139-1.313 0.326-0.576 0.263-1.152-0.186-1.727z" clip-rule="evenodd" fill="url(#an)" fill-rule="evenodd"/>
				<radialGradient id="bf" cx="-.7324" cy="-22.192" r="24.445" gradientTransform="matrix(-.0817 .7455 .6961 .0878 35.962 17.832)" gradientUnits="userSpaceOnUse">
				<stop stop-color="#E6D189" offset="0"/>
				<stop stop-color="#BDAA57" offset="1"/>
			</radialGradient>
			<path d="m35.5 20.175c-0.824 0-1.662-0.338-2.512-1.013-0.451-0.399-1.063-1.05-1.838-1.95-0.451-0.55-1.226-0.787-2.326-0.712-0.975 0.05-1.824 0.287-2.549 0.712-0.95 0.55-1.663 1.051-2.139 1.5-0.649 0.65-0.462 0.938 0.563 0.863 0.227 0 1.088-0.2 2.588-0.601 0.726-0.2 1.426 0 2.1 0.601 0.551 0.524 1.164 1.149 1.838 1.875 0.551 0.449 1.238 0.624 2.063 0.524 1.025-0.125 1.888 0.125 2.588 0.75 0.725 0.65 0.563 1.2-0.488 1.65-0.925 0.399-1.5 0.55-1.725 0.45l-0.038-0.224 0.938-0.563c0.476-0.425 0.412-0.75-0.188-0.975-0.4-0.175-1.051-0.287-1.949-0.338-0.701-0.024-1.238-0.2-1.613-0.524-0.625-0.676-1.1-1.176-1.426-1.5-0.574-0.601-1.137-0.925-1.688-0.976-0.449-0.05-1.062 0.013-1.836 0.188-0.926 0.175-1.714 0.263-2.363 0.263-0.375 0-1.112 0.112-2.213 0.338-0.525 0.125-0.899-0.025-1.125-0.45-0.074-0.15-0.375-0.862-0.899-2.138-0.4-0.975-0.738-1.575-1.013-1.8-0.525-0.475-1.125-0.763-1.8-0.862-0.9-0.125-1.45 0.325-1.65 1.35-0.175 1 0.138 1.888 0.938 2.662 0.45 0.45 1.15 1.038 2.101 1.763 1.299 1.375 1.737 2.288 1.313 2.737-0.5 0.501-0.813 0.788-0.938 0.863-0.576 0.274-1.338 0.262-2.288-0.038-0.925-0.3-1.95-0.774-3.075-1.425-1.1-0.675-1.812-1.112-2.137-1.313-0.5-0.3-1.213-0.412-2.138-0.338-0.9 0.101-1.413 0.325-1.538 0.676-0.1 0.35 0.1 0.675 0.601 0.975 0.45 0.275 1.063 0.487 1.837 0.638 0.5 0.1 1.063 0.2 1.688 0.3 0.55 0.075 1.138 0.237 1.763 0.487 0.2 0.075 0.913 0.65 2.138 1.726 0.825 0.725 1.637 0.899 2.438 0.524 0.45-0.199 1.212-0.925 2.287-2.175 0.875-1.025 1.888-1.612 3.037-1.763 1.001-0.1 1.938-0.212 2.813-0.337 0.525 0.024 1.325 0.3 2.4 0.824 0.875 0.426 1.663 0.7 2.363 0.825 0.399 0.075 0.649 0.2 0.75 0.375 0.225 0.4 1.012 0.875 2.361 1.425l-1.688 0.488c0.026-0.126-0.037-0.275-0.188-0.45-0.274-0.351-0.799-0.675-1.574-0.976-0.125-0.05-0.888-0.388-2.287-1.012-0.75-0.325-1.438-0.513-2.063-0.563-0.726-0.051-1.513 0.024-2.363 0.225-0.8 0.175-1.462 0.425-1.987 0.75-0.375 0.225-0.85 0.675-1.425 1.35-0.6 0.7-0.938 1.075-1.013 1.125-0.899 0.75-1.937 0.95-3.112 0.601-0.525-0.15-1.125-0.5-1.8-1.05-0.65-0.55-1.313-0.913-1.987-1.088-1.327-0.324-2.302-0.574-2.927-0.749-1.125-0.3-1.925-0.6-2.399-0.9-1.15-0.725-1.7-1.425-1.65-2.1 0.1-0.85 0.875-1.4 2.325-1.65 1.45-0.249 2.638-0.074 3.563 0.525 0.6 0.399 1.4 1.025 2.4 1.875 1.025 0.7 2.225 1.149 3.6 1.35 1.45 0.2 1.75-0.237 0.9-1.313-0.275-0.35-1.288-1.35-3.038-3-0.975-0.925-1.5-1.737-1.575-2.438-0.074-0.774 0.351-1.55 1.275-2.324 0.9-0.726 1.888-0.875 2.963-0.45 0.975 0.4 1.762 1.15 2.362 2.25 0.05 0.075 0.275 0.938 0.675 2.587 0.125 0.525 0.675 0.45 1.65-0.225 2.1-1.425 3.513-2.325 4.236-2.7 1.751-0.899 3.088-1.15 4.014-0.75 0.774 0.35 1.263 0.763 1.463 1.237 0.299 0.65 0.662 1.15 1.086 1.5 1.251 1.075 2.664 1.4 4.238 0.976 0.476-0.15 1.1 0.075 1.875 0.675s1.212 0.888 1.313 0.862c0.449-0.149 0.737-0.175 0.863-0.075 0.049 0.051 0.062 0.113 0.037 0.188 0 0.65-0.188 0.976-0.563 0.976-0.15 0-0.438-0.226-0.863-0.675-0.425-0.501-0.8-0.801-1.125-0.9-0.35-0.075-0.762-0.1-1.236-0.075-0.926 0.049-1.589 0.074-1.989 0.074z" clip-rule="evenodd" fill="url(#bf)" fill-rule="evenodd"/>
				<radialGradient id="bg" cx="-1.0425" cy="-21.856" r="24.445" gradientTransform="matrix(-.0817 .7455 .6961 .0878 35.478 17.771)" gradientUnits="userSpaceOnUse">
				<stop stop-color="#FFF6D4" offset="0"/>
				<stop stop-color="#E0CA70" offset="1"/>
			</radialGradient>
			<path d="m35.275 19.95c-0.826 0-1.663-0.351-2.514-1.051-0.424-0.35-1.037-0.987-1.836-1.912-0.451-0.55-1.226-0.787-2.326-0.713-1 0.051-1.85 0.288-2.549 0.713-0.977 0.55-1.688 1.05-2.139 1.5-0.625 0.625-0.438 0.913 0.563 0.862 0.225 0 1.101-0.2 2.625-0.6 0.726-0.2 1.413 0 2.063 0.6 0.551 0.525 1.162 1.15 1.838 1.875 0.575 0.45 1.263 0.625 2.063 0.525 1.024-0.15 1.888 0.1 2.588 0.75 0.725 0.625 0.563 1.162-0.488 1.612-0.925 0.399-1.5 0.563-1.725 0.487l-0.038-0.223 0.938-0.563c0.475-0.426 0.412-0.763-0.188-1.013-0.425-0.175-1.063-0.287-1.912-0.338-0.726-0.024-1.264-0.188-1.613-0.487-0.625-0.675-1.1-1.188-1.426-1.537-0.6-0.601-1.162-0.925-1.688-0.976-0.449-0.024-1.074 0.038-1.875 0.188-0.898 0.2-1.688 0.301-2.361 0.301-0.375 0-1.113 0.112-2.213 0.337-0.525 0.1-0.9-0.05-1.125-0.45-0.05-0.1-0.35-0.812-0.9-2.137-0.399-0.95-0.737-1.551-1.012-1.801-0.525-0.5-1.125-0.787-1.801-0.862-0.899-0.149-1.45 0.3-1.649 1.351-0.175 0.975 0.137 1.85 0.938 2.625 0.45 0.449 1.15 1.037 2.1 1.762 1.275 1.426 1.712 2.338 1.313 2.738-0.45 0.5-0.762 0.8-0.938 0.899-0.575 0.275-1.337 0.263-2.287-0.037-0.925-0.325-1.95-0.801-3.075-1.425-1.1-0.7-1.813-1.15-2.138-1.351-0.5-0.275-1.212-0.375-2.138-0.3-0.899 0.1-1.412 0.325-1.537 0.675-0.1 0.351 0.1 0.675 0.6 0.976 0.45 0.274 1.063 0.487 1.838 0.637 0.5 0.101 1.063 0.2 1.688 0.301 0.55 0.074 1.138 0.237 1.763 0.487 0.225 0.075 0.938 0.638 2.138 1.688 0.824 0.75 1.637 0.938 2.438 0.563 0.449-0.226 1.212-0.95 2.287-2.175 0.875-1.025 1.888-1.613 3.037-1.763 1.851-0.226 2.788-0.338 2.813-0.338 0.5 0 1.301 0.275 2.4 0.825 0.875 0.425 1.662 0.7 2.363 0.825 0.399 0.075 0.649 0.2 0.75 0.375 0.225 0.375 1.012 0.85 2.361 1.425l-1.689 0.45c0.025-0.125-0.037-0.275-0.188-0.45-0.274-0.351-0.8-0.675-1.574-0.975-1.101-0.476-1.863-0.801-2.287-0.976-0.75-0.324-1.438-0.512-2.063-0.563-0.75-0.05-1.539 0.013-2.363 0.188-0.8 0.2-1.463 0.45-1.988 0.75-0.375 0.226-0.85 0.675-1.424 1.351-0.601 0.725-0.938 1.112-1.013 1.162-0.9 0.75-1.938 0.95-3.112 0.6-0.5-0.149-1.101-0.513-1.801-1.087-0.65-0.55-1.313-0.9-1.987-1.05-1.325-0.325-2.3-0.575-2.925-0.75-1.125-0.325-1.925-0.638-2.4-0.938-1.175-0.725-1.725-1.412-1.65-2.062 0.1-0.851 0.875-1.4 2.325-1.65 1.45-0.275 2.637-0.112 3.563 0.487 0.6 0.4 1.4 1.037 2.399 1.913 1.025 0.699 2.225 1.138 3.601 1.313 1.45 0.2 1.75-0.226 0.899-1.275-0.275-0.351-1.288-1.35-3.037-3-0.976-0.925-1.5-1.75-1.575-2.475-0.075-0.775 0.35-1.538 1.275-2.288 0.899-0.725 1.887-0.875 2.962-0.45 0.976 0.4 1.763 1.138 2.362 2.213 0.05 0.075 0.275 0.938 0.676 2.588 0.125 0.524 0.674 0.462 1.65-0.188 2.15-1.45 3.563-2.351 4.237-2.7 1.751-0.925 3.088-1.175 4.014-0.75 0.774 0.35 1.262 0.762 1.461 1.237 0.301 0.65 0.663 1.149 1.088 1.5 1.275 1.101 2.688 1.412 4.238 0.938 0.574-0.15 1.125-0.112 1.65 0.112 0.499 0.226 0.837 0.55 1.012 0.976 0.225 0.55 0.7 0.75 1.426 0.6 0 0.625-0.188 0.938-0.563 0.938-0.15 0-0.438-0.225-0.863-0.675-0.425-0.5-0.8-0.788-1.125-0.862-0.35-0.075-0.763-0.101-1.238-0.075-0.925 0.048-1.587 0.073-1.987 0.073z" clip-rule="evenodd" fill="url(#bg)" fill-rule="evenodd"/>
				<radialGradient id="bh" cx="4.4702" cy="-24.477" r="17.982" gradientTransform="matrix(-.0819 .7455 .696 .0876 39.253 18.236)" gradientUnits="userSpaceOnUse">
				<stop stop-color="#D6C894" offset="0"/>
				<stop stop-color="#A89642" offset="1"/>
			</radialGradient>
			<path d="m35.875 21.075c0.676 0.3 1.138 0.624 1.387 0.975 0.326 0.425 0.388 0.962 0.188 1.612-0.1 0.325-0.225 0.601-0.375 0.825l-1.199 0.638 0.787-1.5c0.351-0.625 0.037-1.275-0.938-1.95-0.225-0.15-1.112-0.625-2.662-1.425-0.7-0.601-1.238-0.963-1.613-1.088-0.6-0.149-1.749 0.226-3.449 1.125-1.601 0.875-3.237 1.313-4.912 1.313h-2.7c-0.375 0.175-1.025 0.1-1.95-0.225-1.075-0.375-1.95-0.55-2.625-0.525-0.875 0.025-1.612 0.338-2.213 0.938-0.1 0.125-0.449 0.625-1.05 1.5-0.175 0.275-0.487 0.65-0.938 1.125-0.325 0.426-0.375 0.9-0.149 1.425 0.225 0.525 0.875 0.976 1.949 1.351 0.525 0.175 1.025 0.3 1.5 0.375-0.35 0.075-1.274-0.075-2.774-0.45-1.975-0.525-2.55-1.4-1.726-2.625 0.201-0.3 0.463-0.575 0.788-0.825 0.275-0.2 0.575-0.6 0.899-1.2 0.55-0.975 1.4-1.7 2.551-2.175 1.4-0.6 2.825-0.55 4.274 0.15 0.45 0.2 0.9 0.324 1.351 0.375 0.25 0.024 0.787 0.037 1.612 0.037 1.925 0 3.275-0.188 4.05-0.563 0.325-0.125 1.088-0.463 2.287-1.013 1.15-0.475 2.013-0.712 2.588-0.712 0.649 0 1.199 0.125 1.65 0.375 0.274 0.125 0.8 0.5 1.574 1.125 0.401 0.324 1.014 0.662 1.838 1.012z" clip-rule="evenodd" fill="url(#bh)" fill-rule="evenodd"/>
				<radialGradient id="bi" cx="4.061" cy="-24.129" r="17.982" gradientTransform="matrix(-.0819 .7455 .696 .0876 38.752 18.173)" gradientUnits="userSpaceOnUse">
				<stop stop-color="#FFF6D4" offset="0"/>
				<stop stop-color="#E0CA70" offset="1"/>
			</radialGradient>
			<path d="m35.688 20.7c0.649 0.3 1.112 0.624 1.387 0.975 0.301 0.425 0.351 0.962 0.15 1.612-0.1 0.325-0.225 0.601-0.375 0.825l-1.199 0.675 0.787-1.5c0.35-0.65 0.037-1.313-0.938-1.987-0.25-0.175-1.138-0.65-2.662-1.425-0.7-0.601-1.238-0.95-1.613-1.05-0.6-0.15-1.75 0.225-3.449 1.125-1.601 0.85-3.237 1.274-4.912 1.274-1.751 0-2.651 0.013-2.701 0.038-0.375 0.175-1.025 0.1-1.949-0.226-1.101-0.375-1.975-0.563-2.625-0.563-0.875 0.025-1.6 0.351-2.176 0.976-0.325 0.324-0.687 0.812-1.087 1.462-0.175 0.275-0.487 0.65-0.938 1.125-0.3 0.45-0.338 0.938-0.112 1.463 0.225 0.524 0.862 0.963 1.912 1.313 0.525 0.199 1.025 0.337 1.5 0.412-0.35 0.075-1.275-0.088-2.775-0.487-1.949-0.525-2.525-1.4-1.725-2.625 0.2-0.275 0.462-0.538 0.787-0.787 0.275-0.226 0.576-0.638 0.9-1.238 0.55-0.975 1.4-1.7 2.55-2.175 1.4-0.575 2.825-0.524 4.275 0.15 0.45 0.225 0.899 0.35 1.35 0.375 0.175 0.024 0.712 0.037 1.612 0.037 1.9 0 3.251-0.175 4.051-0.524 0.325-0.126 1.088-0.463 2.287-1.013 1.15-0.475 2.025-0.713 2.625-0.713 0.649 0 1.188 0.112 1.613 0.338 0.299 0.149 0.837 0.537 1.611 1.162 0.401 0.326 1.014 0.651 1.839 0.976z" clip-rule="evenodd" fill="url(#bi)" fill-rule="evenodd"/>
				<radialGradient id="bj" cx="4.2339" cy="-26.365" r="16.486" gradientTransform="matrix(-.0819 .7455 .696 .0876 41.973 18.577)" gradientUnits="userSpaceOnUse">
				<stop stop-color="#FFF6D4" offset="0"/>
				<stop stop-color="#E0CA70" offset="1"/>
			</radialGradient>
			<path d="m36.438 23.287c-0.525-0.8-1.25-1.75-2.176-2.85-0.475-0.525-0.837-0.85-1.086-0.976-0.375-0.2-0.813-0.162-1.313 0.113-0.65 0.375-1.213 0.812-1.688 1.313-0.575 0.624-0.826 1.199-0.75 1.725 0.299 1.851 0.449 3.013 0.449 3.487 0 1.2-1.949 1.726-5.85 1.575-0.351 0-0.412-0.638-0.188-1.912 0.25-1.426-0.088-2.376-1.014-2.851-0.949-0.475-1.799-0.463-2.549 0.038-1.101 0.725-1.825 1.112-2.176 1.162-0.924 0.175-1.787 0.513-2.587 1.013-0.725 0.425-1.225 0.862-1.5 1.313-0.325 0.55-0.738 0.762-1.237 0.638 0.1-0.275 0.275-0.588 0.524-0.938 0.5-0.7 1.1-1.226 1.8-1.575 0.301-0.125 1.188-0.475 2.663-1.05 1.025-0.426 1.725-0.788 2.1-1.088 0.45-0.399 1.063-0.625 1.837-0.675 0.776-0.025 1.438 0.137 1.988 0.487 1.051 0.7 1.574 1.8 1.574 3.3 0 0.825 0.013 1.263 0.039 1.313 0.074 0.226 0.449 0.363 1.125 0.413 0.85 0.05 1.574-0.113 2.174-0.488 0.676-0.425 0.9-0.987 0.676-1.688-0.375-0.899-0.626-1.55-0.75-1.949-0.176-0.676-0.063-1.3 0.338-1.875 0.649-1 1.5-1.763 2.549-2.288 1.376-0.699 2.438-0.5 3.188 0.601 0.775 1.1 1.301 1.8 1.576 2.1 0.074 0.075 0.274 0.237 0.6 0.487 0.325 0.226 0.486 0.813 0.486 1.763l-0.523 0.469c0.115-0.267 0.015-0.635-0.299-1.107z" clip-rule="evenodd" fill="url(#bj)" fill-rule="evenodd"/>
			<path d="m15.588 14.362c0.225 0 0.225 0.075 0 0.225-0.525 0.301-0.838 0.488-0.938 0.563-0.5 0.351-0.75 1.125-0.75 2.325 0 0.25-0.075 0.238-0.226-0.037-0.125-0.275-0.175-0.65-0.149-1.125 0.024-0.525 0.275-0.988 0.75-1.388 0.425-0.375 0.863-0.563 1.313-0.563z" clip-rule="evenodd" fill="#fff" fill-rule="evenodd"/>
			<path d="m7.3 20.063c0.55 0 1.025 0.088 1.425 0.263s0.45 0.262 0.15 0.262c-0.1 0-0.512 0.101-1.237 0.301-0.7 0.175-1.213 0.249-1.538 0.225-0.449-0.024-0.475-0.2-0.074-0.525 0.399-0.352 0.824-0.526 1.274-0.526z" clip-rule="evenodd" fill="#fff" fill-rule="evenodd"/>
			<path d="m19.6 16.875c0.226 0.65 0.263 0.975 0.113 0.975-0.175 0-0.313-0.212-0.413-0.638-0.075-0.375-0.075-0.612 0-0.712 0.075-0.075 0.175 0.05 0.3 0.375z" clip-rule="evenodd" fill="#fff" fill-rule="evenodd"/>
			<path d="m23.012 14.513c0.326 0.024 0.575 0.149 0.75 0.375 0.15 0.225 0.051 0.275-0.299 0.149-0.225-0.075-0.575-0.087-1.051-0.037-0.475 0.05-0.762 0.05-0.862 0-0.2-0.05-0.088-0.15 0.337-0.3 0.426-0.15 0.801-0.213 1.125-0.187z" clip-rule="evenodd" fill="#fff" fill-rule="evenodd"/>
			<path d="m29.65 15.263c0.325 0.1 0.475 0.225 0.449 0.375-0.024 0.149-0.199 0.162-0.525 0.037-0.225-0.1-0.637-0.05-1.236 0.15-0.551 0.175-0.888 0.225-1.014 0.15-0.199-0.125 0.051-0.3 0.75-0.524 0.676-0.226 1.201-0.288 1.576-0.188z" clip-rule="evenodd" fill="#fff" fill-rule="evenodd"/>
			<path d="m22.113 19.013c0.449-0.126 0.611-0.038 0.486 0.262-0.124 0.301-0.412 0.45-0.862 0.45-0.425 0-0.525-0.1-0.3-0.3 0.175-0.2 0.4-0.338 0.676-0.412z" clip-rule="evenodd" fill="#fff" fill-rule="evenodd"/>
			<path d="m37.6 19.125c0.626 0.024 0.763 0.125 0.412 0.3-0.349 0.15-0.687 0.212-1.012 0.188-0.274-0.024-0.313-0.112-0.113-0.263 0.176-0.175 0.414-0.25 0.713-0.225z" clip-rule="evenodd" fill="#fff" fill-rule="evenodd"/>
			<path d="m16.563 19.837c0.5 0.101 0.613 0.175 0.338 0.226-0.275 0.05-0.601 0.037-0.976-0.038-0.25-0.05-0.675 0.013-1.274 0.188-0.425 0.101-0.588 0.113-0.488 0.038 0.201-0.175 0.563-0.3 1.088-0.375 0.524-0.101 0.961-0.113 1.312-0.039z" clip-rule="evenodd" fill="#fff" fill-rule="evenodd"/>
			<path d="m10.225 18c0.351-0.075 0.576-0.088 0.676-0.038 0.1 0.051 0 0.126-0.301 0.226-0.2 0.075-0.462 0.3-0.787 0.675-0.275 0.3-0.462 0.399-0.563 0.3-0.125-0.125-0.037-0.337 0.263-0.638 0.275-0.3 0.512-0.475 0.712-0.525z" clip-rule="evenodd" fill="#fff" fill-rule="evenodd"/>
			<path d="m23.275 22.313c0.199 0.1 0.425 0.275 0.674 0.524 0.227 0.275 0.363 0.525 0.414 0.75 0.074 0.375-0.163 0.2-0.713-0.524-0.15-0.226-0.451-0.4-0.9-0.525-0.476-0.149-0.737-0.25-0.787-0.3-0.125-0.125-0.038-0.188 0.262-0.188 0.325 0.024 0.675 0.112 1.05 0.263z" clip-rule="evenodd" fill="#fff" fill-rule="evenodd"/>
			<path d="m26.088 22.612c0.449 0.024 0.6 0.112 0.449 0.263-0.15 0.125-0.362 0.137-0.637 0.037-0.225-0.1-0.301-0.175-0.225-0.225 0.05-0.075 0.188-0.099 0.413-0.075z" clip-rule="evenodd" fill="#fff" fill-rule="evenodd"/>
			<path d="m20.762 23.55c0.401-0.25 0.337-0.05-0.188 0.6-0.525 0.625-0.85 0.888-0.975 0.788s-0.012-0.325 0.338-0.675c0.275-0.301 0.55-0.538 0.825-0.713z" clip-rule="evenodd" fill="#fff" fill-rule="evenodd"/>
			<path d="m31.037 19.388c0.325-0.15 0.313-0.063-0.037 0.262-0.525 0.476-0.888 0.801-1.088 0.976-0.25 0.25-0.438 0.563-0.563 0.938-0.15 0.475-0.237 0.725-0.262 0.75-0.15 0.3-0.188 0.063-0.113-0.713 0.025-0.35 0.325-0.787 0.9-1.313 0.477-0.475 0.864-0.775 1.163-0.9z" clip-rule="evenodd" fill="#fff" fill-rule="evenodd"/>
			<path d="m34.824 22.537c0.026 0.1-0.111 0.088-0.412-0.037-0.399-0.175-0.713-0.275-0.938-0.3-1.225-0.075-1.975-0.213-2.25-0.413-0.1-0.075-0.05-0.1 0.15-0.075 0.375 0.075 0.688 0.101 0.938 0.075 0.525-0.024 1.075 0.063 1.65 0.263 0.551 0.175 0.838 0.338 0.862 0.487z" clip-rule="evenodd" fill="#fff" fill-rule="evenodd"/>
			<path d="m33.887 24.487c-0.274 0-0.349-0.088-0.225-0.263 0.125-0.2 0.325-0.3 0.6-0.3 0.876 0.024 1.125 0.125 0.75 0.3-0.349 0.175-0.724 0.263-1.125 0.263z" clip-rule="evenodd" fill="#fff" fill-rule="evenodd"/>
			<path d="m12.588 20.024c0.524 0.025 0.563 0.138 0.112 0.338-0.425 0.225-0.725 0.237-0.9 0.037-0.3-0.299-0.037-0.424 0.788-0.375z" clip-rule="evenodd" fill="#EFDFA1" fill-rule="evenodd"/>
			<path d="m9.063 21.712c0.4 0 0.737 0.075 1.013 0.226 0.25 0.149 0.337 0.275 0.263 0.375-0.05 0.1-0.325 0.175-0.825 0.225-0.5 0.051-0.875 0.038-1.125-0.037-0.275-0.051-0.325-0.2-0.15-0.45 0.149-0.226 0.424-0.339 0.824-0.339z" clip-rule="evenodd" fill="#EFDFA1" fill-rule="evenodd"/>
			<path d="m15.588 21.112c0.475-0.024 0.662 0.075 0.563 0.3-0.125 0.175-0.363 0.3-0.713 0.375-0.375 0.15-0.65 0.25-0.825 0.3-0.275 0.101-0.538 0.113-0.787 0.038-0.275-0.1-0.163-0.287 0.337-0.563 0.5-0.275 0.975-0.425 1.425-0.45z" clip-rule="evenodd" fill="#EFDFA1" fill-rule="evenodd"/>
			<path d="m18.063 21.75c0.375 0.45 0.425 0.638 0.15 0.563-0.301-0.075-0.538-0.238-0.713-0.487-0.15-0.2-0.163-0.338-0.037-0.413 0.149-0.076 0.35 0.037 0.6 0.337z" clip-rule="evenodd" fill="#fff" fill-rule="evenodd"/>
			<path d="m15.55 23.362c0.8 0.2 1.225 0.351 1.275 0.45 0.05 0.05-0.138 0.088-0.563 0.112-0.35 0.05-0.75-0.024-1.2-0.225-0.45-0.175-0.737-0.362-0.862-0.563-0.075-0.175 0.012-0.213 0.263-0.113 0.675 0.227 1.037 0.339 1.087 0.339z" clip-rule="evenodd" fill="#fff" fill-rule="evenodd"/>
			<path d="m19.412 21.675c0.275 0 0.363 0.125 0.263 0.375-0.125 0.225-0.313 0.287-0.563 0.188-0.25-0.1-0.325-0.225-0.225-0.375 0.1-0.126 0.276-0.188 0.525-0.188z" clip-rule="evenodd" fill="#fff" fill-rule="evenodd"/>
			<path d="m21.887 17.024c0.675 0.101 0.988 0.226 0.937 0.375-0.024 0.15-0.199 0.226-0.523 0.226-0.275 0-0.601-0.038-0.976-0.112-0.425-0.075-0.674-0.163-0.75-0.263-0.125-0.125-0.05-0.213 0.226-0.263 0.299-0.049 0.661-0.037 1.086 0.037z" clip-rule="evenodd" fill="#fff" fill-rule="evenodd"/>
			<path d="m25.488 18.263c1.399 0 1.799 0.074 1.199 0.225-0.775 0.2-1.287 0.287-1.537 0.263-0.275-0.025-0.363-0.112-0.264-0.263 0.127-0.151 0.327-0.225 0.602-0.225z" clip-rule="evenodd" fill="#EFDFA1" fill-rule="evenodd"/>
			<path d="m26.238 19.875c0.499-0.2 0.624-0.188 0.375 0.037-0.251 0.2-0.575 0.4-0.977 0.601-0.324 0.149-0.837 0.249-1.537 0.3-0.625 0.05-1.088 0.05-1.387 0-0.225-0.025-0.088-0.112 0.412-0.263 0.5-0.125 0.95-0.188 1.35-0.188 0.351 0 0.663-0.05 0.938-0.15 0.151-0.05 0.425-0.162 0.826-0.337z" clip-rule="evenodd" fill="#fff" fill-rule="evenodd"/>
			<path d="m26.65 25.688c0.124 0 0.25 0.1 0.375 0.3 0.1 0.2 0.037 0.338-0.188 0.412-0.251 0.05-0.513 0.025-0.787-0.074-0.275-0.126-0.451-0.301-0.525-0.525-0.076-0.15-0.025-0.225 0.15-0.225 0.551 0.073 0.875 0.112 0.975 0.112z" clip-rule="evenodd" fill="#EFDFA1" fill-rule="evenodd"/>
			<path d="m23.35 25.462c0.425-0.249 0.388 0.075-0.111 0.976-0.101 0.175-0.326 0.275-0.676 0.3-0.325 0.024-0.575-0.05-0.75-0.225-0.125-0.126 0-0.288 0.375-0.488 0.25-0.1 0.636-0.288 1.162-0.563z" clip-rule="evenodd" fill="#EFDFA1" fill-rule="evenodd"/>
			<path d="m13.075 24.862c0.425 0.25 0.412 0.351-0.038 0.3-0.449-0.05-0.75-0.175-0.899-0.375-0.15-0.175-0.125-0.263 0.075-0.263 0.2 0.026 0.487 0.138 0.862 0.338z" clip-rule="evenodd" fill="#fff" fill-rule="evenodd"/>
			<path d="m15.1 24.563c0.351-0.075 0.338 0.063-0.037 0.412-0.35 0.325-0.663 0.55-0.938 0.675-0.225 0.075-0.188-0.074 0.112-0.449s0.588-0.589 0.863-0.638z" clip-rule="evenodd" fill="#fff" fill-rule="evenodd"/>
			<path d="m31.787 18.45c1.101 0.324 1.751 0.812 1.951 1.462-0.2-0.225-0.688-0.5-1.463-0.825-0.826-0.324-1.25-0.5-1.275-0.524-0.125-0.075-0.087-0.125 0.113-0.15 0.2-0.051 0.424-0.038 0.674 0.037z" clip-rule="evenodd" fill="#fff" fill-rule="evenodd"/>
			<path d="m27.963 20.587c0.7 0.175 0.837 0.338 0.412 0.488-0.4 0.175-0.824 0.225-1.275 0.149-0.35-0.075-0.375-0.212-0.074-0.412 0.325-0.225 0.636-0.299 0.937-0.225z" clip-rule="evenodd" fill="#EFDFA1" fill-rule="evenodd"/>
			<path d="m19.225 19.5c0.325-0.051 0.463 0.063 0.413 0.337-0.025 0.275-0.163 0.388-0.413 0.338-0.225-0.024-0.337-0.138-0.337-0.338 0-0.175 0.112-0.287 0.337-0.337z" clip-rule="evenodd" fill="#fff" fill-rule="evenodd"/>
			<path d="m17.65 16.612c0.225-0.075 0.262-0.013 0.112 0.188-0.15 0.175-0.363 0.338-0.638 0.487-0.675 0.4-1.2 0.563-1.575 0.487-0.2-0.024-0.175-0.1 0.075-0.225 0.225-0.1 0.462-0.163 0.713-0.188 0.149 0 0.337-0.1 0.563-0.3 0.25-0.224 0.5-0.373 0.75-0.449z" clip-rule="evenodd" fill="#fff" fill-rule="evenodd"/>
			<path d="m37.938 21h1.088c0.05 0.125 0.074 0.313 0.074 0.563 0 1.824-1.712 3.375-5.137 4.649-3.425 1.275-7.563 1.913-12.413 1.913-4.851 0-8.988-0.638-12.413-1.913-3.425-1.274-5.137-2.825-5.137-4.649l0.075-0.563h1.275v0.3c0 1.625 1.588 3 4.763 4.125 3.175 1.149 7.013 1.725 11.513 1.725 4.525 0 8.375-0.575 11.551-1.725 3.175-1.125 4.762-2.5 4.762-4.125v-0.3z" clip-rule="evenodd" fill="#fff" fill-rule="evenodd"/>
		<g clip-rule="evenodd" fill-rule="evenodd">
			<path d="m13.311 16.413c-0.253 0.093-0.451 0.25-0.594 0.472l1.188-0.144c-0.225-0.141-0.423-0.252-0.594-0.328zm1.386 1.5c0.026 0.019 0.555 0.248 1.584 0.686 0.845 0.362 1.228 0.629 1.149 0.801-0.106 0.189-0.674 0.333-1.704 0.428-0.951 0.038-1.611 0.096-1.98 0.172-0.634 0.133-1.109 0.523-1.426 1.171-0.053 0.114-0.065 0.457-0.04 1.028 0.026 0.438-0.119 0.763-0.436 0.972-0.74 0.477-1.109 0.286-1.109-0.571 0-0.171 0.211-0.6 0.634-1.285 0.211-0.324-0.066-0.695-0.832-1.115-0.898-0.305-1.532-0.562-1.901-0.771-0.687-0.4-0.449-0.781 0.713-1.144 0.264-0.076 0.924 0.029 1.98 0.314 0.898 0.248 1.479 0.2 1.743-0.143-0.237-0.629-0.409-1.152-0.515-1.571-0.146-0.619 0.104-0.776 0.752-0.472 0.075-0.03 0.154-0.055 0.238-0.071 0.37-0.076 0.74-0.038 1.109 0.114-0.263 0.705-0.249 1.19 0.041 1.457z" fill="#B54624"/>
			<path d="m25.987 16.027l-0.911-0.4c0.544 0.262 0.346 0.815-0.595 1.657-0.924 0.819-0.818 1.391 0.317 1.715-0.396 0.59-1.175 0.733-2.337 0.429-1.744-0.477-2.681-0.715-2.813-0.715-0.211-0.647 0.066-1.066 0.832-1.257 0.422-0.114 1.123-0.22 2.1-0.314-0.317-0.857 0.052-1.486 1.108-1.885 1.084-0.42 1.85-0.163 2.299 0.77z" fill="#B54624"/>
			<path d="m28.166 17.856c-0.132-0.629 0.237-0.963 1.109-1 0.658-0.019 1.293 0.11 1.901 0.385 0.515-0.146 0.977-0.295 1.387-0.442 0.265-0.038 0.62 0.162 1.069 0.601 0.493 0.86 0.718 1.228 0.674 1.1 0.057 0.144 0.229 0.264 0.515 0.357 0.158 0.057 0.158 0.237 0 0.543-0.317 0.646-0.779 0.799-1.386 0.457-0.635-0.553-1.07-0.896-1.308-1.029-0.529-0.305-1.149-0.552-1.862-0.743-0.765-0.191-1.465-0.267-2.099-0.229z" fill="#B54624"/>
			<path d="m22.026 22.17c-1.136-0.076-1.81-0.171-2.021-0.285-0.529-0.324-0.357-0.638 0.514-0.943 0.74-0.247 1.44-0.361 2.1-0.343 0.317 0 0.925 0.114 1.822 0.343 0.581 0.134 1.096 0.067 1.545-0.2 0.475-0.571 0.818-0.942 1.03-1.114 0.29-0.243 0.857-0.191 1.703 0.157l-0.753-0.328c1.109 0.248 1.519 0.581 1.229 1-0.502 0.762-0.727 1.238-0.674 1.429s0.515 0.485 1.387 0.886c0.713 0.323 0.897 0.724 0.555 1.2-0.265 0.419-0.766 0.485-1.506 0.199-0.845-0.419-1.438-0.657-1.782-0.714-1.03 0-1.77-0.02-2.219-0.057-0.792-0.077-0.99-0.438-0.594-1.086-0.131-0.02-0.91-0.067-2.336-0.144z" fill="#B54624"/>
			<path d="m33.712 20.741c0.37 0.077 0.646 0.229 0.832 0.457l0.02 0.029-0.852-0.486zm0.871 0.53c0.125 0.211 0.151 0.453 0.08 0.729-0.688 0.038-1.387-0.01-2.1-0.143-0.978-0.21-1.4-0.534-1.268-0.972s0.646-0.524 1.545-0.258c0.452 0.144 1.033 0.359 1.743 0.644z" fill="#B54624"/>
			<path d="m30.127 25.542c0.053 0.08 0.112 0.175 0.179 0.285-0.502 0.42-1.439 0.705-2.813 0.857-1.269 0.134-2.285 0.114-3.051-0.058 0.185-0.095 0.66-0.457 1.426-1.085 0.555-0.458 1.057-0.724 1.506-0.801 0.634-0.114 1.241-0.019 1.822 0.286 0.232 0.13 0.542 0.301 0.931 0.516z" fill="#B54624"/>
			<path d="m14.539 23.827c0.766 0.152 1.4 0.104 1.902-0.143 0.053-0.02 0.449-0.438 1.188-1.257 0.422-0.477 0.977-0.534 1.664-0.172 0.476 0.286 0.476 0.609 0 0.972-0.29 0.19-0.779 0.505-1.465 0.942 0.37 0.629 0.633 0.991 0.792 1.086 0.211 0.114 0.753 0.181 1.624 0.2 1.347 0.038 2.073 0.066 2.179 0.086 0.767 0.133 1.097 0.533 0.99 1.199-3.248 0.038-5.691 0.038-7.328 0-1.03-0.037-2.047-0.219-3.05-0.543-1.417-0.457-2.308-0.742-2.674-0.856 0.625 0.168 1.107 0.024 1.445-0.429 0.528-0.686 0.898-1.066 1.109-1.143 0.29-0.114 0.832-0.094 1.624 0.058z" fill="#B54624"/>
			<path d="m18.064 24.027h-0.198c0.264-0.571 0.779-0.81 1.545-0.714 0.211 0.666-0.04 1.152-0.753 1.457 0.079 0.037 0.198 0.152 0.356 0.343 0.185 0.171 0.33 0.286 0.436 0.343-0.423 0.305-0.964 0.199-1.624-0.314-0.66-0.515-0.58-0.886 0.238-1.115z" fill="#782E18"/>
			<path d="m14.103 24.885l-0.198 0.143c0.159 0.019 0.488 0.152 0.991 0.4-0.423 0.419-0.779 0.504-1.069 0.257-0.292-0.248-0.199-0.515 0.276-0.8z" fill="#782E18"/>
			<path d="m25.987 21.741h-0.039c0.078 0.324 0.501 0.733 1.267 1.229 0.688 0.419 1.308 0.714 1.862 0.886-0.502 0.209-1.109 0.199-1.822-0.029-0.897-0.267-1.519-0.391-1.861-0.371 0.105 0.724-0.066 1.01-0.516 0.857-0.449-0.134-0.792-0.438-1.03-0.914-0.185-0.629-0.329-1.02-0.436-1.172-0.132-0.19-0.66-0.362-1.584-0.515 0.185-0.438 0.792-0.571 1.823-0.399 0.554 0.115 1.332 0.257 2.336 0.428z" fill="#782E18"/>
			<path d="m28.563 21.027l-0.793-0.143c1.215 0.038 1.506 0.285 0.872 0.742-0.186 0.152-0.356 0.191-0.515 0.114-0.212-0.095-0.265-0.333-0.159-0.714 0.133-0.017 0.331-0.017 0.595 1e-3z" fill="#782E18"/>
			<path d="m29.829 18.084c-0.396-0.133-0.686-0.305-0.871-0.514 0.449-0.152 1.03-0.181 1.743-0.086 0.27 0.036 0.613 0.084 1.03 0.143 0.012 0.066 0.051 0.181 0.119 0.344 0.079 0.19 0.105 0.343 0.079 0.457 0.792 0.171 1.36 0.552 1.703 1.143 0.316 0.609-0.066 0.705-1.148 0.286-0.291-0.096-0.568-0.305-0.832-0.629-0.317-0.381-0.567-0.629-0.753-0.743-0.184-0.115-0.541-0.249-1.07-0.401z" fill="#782E18"/>
			<path d="m18.896 18.241c0.182-0.066 0.434-0.09 0.753-0.071l-0.297 0.043c0.053 0.016 0.1 0.039 0.138 0.071 0.159 0.134 0.132 0.371-0.079 0.715-0.713-0.02-1.003-0.172-0.872-0.457 0.039-0.104 0.111-0.185 0.218-0.243l-0.099 0.015c0.084-0.033 0.162-0.057 0.238-0.073z" fill="#782E18"/>
			<path d="m16.203 18.484c0.475 0.21 1.333 0.533 2.575 0.972-0.555 0.209-1.334 0.4-2.337 0.571-1.083 0.209-1.875 0.391-2.377 0.543-0.713 0.229-1.281 0.819-1.704 1.771-0.422 0.914-0.832 1.419-1.228 1.515-0.079-1.238 0.079-2.172 0.475-2.801 0.502-0.762 1.453-1.267 2.853-1.514-0.688-0.496-1.07-1.096-1.149-1.801 0.162 0 0.386 0.038 0.673 0.115 0.143-0.371 0.249-0.647 0.317-0.829 0.449 0.629 1.083 1.116 1.902 1.458z" fill="#782E18"/>
			<path d="m17.728 16.042l-0.06-0.015c0.713 0.057 1.069 0.305 1.069 0.743-0.026 0.419-0.369 0.543-1.03 0.371-0.634-0.171-0.832-0.447-0.594-0.828 0.135-0.206 0.34-0.295 0.615-0.271z" fill="#782E18"/>
			<path d="m32.722 22.17l-0.396-1.128c0.046 0.103 0.324 0.384 0.832 0.843 0.344 0.305 0.37 0.581 0.08 0.828-0.238 0.248-0.7 0.286-1.387 0.114-0.74-0.247-1.242-0.419-1.506-0.514 0.106-0.553 0.462-0.839 1.069-0.857 0.581-0.019 1.018 0.219 1.308 0.714z" fill="#782E18"/>
			<path d="m20.045 20.027l-0.991-0.143c0.344-0.305 0.766-0.391 1.268-0.258 0.502 0.134 0.647 0.391 0.437 0.772-0.132 0.228-0.542 0.438-1.229 0.628-0.475 0.134-0.963 0.22-1.465 0.257-0.106-0.419 0.053-0.752 0.475-1 0.423-0.227 0.924-0.312 1.505-0.256z" fill="#782E18"/>
			<path d="m26.008 17.885c0.598 0.113 1.04 0.161 1.326 0.143 0 0.419-0.265 0.686-0.792 0.8-0.528 0.114-1.043 0.066-1.545-0.143 0.066-0.482 0.403-0.748 1.011-0.8z" fill="#782E18"/>
			<path d="m23.214 24.313h-0.297c0.331 0.033 0.654 0.119 0.971 0.257 0.555 0.248 0.779 0.581 0.674 1-1.426-0.076-2.483-0.362-3.169-0.857 0.185-0.267 0.436-0.429 0.753-0.485 0.342-0.077 0.699-0.048 1.068 0.085z" fill="#782E18"/>
			<path d="m14.499 22.599l-0.396-0.143c1.083-0.134 1.465 0.076 1.149 0.628-0.317 0.534-0.898 0.648-1.743 0.344-0.106-0.515 0.224-0.791 0.99-0.829z" fill="#782E18"/>
			<path d="m25.294 15.47c-0.035-6e-3 -0.067-0.01-0.099-0.014h0.258c-0.053 3e-3 -0.105 8e-3 -0.159 0.014 0.517 0.05 1.525 0.093 3.03 0.128 0.026 0.477-0.555 0.81-1.743 1-1.479 0.248-2.402 0.515-2.772 0.801-0.158-0.515-0.053-0.972 0.317-1.372 0.282-0.32 0.671-0.506 1.168-0.557z" fill="#782E18"/>
			<path d="m14.697 16.313l-0.159 0.057c-0.079 0.038-0.092 0.104-0.04 0.2 0.502 0.038 1.215 0 2.14-0.114 0.159 0.571 0.013 1.133-0.436 1.686-0.872-0.248-1.453-0.438-1.743-0.571-0.476-0.21-0.529-0.629-0.159-1.257h0.397z" fill="#90A701"/>
			<path d="m20.441 14.742l-0.396 0.286c0.475 0.019 0.818 0.19 1.03 0.515 0.158 0.286 0.198 0.628 0.119 1.028-0.978 0.095-1.585-0.124-1.822-0.657-0.265-0.535 0.092-0.925 1.069-1.172z" fill="#90A701"/>
			<path d="m27.632 16.441c0.332-0.16 0.695-0.203 1.089-0.128 0.026 0.647-0.198 1.047-0.674 1.199-0.369 0.134-0.766 0.086-1.188-0.143s-0.554-0.447-0.396-0.657c0.175-0.168 0.565-0.258 1.169-0.271z" fill="#90A701"/>
			<path d="m29.751 19.313c-0.216 0.077-0.413 0.225-0.595 0.442-0.118-0.056-0.251-0.108-0.396-0.157l0.991-0.285zm-0.595 0.443c0.576 0.263 0.854 0.591 0.832 0.985-0.026 0.477-0.502 0.457-1.426-0.057 0.264-0.457 0.422-0.714 0.475-0.771 0.04-0.057 0.079-0.109 0.119-0.157z" fill="#90A701"/>
			<path d="m27.671 22.642c0.062 0.019 0.121 0.043 0.178 0.071 0.264 0.127 0.422 0.346 0.476 0.657 0.105 0.591-0.343 0.724-1.347 0.4-0.818-0.286-1.003-0.572-0.555-0.857 0.22-0.149 0.472-0.239 0.753-0.271 0.156-0.018 0.322-0.018 0.495 0z" fill="#90A701"/>
			<path d="m20.045 24.456l-0.594 0.285c0.871-0.133 1.36 0.048 1.465 0.543 0.106 0.477-0.303 0.725-1.228 0.743-1.083 0-1.452-0.286-1.109-0.857 0.317-0.571 0.806-0.81 1.466-0.714z" fill="#90A701"/>
			<path d="m11.548 22.327c-0.025 0.027-0.051 0.056-0.08 0.086-0.043 0.01-0.089 0.024-0.139 0.043l0.219-0.129zm-0.079 0.086c0.675-0.212 1.025 0.012 1.05 0.671 0.026 0.705-0.317 1.02-1.03 0.943-0.661-0.076-0.806-0.429-0.436-1.057 0.133-0.22 0.272-0.406 0.416-0.557z" fill="#90A701"/>
			<path d="m9.151 19.456c0.528-0.096 1.043-0.01 1.545 0.257 0.501 0.305 0.449 0.591-0.159 0.857-0.581 0.248-1.03 0.162-1.347-0.257-0.316-0.4-0.33-0.771-0.04-1.115-0.051 0.115-0.051 0.201 1e-3 0.258z" fill="#90A701"/>
			<path d="m33.315 17.885h-0.395c0.792-0.114 1.387 0.076 1.782 0.571l-0.237 0.828c-0.185-0.057-0.304-0.095-0.356-0.114-0.053-0.038-0.133-0.133-0.237-0.285-0.238 0.038-0.556 0.028-0.951-0.028-0.16-0.401-0.027-0.725 0.394-0.972z" fill="#90A701"/>
		</g>
			<path d="m30.829 17.766c0.311 0 0.362 0.061 0.155 0.182-0.207 0.086-0.371 0.172-0.491 0.259-0.328 0.275-0.726 0.5-1.191 0.673-1.19 0.328-2.2 0.621-3.029 0.88-1.07 0.346-2.243 1.045-3.521 2.098-0.949 0.811-2.011 1.492-3.185 2.045-0.328 0.155-0.725 0.432-1.191 0.828l-0.595 0.519-0.389-0.751v-1.631c-0.552-0.294-1.044-0.604-1.476-0.933-0.862-0.655-0.983-1.062-0.362-1.217 0.984-0.242 6.076-1.227 15.275-2.952z" clip-rule="evenodd" fill="#8F7F59" fill-rule="evenodd"/>
			<path d="m11.05 23.255c4.349 0.673 6.541 1.087 6.576 1.242l0.181 0.776-1.993-0.052c-0.673-0.034-1.942-0.216-3.806-0.543-0.466-0.069-1.147-0.233-2.045-0.492-0.829-0.225-1.346-0.389-1.553-0.492l-0.493-0.284c1.104-0.104 2.149-0.155 3.133-0.155z" clip-rule="evenodd" fill="#94845D" fill-rule="evenodd"/>
			<path d="m25.651 18.387c2.969-0.432 4.557-0.646 4.764-0.646 0.328 0 0.535 0.017 0.621 0.052 0.087 0.034 0.018 0.068-0.207 0.103-0.173 0.035-0.293 0.087-0.362 0.156-0.104 0.086-0.173 0.138-0.207 0.155-0.673 0.38-1.467 0.655-2.382 0.828-1.088 0.242-2.261 0.664-3.521 1.269-0.467 0.225-1.097 0.656-1.891 1.295-0.846 0.69-1.51 1.165-1.993 1.424-0.639 0.345-1.286 0.785-1.942 1.32l-0.803 0.673c-0.621 0.121-1.476 0.112-2.563-0.025-1.07-0.139-1.847-0.242-2.331-0.311-0.846-0.139-1.501-0.277-1.967-0.415l-3.055-0.88c0.725-0.518 1.277-0.933 1.657-1.243 1.571-0.483 3.202-0.975 4.894-1.476 3.383-1.001 5.368-1.527 5.954-1.579 0.484-0.035 2.262-0.269 5.334-0.7z" clip-rule="evenodd" fill="#695322" fill-rule="evenodd"/>
			<path d="m25.366 14.581c1.261 0.346 2.339 0.751 3.236 1.217 1.019 0.535 1.666 1.019 1.941 1.45-0.138 0.432-0.569 0.785-1.294 1.062-0.293 0.121-0.924 0.311-1.89 0.569-0.967 0.259-1.786 0.518-2.46 0.776-0.708 0.276-1.527 0.769-2.459 1.476-1.036 0.794-1.64 1.234-1.813 1.32-0.397 0.208-1.053 0.647-1.967 1.321-0.449 0.345-0.863 0.664-1.243 0.957l-3.599-0.259c-0.397-0.034-1.476-0.25-3.236-0.646l-2.537-0.596c-0.397-0.207-0.63-0.466-0.699-0.777-0.051-0.172-8e-3 -0.535 0.13-1.087l0.104-0.233 0.622-0.543c0.535-0.397 1.337-1.07 2.407-2.02 0.829-0.708 1.916-1.459 3.262-2.253 1.381-0.793 2.485-1.311 3.314-1.553 1.104-0.328 2.503-0.579 4.194-0.751 1.175-0.017 2.504 0.173 3.987 0.57z" clip-rule="evenodd" fill="#F27922" fill-rule="evenodd"/>
				<use transform="matrix(.5178 0 0 -.5178 8.7998 14.25)" x="-0.016" y="-12.653" width="31.766" height="12.653" enable-background="new" opacity=".6211" xlink:href="#bb"/>
			<g clip-rule="evenodd" fill="#FF9B4A" fill-rule="evenodd">
				<path d="m21.82 14.4l0.622 0.544c0.448 0.431 0.776 0.819 0.983 1.165 0.483 0.829 0.639 1.786 0.466 2.874-0.104 0.673-0.232 0.699-0.388 0.077 0.104-0.017 0.189-0.095 0.259-0.232 0.138-0.259 0.112-0.656-0.078-1.191-0.276-0.794-0.862-1.553-1.76-2.278l-1.243-0.829c-0.432-0.034-0.872-0.052-1.32-0.052-0.518 0-0.958 0.026-1.32 0.078 0.69-0.155 1.329-0.276 1.916-0.362 0.81-0.018 1.432 0.051 1.863 0.206z"/>
				<path d="m28.914 17.585c0.379-0.328 0.534-0.622 0.465-0.881-0.051-0.207-0.293-0.501-0.725-0.88l0.984 0.596c0.052 0.396-0.043 0.759-0.285 1.087l-0.544 0.544c-0.189 0.138-0.302 0.172-0.336 0.104-0.035-0.07 0.112-0.26 0.441-0.57z"/>
				<path d="m19.386 14.917l0.673 0.518c0.518 0.397 0.897 0.751 1.139 1.062 0.691 0.88 1.14 1.847 1.347 2.899 0.138 0.639 0.061 0.717-0.233 0.233 0.018-0.19-0.034-0.449-0.155-0.777-0.224-0.621-0.656-1.242-1.294-1.863-0.518-0.501-1.26-0.924-2.227-1.269l-1.294-0.388-0.466 0.052c-0.57 0.069-1.191 0.181-1.864 0.336l0.829-0.414c1.293-0.207 2.475-0.336 3.545-0.389z"/>
				<path d="m18.117 23.073l-0.207 0.337c-0.018-0.28-0.216-0.687-0.596-1.218-0.432-0.621-1.312-1.242-2.641-1.863l-1.864-0.777c-1.329 0.018-2.451 0.207-3.365 0.57-0.311 0.12-0.691 0.311-1.14 0.569 0.138-0.155 0.415-0.414 0.829-0.776 1.346-0.57 2.805-0.924 4.375-1.063l0.983 0.467c0.76 0.396 1.39 0.785 1.89 1.165 0.779 0.621 1.357 1.485 1.736 2.589z"/>
				<path d="m17.341 19.034c0.483 0.328 0.967 0.794 1.45 1.398 0.586 0.725 1.044 1.492 1.372 2.304l-0.828 0.544c-0.017-0.052 0.026-0.216 0.129-0.492 0.104-0.259 0.138-0.432 0.104-0.518-0.5-1.329-1.623-2.451-3.365-3.365l-2.46-0.958c-0.656 0.068-1.355 0.189-2.097 0.362-0.397 0.086-0.768 0.198-1.113 0.336l0.077-0.077 0.88-0.674c1.104-0.293 2.192-0.466 3.262-0.518l2.589 1.658z"/>
				<path d="m17.6 17.455l-2.201-0.803c-0.88 0.087-1.769 0.216-2.667 0.389l0.958-0.596c0.984-0.155 1.959-0.233 2.926-0.233l1.139 0.57c0.828 0.466 1.45 0.889 1.864 1.269 1.053 0.966 1.734 2.063 2.045 3.288l0.077 0.336-0.31 0.233c-0.052-0.069-0.121-0.319-0.208-0.751-0.086-0.466-0.224-0.863-0.414-1.191-0.551-0.932-1.621-1.769-3.209-2.511z"/>
				<path d="m27.696 16.549c-0.086-0.432-0.621-1.01-1.604-1.734l1.062 0.336c0.466 0.449 0.733 0.915 0.802 1.398 0.069 0.38 0.018 0.708-0.155 0.983-0.12 0.225-0.189 0.312-0.206 0.26l0.025-0.156c0.206 0 0.233-0.363 0.076-1.087z"/>
				<path d="m24.046 14.271c1.053 0.725 1.675 1.251 1.864 1.58 0.155 0.31 0.241 0.725 0.259 1.243 0 0.448-0.034 0.751-0.104 0.906-0.026 0.053-0.061 0.104-0.104 0.155-0.021 0.171-0.073 0.274-0.155 0.311l-0.284-0.052c0.19-0.072 0.337-0.158 0.439-0.259 0.016-0.161 7e-3 -0.377-0.025-0.647-0.121-0.897-0.57-1.7-1.347-2.408l-1.113-0.803c-0.345-0.035-0.733-0.095-1.165-0.181l-0.284-0.104c0.777 0.069 1.45 0.155 2.019 0.259z"/>
			</g>
			<path d="m26.479 17.325c0.483-0.068 1.217-0.129 2.201-0.181 0.535-0.052 1.156-9e-3 1.863 0.129-0.172 0.432-0.604 0.777-1.294 1.036-0.293 0.121-0.924 0.311-1.89 0.569-0.967 0.259-1.786 0.518-2.46 0.776-0.708 0.276-1.527 0.769-2.459 1.476-1.036 0.794-1.64 1.234-1.813 1.32-0.397 0.208-1.053 0.647-1.967 1.321-0.449 0.345-0.863 0.664-1.243 0.957l-0.802-0.051 0.259-1.347c0.172-0.069 0.794-0.613 1.864-1.631 0.535-0.501 1.26-1.2 2.175-2.098 0.811-0.69 1.666-1.208 2.563-1.553 0.898-0.343 1.899-0.584 3.003-0.723z" clip-rule="evenodd" fill="#C25B10" fill-rule="evenodd"/>
			<path d="m17.263 24.729l-3.573-0.232c-0.379-0.034-1.441-0.251-3.185-0.647l-2.484-0.57c-0.207-0.19-0.354-0.432-0.44-0.726-0.069-0.241-0.061-0.552 0.026-0.932l0.104-0.181c0.742-0.415 1.657-0.647 2.744-0.699 1.346-0.052 2.693 0.284 4.039 1.01 0.76 0.396 1.614 0.88 2.563 1.449l0.129 0.544c0.069 0.414 0.104 0.733 0.104 0.958l-0.027 0.026z" clip-rule="evenodd" fill="#D16211" fill-rule="evenodd"/>
			<path d="m24.331 14.4c0.708 0.069 1.174 0.164 1.397 0.285l-0.75-0.052c-0.241-0.035-0.432-0.052-0.569-0.052-0.276-0.034-0.526-0.034-0.751 0-0.19 0.035-0.389 0.052-0.596 0.052-0.414 0-0.751 9e-3 -1.01 0.026-0.708 0.035-1.208 0.086-1.501 0.156-0.19 0.034-0.415 0.112-0.673 0.233-0.293 0.121-0.552 0.207-0.776 0.259-0.293 0.052-0.587 0.155-0.88 0.311-0.363 0.225-0.673 0.397-0.932 0.518-0.189 0.104-0.388 0.25-0.596 0.44-0.121 0.086-0.311 0.154-0.569 0.207-0.311 0.052-0.535 0.146-0.673 0.284-0.19 0.225-0.389 0.449-0.596 0.674-0.104 0.104-0.483 0.526-1.139 1.269-0.086 0.12-0.146 0.198-0.181 0.232-0.035 0.035-0.129 0.095-0.285 0.182l-0.699 0.466c-0.207 0.155-0.492 0.319-0.854 0.492-0.19-0.018-0.285-0.052-0.285-0.104l0.026-0.078 0.233-0.284 1.631-1.554c0.087-0.087 0.285-0.259 0.596-0.518 0.207-0.173 0.345-0.312 0.415-0.415 0.224-0.293 0.587-0.552 1.087-0.776 0.225-0.086 0.432-0.207 0.622-0.362 0.121-0.069 0.268-0.173 0.44-0.311 0.155-0.121 0.509-0.302 1.061-0.544 0.57-0.259 0.966-0.406 1.191-0.44 0.104-0.018 0.492-0.121 1.165-0.311 0.622-0.19 1.07-0.294 1.346-0.311 1.224-0.086 2.259-0.078 3.105 0.026z" clip-rule="evenodd" fill="#FFC17A" fill-rule="evenodd"/>
			<path d="m15.14 21.96c-1.087-0.656-1.855-1.036-2.304-1.14-0.759-0.189-1.45-0.259-2.071-0.207-1.139 0.035-1.993 0.164-2.563 0.389-0.363 0.155-0.432 0.112-0.208-0.13 0.449-0.241 1.044-0.431 1.787-0.569 0.949-0.189 1.804-0.181 2.563 0.026 0.742 0.207 1.596 0.552 2.563 1.035 0.725 0.362 1.277 0.673 1.657 0.932 0.536 0.397 0.837 0.924 0.906 1.579 0.052 0.483 0.035 0.769-0.052 0.854l-3.184-0.181-0.777-0.129 0.906 0.051c0.69 0.018 1.225 0.018 1.605 0 0.518-0.034 0.828-0.095 0.932-0.181 0.155-0.138 0.104-0.415-0.155-0.829-0.328-0.518-0.543-0.828-0.647-0.932-0.155-0.136-0.474-0.327-0.958-0.568z" clip-rule="evenodd" fill="#F27922" fill-rule="evenodd"/>
			<path d="m17.911 22.504c0-0.104 8e-3 -0.225 0.026-0.363 0.051-0.275 0.138-0.475 0.259-0.596 0.207-0.172 0.5-0.224 0.88-0.155l-0.182 0.674c-0.034 0.173 0.018 0.336 0.156 0.491 0.069 0.087 0.181 0.217 0.336 0.389 0.069 0.138 0.043 0.242-0.078 0.312-0.121 0.068-0.242 0.077-0.362 0.025-0.069-0.034-0.112-0.164-0.129-0.389-0.018-0.311-0.052-0.526-0.104-0.646-0.069-0.155-0.172-0.19-0.311-0.104-0.173 0.154-0.336 0.275-0.491 0.362z" clip-rule="evenodd" fill="#F27922" fill-rule="evenodd"/>
			<path d="m25.833 17.352c-0.052 0.052-0.112 0.104-0.182 0.155-0.104 0.138-0.164 0.259-0.182 0.362 0 0.069 0.026 0.155 0.078 0.259 0.034 0.069 0.026 0.164-0.025 0.285-0.069 0.155-0.173 0.173-0.312 0.052-0.12-0.121-0.198-0.259-0.232-0.414-0.018-0.139-0.147-0.225-0.389-0.259-0.207-0.035-0.432-0.026-0.673 0.025l0.414-0.285c0.311-0.189 0.526-0.293 0.647-0.311 0.209-0.033 0.493 9e-3 0.856 0.131z" clip-rule="evenodd" fill="#F27922" fill-rule="evenodd"/>
			<path d="m25.522 18.827l0.181 0.311 0.181 0.052c0.121 0.035 0.19 0.069 0.208 0.104 0.034 0.069 0.017 0.13-0.052 0.182-0.069 0.068-0.182 0.086-0.337 0.052-0.138-0.035-0.207-0.164-0.207-0.389l0.026-0.312z" clip-rule="evenodd" fill="#F27922" fill-rule="evenodd"/>
			<path d="m30.079 17.015c-0.053-0.104 0-0.12 0.154-0.052 0.155 0.069 0.26 0.173 0.311 0.311 0.035 0.173 0 0.319-0.103 0.44-0.139 0.138-0.406 0.293-0.803 0.466-0.362 0.155-0.69 0.276-0.984 0.362l-0.362 0.052 0.647-0.232c0.501-0.155 0.872-0.38 1.113-0.674 0.104-0.138 0.146-0.267 0.13-0.388 1e-3 -0.034-0.035-0.13-0.103-0.285z" clip-rule="evenodd" fill="#F27922" fill-rule="evenodd"/>
			<path d="m24.435 15.617c0.466 0.19 0.794 0.302 0.984 0.336 0.31 0.052 0.673-0.06 1.087-0.336l0.078 0.104c0.051 0.086 0.086 0.173 0.104 0.259 0.052 0.189-0.139 0.362-0.57 0.518-0.483 0.189-1.044 0.155-1.683-0.104-0.707-0.345-1.295-0.621-1.761-0.829-0.759-0.345-1.562-0.63-2.407-0.854l-1.424-0.362c-0.051-0.017-0.034-0.052 0.052-0.104 0.104-0.069 0.19-0.104 0.259-0.104l1.709 0.388c1.191 0.276 1.967 0.475 2.331 0.596l1.241 0.492z" clip-rule="evenodd" fill="#BD7400" fill-rule="evenodd"/>
			<path d="m23.71 13.157c0.086 0.017 0.121 0.086 0.104 0.207 0 0.121-0.043 0.25-0.13 0.388-0.068 0.121-0.164 0.208-0.285 0.259l-0.129 0.052c-0.086 0.052-0.173 0.086-0.259 0.104-0.812 0.017-1.424 0.043-1.838 0.078-0.259 0.035-0.397 0.069-0.414 0.104l0.051 0.051-0.44-0.104c-0.069-0.017-0.129-0.061-0.182-0.129l-0.026-0.078h2.563c-0.863-0.172-1.484-0.285-1.864-0.337-0.742-0.103-1.191-0.138-1.346-0.103l0.129-0.129c0.086-0.104 0.164-0.147 0.233-0.13l1.761 0.208 1.372 0.336-0.673-0.233c-0.363-0.225-0.639-0.354-0.829-0.388l-0.415-0.13 0.104-0.078c0.104-0.052 0.208-0.078 0.311-0.078 0.138 0.017 0.388 0.138 0.75 0.362 0.121 0.086 0.423 0.25 0.906 0.492l0.052-0.155 0.207-0.414-0.026-0.104c-0.049-0.085 0.054-0.103 0.313-0.051z" clip-rule="evenodd" fill="#C7BE91" fill-rule="evenodd"/>
			<path d="m25.884 14.374l-1.165-0.129h-0.802l1.605 0.647c0.482 0.207 0.725 0.379 0.725 0.518-0.018 0.104-0.173 0.224-0.466 0.363 0-0.173-0.112-0.346-0.337-0.518-0.225-0.155-0.63-0.38-1.217-0.673l-0.621-0.336 0.725 0.622c0.052 0.069 0.095 0.172 0.129 0.311 0.053 0.138 0.061 0.224 0.026 0.259-0.034 0.069-0.198 0.061-0.492-0.026 0.035-0.138 9e-3 -0.276-0.077-0.414l-0.622-0.777-0.025-0.155 0.233-0.026c0.12 0.034 0.689 0.034 1.708 0 0.328 0.017 0.518 0.052 0.57 0.104l0.103 0.23z" clip-rule="evenodd" fill="#C7BE91" fill-rule="evenodd"/>
			<path d="m24.486 13.52c0.553 0.138 0.915 0.25 1.088 0.336 0.448 0.259 0.785 0.587 1.01 0.983 0.086 0.121 0.095 0.216 0.025 0.285-0.034 0.034-0.13 0.086-0.285 0.155-0.086 0.052-0.129 0.043-0.129-0.026 0.017-0.121 0.017-0.242 0-0.362 0-0.138-0.146-0.311-0.44-0.518-0.362-0.242-0.612-0.414-0.751-0.518-0.224-0.173-0.889-0.371-1.993-0.596-0.587-0.138-1.536-0.043-2.848 0.285-0.379 0.104-0.63 0.242-0.751 0.415l-0.051 0.233c-0.121-0.034-0.216-0.138-0.285-0.311-0.052-0.121-0.035-0.225 0.051-0.311 0.052-0.035 0.182-0.095 0.389-0.182 0.155-0.086 0.449-0.164 0.88-0.233 0.466-0.086 0.889-0.138 1.269-0.155 0.966-0.035 1.596 0.043 1.889 0.233 0.087 0.054 0.397 0.149 0.932 0.287z" clip-rule="evenodd" fill="#C7BE91" fill-rule="evenodd"/>
			<path d="m24.046 15.513c0.691 0.242 1.269 0.328 1.735 0.259 0.207-0.035 0.414-0.156 0.621-0.363l0.311-0.388c0.034 0.276 0.018 0.5-0.052 0.673-0.139 0.362-0.535 0.544-1.191 0.544-0.362-0.018-0.802-0.104-1.32-0.259-0.466-0.156-0.871-0.328-1.216-0.518-0.76-0.379-1.735-0.708-2.926-0.984-0.328-0.069-0.604-0.138-0.828-0.207l-0.208-0.104-0.025-0.129v-0.388l0.181-0.104c-0.155 0.242 0.225 0.458 1.14 0.647 0.259 0.069 0.923 0.268 1.993 0.595 0.534 0.14 1.13 0.381 1.785 0.726z" clip-rule="evenodd" fill="#F7CE00" fill-rule="evenodd"/>
			<path d="m22.7 14.555c0.207-0.121 0.345-0.285 0.414-0.492-0.673 0.069-1.131 0.095-1.373 0.078-1.104-0.069-1.562-0.052-1.372 0.052 0.104 0.069 0.526 0.181 1.269 0.336 0.518 0.121 0.872 0.13 1.062 0.026zm-0.932-0.543c0.379 0.035 0.794 0.026 1.243-0.026l-2.149-0.44-1.191-0.103c-0.086 0.017-0.164 0.043-0.233 0.078-0.138 0.052-0.19 0.121-0.156 0.207 0.069 0.104 0.138 0.164 0.208 0.181 0.069 0.034 0.268 0.061 0.596 0.078h0.854c0.328-0.018 0.603-0.01 0.828 0.025zm1.216-0.156l-0.932-0.518c-0.379-0.155-0.673-0.224-0.88-0.207-0.828 0.069-1.165 0.138-1.01 0.207s0.734 0.164 1.735 0.285l1.087 0.233zm0.052 0.829c-0.068 0.103 0.078 0.224 0.44 0.362 0.518 0.259 0.803 0.345 0.854 0.259 0.086-0.104-0.034-0.319-0.362-0.647l-0.674-0.518-0.258 0.544zm0.648-1.321c0.035-0.051-9e-3 -0.095-0.13-0.129-0.327-0.121-0.768-0.181-1.319-0.181h-0.363c-0.051 0.035 0.121 0.155 0.518 0.362l1.01 0.544 0.182-0.44c0.067-0.069 0.102-0.121 0.102-0.156zm2.511 2.46c-0.604 0.225-1.277 0.147-2.02-0.233-0.725-0.379-1.726-0.733-3.003-1.062-1.19-0.311-1.89-0.526-2.097-0.647-0.346-0.207-0.086-0.432 0.776-0.673 0.863-0.224 1.709-0.302 2.537-0.233 2.089 0.19 3.47 0.759 4.143 1.709 0.38 0.518 0.268 0.898-0.336 1.139zm-1.632-0.725c0.155 0.225 0.233 0.345 0.233 0.362 0.155 0.155 0.346 0.242 0.569 0.259 0.276 0.035 0.458 9e-3 0.544-0.078s0.043-0.216-0.129-0.388c-0.156-0.155-0.57-0.38-1.243-0.673l-0.958-0.414 0.984 0.932zm0.312-1.165c0.259 0.017 0.396 0.026 0.414 0.026 0.104 0 0.112-0.035 0.025-0.104-0.241-0.207-0.596-0.354-1.061-0.44-0.121-0.017-0.199 0-0.233 0.052-0.052 0.104-0.095 0.164-0.13 0.182-0.069 0.052-0.146 0.129-0.232 0.233l-0.078 0.155 1.295-0.104zm1.087 0.362l-0.388-0.181-1.787 0.026 1.295 0.44c0.155 0.069 0.414 0.19 0.776 0.363 0.311 0.138 0.483 0.172 0.518 0.104 0.053-0.104 0.034-0.225-0.052-0.362-0.069-0.174-0.189-0.303-0.362-0.39z" clip-rule="evenodd" fill="#FFFF9C" fill-rule="evenodd"/>
				<use transform="matrix(.5178 0 0 -.5178 19.4 13.4)" x="-0.035" y="-1.14" width="7.235" height="1.14" enable-background="new" opacity=".4219" xlink:href="#az"/>
				<use transform="matrix(.5178 0 0 -.5178 20.45 14.25)" x="-0.031" y="-1.088" width="5.381" height="1.088" enable-background="new" opacity=".4219" xlink:href="#ax"/>
				<use transform="matrix(.5178 0 0 -.5178 22.95 14.25)" x="0.018" y="-2.312" width="2.584" height="2.312" enable-background="new" opacity=".4219" xlink:href="#aw"/>
				<use transform="matrix(.5178 0 0 -.5178 23.75 14.25)" y="-3.029" width="4.583" height="3.029" enable-background="new" opacity=".4219" xlink:href="#av"/>
				<use transform="matrix(.5178 0 0 -.5178 24.1 14.25)" y="-1.867" width="5.056" height="1.867" enable-background="new" opacity=".4219" xlink:href="#au"/>
				<use transform="matrix(.5178 0 0 -.5178 23.75 13.4)" y="-1.2" width="3.464" height="1.213" enable-background="new" opacity=".4219" xlink:href="#at"/>
				<use transform="matrix(.5178 0 0 -.5178 21.8 12.95)" x="0.033" y="-1.8" width="3.54" height="1.75" enable-background="new" opacity=".4219" xlink:href="#as"/>
				<use transform="matrix(.5178 0 0 -.5178 20.2 13)" x="0.029" y="-1.4" width="5.521" height="1.405" enable-background="new" opacity=".4219" xlink:href="#ar"/>
			<path d="m20.215 18.051c0.103 0.138 0.181 0.275 0.232 0.414 0.104 0.311-0.051 0.655-0.465 1.035-0.208 0.19-0.509 0.328-0.906 0.415-0.38 0.086-0.734 0.095-1.062 0.025-0.259-0.069-0.613-0.182-1.062-0.337-0.535-0.207-0.949-0.362-1.242-0.466-0.967-0.328-2.002-0.535-3.107-0.621-0.897-0.069-1.476-0.104-1.734-0.104-0.069 0-0.061-0.069 0.026-0.207 0.069-0.139 0.146-0.216 0.233-0.233l2.071 0.052c1.484 0.035 2.451 0.104 2.899 0.207 0.242 0.052 0.785 0.182 1.631 0.389 0.604 0.173 1.019 0.25 1.243 0.232 0.38-0.017 0.751-0.336 1.114-0.958l0.129 0.157z" clip-rule="evenodd" fill="#BD7400" fill-rule="evenodd"/>
			<path d="m15.581 15.875l0.104-0.75-0.104-0.155c-0.069-0.121 0.051-0.182 0.362-0.182 0.086 0 0.155 0.095 0.207 0.285 0.034 0.207 0.026 0.44-0.026 0.699-0.052 0.362-0.172 0.578-0.362 0.647-0.052 0.103-0.13 0.198-0.233 0.284-0.915 0.276-1.605 0.526-2.071 0.751-0.276 0.138-0.415 0.241-0.415 0.311 0 0.048 0.022 0.073 0.065 0.078l-0.531-0.026c-0.104-0.018-0.19-0.069-0.259-0.155l-0.078-0.13 2.926-0.88c-1.053 0.018-1.804 0.043-2.253 0.077-0.811 0.069-1.337 0.165-1.579 0.285 0.017-0.086 0.052-0.173 0.104-0.259 0.069-0.189 0.147-0.285 0.233-0.285 0.138 0 0.837-0.077 2.097-0.232l1.683 0.077c-0.432-0.052-0.725-0.104-0.88-0.155-0.587-0.258-0.941-0.388-1.062-0.388l-0.544-0.052 0.104-0.155c0.086-0.121 0.189-0.198 0.311-0.233 0.241-0.069 0.569 0.043 0.984 0.336 0.172 0.104 0.578 0.276 1.217 0.518v-0.311z" clip-rule="evenodd" fill="#C7BE91" fill-rule="evenodd"/>
			<path d="m19.309 18.413c-0.069-0.294-0.259-0.535-0.57-0.726-0.242-0.155-0.794-0.396-1.657-0.725l-0.828-0.336 1.036 0.776c0.104 0.086 0.199 0.232 0.285 0.44 0.104 0.224 0.146 0.379 0.129 0.466-0.017 0.104-0.198 0.138-0.543 0.104-0.034-0.242-0.129-0.458-0.285-0.647-0.604-0.639-0.94-1.001-1.01-1.087l-0.104-0.259 0.285-0.104c0.156 0 0.803-0.189 1.941-0.569 0.138-0.017 0.285-0.052 0.44-0.104 0.104-0.017 0.181 9e-3 0.233 0.078 0.103 0.104 0.172 0.208 0.207 0.311-0.586 0.069-1.044 0.138-1.372 0.207l-0.906 0.259 2.071 0.544c0.621 0.173 0.966 0.38 1.035 0.621 0.035 0.173-0.094 0.423-0.387 0.751z" clip-rule="evenodd" fill="#C7BE91" fill-rule="evenodd"/>
			<path d="m19.749 17.429c-0.086 0.121-0.146 0.121-0.181 0-0.035-0.224-0.078-0.431-0.129-0.621-0.052-0.225-0.293-0.466-0.725-0.725-0.5-0.259-0.846-0.458-1.036-0.596-0.328-0.207-1.165-0.311-2.511-0.311-0.38 0-0.88 0.155-1.502 0.466-0.535 0.276-1.07 0.613-1.605 1.01-0.397 0.294-0.63 0.604-0.699 0.933-0.035 0.172-0.026 0.31 0.026 0.414-0.155-0.035-0.311-0.182-0.466-0.44-0.104-0.19-0.112-0.362-0.026-0.518 0.017-0.052 0.138-0.207 0.362-0.466 0.155-0.173 0.466-0.397 0.932-0.673 0.483-0.293 0.94-0.518 1.372-0.673 1.07-0.397 1.812-0.492 2.226-0.285 0.104 0.052 0.501 0.104 1.191 0.155 0.673 0.035 1.13 0.104 1.372 0.207 0.518 0.207 1.027 0.63 1.527 1.269 0.121 0.189 0.164 0.354 0.129 0.491-0.033 0.07-0.119 0.191-0.257 0.363z" clip-rule="evenodd" fill="#C7BE91" fill-rule="evenodd"/>
			<path d="m20.267 17.999c0 0.621-0.38 1.044-1.14 1.269-0.397 0.138-0.932 0.155-1.605 0.052-0.57-0.104-1.096-0.25-1.579-0.44-0.415-0.155-0.984-0.293-1.708-0.414-0.725-0.121-1.39-0.19-1.994-0.207-0.414-0.018-0.751-0.044-1.01-0.078l-0.285-0.077-0.104-0.233c-0.051-0.104-0.086-0.241-0.103-0.414l-0.026-0.233 0.156-0.232c-0.035 0.207 0.103 0.379 0.414 0.518 0.276 0.104 0.647 0.164 1.113 0.181 0.345 0 1.182 0.104 2.511 0.312 0.38 0.017 0.733 0.086 1.062 0.207 0.483 0.172 0.906 0.293 1.269 0.362 0.569 0.121 1.027 0.155 1.372 0.104 0.19-0.034 0.423-0.121 0.699-0.259 0.172-0.087 0.302-0.207 0.388-0.362 0.018-0.035 0.078-0.182 0.181-0.44l0.208-0.776 0.103 0.414c0.069 0.306 0.095 0.556 0.078 0.746z" clip-rule="evenodd" fill="#F7CE00" fill-rule="evenodd"/>
			<path d="m14.053 16.187c0.432 0.034 0.88 0.025 1.346-0.026l-1.294-0.492c-0.466-0.138-0.82-0.164-1.062-0.078-0.932 0.397-1.294 0.63-1.087 0.699 0.121 0.034 0.431 0.025 0.932-0.026 0.604-0.052 0.992-0.077 1.165-0.077zm0 0.647c0.466-0.069 0.932-0.207 1.398-0.414-1.26-0.035-2.132-0.044-2.615-0.026-0.293 0.018-0.612 0.061-0.958 0.129l-0.414 0.13c-0.086 0.052-0.164 0.112-0.233 0.182-0.155 0.138-0.19 0.268-0.104 0.388 0.104 0.155 0.207 0.242 0.311 0.259 0.086 0.018 0.311-0.017 0.673-0.104 0.224-0.052 0.552-0.146 0.983-0.284 0.398-0.14 0.717-0.226 0.959-0.26zm1.269 0.595c0.189-0.259 0.285-0.569 0.285-0.932-0.743 0.328-1.26 0.526-1.554 0.596-1.173 0.293-1.683 0.475-1.527 0.543 0.086 0.052 0.311 0.087 0.673 0.104h0.906c0.38 0.017 0.622 0.017 0.725 0 0.207-0.035 0.371-0.138 0.492-0.311zm0.517-0.88l-0.104 0.983c0 0.208 0.225 0.362 0.673 0.467 0.138 0.052 0.363 0.129 0.673 0.232 0.242 0.052 0.372 0.026 0.389-0.077 0.069-0.207-0.147-0.526-0.647-0.958-0.155-0.139-0.371-0.285-0.647-0.44l-0.337-0.207zm-1.605-1.45c-0.276 0.069-0.423 0.121-0.44 0.155-0.035 0.052 0.216 0.19 0.751 0.414l1.372 0.57v-0.803c0.052-0.155 0.078-0.259 0.078-0.311 0.017-0.104-0.052-0.164-0.208-0.181-0.293-0.034-0.811 0.018-1.553 0.156zm2.098 0.414c-0.069 0.104-0.121 0.259-0.156 0.466-0.018 0.104-0.035 0.198-0.052 0.284l0.569-0.284c0.432-0.19 0.725-0.293 0.88-0.311 0.293-0.069 0.449-0.104 0.466-0.104 0.121-0.034 0.121-0.095 0-0.181-0.138-0.086-0.363-0.172-0.673-0.259-0.311-0.086-0.553-0.121-0.726-0.104-0.138 0.017-0.216 0.069-0.233 0.155-0.032 0.192-0.058 0.304-0.075 0.338zm3.417 0.829c0.622 0.742 0.639 1.415 0.052 2.02-0.604 0.604-1.398 0.716-2.382 0.336-0.984-0.396-2.261-0.655-3.832-0.776-1.519-0.121-2.408-0.241-2.667-0.362-0.466-0.242-0.25-0.699 0.647-1.372 0.88-0.69 1.813-1.113 2.796-1.269 2.451-0.398 4.246 0.077 5.386 1.423zm-0.932 2.148c0.328-0.052 0.526-0.155 0.595-0.311 0.069-0.173-0.034-0.38-0.31-0.621-0.225-0.207-0.777-0.449-1.657-0.725l-1.269-0.337 1.501 1.217c0.38 0.57 0.76 0.829 1.14 0.777zm0.88-1.475c0.035-0.189-0.026-0.396-0.181-0.621-0.155-0.242-0.354-0.406-0.595-0.492l-0.492-0.182-2.02 0.647 1.657 0.285c0.189 0.052 0.526 0.173 1.01 0.362 0.397 0.122 0.603 0.122 0.621 1e-3z" clip-rule="evenodd" fill="#FFFF9C" fill-rule="evenodd"/>
				<use transform="matrix(.5178 0 0 -.5178 11.05 16.6)" x="-0.01" y="-2.108" width="8.46" height="2.125" enable-background="new" opacity=".4219" xlink:href="#bl"/>
				<use transform="matrix(.5178 0 0 -.5178 12.35 16.6)" x="-0.003" y="-2.425" width="6.003" height="2.425" enable-background="new" opacity=".4219" xlink:href="#be"/>
				<use transform="matrix(.5178 0 0 -.5178 15.85 16.6)" y="-3.3" width="3.374" height="3.3" enable-background="new" opacity=".4219" xlink:href="#bd"/>
				<use transform="matrix(.5178 0 0 -.5178 16.1 16.6)" y="-3.863" width="6.29" height="3.863" enable-background="new" opacity=".4219" xlink:href="#bc"/>
				<use transform="matrix(.5178 0 0 -.5178 16.8 16.05)" y="-2.675" width="6.368" height="2.675" enable-background="new" opacity=".4219" xlink:href="#ba"/>
				<use transform="matrix(.5178 0 0 -.5178 16.1 15.3)" y="-2.4" width="3.875" height="2.408" enable-background="new" opacity=".4219" xlink:href="#ay"/>
				<use transform="matrix(.5178 0 0 -.5178 14.05 15.3)" x="-0.006" y="-2.55" width="4.261" height="2.52" enable-background="new" opacity=".4219" xlink:href="#aq"/>
				<use transform="matrix(.5178 0 0 -.5178 12.05 15.65)" x="-0.009" y="-1.49" width="6.759" height="1.486" enable-background="new" opacity=".4219" xlink:href="#ap"/>
</svg>
