<?xml version="1.0" encoding="utf-8"?>
<!-- Generator: Adobe Illustrator 25.2.0, SVG Export Plug-In . SVG Version: 6.00 Build 0)  -->
<svg version="1.1" id="Layer_1" xmlns="http://www.w3.org/2000/svg" xmlns:xlink="http://www.w3.org/1999/xlink" x="0px" y="0px"
	 viewBox="0 0 200 200" style="enable-background:new 0 0 200 200;" xml:space="preserve">
<style type="text/css">
	.st0{fill:#FCC39F;}
	.st1{fill:#9A4321;}
	.st2{fill:#B35827;}
	.st3{fill:#C0752C;}
	.st4{fill:#E1D9CD;}
	.st5{fill:#FFFFFF;}
	.st6{fill:#FFE77E;}
	.st7{fill:#F4E7BC;}
	.st8{fill:#EED98E;}
	.st9{fill:#E3B32B;}
	.st10{fill:#FFCD24;}
	.st11{fill:#A4B63A;}
	.st12{fill:#EE3624;}
	.st13{fill:#BA2025;}
	.st14{fill:#EF484E;}
	.st15{fill:#AFC436;}
	.st16{fill:#FFEEDB;}
	.st17{fill:#FBE1C3;}
	.st18{fill:#FFD23F;}
	.st19{fill:#FFF5C7;}
	.st20{fill:#FFD449;}
	.st21{fill:#C1D62F;}
	.st22{fill:#CEDC29;}
	.st23{fill:#819139;}
	.st24{fill:#ED1C24;}
	.st25{fill:#EE2725;}
	.st26{fill:#EF4141;}
	.st27{fill:#FEC660;}
	.st28{fill:#EF474C;}
	.st29{opacity:0.4;fill:#FFFFFF;}
</style>
<g>
	<path class="st0" d="M92.02,64.71c0.69,0.57-11.65-1.49-2.72-16.63c8.94-15.15,3-24,3-24s11.14,8.09,7.69,16.83
		S84.85,58.77,92.02,64.71z"/>
	<path class="st0" d="M98.87,60.57c0,0-4.98-3.87,2.5-11.43c7.48-7.55,3-12.59,3-12.59s9.52,6.22-1.01,15.6
		c-6.11,5.44-4.49,8.18-4.49,8.18"/>
</g>
<g>
	<g>
		<path class="st1" d="M136.6,73.03c-0.05-0.9,0.42-1.77,1.19-2.29l0.02-0.01c2.12-1.41,6.84-4.22,8.82-2.54
			c1.04,0.88,1.38,2.19,1.4,3.43c0.01,0.63,0.11,1.65,0.22,2.72c0.24,2.32-1.88,4.26-4.29,3.86
			C140.64,77.66,136.79,76.32,136.6,73.03z"/>
		<path class="st2" d="M140.47,73.31c-1.38-1.01-2.2-1.87-2.65-2.58c2.12-1.41,6.84-4.22,8.82-2.54c1.04,0.88,1.38,2.19,1.4,3.43
			C146.29,73.78,143.23,75.33,140.47,73.31z"/>
		<path class="st3" d="M143.95,69.62c0,0.52-0.57,0.94-1.28,0.94c-0.71,0-1.28-0.42-1.28-0.94c0-0.52,0.57-0.94,1.28-0.94
			C143.38,68.68,143.95,69.1,143.95,69.62z"/>
		<ellipse class="st3" cx="145.54" cy="70.69" rx="0.51" ry="0.32"/>
	</g>
	<ellipse class="st4" cx="101.97" cy="150.61" rx="62.91" ry="25.25"/>
	<ellipse class="st5" cx="100.15" cy="133.43" rx="99.85" ry="38.13"/>
	<path class="st6" d="M100.75,96.79c-52.25,0-94.6,15.52-94.6,34.67c0,19.14,42.36,34.66,94.6,34.66
		c52.25,0,94.61-15.52,94.61-34.66C195.36,112.31,153.01,96.79,100.75,96.79z M100.75,165.43c-51.66,0-93.7-15.24-93.7-33.98
		c0-18.74,42.04-33.98,93.7-33.98c51.67,0,93.7,15.24,93.7,33.98C194.45,150.19,152.42,165.43,100.75,165.43z"/>
	<path class="st4" d="M168.05,106.78c-17.99-6.59-41.89-10.22-67.29-10.22c-25.4,0-49.29,3.63-67.29,10.22
		c-18.2,6.67-28.22,15.93-28.22,24.68c0,9.54,10.02,18.46,28.22,25.13c17.99,6.59,41.89,10.22,67.29,10.22
		c25.41,0,49.3-3.63,67.29-10.22c18.2-6.67,28.21-15.59,28.21-25.13C196.26,123.27,186.24,113.45,168.05,106.78z M100.75,165.43
		c-51.66,0-93.7-15.24-93.7-33.98c0-18.74,42.04-33.98,93.7-33.98c51.67,0,93.7,15.24,93.7,33.98
		C194.45,150.19,152.42,165.43,100.75,165.43z"/>
	<ellipse class="st7" cx="130.71" cy="153.79" rx="21.5" ry="6.04"/>
	<path class="st7" d="M179.57,122.48c0,19.34-35.73,35.06-79.66,35.06c-43.92,0-79.66-15.73-79.66-35.06
		c0-19.34,35.74-35.07,79.66-35.07C143.84,87.41,179.57,103.14,179.57,122.48z"/>
	<path class="st6" d="M179.53,115.9c0,16.86-23.2,31.12-55.22,35.97c-3.98,0.61-8.1,1.06-12.33,1.36
		c-3.81,0.27-7.72,0.41-11.69,0.41c-43.76,0-79.24-16.89-79.24-37.74c0-20.84,35.48-37.73,79.24-37.73
		C144.05,78.17,179.53,95.06,179.53,115.9z"/>
	<path class="st6" d="M93.47,94.03c0,9.63-13.07,17.43-29.19,17.43s-29.19-7.8-29.19-17.43s31.86-24.89,52.91-21.98
		C103.97,74.25,93.47,84.41,93.47,94.03z"/>
	
		<ellipse transform="matrix(0.1915 -0.9815 0.9815 0.1915 7.3313 192.2722)" class="st6" cx="120.37" cy="91.69" rx="23.76" ry="43.44"/>
	<g>
		<g>
			<path class="st8" d="M156.19,106.57l1.71,0.41c-0.75,1.02-1.75,1.94-3.06,2.68c-1.09,0.31-2.41,0.41-3.91,0.04l1.05,1.13
				c-1.77,0.51-4.1,0.81-5.46-1.55c0,0-4.12-0.5-2.78-6.08l1.87,2.03c0,0-1.94-3.8-1.11-7.68c0.62-1.61,1.67-3.02,3.33-4l0.17,2.24
				c0,0,0.52-2.22,2.77-3.34c0.01,0,0.01,0,0.01,0c0.76-0.16,1.6-0.26,2.53-0.29l-0.33,1.05c0,0,1.58-1.08,5.68-0.6
				c0,0,0,0.01,0.01,0.02c0.06,0.29,0.82,3.79,0.46,6.08l0.78-0.22c0.14,1.85,0.03,3.92-0.64,5.86
				C158.63,105.29,157.65,106.11,156.19,106.57z"/>
			<g>
				<path class="st8" d="M157,94.64c-0.11,0.22-1.04,2.12-2.42,4.53c-0.08,0.12-0.15,0.25-0.22,0.38c-0.66,1.13-1.41,2.36-2.2,3.57
					c-0.22,0.33-0.43,0.65-0.65,0.97l0,0.01c-0.14,0.19-0.27,0.38-0.4,0.56c-0.16,0.21-0.31,0.42-0.46,0.63
					c-0.66,0.88-1.33,1.72-2.01,2.44c-0.16,0.17-0.31,0.33-0.47,0.49c-1.37,1.36-2.73,2.23-3.93,2.15l0.03-0.57
					c1.04,0.07,2.36-0.73,3.93-2.37c0.15-0.16,0.29-0.32,0.44-0.49c0.36-0.39,0.72-0.82,1.09-1.29c0.17-0.21,0.35-0.44,0.52-0.67
					c0.48-0.63,0.98-1.33,1.49-2.09c0.13-0.18,0.25-0.37,0.38-0.57c0.07-0.12,0.15-0.23,0.23-0.34c0.5-0.77,0.99-1.53,1.45-2.26
					c0.09-0.14,0.17-0.28,0.26-0.41c1.63-2.62,2.84-4.7,2.85-4.73L157,94.64z"/>
			</g>
			<g>
				<path class="st8" d="M152.17,103.12c-0.22,0.33-0.43,0.65-0.65,0.97c0.08-0.4,0.15-0.8,0.22-1.2c0.72-4.06,1.19-7.71,1.19-7.75
					l0.11,0.01c-0.02,0.3-0.19,3.28-0.7,6.83C152.28,102.36,152.23,102.74,152.17,103.12z"/>
			</g>
			<g>
				<path class="st8" d="M148.64,107.73c-0.16,0.17-0.31,0.33-0.47,0.49c0.01-0.26,0.02-0.53,0.03-0.79
					c0.1-3.91,0.04-7.29,0.04-7.33l0.11,0c0.02,0.29,0.28,3.27,0.3,6.84C148.64,107.2,148.64,107.47,148.64,107.73z"/>
			</g>
			<g>
				<path class="st8" d="M157.96,98.33c-0.2,0.07-1.59,0.58-3.59,1.22c-0.19,0.06-0.38,0.12-0.58,0.18
					c0.09-0.14,0.17-0.28,0.26-0.41c0.19-0.05,0.36-0.1,0.54-0.14c1.97-0.54,3.31-0.94,3.33-0.95L157.96,98.33z"/>
			</g>
			<g>
				<path class="st8" d="M157.47,102.32c-0.28,0.14-3.22,1.58-6.82,2.97c-0.3,0.12-0.61,0.24-0.92,0.36
					c0.17-0.21,0.35-0.44,0.52-0.67c0.29-0.1,0.58-0.21,0.87-0.32c3.46-1.27,6.27-2.42,6.31-2.44L157.47,102.32z"/>
			</g>
		</g>
		<g>
			<path class="st8" d="M136.22,102.69l-0.84-1.5c1.3-0.12,2.7,0.01,4.17,0.48c0.98,0.59,1.95,1.47,2.68,2.79l0.16-1.49
				c1.6,0.95,3.41,2.43,2.5,4.94c0,0,2.4,3.3-2.85,5.93l0.31-2.66c0,0-1.64,3.86-5.23,5.77c-1.67,0.59-3.49,0.75-5.37,0.18
				l1.63-1.57c0,0-2.08,1.06-4.48,0.16c0-0.01,0-0.01-0.01,0c-0.64-0.45-1.29-0.99-1.94-1.64l1.04-0.44c0,0-1.91-0.44-4.32-3.71
				c0,0,0-0.01,0.01-0.02c0.18-0.23,2.4-3.04,4.42-4.26l-0.7-0.43c1.35-1.3,3.03-2.56,4.99-3.32
				C133.56,101.77,134.86,101.94,136.22,102.69z"/>
			<g>
				<path class="st8" d="M126.38,109.81c0.25-0.07,2.36-0.62,5.16-1.18c0.15-0.02,0.29-0.06,0.44-0.09
					c1.33-0.26,2.79-0.51,4.27-0.72c0.4-0.05,0.8-0.11,1.2-0.16l0.01,0c0.24-0.02,0.47-0.05,0.71-0.08
					c0.27-0.03,0.54-0.05,0.81-0.07c1.13-0.09,2.24-0.15,3.26-0.12c0.24,0,0.47,0.01,0.7,0.02c1.99,0.11,3.59,0.53,4.34,1.45
					l-0.46,0.35c-0.65-0.79-2.17-1.23-4.51-1.31c-0.22-0.01-0.45-0.01-0.68-0.01c-0.54-0.01-1.13,0.01-1.74,0.05
					c-0.28,0.02-0.58,0.03-0.87,0.06c-0.82,0.06-1.7,0.15-2.63,0.28c-0.23,0.03-0.46,0.06-0.7,0.09c-0.14,0.02-0.28,0.04-0.42,0.06
					c-0.94,0.14-1.86,0.28-2.74,0.41c-0.17,0.03-0.33,0.06-0.5,0.08c-3.15,0.51-5.58,0.99-5.61,1L126.38,109.81z"/>
			</g>
			<g>
				<path class="st8" d="M136.26,107.83c0.4-0.05,0.8-0.11,1.2-0.16c-0.37,0.21-0.73,0.41-1.09,0.62c-3.64,2.1-6.81,4.12-6.84,4.15
					l-0.07-0.09c0.24-0.18,2.68-1.98,5.79-3.91C135.58,108.24,135.92,108.03,136.26,107.83z"/>
			</g>
			<g>
				<path class="st8" d="M142.24,107.4c0.24,0,0.47,0.01,0.7,0.02c-0.21,0.16-0.42,0.33-0.63,0.49c-3.11,2.45-5.7,4.68-5.73,4.71
					l-0.08-0.08c0.22-0.2,2.35-2.31,5.12-4.63C141.82,107.74,142.03,107.57,142.24,107.4z"/>
			</g>
			<g>
				<path class="st8" d="M128.6,106.74c0.19,0.1,1.53,0.77,3.38,1.8c0.17,0.1,0.35,0.2,0.53,0.3c-0.17,0.03-0.33,0.06-0.5,0.08
					c-0.17-0.1-0.32-0.2-0.47-0.3c-1.76-1.07-2.97-1.78-2.99-1.79L128.6,106.74z"/>
			</g>
			<g>
				<path class="st8" d="M132.03,104.52c0.3,0.12,3.41,1.31,6.94,3c0.3,0.14,0.6,0.29,0.9,0.43c-0.28,0.02-0.58,0.03-0.87,0.06
					c-0.28-0.14-0.56-0.28-0.84-0.42c-3.33-1.68-6.14-2.96-6.18-2.98L132.03,104.52z"/>
			</g>
		</g>
		<g>
			<path class="st8" d="M146.25,99.17l0.82-0.9c0.43,0.82,0.72,1.75,0.79,2.81c-0.14,0.78-0.5,1.62-1.22,2.41l1.09-0.25
				c-0.23,1.27-0.78,2.8-2.77,2.82c0,0-1.65,2.35-4.91-0.41l1.94-0.45c0,0-3.14-0.13-5.44-1.99c-0.87-0.94-1.47-2.08-1.58-3.44
				l1.54,0.67c0,0-1.3-1.09-1.33-2.86c0,0,0,0,0-0.01c0.14-0.53,0.34-1.08,0.62-1.66l0.59,0.56c0,0-0.21-1.34,1.42-3.7
				c0,0,0.01,0,0.02,0c0.21,0.06,2.77,0.82,4.17,1.83l0.11-0.56c1.27,0.56,2.61,1.34,3.67,2.43
				C146.18,97.23,146.41,98.11,146.25,99.17z"/>
			<g>
				<path class="st8" d="M138.62,94.52c0.11,0.15,1.07,1.38,2.23,3.06c0.06,0.09,0.12,0.18,0.18,0.27c0.54,0.8,1.11,1.69,1.66,2.59
					c0.15,0.25,0.29,0.49,0.43,0.74l0,0c0.08,0.15,0.16,0.3,0.24,0.44c0.09,0.17,0.18,0.34,0.27,0.5c0.37,0.71,0.71,1.41,0.97,2.08
					c0.06,0.16,0.12,0.31,0.17,0.46c0.46,1.32,0.6,2.45,0.16,3.16l-0.37-0.22c0.38-0.61,0.27-1.71-0.31-3.24
					c-0.06-0.14-0.12-0.29-0.18-0.44c-0.14-0.35-0.31-0.73-0.51-1.12c-0.09-0.18-0.18-0.36-0.28-0.55
					c-0.26-0.52-0.57-1.06-0.91-1.64c-0.08-0.14-0.17-0.29-0.25-0.43c-0.05-0.09-0.1-0.17-0.15-0.26c-0.35-0.57-0.7-1.14-1.03-1.68
					c-0.07-0.1-0.13-0.2-0.19-0.3c-1.21-1.92-2.2-3.37-2.22-3.39L138.62,94.52z"/>
			</g>
			<g>
				<path class="st8" d="M142.68,100.44c0.15,0.25,0.29,0.49,0.43,0.74c-0.24-0.19-0.49-0.37-0.73-0.55
					c-2.46-1.85-4.73-3.41-4.75-3.43l0.04-0.07c0.19,0.11,2.11,1.26,4.3,2.8C142.21,100.1,142.45,100.27,142.68,100.44z"/>
			</g>
			<g>
				<path class="st8" d="M144.6,104.21c0.06,0.16,0.12,0.31,0.17,0.46c-0.17-0.1-0.34-0.19-0.51-0.29
					c-2.56-1.42-4.82-2.56-4.84-2.57l0.04-0.07c0.2,0.09,2.25,0.96,4.62,2.2C144.25,104.02,144.43,104.12,144.6,104.21z"/>
			</g>
			<g>
				<path class="st8" d="M141.36,95.22c-0.02,0.15-0.12,1.18-0.34,2.63c-0.02,0.13-0.05,0.28-0.07,0.42c-0.07-0.1-0.13-0.2-0.19-0.3
					c0.03-0.13,0.05-0.26,0.08-0.38c0.27-1.4,0.44-2.36,0.44-2.37L141.36,95.22z"/>
			</g>
			<g>
				<path class="st8" d="M143.85,96.91c0,0.22,0.01,2.53-0.22,5.22c-0.02,0.23-0.04,0.46-0.06,0.69c-0.09-0.18-0.18-0.36-0.28-0.55
					c0.02-0.22,0.05-0.43,0.07-0.64c0.27-2.56,0.4-4.69,0.4-4.72L143.85,96.91z"/>
			</g>
		</g>
		<g>
			<path class="st8" d="M153.12,110.47l1.23-0.23c-0.53-0.76-1.24-1.47-2.17-2.05c-0.78-0.27-1.73-0.39-2.81-0.19l0.77-0.77
				c-1.27-0.44-2.94-0.75-3.95,0.89c0,0-2.97,0.2-2.06,4.26l1.37-1.38c0,0-1.44,2.66-0.88,5.48c0.43,1.18,1.17,2.24,2.35,3.01
				l0.15-1.6c0,0,0.35,1.61,1.96,2.52c0,0,0,0,0.01,0c0.55,0.15,1.15,0.25,1.82,0.31l-0.22-0.77c0,0,1.12,0.84,4.08,0.66
				c0,0,0,0,0.01-0.01c0.05-0.2,0.63-2.7,0.39-4.35l0.56,0.19c0.12-1.33,0.07-2.82-0.39-4.24
				C154.86,111.49,154.17,110.86,153.12,110.47z"/>
			<g>
				<path class="st8" d="M153.58,119.08c-0.08-0.17-0.73-1.57-1.69-3.36c-0.05-0.09-0.1-0.19-0.15-0.28
					c-0.46-0.84-0.99-1.76-1.55-2.66c-0.15-0.24-0.3-0.49-0.46-0.72l0,0c-0.1-0.14-0.19-0.28-0.28-0.42
					c-0.11-0.16-0.22-0.32-0.33-0.47c-0.46-0.66-0.94-1.29-1.42-1.83c-0.11-0.13-0.22-0.25-0.33-0.37c-0.97-1.04-1.94-1.72-2.8-1.7
					l0.01,0.41c0.75-0.01,1.69,0.62,2.8,1.86c0.1,0.12,0.21,0.24,0.31,0.37c0.25,0.29,0.51,0.62,0.77,0.97
					c0.12,0.16,0.24,0.33,0.36,0.5c0.34,0.47,0.69,1,1.05,1.56c0.09,0.14,0.18,0.28,0.27,0.42c0.05,0.09,0.1,0.17,0.16,0.25
					c0.35,0.57,0.69,1.14,1.02,1.68c0.06,0.11,0.12,0.21,0.18,0.31c1.15,1.95,1.99,3.49,2,3.51L153.58,119.08z"/>
			</g>
			<g>
				<path class="st8" d="M150.19,112.79c-0.15-0.24-0.3-0.49-0.46-0.72c0.05,0.29,0.1,0.58,0.15,0.87c0.47,2.95,0.77,5.6,0.77,5.62
					l0.08,0c-0.01-0.21-0.1-2.37-0.43-4.94C150.27,113.34,150.23,113.07,150.19,112.79z"/>
			</g>
			<g>
				<path class="st8" d="M147.71,109.33c-0.11-0.13-0.22-0.25-0.33-0.37c0,0.19,0.01,0.38,0.01,0.57c0.03,2.82-0.05,5.25-0.05,5.27
					l0.08,0c0.02-0.21,0.24-2.34,0.29-4.91C147.7,109.71,147.71,109.52,147.71,109.33z"/>
			</g>
			<g>
				<path class="st8" d="M154.3,116.47c-0.14-0.06-1.14-0.48-2.57-1.02c-0.13-0.05-0.27-0.1-0.41-0.15
					c0.06,0.11,0.12,0.21,0.18,0.31c0.13,0.04,0.26,0.08,0.38,0.12c1.41,0.47,2.37,0.81,2.38,0.82L154.3,116.47z"/>
			</g>
			<g>
				<path class="st8" d="M154,113.58c-0.2-0.11-2.3-1.26-4.87-2.41c-0.22-0.1-0.44-0.2-0.66-0.29c0.12,0.16,0.24,0.33,0.36,0.5
					c0.21,0.09,0.41,0.18,0.62,0.26c2.47,1.05,4.48,1.99,4.51,2.01L154,113.58z"/>
			</g>
		</g>
	</g>
	<path class="st9" d="M87.63,129.14c0,0.75-1.8,0.15-4.01,0.15c-2.21,0-3.98,0.59-3.98-0.15c0-0.75,1.79-1.35,3.99-1.35
		C85.84,127.79,87.63,128.4,87.63,129.14z"/>
	<path class="st9" d="M30.1,105.27c0,0.75-0.99-0.07-3.19-0.07s-4.8,0.82-4.8,0.07s1.79-1.35,3.99-1.35S30.1,104.53,30.1,105.27z"/>
	<path class="st9" d="M137.15,76.32c0,0.75-1.69,0.08-3.9,0.08c-2.21,0-4.09,0.67-4.09-0.08c0-0.75,1.79-1.35,3.99-1.35
		C135.36,74.97,137.15,75.58,137.15,76.32z"/>
	<path class="st9" d="M44.11,136.86c0,0.75-1.79,1.35-3.99,1.35s-3.99-0.6-3.99-1.35c0-0.75,1.79-1.35,3.99-1.35
		S44.11,136.12,44.11,136.86z"/>
	<path class="st10" d="M99.47,141.62c-0.47,0.6-2.28,0.05-4.04-1.22c-1.76-1.27-2.82-2.78-2.35-3.38c0.47-0.6,1.51,0.96,3.27,2.23
		C98.12,140.53,99.94,141.03,99.47,141.62z"/>
	<path class="st9" d="M107.57,137.67c0,0.63-1.51,1.14-3.37,1.14s-3.37-0.51-3.37-1.14s1.44-0.28,3.3-0.28
		C105.99,137.39,107.57,137.04,107.57,137.67z"/>
	<path class="st10" d="M102.71,121.91c0.46,0.44-1.18,0.98-2.5,2.24c-1.32,1.26-1.81,2.77-2.27,2.32c-0.46-0.44,0.23-1.83,1.54-3.09
		C100.8,122.12,102.24,121.46,102.71,121.91z"/>
	<ellipse class="st9" cx="58.25" cy="138.1" rx="3.37" ry="1.14"/>
	<path class="st10" d="M56.76,122.34c0.46,0.44-0.23,1.83-1.54,3.09c-1.32,1.26-2.76,1.92-3.22,1.48c-0.46-0.44,1.24-1.53,2.56-2.79
		C55.87,122.85,56.29,121.9,56.76,122.34z"/>
	<path class="st10" d="M19.24,125.4c0.46,0.44-0.23,1.83-1.54,3.09c-1.32,1.26-2.76,1.92-3.22,1.48c-0.46-0.44,1.24-1.53,2.56-2.79
		C18.35,125.91,18.77,124.96,19.24,125.4z"/>
	<path class="st10" d="M59.85,127.11c0.04,0.64-1.4,1.2-3.22,1.24c-1.82,0.04-3.33-0.44-3.38-1.09s1.95-0.29,3.78-0.34
		C58.85,126.89,59.81,126.47,59.85,127.11z"/>
	<ellipse class="st9" cx="57.05" cy="146.43" rx="3.99" ry="1.35"/>
	<path class="st9" d="M70.96,150.64c0,0.63-1.51,1.14-3.37,1.14s-3.37-0.51-3.37-1.14s1.37-0.03,3.23-0.03
		C69.31,150.61,70.96,150.01,70.96,150.64z"/>
	<path class="st10" d="M69.46,134.18c0.34,0.42-1.43,0.81-2.46,2.12c-1.12,1.43-1.84,2.89-2.31,2.44c-0.46-0.44,0.23-1.83,1.54-3.09
		C67.55,134.4,69.05,133.68,69.46,134.18z"/>
	<path class="st9" d="M34.59,137.53c-0.47,0.59-2.28,0.03-4.03-1.26c-1.75-1.28-2.79-2.81-2.31-3.4s2.28-0.03,4.03,1.26
		C34.03,135.41,35.07,136.93,34.59,137.53z"/>
	<path class="st9" d="M47.7,148.71c-0.4,0.5-1.92,0.03-3.4-1.06c-1.48-1.08-2.35-2.37-1.95-2.87c0.4-0.5,1.92-0.03,3.4,1.06
		C47.23,146.93,48.1,148.21,47.7,148.71z"/>
	<path class="st9" d="M83.21,154.51c-0.4,0.5-1.92,0.03-3.4-1.06c-1.48-1.08-2.35-2.37-1.95-2.87c0.4-0.5,1.38,0.88,2.85,1.96
		S83.61,154.01,83.21,154.51z"/>
	<path class="st9" d="M22.04,123.92c-0.4,0.5-1.92,0.03-3.4-1.06c-1.48-1.08-2.35-2.37-1.95-2.87c0.4-0.5,1.38,0.88,2.85,1.96
		C21.02,123.04,22.44,123.42,22.04,123.92z"/>
	<path class="st10" d="M43.34,140.72c0.09,0.62-1.34,1.32-3.18,1.55c-1.85,0.23-3.41-0.08-3.5-0.71c-0.09-0.62,1.34-1.32,3.18-1.55
		C41.69,139.78,43.25,140.09,43.34,140.72z"/>
	<path class="st9" d="M95.15,147.74c0.21,0.72-1.34,1.76-3.47,2.33c-2.12,0.57-4.02,0.45-4.23-0.27c-0.21-0.72,1.84-0.66,3.96-1.23
		C93.55,148,94.94,147.02,95.15,147.74z"/>
	<path class="st9" d="M170.96,135.32c0.21,0.72-1.67,0.67-3.79,1.24s-3.69,1.55-3.9,0.83c-0.21-0.72,1.34-1.76,3.47-2.33
		C168.85,134.48,170.75,134.6,170.96,135.32z"/>
	<path class="st9" d="M138.65,76.45c-0.71,0.3-0.98-1.39-1.88-3.32c-0.9-1.93-2.08-3.36-1.37-3.67c0.71-0.3,2.02,1.02,2.91,2.94
		C139.21,74.34,139.36,76.15,138.65,76.45z"/>
	<path class="st9" d="M85.87,150.74c-0.29,0.69-2.18,0.62-4.23-0.17c-2.05-0.78-3.47-1.98-3.19-2.67c0.29-0.69,1.74,0.56,3.79,1.34
		C84.29,150.02,86.16,150.05,85.87,150.74z"/>
	<path class="st9" d="M101.81,158.06c-0.24,0.58-1.84,0.52-3.57-0.14c-1.73-0.66-2.93-1.67-2.69-2.26c0.24-0.58,1.04,0.36,2.77,1.02
		C100.05,157.35,102.05,157.48,101.81,158.06z"/>
	<path class="st9" d="M161.66,142.24c-0.24,0.58-0.9-0.8-2.62-1.46c-1.73-0.66-3.88-0.36-3.63-0.94c0.24-0.58,1.84-0.52,3.57,0.14
		C160.7,140.64,161.9,141.65,161.66,142.24z"/>
	<path class="st10" d="M95.35,151.49c0.26,0.58-0.92,1.62-2.63,2.32c-1.71,0.7-3.31,0.8-3.57,0.22c-0.26-0.58,0.92-1.62,2.63-2.32
		C93.49,151.01,95.09,150.91,95.35,151.49z"/>
	<path class="st10" d="M182.02,122.4c0.26,0.58-1.51,0.71-3.22,1.41c-1.71,0.7-2.72,1.71-2.98,1.13c-0.26-0.58,0.92-1.62,2.63-2.32
		C180.16,121.92,181.76,121.82,182.02,122.4z"/>
	<path class="st10" d="M181.95,119.25c-0.71,0.51-2.34-0.42-3.64-2.08c-1.3-1.66-1.77-3.42-1.06-3.93c0.71-0.51,0.62,1.46,1.92,3.12
		C180.46,118.02,182.66,118.73,181.95,119.25z"/>
	<path class="st9" d="M165.58,131.97c-0.36,0.66-1.11-0.75-3.07-1.73c-1.96-0.97-4.38-1.14-4.02-1.8c0.36-0.66,2.24-0.41,4.19,0.57
		C164.65,129.98,165.94,131.3,165.58,131.97z"/>
	<path class="st9" d="M179.33,132.53c-0.36,0.66-1.11-0.75-3.07-1.73c-1.96-0.97-4.38-1.14-4.02-1.8c0.36-0.66,2.24-0.41,4.19,0.57
		C178.39,130.54,179.69,131.86,179.33,132.53z"/>
	<path class="st10" d="M118.63,120.91c-0.7,0.32-1.09-1.58-2.04-3.48c-0.95-1.9-2.12-3.09-1.41-3.41c0.7-0.32,2.04,0.96,3,2.86
		C119.13,118.78,119.34,120.59,118.63,120.91z"/>
	<path class="st10" d="M167.33,145.4c-0.7,0.32-1.09-1.58-2.04-3.48c-0.95-1.9-2.12-3.09-1.41-3.41c0.7-0.32,2.04,0.96,3,2.86
		C167.83,143.27,168.03,145.08,167.33,145.4z"/>
	<path class="st10" d="M75.37,146.97c-0.7,0.32-2.04-0.96-3-2.86c-0.95-1.9-1.16-3.71-0.46-4.03c0.7-0.32,0.8,1.53,1.75,3.43
		C74.62,145.41,76.07,146.65,75.37,146.97z"/>
	<path class="st9" d="M129.27,123.14c-0.3,0.56-1.26-0.72-2.91-1.54c-1.65-0.82-3.37-0.88-3.07-1.44c0.3-0.56,1.89-0.34,3.54,0.48
		C128.48,121.46,129.57,122.58,129.27,123.14z"/>
	<path class="st9" d="M88.34,150.09c-0.3,0.56-1.89,0.34-3.54-0.48c-1.65-0.82-2.74-1.94-2.44-2.5c0.3-0.56,1.07,0.77,2.73,1.59
		C86.73,149.52,88.64,149.53,88.34,150.09z"/>
	<path class="st10" d="M146.55,77.46c0.2,0.6-1.77,0.11-3.54,0.64c-1.77,0.54-2.69,1.9-2.89,1.3c-0.2-0.6,1.08-1.52,2.86-2.06
		C144.76,76.8,146.36,76.86,146.55,77.46z"/>
	<path class="st11" d="M152.47,144.67c0,0-4.26-0.08-4.35-2c-0.08-1.93-0.08-1.93-0.08-1.93s0.89,1.62,2.49,1.54l0.08-1.16
		C150.62,141.12,152.31,143.05,152.47,144.67z"/>
	<path class="st11" d="M127.2,72.64c0,0-4.26-0.08-4.35-2c-0.08-1.93-0.08-1.93-0.08-1.93s0.89,1.62,2.49,1.54l0.08-1.16
		C125.35,69.1,127.04,71.02,127.2,72.64z"/>
	<path class="st11" d="M130.53,92.98c0,0-1.25,3.17-2.72,2.69c-1.46-0.48-1.46-0.48-1.46-0.48s1.46-0.21,1.85-1.44l-0.84-0.38
		C127.36,93.37,129.27,92.65,130.53,92.98z"/>
	<path class="st11" d="M58.22,81.17c0,0-0.51-4.06,1.47-4.4c1.98-0.34,1.98-0.34,1.98-0.34s3.35,0.56,3.65,2.08l-3.69,0.42
		C61.63,78.92,59.87,80.79,58.22,81.17z"/>
	<path class="st11" d="M34.76,103.43c0,0,3.64-0.41,3.38,1.69c-0.26,2.08,1.31,0.45,1.31,0.45s-0.03,2.81-1.33,3.26l-0.89-2.95
		C37.23,105.89,35.33,104.72,34.76,103.43z"/>
	<path class="st11" d="M163.68,110.15c0,0,3.52-1,3.96,0.11c0.43,1.11,0.43,1.11,0.43,1.11s-0.27,2.07-1.58,2.51l-0.61-2.11
		C165.88,111.77,164.12,111.05,163.68,110.15z"/>
	<g>
		<path class="st12" d="M120.49,123.81c0.54-0.05,1.11-0.07,1.69-0.04c3.28,0.14,5.89,1.5,5.83,3.05c-0.06,1.55-2.78,2.7-6.06,2.56
			c-0.72-0.03-1.41-0.12-2.04-0.26c1.02,0.31,2.21,0.51,3.49,0.56c3.85,0.16,7.03-1.08,7.1-2.75c0.07-1.67-3-3.16-6.85-3.32
			C122.52,123.57,121.44,123.64,120.49,123.81z"/>
		<path class="st13" d="M120.54,125.13c-1.18,0.27-1.97,0.79-2,1.42c-0.01,0.32,0.18,0.63,0.52,0.9c-1-0.3-1.63-0.71-1.61-1.14
			C117.48,125.71,118.77,125.25,120.54,125.13z"/>
		<path class="st14" d="M120.49,123.81c-2.29,0.41-3.88,1.37-3.93,2.55c-0.05,1.12,1.29,2.15,3.33,2.76
			c0.01,0.01,0.02,0.01,0.02,0.01c0.63,0.14,1.32,0.23,2.04,0.26c3.28,0.14,6-1.01,6.06-2.56c0.06-1.55-2.55-2.92-5.83-3.05
			C121.6,123.74,121.03,123.76,120.49,123.81z M126.44,126.68c-0.03,0.76-2.07,1.3-4.55,1.19c-1.07-0.04-2.06-0.2-2.82-0.43
			c-1-0.3-1.63-0.71-1.61-1.14c0.03-0.61,1.31-1.07,3.09-1.18c0.46-0.03,0.95-0.03,1.46-0.01
			C124.48,125.22,126.47,125.92,126.44,126.68z"/>
	</g>
	<g>
		<path class="st12" d="M127.61,76.91c0.42,0.04,0.86,0.11,1.31,0.21c2.5,0.57,4.32,1.88,4.06,2.94c-0.26,1.06-2.5,1.45-5,0.89
			c-0.55-0.12-1.06-0.28-1.53-0.47c0.74,0.36,1.63,0.67,2.6,0.89c2.93,0.66,5.54,0.27,5.82-0.87c0.28-1.14-1.87-2.6-4.8-3.27
			C129.21,77.04,128.37,76.94,127.61,76.91z"/>
		<path class="st13" d="M127.47,77.83c-0.94,0.02-1.62,0.26-1.73,0.69c-0.05,0.22,0.05,0.46,0.28,0.7
			c-0.73-0.35-1.15-0.72-1.08-1.01C125.04,77.78,126.1,77.65,127.47,77.83z"/>
		<path class="st14" d="M127.61,76.91c-1.81-0.05-3.16,0.38-3.36,1.19c-0.19,0.76,0.7,1.66,2.18,2.38c0.01,0.01,0.01,0.01,0.01,0.01
			c0.47,0.19,0.98,0.35,1.53,0.47c2.5,0.57,4.74,0.17,5-0.89c0.26-1.06-1.56-2.37-4.06-2.94C128.47,77.03,128.03,76.96,127.61,76.91
			z M131.79,79.74c-0.13,0.52-1.77,0.59-3.65,0.17c-0.82-0.19-1.55-0.44-2.11-0.7c-0.73-0.35-1.15-0.72-1.08-1.01
			c0.1-0.41,1.15-0.54,2.53-0.37c0.36,0.05,0.73,0.11,1.12,0.2C130.48,78.46,131.91,79.23,131.79,79.74z"/>
	</g>
	<g>
		<path class="st12" d="M44.82,88.82c0.27-0.31,0.57-0.63,0.9-0.93c1.86-1.7,4-2.45,4.78-1.66c0.78,0.78-0.09,2.8-1.94,4.5
			c-0.41,0.37-0.83,0.7-1.24,0.97c0.72-0.4,1.47-0.94,2.19-1.61c2.18-2,3.25-4.3,2.4-5.15c-0.84-0.84-3.3,0.08-5.47,2.08
			C45.8,87.61,45.25,88.22,44.82,88.82z"/>
		<path class="st13" d="M45.55,89.43c-0.5,0.77-0.65,1.44-0.34,1.76c0.16,0.16,0.43,0.21,0.76,0.16c-0.7,0.39-1.26,0.53-1.48,0.32
			C44.19,91.35,44.65,90.44,45.55,89.43z"/>
		<path class="st14" d="M44.82,88.82c-1.03,1.43-1.38,2.75-0.79,3.35c0.57,0.57,1.84,0.34,3.27-0.46c0.01,0,0.01-0.01,0.01-0.01
			c0.42-0.27,0.84-0.6,1.24-0.97c1.86-1.7,2.73-3.72,1.94-4.5c-0.78-0.78-2.93-0.04-4.78,1.66C45.39,88.19,45.09,88.5,44.82,88.82z
			 M49.57,87c0.38,0.38-0.44,1.74-1.84,3.03c-0.61,0.56-1.23,1.01-1.76,1.31c-0.7,0.39-1.26,0.53-1.48,0.32
			c-0.31-0.31,0.15-1.22,1.05-2.23c0.23-0.26,0.5-0.53,0.79-0.79C47.74,87.35,49.19,86.62,49.57,87z"/>
	</g>
	<g>
		<path class="st12" d="M165.6,121.41c0.27-0.31,0.57-0.63,0.9-0.93c1.86-1.7,4-2.45,4.78-1.66c0.78,0.78-0.09,2.8-1.94,4.5
			c-0.41,0.37-0.83,0.7-1.24,0.97c0.72-0.4,1.47-0.94,2.19-1.61c2.18-2,3.25-4.3,2.4-5.15c-0.84-0.84-3.3,0.08-5.47,2.08
			C166.58,120.2,166.03,120.82,165.6,121.41z"/>
		<path class="st13" d="M166.33,122.02c-0.5,0.77-0.65,1.44-0.34,1.76c0.16,0.16,0.43,0.21,0.76,0.16c-0.7,0.39-1.26,0.53-1.48,0.32
			C164.97,123.95,165.43,123.03,166.33,122.02z"/>
		<path class="st14" d="M165.6,121.41c-1.03,1.43-1.38,2.75-0.79,3.35c0.57,0.57,1.84,0.34,3.27-0.46c0.01,0,0.01-0.01,0.01-0.01
			c0.42-0.27,0.84-0.6,1.24-0.97c1.86-1.7,2.73-3.72,1.94-4.5c-0.78-0.78-2.93-0.04-4.78,1.66
			C166.17,120.78,165.87,121.1,165.6,121.41z M170.35,119.6c0.38,0.38-0.44,1.74-1.84,3.03c-0.61,0.56-1.23,1.01-1.76,1.31
			c-0.7,0.39-1.26,0.53-1.48,0.32c-0.31-0.31,0.15-1.22,1.05-2.23c0.23-0.26,0.5-0.53,0.79-0.79
			C168.52,119.94,169.97,119.21,170.35,119.6z"/>
	</g>
	<g>
		<path class="st12" d="M137.59,120.98c-0.06,0.4-0.15,0.82-0.27,1.24c-0.68,2.37-2.12,4.06-3.22,3.77
			c-1.09-0.29-1.42-2.45-0.74-4.82c0.15-0.52,0.34-1.01,0.55-1.45c-0.4,0.69-0.76,1.53-1.02,2.46c-0.8,2.78-0.49,5.29,0.69,5.6
			c1.18,0.31,2.79-1.69,3.59-4.47C137.4,122.5,137.54,121.71,137.59,120.98z"/>
		<path class="st13" d="M136.65,120.82c0.02-0.9-0.21-1.56-0.65-1.68c-0.23-0.06-0.48,0.03-0.74,0.24c0.39-0.68,0.8-1.08,1.1-1
			C136.78,118.49,136.88,119.51,136.65,120.82z"/>
		<path class="st14" d="M137.59,120.98c0.12-1.73-0.28-3.04-1.11-3.26c-0.79-0.21-1.76,0.61-2.56,2c-0.01,0-0.01,0.01-0.01,0.01
			c-0.21,0.44-0.4,0.93-0.55,1.45c-0.68,2.37-0.36,4.53,0.74,4.82c1.09,0.29,2.53-1.4,3.22-3.77
			C137.44,121.8,137.53,121.38,137.59,120.98z M134.48,124.87c-0.54-0.14-0.55-1.71-0.04-3.5c0.22-0.78,0.51-1.47,0.81-1.99
			c0.39-0.68,0.8-1.08,1.1-1c0.43,0.11,0.52,1.12,0.29,2.44c-0.06,0.34-0.15,0.7-0.25,1.07
			C135.87,123.67,135.02,125.01,134.48,124.87z"/>
	</g>
	<path class="st6" d="M41.23,90.32c0,0,3.83-2.29,6-1.32c2.18,0.97,3.77,3.56,2.39,4.73C48.24,94.9,40.48,97.55,41.23,90.32z"/>
	<path class="st9" d="M46.72,92.68c-0.36,0.66-1.6-0.14-3.56-1.11c-1.96-0.97-3.89-1.76-3.53-2.42c0.36-0.66,2.24-0.41,4.19,0.57
		C45.78,90.69,47.08,92.02,46.72,92.68z"/>
	<path class="st6" d="M130.06,127.33c0,0,1.29-5.66,8.72-5.88C146.21,121.23,135.14,131.9,130.06,127.33z"/>
	<path class="st10" d="M144.56,119.24c0.2,0.6-1.4,0.51-3.18,1.05c-1.77,0.54-3.05,1.5-3.25,0.9c-0.2-0.6,1.08-1.52,2.86-2.06
		C142.76,118.59,144.36,118.64,144.56,119.24z"/>
	<path class="st10" d="M119.65,69.21c0.26,0.58-1.6,0.67-3.31,1.37c-1.71,0.7-2.63,1.75-2.89,1.17c-0.26-0.58,0.92-1.62,2.63-2.32
		C117.8,68.74,119.39,68.64,119.65,69.21z"/>
	<path class="st9" d="M111.11,71.33c-0.36,0.66-1.02-0.72-2.97-1.7c-1.96-0.97-4.47-1.17-4.11-1.83c0.36-0.66,2.24-0.41,4.19,0.57
		C110.17,69.34,111.47,70.66,111.11,71.33z"/>
	<path class="st9" d="M74.83,77.06c-0.36,0.66-1.02-0.72-2.97-1.7c-1.96-0.97-4.47-1.17-4.11-1.83c0.36-0.66,2.24-0.41,4.19,0.57
		S75.19,76.4,74.83,77.06z"/>
	<path class="st9" d="M93.77,158.78c-0.36,0.66-1.02-0.72-2.97-1.7s-4.47-1.17-4.11-1.83c0.36-0.66,2.24-0.41,4.19,0.57
		S94.13,158.11,93.77,158.78z"/>
	<path class="st10" d="M87.51,72.34c-0.06,0.63-1.4-0.13-3.24-0.33c-1.84-0.21-3.48,0.21-3.43-0.42c0.06-0.63,1.59-0.97,3.44-0.76
		C86.12,71.03,87.57,71.71,87.51,72.34z"/>
	<path class="st9" d="M171.2,96.57c0.21,0.72-1.34,1.76-3.47,2.33s-4.02,0.45-4.23-0.27c-0.21-0.72,2.09-0.72,4.21-1.29
		C169.84,96.78,170.99,95.85,171.2,96.57z"/>
	<path class="st9" d="M162.7,89.36c-0.36,0.66-2.24,0.41-4.19-0.57c-1.96-0.97-3.25-2.3-2.89-2.96c0.36-0.66,1.52,0.71,3.48,1.69
		C161.05,88.49,163.06,88.7,162.7,89.36z"/>
	<path class="st10" d="M100.61,68.99c0.2,0.6-1.72,0.88-3.49,1.42c-1.77,0.54-2.74,1.12-2.93,0.52c-0.2-0.6,1.08-1.52,2.86-2.06
		C98.82,68.34,100.41,68.39,100.61,68.99z"/>
	<g>
		<path class="st1" d="M113.47,130.63c0.1,3.63-9.97,8.07-14.26,3.93c-0.67-0.64-0.91-1.59-0.69-2.47c0-0.01,0-0.01,0.01-0.02
			c0.61-2.4,2.2-7.5,4.83-7.5c1.39,0,2.55,0.76,3.43,1.68c1.3,1.35,2.01,3.01,2.01,3.01S113.36,126.7,113.47,130.63z"/>
		<path class="st2" d="M102.3,132.31c-1.74,0.12-2.94,0-3.77-0.25c0.61-2.4,2.2-7.5,4.83-7.5c1.39,0,2.55,0.76,3.43,1.68
			C106.98,128.96,105.77,132.07,102.3,132.31z"/>
	</g>
	<g>
		<path class="st1" d="M66.52,84.73c0,0-9.54,2.94-12.96-1.53c0,0,0.79-0.95,2.07-1.89c1.43-1.07,3.49-2.14,5.77-1.92
			c1.55,0.15,2.64,0.89,3.41,1.77C66.2,82.72,66.52,84.73,66.52,84.73z"/>
		<path class="st3" d="M64.82,81.17c-1.85,3.32-7.04,1.21-9.18,0.15c1.43-1.07,3.49-2.14,5.77-1.92
			C62.96,79.55,64.05,80.29,64.82,81.17z"/>
	</g>
	<g>
		<path class="st1" d="M178.48,109.52c0,0-9.83-1.86-10.56-7.34c0,0,1.17-0.46,2.77-0.69c1.8-0.27,4.14-0.25,6.02,1
			c1.28,0.85,1.86,2,2.09,3.13C179.21,107.61,178.48,109.52,178.48,109.52z"/>
		<path class="st3" d="M178.8,105.61c-3.3,2.05-6.77-2.21-8.11-4.13c1.8-0.27,4.14-0.25,6.02,1
			C177.98,103.33,178.57,104.48,178.8,105.61z"/>
	</g>
	<path class="st10" d="M62.26,88.35c-0.49-0.58,0.5-2.13,2.21-3.46c1.71-1.33,3.5-1.94,3.99-1.37c0.49,0.58-1.3,1.08-3.02,2.41
		C63.73,87.27,62.75,88.93,62.26,88.35z"/>
	<g>
		<path class="st15" d="M50.56,103.46c-0.15,0.11-0.31,0.21-0.5,0.29c-0.03,0.01-0.07,0.03-0.1,0.04
			c-3.24,1.41-14.19-7.52-17.07-6.42c-0.99,0.38-1.56,0.3-1.68,0c-0.24-0.57,1.18-1.95,4.6-2.45c3.45-0.52,9.98,1.89,13.95,3.55
			c0.9,0.38,1.49,1.09,1.75,1.87C51.89,101.46,51.58,102.72,50.56,103.46z"/>
		<path class="st11" d="M50.56,103.46c-0.15,0.11-0.31,0.21-0.5,0.29c-0.03,0.01-0.07,0.03-0.1,0.04
			c-3.24,1.41-14.19-7.52-17.07-6.42c-0.99,0.38-1.56,0.3-1.68,0c0.75-0.47,1.96-0.94,3.66-1.19c2.34-0.34,5.74,1.61,9.4,3.78
			c1.75,1.03,5.15,3.82,6.92,0.73c0.12-0.21,0.23-0.32,0.33-0.35C51.89,101.46,51.58,102.72,50.56,103.46z"/>
		<path class="st11" d="M51.1,101.69c0,0,3.38,0.81,3.91,0.5c0.53-0.3,0.55,1.08-0.13,1.22c-0.68,0.14-3.2-1.18-3.6-0.94
			C50.87,102.69,49.99,100.51,51.1,101.69z"/>
	</g>
	<path class="st3" d="M93.9,84.76c0,0.86,1.33,1.56,2.98,1.56c1.65,0,2.98-0.7,2.98-1.56c0-0.86-1.33-1.56-2.98-1.56
		C95.24,83.21,93.9,83.9,93.9,84.76z"/>
	<path class="st8" d="M121.14,90.21c-0.82-2.3-2.2-4.31-3.99-6c-6.28-5.91-17.75-7.83-29.07-4.13
		c-9.59,3.14-20.74,12.72-25.14,21.25c-1.25,2.42-1.6,4.86-1.46,6.97c-10.84,5.21-23.6,6.48-27.25,6.75c-1-0.33-3.76-1.08-5.21,1.38
		c-0.14,0.24-0.24,0.48-0.29,0.71c-0.32,0.96-0.62,2.69,0.83,3.8c2.09,1.61,2.41,1.55,2.41,1.55s-2.23,5.27,0.76,5.77
		c2.54,0.42,4.18-1.16,5.33-3.09c8.79-9.71,26.94-8.91,26.94-8.91c-0.05,0.94,2.35,1.24,2.36,1.12c7.14,6.55,21.47,4.36,34.2,0.19
		C116.07,112.82,124.86,100.56,121.14,90.21z"/>
	<g>
		<path class="st16" d="M32.11,113.31c-0.2,0-4.06-1.7-5.83,1.44c-1.77,3.14,3.67,5.31,3.67,5.31s-1.7,5.5,1.05,6.29
			c2.75,0.79,4.91-2.6,4.91-2.6L32.11,113.31z"/>
		<g>
			<g>
				<path class="st1" d="M102.3,114.39c-15.14,5.31-35.79,6.01-40.96-4.33c-0.57-1.15-1.07-2.72-1.21-4.53
					c-0.19-2.21,0.12-4.77,1.38-7.33c4.43-9.03,15.91-19.31,25.89-22.81c11.78-4.13,23.84-2.36,30.55,3.7
					c1.92,1.73,3.4,3.81,4.31,6.2C126.38,96.06,117.44,109.09,102.3,114.39z"/>
				<path class="st2" d="M92.58,104.9c-13.36,1.06-29.22,8.36-32.45,0.64c-0.19-2.21,0.12-4.77,1.38-7.33
					c4.43-9.03,15.91-19.31,25.89-22.81c11.78-4.13,23.84-2.36,30.55,3.7c2.42,4.13,1.24,8.97-2.08,13.47
					C111.89,97.96,107.62,103.7,92.58,104.9z"/>
				<path class="st3" d="M78.94,82.55c0,0-1.39,1.59,2.45,2.09c3.84,0.5,8.54-2.59,15-2.92c6.45-0.33,9.42-4.18,4.19-5.34
					C95.34,75.2,85.4,77.37,78.94,82.55z"/>
				<path class="st1" d="M67.4,106.05c0,0.6-0.73,1.08-1.64,1.08s-1.64-0.48-1.64-1.08c0-0.6,0.73-1.08,1.64-1.08
					S67.4,105.45,67.4,106.05z"/>
				<path class="st1" d="M80.94,88.2c0,0.6-0.73,1.08-1.64,1.08c-0.9,0-1.64-0.48-1.64-1.08c0-0.6,0.73-1.08,1.64-1.08
					C80.21,87.12,80.94,87.61,80.94,88.2z"/>
				<path class="st1" d="M108.3,97.4c0.26,0.54-0.19,1.29-1,1.69c-0.81,0.39-1.69,0.28-1.95-0.26c-0.26-0.54,0.19-1.29,1-1.69
					C107.17,96.75,108.04,96.87,108.3,97.4z"/>
				<path class="st1" d="M69.9,107.54c0,0.26,0.31,0.47,0.69,0.47c0.38,0,0.69-0.21,0.69-0.47c0-0.26-0.31-0.47-0.69-0.47
					C70.2,107.07,69.9,107.28,69.9,107.54z"/>
				<path class="st1" d="M83.05,86.9c0,0.26,0.31,0.47,0.69,0.47c0.38,0,0.69-0.21,0.69-0.47c0-0.26-0.31-0.47-0.69-0.47
					C83.35,86.43,83.05,86.64,83.05,86.9z"/>
				<ellipse class="st1" cx="68.37" cy="105.39" rx="0.39" ry="0.35"/>
				<path class="st1" d="M62.21,102.97c0,0.23-0.25,0.42-0.57,0.42c-0.31,0-0.57-0.19-0.57-0.42c0-0.23,0.25-0.42,0.57-0.42
					C61.96,102.54,62.21,102.73,62.21,102.97z"/>
				<path class="st1" d="M77.61,85.16c0,0.23-0.25,0.42-0.57,0.42c-0.31,0-0.57-0.19-0.57-0.42c0-0.23,0.25-0.42,0.57-0.42
					C77.36,84.74,77.61,84.93,77.61,85.16z"/>
				<path class="st1" d="M102.36,101.6c0,0.23-0.29,0.42-0.64,0.42c-0.35,0-0.64-0.19-0.64-0.42c0-0.23,0.29-0.42,0.64-0.42
					C102.07,101.17,102.36,101.36,102.36,101.6z"/>
				<path class="st1" d="M103.39,100.44c0-0.12,0.22-0.21,0.49-0.21s0.49,0.1,0.49,0.21c0,0.12-0.22,0.21-0.49,0.21
					S103.39,100.56,103.39,100.44z"/>
				<path class="st3" d="M105.44,79.48c0,0.25-0.31,0.45-0.7,0.45s-0.7-0.2-0.7-0.45c0-0.25,0.31-0.45,0.7-0.45
					S105.44,79.23,105.44,79.48z"/>
				<path class="st3" d="M75.66,86.64c0,0.25-0.31,0.45-0.7,0.45c-0.39,0-0.7-0.2-0.7-0.45c0-0.25,0.31-0.45,0.7-0.45
					C75.35,86.19,75.66,86.39,75.66,86.64z"/>
				<ellipse class="st3" cx="79.56" cy="85.51" rx="0.7" ry="0.45"/>
				<path class="st3" d="M102.56,81.23c0-0.14,0.24-0.26,0.55-0.26c0.3,0,0.55,0.12,0.55,0.26c0,0.14-0.24,0.26-0.55,0.26
					C102.8,81.49,102.56,81.37,102.56,81.23z"/>
			</g>
			<g>
				<path class="st17" d="M63.96,113.8c0,0-24.42,4.13-28.05,9.95c-1.43,2.27-3.39,0.94-4.92-1.44c-2.38-3.69-3.7-9.89-0.34-9.02
					c0,0,16.21-1.04,29.48-7.75c0,0,3.32,0.51,3.8,5.89C63.99,112.13,64.01,112.92,63.96,113.8z"/>
				<path class="st16" d="M63.93,111.42c-5.75,0.92-27.52,4.69-31.19,9.73c-0.54,0.74-1.14,1.09-1.76,1.16
					c-2.38-3.69-3.7-9.89-0.34-9.02c0,0,16.21-1.04,29.48-7.75C60.13,105.53,63.45,106.04,63.93,111.42z"/>
				<path class="st5" d="M30.98,114.68c-0.56,0.11-0.49,0.93,0.08,0.95c0.25,0.01,0.54,0.01,0.87,0c2.46-0.11,28.18-7.04,28.53-8.05
					C60.76,106.7,47.86,111.42,30.98,114.68z"/>
			</g>
			<path class="st17" d="M34.67,119.54c0,0-1.83,2.55-3.41,0.26c0,0-5.31-1.44-4.98-5.04c0,0-1.57,3.08,0.66,4.72
				c2.23,1.64,2.55,1.57,2.55,1.57s-2.23,5.57,0.92,6.03s4.91-1.97,6.09-4.45C37.68,120.13,34.67,119.54,34.67,119.54z"/>
		</g>
	</g>
	<path class="st8" d="M150.24,137.37c-2.28,4.14-15.95,10.36-25.93,14.49c-3.98,0.61-8.1,1.06-12.33,1.36
		c-1.64-2.37-3.96-5.51-4.5-6.67c-0.92-1.96,41.47-24.87,41.99-25.14C150,121.16,153.91,130.69,150.24,137.37z"/>
	<g>
		<path class="st18" d="M156.23,135.11c-0.54,7.97-5.22,15.51-13.1,19.6c-11.86,6.15-26.6,2.22-33.48-8.74l3.54-2.09
			c0.13,0.2,0.26,0.41,0.39,0.61c5.89,8.72,17.88,11.76,27.57,6.73c3.33-1.73,5.97-4.19,7.83-7.07c3.83-5.92,4.33-13.59,0.62-20.15
			c-0.17-0.31-0.36-0.61-0.55-0.91c-0.06-0.1-0.12-0.2-0.19-0.3l3.54-2.1c0.29,0.46,0.58,0.93,0.86,1.41
			C155.59,126.23,156.53,130.73,156.23,135.11z"/>
		<path class="st6" d="M148.98,144.14c-1.86,2.87-4.5,5.34-7.83,7.07c-9.69,5.03-21.68,1.99-27.57-6.73
			c-0.13-0.2-0.26-0.4-0.39-0.61l1.69-1l5.24-3.1l8.49-5.02l4.82-2.85l13.73-8.12l1.7-1c0.06,0.1,0.13,0.2,0.19,0.3
			c0.19,0.3,0.37,0.6,0.55,0.91C153.31,130.56,152.8,138.22,148.98,144.14z"/>
		<path class="st19" d="M149.85,143.55c-2.11,3.74-5.37,6.93-9.36,8.99c-9.69,5.03-21.05,0.72-26.92-8.06
			c-0.13-0.2-0.26-0.4-0.39-0.61l1.69-1l5.24-3.1l8.49-5.02l4.82-2.85l13.73-8.12l1.7-1c0.06,0.1,0.13,0.2,0.19,0.3
			c0.18,0.3,0.36,0.61,0.55,0.91C153.61,130.52,153.14,137.72,149.85,143.55z"/>
		<path class="st20" d="M148.8,142c-0.1,0.2-0.2,0.39-0.31,0.59c-0.58,1.06-1.28,2.06-2.12,2.98c-1.3,1.44-2.9,2.69-4.81,3.68
			c-4.11,2.13-8.96,2.71-13.52,1.92c-0.32-0.05-0.64-0.11-0.95-0.18c-5.02-1.09-9.58-3.87-12.22-8.12l5.24-3.1l8.49-5.02l4.82-2.85
			l13.73-8.12c0.24,0.36,0.47,0.73,0.69,1.12C151.01,130.49,151.33,136.87,148.8,142z"/>
		<path class="st19" d="M133.62,134.94c-0.08,0.12-0.16,0.24-0.26,0.36c-0.22,0.26-0.51,0.49-0.84,0.67
			c-0.37,0.19-0.78,0.3-1.18,0.32c-0.18,0.01-0.35,0-0.52-0.01c-0.89-0.1-1.71-0.6-2.17-1.41c-0.01-0.03-0.04-0.06-0.05-0.1
			l4.82-2.85c0.09,0.11,0.17,0.23,0.24,0.35C134.16,133.13,134.11,134.14,133.62,134.94z"/>
		<path class="st19" d="M127.94,152.17c-0.02,0.27-1.11-0.15-1.11-0.15l4.18-16.49l0.53,0.12
			C131.54,135.64,128.61,144.98,127.94,152.17z"/>
		<path class="st19" d="M148.8,142.7c-11.62-4.07-16.46-8.17-16.46-8.17s0.15-0.55,0.25-0.46c4.42,4.14,15.61,6.87,16.46,8.17
			C149.12,142.35,148.93,142.75,148.8,142.7z"/>
	</g>
	<path class="st9" d="M114.01,152.41c0.21,0.72-1.34,1.76-3.47,2.33c-2.12,0.57-4.02,0.45-4.23-0.27c-0.21-0.72,1.74-0.87,3.87-1.44
		C112.31,152.47,113.8,151.7,114.01,152.41z"/>
	<path class="st10" d="M55.11,87.88c-0.7,0.32-0.79-1.52-1.74-3.42c-0.95-1.9-2.41-3.15-1.71-3.47c0.7-0.32,2.04,0.96,3,2.86
		C55.61,85.75,55.82,87.56,55.11,87.88z"/>
	<g>
		<g>
			<path class="st11" d="M131.79,87.41c-0.55-0.45,0.15-2.61,3.34-4.97c3.22-2.38,11.12-3.46,16.05-3.92
				c2.7-0.25,4.57,2.42,3.49,4.62c-0.09,0.19-0.41,0.62-0.43,0.66c-2.51,3.18-18.42,0.03-20.75,2.7
				C132.7,87.41,132.07,87.64,131.79,87.41z"/>
			<path class="st15" d="M131.85,86.68c-0.11-0.31,0.74-1.29,2.08-2.74c3.43-3.69,12.28-3.72,17.21-4.17
				c1.49-0.14,2.12-0.17,2.44,0.51c0.23,0.5,0.16,1.09-0.12,1.57c-0.21,0.36-0.44,0.75-0.46,0.77c-2.51,3.18-17.13,0.18-19.45,2.85
				C132.76,86.38,132.13,86.91,131.85,86.68z"/>
			<path class="st11" d="M154.86,81c0,0,2.27,0.38,2.2-1.32c-0.03-0.7,1.14,0.8,0.53,1.3c-0.61,0.5-2.45,0.3-2.73,0.76
				C154.56,82.19,153.09,80.42,154.86,81z"/>
		</g>
		<path class="st21" d="M148.97,80.41c0,0-6.51,0.38-6.47,0.72c0.04,0.34,5.38,0.08,6.7,0.11c1.33,0.04,4.13-0.42,3.6-0.91
			C152.26,79.85,148.97,80.41,148.97,80.41z"/>
		<path class="st21" d="M136.58,82.53c-0.11,0-2.61,1.59-2.12,1.67C134.96,84.28,137.57,82.5,136.58,82.53z"/>
	</g>
	<g>
		<g>
			<path class="st11" d="M92.97,144.41c-0.24,0.65-2.6,0.75-6.03-1.33c-3.46-2.1-7.31-8.86-9.49-13.15
				c-1.2-2.36,0.75-4.95,3.28-4.72c0.22,0.02,0.44,0.06,0.67,0.13c0.04,0.01,0.08,0.03,0.12,0.03c3.99,1.19,6.54,16.61,9.96,17.8
				C92.66,143.59,93.1,144.08,92.97,144.41z"/>
			<path class="st15" d="M92.97,144.41c-1.04-0.16-2.48-0.65-4.18-1.68c-3.47-2.11-6.06-8.35-8.24-12.63
				c-0.88-1.73-1.32-4.11,0.19-4.88c0.22,0.02,0.44,0.06,0.67,0.13c0.04,0.01,0.08,0.03,0.12,0.03c3.99,1.19,6.54,16.61,9.96,17.8
				C92.66,143.59,93.1,144.08,92.97,144.41z"/>
			<path class="st11" d="M78.84,126.29c0,0-2.34-3.14-3.05-3.27c-0.71-0.13,0.38-1.3,1.08-0.92c0.71,0.38,1.89,3.31,2.43,3.42
				C79.84,125.63,78.89,128.09,78.84,126.29z"/>
		</g>
		<path class="st21" d="M83.78,130.11c0.6,1.72,0.86,3.19,0.58,3.28c-0.28,0.1-1.54-2.69-2.14-4.41c-0.6-1.72-0.31-1.71-0.03-1.8
			C82.47,127.08,83.18,128.39,83.78,130.11z"/>
		<path class="st21" d="M86.14,135.58c0.27,0.68,0.36,1.29,0.2,1.35c-0.16,0.06-0.51-0.43-0.79-1.12c-0.27-0.68-0.36-1.29-0.2-1.35
			C85.52,134.4,85.87,134.9,86.14,135.58z"/>
	</g>
	<path class="st22" d="M48.21,98.6c1.34,0.56,2.32,1.26,2.19,1.56c-0.13,0.3-1.61-0.79-2.95-1.35c-1.34-0.56-2.02-0.39-1.89-0.69
		C45.69,97.82,46.87,98.04,48.21,98.6z"/>
	<path class="st22" d="M44.69,97.59c-0.04,0.13-0.34,0.15-0.66,0.05c-0.33-0.1-0.56-0.29-0.52-0.42c0.04-0.13,0.34-0.15,0.66-0.05
		C44.5,97.28,44.73,97.47,44.69,97.59z"/>
	<g>
		<g>
			<path class="st23" d="M156.19,104.92l1.71,0.41c-0.75,1.02-1.75,1.94-3.06,2.68c-1.09,0.31-2.41,0.41-3.91,0.04l1.05,1.13
				c-1.77,0.51-4.1,0.81-5.46-1.55c0,0-4.12-0.5-2.78-6.08l1.87,2.03c0,0-1.94-3.8-1.11-7.68c0.62-1.61,1.67-3.02,3.33-4l0.17,2.24
				c0,0,0.52-2.22,2.77-3.34c0.01,0,0.01,0,0.01,0c0.76-0.16,1.6-0.26,2.53-0.29l-0.33,1.05c0,0,1.58-1.08,5.68-0.6
				c0,0,0,0.01,0.01,0.02c0.06,0.29,0.82,3.79,0.46,6.08l0.78-0.22c0.14,1.85,0.03,3.92-0.64,5.86
				C158.63,103.63,157.65,104.45,156.19,104.92z"/>
			<g>
				<path class="st11" d="M157,92.99c-0.11,0.22-1.04,2.12-2.42,4.53c-0.08,0.12-0.15,0.25-0.22,0.38c-0.66,1.13-1.41,2.36-2.2,3.57
					c-0.22,0.33-0.43,0.65-0.65,0.97l0,0.01c-0.14,0.19-0.27,0.38-0.4,0.56c-0.16,0.21-0.31,0.42-0.46,0.63
					c-0.66,0.88-1.33,1.72-2.01,2.44c-0.16,0.17-0.31,0.33-0.47,0.49c-1.37,1.36-2.73,2.23-3.93,2.15l0.03-0.57
					c1.04,0.07,2.36-0.73,3.93-2.37c0.15-0.16,0.29-0.32,0.44-0.49c0.36-0.39,0.72-0.82,1.09-1.29c0.17-0.21,0.35-0.44,0.52-0.67
					c0.48-0.63,0.98-1.33,1.49-2.09c0.13-0.18,0.25-0.37,0.38-0.57c0.07-0.12,0.15-0.23,0.23-0.34c0.5-0.77,0.99-1.53,1.45-2.26
					c0.09-0.14,0.17-0.28,0.26-0.41c1.63-2.62,2.84-4.7,2.85-4.73L157,92.99z"/>
			</g>
			<g>
				<path class="st11" d="M152.17,101.47c-0.22,0.33-0.43,0.65-0.65,0.97c0.08-0.4,0.15-0.8,0.22-1.2c0.72-4.06,1.19-7.71,1.19-7.75
					l0.11,0.01c-0.02,0.3-0.19,3.28-0.7,6.83C152.28,100.71,152.23,101.08,152.17,101.47z"/>
			</g>
			<g>
				<path class="st11" d="M148.64,106.08c-0.16,0.17-0.31,0.33-0.47,0.49c0.01-0.26,0.02-0.53,0.03-0.79
					c0.1-3.91,0.04-7.29,0.04-7.33l0.11,0c0.02,0.29,0.28,3.27,0.3,6.84C148.64,105.54,148.64,105.81,148.64,106.08z"/>
			</g>
			<g>
				<path class="st11" d="M157.96,96.68c-0.2,0.07-1.59,0.58-3.59,1.22c-0.19,0.06-0.38,0.12-0.58,0.18
					c0.09-0.14,0.17-0.28,0.26-0.41c0.19-0.05,0.36-0.1,0.54-0.14c1.97-0.54,3.31-0.94,3.33-0.95L157.96,96.68z"/>
			</g>
			<g>
				<path class="st11" d="M157.47,100.67c-0.28,0.14-3.22,1.58-6.82,2.97c-0.3,0.12-0.61,0.24-0.92,0.36
					c0.17-0.21,0.35-0.44,0.52-0.67c0.29-0.1,0.58-0.21,0.87-0.32c3.46-1.27,6.27-2.42,6.31-2.44L157.47,100.67z"/>
			</g>
		</g>
		<g>
			<path class="st23" d="M136.22,101.04l-0.84-1.5c1.3-0.12,2.7,0.01,4.17,0.48c0.98,0.59,1.95,1.47,2.68,2.79l0.16-1.49
				c1.6,0.95,3.41,2.43,2.5,4.94c0,0,2.4,3.3-2.85,5.93l0.31-2.66c0,0-1.64,3.86-5.23,5.77c-1.67,0.59-3.49,0.75-5.37,0.18
				l1.63-1.57c0,0-2.08,1.06-4.48,0.16c0-0.01,0-0.01-0.01,0c-0.64-0.45-1.29-0.99-1.94-1.64l1.04-0.44c0,0-1.91-0.44-4.32-3.71
				c0,0,0-0.01,0.01-0.02c0.18-0.23,2.4-3.04,4.42-4.26l-0.7-0.43c1.35-1.3,3.03-2.56,4.99-3.32
				C133.56,100.11,134.86,100.29,136.22,101.04z"/>
			<g>
				<path class="st11" d="M126.38,108.16c0.25-0.07,2.36-0.62,5.16-1.18c0.15-0.02,0.29-0.06,0.44-0.09
					c1.33-0.26,2.79-0.51,4.27-0.72c0.4-0.05,0.8-0.11,1.2-0.16l0.01,0c0.24-0.02,0.47-0.05,0.71-0.08
					c0.27-0.03,0.54-0.05,0.81-0.07c1.13-0.09,2.24-0.15,3.26-0.12c0.24,0,0.47,0.01,0.7,0.02c1.99,0.11,3.59,0.53,4.34,1.45
					l-0.46,0.35c-0.65-0.79-2.17-1.23-4.51-1.31c-0.22-0.01-0.45-0.01-0.68-0.01c-0.54-0.01-1.13,0.01-1.74,0.05
					c-0.28,0.02-0.58,0.03-0.87,0.06c-0.82,0.06-1.7,0.15-2.63,0.28c-0.23,0.03-0.46,0.06-0.7,0.09c-0.14,0.02-0.28,0.04-0.42,0.06
					c-0.94,0.14-1.86,0.28-2.74,0.41c-0.17,0.03-0.33,0.06-0.5,0.08c-3.15,0.51-5.58,0.99-5.61,1L126.38,108.16z"/>
			</g>
			<g>
				<path class="st11" d="M136.26,106.17c0.4-0.05,0.8-0.11,1.2-0.16c-0.37,0.21-0.73,0.41-1.09,0.62c-3.64,2.1-6.81,4.12-6.84,4.15
					l-0.07-0.09c0.24-0.18,2.68-1.98,5.79-3.91C135.58,106.58,135.92,106.38,136.26,106.17z"/>
			</g>
			<g>
				<path class="st11" d="M142.24,105.74c0.24,0,0.47,0.01,0.7,0.02c-0.21,0.16-0.42,0.33-0.63,0.49c-3.11,2.45-5.7,4.68-5.73,4.71
					l-0.08-0.08c0.22-0.2,2.35-2.31,5.12-4.63C141.82,106.08,142.03,105.91,142.24,105.74z"/>
			</g>
			<g>
				<path class="st11" d="M128.6,105.09c0.19,0.1,1.53,0.77,3.38,1.8c0.17,0.1,0.35,0.2,0.53,0.3c-0.17,0.03-0.33,0.06-0.5,0.08
					c-0.17-0.1-0.32-0.2-0.47-0.3c-1.76-1.07-2.97-1.78-2.99-1.79L128.6,105.09z"/>
			</g>
			<g>
				<path class="st11" d="M132.03,102.86c0.3,0.12,3.41,1.31,6.94,3c0.3,0.14,0.6,0.29,0.9,0.43c-0.28,0.02-0.58,0.03-0.87,0.06
					c-0.28-0.14-0.56-0.28-0.84-0.42c-3.33-1.68-6.14-2.96-6.18-2.98L132.03,102.86z"/>
			</g>
		</g>
		<g>
			<path class="st11" d="M146.25,97.52l0.82-0.9c0.43,0.82,0.72,1.75,0.79,2.81c-0.14,0.78-0.5,1.62-1.22,2.41l1.09-0.25
				c-0.23,1.27-0.78,2.8-2.77,2.82c0,0-1.65,2.35-4.91-0.41l1.94-0.45c0,0-3.14-0.13-5.44-1.99c-0.87-0.94-1.47-2.08-1.58-3.44
				l1.54,0.67c0,0-1.3-1.09-1.33-2.86c0,0,0,0,0-0.01c0.14-0.53,0.34-1.08,0.62-1.66l0.59,0.56c0,0-0.21-1.34,1.42-3.7
				c0,0,0.01,0,0.02,0c0.21,0.06,2.77,0.82,4.17,1.83l0.11-0.56c1.27,0.56,2.61,1.34,3.67,2.43
				C146.18,95.57,146.41,96.46,146.25,97.52z"/>
			<g>
				<path class="st23" d="M138.62,92.87c0.11,0.15,1.07,1.38,2.23,3.06c0.06,0.09,0.12,0.18,0.18,0.27c0.54,0.8,1.11,1.69,1.66,2.59
					c0.15,0.25,0.29,0.49,0.43,0.74l0,0c0.08,0.15,0.16,0.3,0.24,0.44c0.09,0.17,0.18,0.34,0.27,0.5c0.37,0.71,0.71,1.41,0.97,2.08
					c0.06,0.16,0.12,0.31,0.17,0.46c0.46,1.32,0.6,2.45,0.16,3.16l-0.37-0.22c0.38-0.61,0.27-1.71-0.31-3.24
					c-0.06-0.14-0.12-0.29-0.18-0.44c-0.14-0.35-0.31-0.73-0.51-1.12c-0.09-0.18-0.18-0.36-0.28-0.55
					c-0.26-0.52-0.57-1.06-0.91-1.64c-0.08-0.14-0.17-0.29-0.25-0.43c-0.05-0.09-0.1-0.17-0.15-0.26c-0.35-0.57-0.7-1.14-1.03-1.68
					c-0.07-0.1-0.13-0.2-0.19-0.3c-1.21-1.92-2.2-3.37-2.22-3.39L138.62,92.87z"/>
			</g>
			<g>
				<path class="st23" d="M142.68,98.79c0.15,0.25,0.29,0.49,0.43,0.74c-0.24-0.19-0.49-0.37-0.73-0.55
					c-2.46-1.85-4.73-3.41-4.75-3.43l0.04-0.07c0.19,0.11,2.11,1.26,4.3,2.8C142.21,98.45,142.45,98.62,142.68,98.79z"/>
			</g>
			<g>
				<path class="st23" d="M144.6,102.55c0.06,0.16,0.12,0.31,0.17,0.46c-0.17-0.1-0.34-0.19-0.51-0.29
					c-2.56-1.42-4.82-2.56-4.84-2.57l0.04-0.07c0.2,0.09,2.25,0.96,4.62,2.2C144.25,102.37,144.43,102.46,144.6,102.55z"/>
			</g>
			<g>
				<path class="st23" d="M141.36,93.57c-0.02,0.15-0.12,1.18-0.34,2.63c-0.02,0.13-0.05,0.28-0.07,0.42
					c-0.07-0.1-0.13-0.2-0.19-0.3c0.03-0.13,0.05-0.26,0.08-0.38c0.27-1.4,0.44-2.36,0.44-2.37L141.36,93.57z"/>
			</g>
			<g>
				<path class="st23" d="M143.85,95.25c0,0.22,0.01,2.53-0.22,5.22c-0.02,0.23-0.04,0.46-0.06,0.69c-0.09-0.18-0.18-0.36-0.28-0.55
					c0.02-0.22,0.05-0.43,0.07-0.64c0.27-2.56,0.4-4.69,0.4-4.72L143.85,95.25z"/>
			</g>
		</g>
		<g>
			<path class="st11" d="M153.12,108.81l1.23-0.23c-0.53-0.76-1.24-1.47-2.17-2.05c-0.78-0.27-1.73-0.39-2.81-0.19l0.77-0.77
				c-1.27-0.44-2.94-0.75-3.95,0.89c0,0-2.97,0.2-2.06,4.26l1.37-1.38c0,0-1.44,2.66-0.88,5.48c0.43,1.18,1.17,2.24,2.35,3.01
				l0.15-1.6c0,0,0.35,1.61,1.96,2.52c0,0,0,0,0.01,0c0.55,0.15,1.15,0.25,1.82,0.31l-0.22-0.77c0,0,1.12,0.84,4.08,0.66
				c0,0,0,0,0.01-0.01c0.05-0.2,0.63-2.7,0.39-4.36l0.56,0.19c0.12-1.33,0.07-2.82-0.39-4.24
				C154.86,109.83,154.17,109.21,153.12,108.81z"/>
			<g>
				<path class="st23" d="M153.58,117.43c-0.08-0.17-0.73-1.57-1.69-3.36c-0.05-0.09-0.1-0.19-0.15-0.28
					c-0.46-0.84-0.99-1.76-1.55-2.66c-0.15-0.24-0.3-0.49-0.46-0.72l0,0c-0.1-0.14-0.19-0.28-0.28-0.42
					c-0.11-0.16-0.22-0.32-0.33-0.47c-0.46-0.66-0.94-1.29-1.42-1.83c-0.11-0.13-0.22-0.25-0.33-0.37c-0.97-1.04-1.94-1.72-2.8-1.7
					l0.01,0.41c0.75-0.01,1.69,0.62,2.8,1.86c0.1,0.12,0.21,0.24,0.31,0.37c0.25,0.29,0.51,0.62,0.77,0.97
					c0.12,0.16,0.24,0.33,0.36,0.5c0.34,0.47,0.69,1,1.05,1.56c0.09,0.14,0.18,0.28,0.27,0.42c0.05,0.09,0.1,0.17,0.16,0.25
					c0.35,0.57,0.69,1.14,1.02,1.68c0.06,0.11,0.12,0.21,0.18,0.31c1.15,1.95,1.99,3.49,2,3.51L153.58,117.43z"/>
			</g>
			<g>
				<path class="st23" d="M150.19,111.13c-0.15-0.24-0.3-0.49-0.46-0.72c0.05,0.29,0.1,0.58,0.15,0.87c0.47,2.95,0.77,5.6,0.77,5.62
					l0.08,0c-0.01-0.21-0.1-2.37-0.43-4.94C150.27,111.69,150.23,111.41,150.19,111.13z"/>
			</g>
			<g>
				<path class="st23" d="M147.71,107.68c-0.11-0.13-0.22-0.25-0.33-0.37c0,0.19,0.01,0.38,0.01,0.57c0.03,2.82-0.05,5.25-0.05,5.27
					l0.08,0c0.02-0.21,0.24-2.34,0.29-4.91C147.7,108.06,147.71,107.87,147.71,107.68z"/>
			</g>
			<g>
				<path class="st23" d="M154.3,114.81c-0.14-0.06-1.14-0.48-2.57-1.02c-0.13-0.05-0.27-0.1-0.41-0.15
					c0.06,0.11,0.12,0.21,0.18,0.31c0.13,0.04,0.26,0.08,0.38,0.12c1.41,0.47,2.37,0.81,2.38,0.82L154.3,114.81z"/>
			</g>
			<g>
				<path class="st23" d="M154,111.92c-0.2-0.11-2.3-1.26-4.87-2.41c-0.22-0.1-0.44-0.2-0.66-0.29c0.12,0.16,0.24,0.33,0.36,0.5
					c0.21,0.09,0.41,0.18,0.62,0.26c2.47,1.05,4.48,1.99,4.51,2.01L154,111.92z"/>
			</g>
		</g>
	</g>
	<path class="st8" d="M69.28,136.93c1.7,8.62-7.55,15.91-16.85,15.91c-9.31,0-16.85-7.12-16.85-15.91c0-8.79,4.44-18.36,8.08-13.12
		c0.74,1.06,6.62-2.5,9.9,0.23c3.28,2.73,4.61,8.24,7.74,6.71C64.97,128.94,67.65,128.65,69.28,136.93z"/>
	<g>
		<path class="st24" d="M40.57,122.39c0,0,0.01,2.1,2.75,2.49c2.74,0.39,4.43,0.15,7.23,3.37c3.38,3.88,1.12,14.06-7.93,17.51
			S40.37,123.05,40.57,122.39z"/>
		<g>
			<g>
				<path class="st25" d="M42.62,145.76c-4.08,1.89-13.4,2.95-18.69-8.77c-0.13-0.3-0.26-0.59-0.37-0.89c0,0,0,0,0,0
					c-0.36-0.96-0.61-1.91-0.75-2.85c-0.79-5.23,1.75-9.82,5.01-12.68c0.05-0.04,0.09-0.08,0.14-0.12c0.31-0.27,0.63-0.52,0.95-0.76
					c0.06-0.04,0.11-0.08,0.17-0.12c0.06-0.04,0.11-0.08,0.17-0.12c2.62-1.8,5.46-2.49,7.32-1.58c2.89,1.43,4.22,3.73,4.84,5.5
					c0.39,1.12,1.35,1.92,2.49,2.12c0.14,0.03,0.29,0.04,0.44,0.05c0.73,0.03,1.55,0.18,2.36,0.55c0,0,0,0,0,0
					c0.98,0.46,1.93,1.26,2.65,2.61c0.05,0.1,0.11,0.21,0.16,0.32c0.36,0.77,0.62,1.55,0.78,2.35
					C51.51,137.3,47.43,143.53,42.62,145.76z"/>
				<path class="st26" d="M44.01,126.49c-1.12-0.01-2.02-0.41-3.03-1.41c-1.11-1.1-1.86-3.68-4.29-4.88
					c-4.35-2.15-14.89,6.42-10.65,16.34c3.9,9.12,12.7,9,16.12,7.41c4.57-2.12,8.76-8.78,6.17-14.27
					C47.27,127.4,45.83,126.5,44.01,126.49z"/>
				<path class="st25" d="M36.81,128.59c0,0,1.73-1.67-0.2-4.31c-1.93-2.63-10.19,3.52-8.75,9.98c1.44,6.46,3.76,5.46,4.78,4.51
					c1.03-0.95,6.48-6.77,5.03-7.71c-0.65-0.42-3.45,4.73-4.15,3.89C32.83,134.11,31.85,129.24,36.81,128.59z"/>
				<path class="st25" d="M45.97,131.36c-1.65-1.66-4.36-1.58-5.97,0.11c-2.73,2.85-6.15,8.26-4.49,10.35
					c2.34,2.94,7.85,0.2,10.67-4.91C47.32,134.86,46.93,132.33,45.97,131.36z"/>
				<path class="st26" d="M42.63,130.06c0,0-2.2,1.41-1.76,3.43c0.44,2.02-2.21,4.16-2.57,2.4c-0.36-1.76-1.05-2.45-1.64-1.3
					C36.07,135.73,39.23,128.49,42.63,130.06z"/>
				<path class="st24" d="M34.44,128.17c0,0,2.17-1.1,1.01-2.46c-1.16-1.36-6.85,1.67-6.75,6.08c0.11,4.61,2.96,5.2,3.53,4.58
					c0.57-0.61-1.71-4.18-0.3-6.14C33.34,128.26,34.44,128.17,34.44,128.17z"/>
				<path class="st27" d="M32.56,135.66c-0.39,0.27-0.86,0.26-1.05-0.02c-0.19-0.28-0.03-0.72,0.35-0.99
					c0.39-0.27,0.86-0.26,1.05,0.02C33.1,134.95,32.95,135.39,32.56,135.66z"/>
				<path class="st27" d="M30.55,130.97c-0.41-0.22-0.62-0.64-0.46-0.94c0.16-0.3,0.63-0.36,1.04-0.14
					c0.41,0.22,0.62,0.64,0.46,0.94C31.43,131.13,30.96,131.19,30.55,130.97z"/>
				<path class="st27" d="M31.42,133.12c-0.35,0.05-0.67-0.12-0.7-0.37s0.22-0.5,0.58-0.55c0.35-0.05,0.67,0.12,0.7,0.37
					C32.03,132.82,31.77,133.07,31.42,133.12z"/>
				<path class="st27" d="M33.31,127.52c-0.22-0.28-0.22-0.64-0.02-0.8c0.2-0.15,0.55-0.05,0.76,0.24c0.22,0.28,0.22,0.64,0.02,0.8
					C33.87,127.91,33.53,127.81,33.31,127.52z"/>
				<path class="st27" d="M32.44,129.85c-0.29-0.21-0.4-0.55-0.24-0.76c0.15-0.21,0.51-0.2,0.8,0.01c0.29,0.21,0.4,0.55,0.24,0.76
					C33.08,130.07,32.73,130.07,32.44,129.85z"/>
				<path class="st27" d="M35.19,127.06c-0.11-0.28-0.03-0.57,0.18-0.65s0.45,0.09,0.56,0.37c0.11,0.28,0.03,0.57-0.18,0.65
					C35.54,127.51,35.29,127.34,35.19,127.06z"/>
				<path class="st24" d="M38.16,138.34c0,0-2.43,0.14-1.92,1.85c0.51,1.71,6.79,1.55,8.15-4.28c1.05-4.49-0.14-4.52-0.92-4.19
					c-0.77,0.33-0.11,4.52-2.19,5.75C39.2,138.69,38.16,138.34,38.16,138.34z"/>
				<path class="st27" d="M42.9,132.23c0.46-0.09,0.89,0.11,0.95,0.44c0.06,0.33-0.26,0.67-0.72,0.76
					c-0.46,0.09-0.89-0.11-0.95-0.44C42.11,132.66,42.43,132.32,42.9,132.23z"/>
				<path class="st27" d="M42.85,137.34c0.29,0.37,0.31,0.84,0.04,1.05c-0.27,0.21-0.72,0.08-1.01-0.29
					c-0.29-0.37-0.31-0.84-0.04-1.05C42.11,136.84,42.56,136.97,42.85,137.34z"/>
				<path class="st27" d="M42.92,135.02c0.34,0.1,0.57,0.38,0.5,0.62c-0.07,0.25-0.41,0.37-0.75,0.27c-0.34-0.1-0.57-0.38-0.5-0.62
					C42.24,135.05,42.58,134.92,42.92,135.02z"/>
				<path class="st27" d="M38.93,139.38c0.08,0.35-0.05,0.68-0.3,0.74c-0.25,0.06-0.52-0.17-0.6-0.52c-0.08-0.35,0.05-0.68,0.3-0.74
					C38.58,138.8,38.85,139.03,38.93,139.38z"/>
				<path class="st27" d="M40.67,137.6c0.18,0.31,0.14,0.66-0.08,0.79c-0.22,0.13-0.55-0.02-0.73-0.33
					c-0.18-0.31-0.14-0.66,0.08-0.79C40.17,137.14,40.49,137.29,40.67,137.6z"/>
				<path class="st27" d="M37.03,139.05c-0.02,0.3-0.21,0.53-0.42,0.52c-0.22-0.01-0.38-0.27-0.36-0.57s0.21-0.53,0.42-0.52
					C36.88,138.5,37.05,138.75,37.03,139.05z"/>
				<path class="st27" d="M42.95,138.05c-0.17,0.11-0.44,0-0.62-0.25c-0.17-0.25-0.18-0.55-0.01-0.67s0.44,0,0.62,0.25
					C43.11,137.63,43.12,137.93,42.95,138.05z"/>
				<path class="st27" d="M42.91,132.41c-0.21,0.14-0.29,0.38-0.19,0.53s0.35,0.16,0.56,0.01c0.21-0.14,0.29-0.38,0.19-0.53
					C43.37,132.27,43.12,132.27,42.91,132.41z"/>
				<path class="st27" d="M31.06,130.73c-0.16,0.11-0.41,0.02-0.57-0.21c-0.15-0.22-0.15-0.49,0.01-0.6
					c0.16-0.11,0.41-0.02,0.57,0.21C31.23,130.35,31.22,130.62,31.06,130.73z"/>
				<path class="st27" d="M33.06,129.81c-0.1,0.07-0.27-0.02-0.39-0.19c-0.12-0.17-0.13-0.36-0.04-0.43
					c0.1-0.07,0.27,0.02,0.39,0.19C33.14,129.55,33.16,129.74,33.06,129.81z"/>
				<path class="st27" d="M32.53,135.28c-0.23,0.16-0.5,0.16-0.61,0.01c-0.1-0.15,0-0.4,0.23-0.56c0.23-0.16,0.5-0.16,0.61-0.01
					C32.86,134.87,32.76,135.12,32.53,135.28z"/>
				<path class="st27" d="M34.1,127.5c-0.12,0.08-0.31,0.02-0.42-0.14c-0.11-0.16-0.1-0.36,0.02-0.44c0.12-0.08,0.31-0.02,0.42,0.14
					C34.23,127.22,34.22,127.42,34.1,127.5z"/>
				<path class="st27" d="M35.87,127.04c-0.09,0.06-0.24-0.01-0.35-0.16c-0.1-0.15-0.11-0.32-0.02-0.38
					c0.09-0.06,0.24,0.01,0.35,0.16C35.95,126.81,35.96,126.98,35.87,127.04z"/>
			</g>
		</g>
		<path class="st28" d="M39.09,122.35c0,0,1.24,1.85,0.99,3.15c-0.25,1.3,0.56,1.7,1.16,1.17c0.59-0.53-0.86,1.11,0.41,1.11
			c1.27,0,2.09-1.19,3.74-1.09c0,0-2.22,0.21-3.96-1.23c-0.44-0.36-0.55-0.71-0.91-1.31C39.78,122.95,39.09,122.35,39.09,122.35z"/>
		<path class="st28" d="M38.38,127.95c-0.12,0.09-4.48,2.06-3.07,2.87c1.41,0.81,2.7-1.45,3.51-0.5c0.81,0.94-1.18,4.52,0.19,4.21
			c1.36-0.3,2.55-3.54,1.43-4.91c-1.12-1.36,0.31-1.98-0.61-2.32C38.92,126.96,38.85,127.58,38.38,127.95z"/>
		<path class="st28" d="M26.45,126.64L26.45,126.64c0,0-0.6-0.65-1.02,1.16c-0.43,1.81-2.68,9.02,4.44,14.32
			c7.12,5.3,13.21,2.29,14.39,0.67c1.18-1.62-3.3,3.1-9.4,1.18c-6.1-1.92-9.18-8.77-9.42-11.48
			C25.21,129.76,26.45,126.64,26.45,126.64z"/>
	</g>
	<g>
		<path class="st24" d="M55.42,130.09c0,0,0.01,2.1,2.75,2.49c2.74,0.39,4.43,0.15,7.23,3.37c3.38,3.88,1.12,14.06-7.93,17.51
			C48.43,156.91,55.22,130.74,55.42,130.09z"/>
		<g>
			<g>
				<path class="st25" d="M57.48,153.46c-4.08,1.89-13.4,2.95-18.69-8.77c-0.13-0.3-0.26-0.59-0.37-0.89c0,0,0,0,0,0
					c-0.36-0.96-0.61-1.91-0.75-2.85c-0.79-5.23,1.75-9.82,5.01-12.68c0.05-0.04,0.09-0.08,0.14-0.12c0.31-0.27,0.63-0.52,0.95-0.75
					c0.06-0.04,0.11-0.08,0.17-0.12c0.06-0.04,0.11-0.08,0.17-0.12c2.62-1.8,5.46-2.49,7.32-1.57c2.89,1.43,4.22,3.73,4.84,5.5
					c0.39,1.12,1.35,1.92,2.49,2.12c0.14,0.03,0.29,0.04,0.44,0.05c0.73,0.03,1.55,0.18,2.36,0.55c0,0,0,0,0,0
					c0.98,0.46,1.93,1.26,2.65,2.61c0.05,0.1,0.11,0.21,0.16,0.32c0.36,0.77,0.62,1.55,0.78,2.35
					C66.37,144.99,62.29,151.23,57.48,153.46z"/>
				<path class="st26" d="M58.86,134.18c-1.12-0.01-2.02-0.41-3.03-1.41c-1.11-1.1-1.86-3.68-4.29-4.88
					c-4.35-2.15-14.89,6.42-10.65,16.34c3.9,9.12,12.7,9,16.12,7.41c4.57-2.12,8.76-8.78,6.17-14.27
					C62.12,135.09,60.69,134.19,58.86,134.18z"/>
				<path class="st25" d="M51.67,136.28c0,0,1.73-1.67-0.2-4.31c-1.93-2.63-10.19,3.52-8.75,9.98c1.44,6.46,3.76,5.46,4.78,4.51
					c1.03-0.95,6.48-6.77,5.03-7.71c-0.65-0.42-3.45,4.73-4.15,3.89C47.68,141.8,46.71,136.93,51.67,136.28z"/>
				<path class="st25" d="M60.83,139.06c-1.65-1.66-4.36-1.58-5.97,0.11c-2.73,2.85-6.15,8.26-4.49,10.35
					c2.34,2.94,7.85,0.2,10.67-4.91C62.17,142.55,61.79,140.02,60.83,139.06z"/>
				<path class="st26" d="M57.49,137.76c0,0-2.2,1.41-1.76,3.43c0.44,2.02-2.21,4.16-2.57,2.4c-0.36-1.76-1.05-2.45-1.64-1.3
					C50.93,143.43,54.08,136.19,57.49,137.76z"/>
				<path class="st24" d="M49.3,135.86c0,0,2.17-1.1,1.01-2.46c-1.16-1.36-6.85,1.67-6.75,6.08c0.11,4.61,2.96,5.2,3.53,4.58
					c0.57-0.61-1.71-4.18-0.3-6.14C48.2,135.95,49.3,135.86,49.3,135.86z"/>
				<path class="st27" d="M47.42,143.35c-0.39,0.27-0.86,0.26-1.05-0.02c-0.19-0.28-0.03-0.72,0.35-0.99
					c0.39-0.27,0.86-0.26,1.05,0.02C47.96,142.65,47.8,143.09,47.42,143.35z"/>
				<path class="st27" d="M45.41,138.66c-0.41-0.22-0.62-0.64-0.46-0.94c0.16-0.3,0.63-0.36,1.04-0.14
					c0.41,0.22,0.62,0.64,0.46,0.94C46.29,138.82,45.82,138.88,45.41,138.66z"/>
				<path class="st27" d="M46.27,140.81c-0.35,0.05-0.67-0.12-0.7-0.37c-0.04-0.25,0.22-0.5,0.58-0.55c0.35-0.05,0.67,0.12,0.7,0.37
					C46.89,140.52,46.63,140.76,46.27,140.81z"/>
				<path class="st27" d="M48.17,135.22c-0.22-0.28-0.22-0.64-0.02-0.8c0.2-0.15,0.55-0.05,0.76,0.24c0.22,0.28,0.22,0.64,0.02,0.8
					C48.73,135.61,48.39,135.5,48.17,135.22z"/>
				<path class="st27" d="M47.3,137.55c-0.29-0.21-0.4-0.55-0.24-0.76c0.15-0.21,0.51-0.2,0.8,0.01c0.29,0.21,0.4,0.55,0.24,0.76
					C47.94,137.77,47.58,137.76,47.3,137.55z"/>
				<path class="st27" d="M50.05,134.75c-0.11-0.28-0.03-0.57,0.18-0.65s0.45,0.09,0.56,0.37c0.11,0.28,0.03,0.57-0.18,0.65
					C50.4,135.2,50.15,135.03,50.05,134.75z"/>
				<path class="st24" d="M53.02,146.03c0,0-2.43,0.14-1.92,1.85c0.51,1.71,6.79,1.55,8.15-4.28c1.05-4.49-0.14-4.52-0.92-4.19
					c-0.77,0.33-0.11,4.52-2.19,5.75C54.06,146.39,53.02,146.03,53.02,146.03z"/>
				<path class="st27" d="M57.75,139.93c0.46-0.09,0.89,0.11,0.95,0.44c0.06,0.33-0.26,0.67-0.72,0.76
					c-0.46,0.09-0.89-0.11-0.95-0.44C56.97,140.36,57.29,140.02,57.75,139.93z"/>
				<path class="st27" d="M57.71,145.03c0.29,0.37,0.31,0.84,0.04,1.05c-0.27,0.21-0.72,0.08-1.01-0.29
					c-0.29-0.37-0.31-0.84-0.04-1.05C56.97,144.53,57.42,144.66,57.71,145.03z"/>
				<path class="st27" d="M57.78,142.72c0.34,0.1,0.57,0.38,0.5,0.62c-0.07,0.25-0.41,0.37-0.75,0.27c-0.34-0.1-0.57-0.38-0.5-0.62
					C57.1,142.74,57.43,142.62,57.78,142.72z"/>
				<path class="st27" d="M53.79,147.08c0.08,0.35-0.05,0.68-0.3,0.74c-0.25,0.06-0.52-0.17-0.6-0.52c-0.08-0.35,0.05-0.68,0.3-0.74
					C53.44,146.5,53.71,146.73,53.79,147.08z"/>
				<path class="st27" d="M55.53,145.29c0.18,0.31,0.14,0.66-0.08,0.79c-0.22,0.13-0.55-0.02-0.73-0.33
					c-0.18-0.31-0.14-0.66,0.08-0.79C55.03,144.83,55.35,144.98,55.53,145.29z"/>
				<path class="st27" d="M51.89,146.75c-0.02,0.3-0.21,0.53-0.42,0.52c-0.22-0.01-0.38-0.27-0.36-0.57
					c0.02-0.3,0.21-0.53,0.42-0.52C51.74,146.19,51.9,146.45,51.89,146.75z"/>
				<path class="st27" d="M57.81,145.74c-0.17,0.11-0.44,0-0.62-0.25c-0.17-0.25-0.18-0.55-0.01-0.67c0.17-0.11,0.44,0,0.62,0.25
					C57.97,145.33,57.97,145.63,57.81,145.74z"/>
				<path class="st27" d="M57.77,140.1c-0.21,0.14-0.29,0.38-0.19,0.53c0.1,0.15,0.35,0.16,0.56,0.01c0.21-0.14,0.29-0.38,0.19-0.53
					C58.23,139.97,57.98,139.96,57.77,140.1z"/>
				<path class="st27" d="M45.92,138.42c-0.16,0.11-0.41,0.02-0.57-0.21c-0.15-0.22-0.15-0.49,0.01-0.6
					c0.16-0.11,0.41-0.02,0.57,0.21C46.09,138.04,46.08,138.31,45.92,138.42z"/>
				<path class="st27" d="M47.92,137.5c-0.1,0.07-0.27-0.02-0.39-0.19c-0.12-0.17-0.13-0.36-0.04-0.43c0.1-0.07,0.27,0.02,0.39,0.19
					C48,137.24,48.02,137.43,47.92,137.5z"/>
				<path class="st27" d="M47.39,142.98c-0.23,0.16-0.5,0.16-0.61,0.01c-0.1-0.15,0-0.4,0.23-0.56c0.23-0.16,0.5-0.16,0.61-0.01
					C47.72,142.57,47.62,142.82,47.39,142.98z"/>
				<path class="st27" d="M48.96,135.2c-0.12,0.08-0.31,0.02-0.42-0.14c-0.11-0.16-0.1-0.36,0.02-0.44
					c0.12-0.08,0.31-0.02,0.42,0.14C49.09,134.92,49.08,135.11,48.96,135.2z"/>
				<path class="st27" d="M50.73,134.73c-0.09,0.06-0.24-0.01-0.35-0.16c-0.1-0.15-0.11-0.32-0.02-0.38
					c0.09-0.06,0.24,0.01,0.35,0.16C50.81,134.5,50.82,134.67,50.73,134.73z"/>
			</g>
		</g>
		<path class="st28" d="M53.95,130.05c0,0,1.24,1.85,0.99,3.15c-0.25,1.3,0.56,1.7,1.16,1.17c0.59-0.53-0.86,1.11,0.41,1.11
			c1.27,0,2.09-1.19,3.74-1.09c0,0-2.22,0.21-3.96-1.23c-0.44-0.36-0.55-0.71-0.91-1.31C54.64,130.65,53.95,130.05,53.95,130.05z"/>
		<path class="st28" d="M53.24,135.64c-0.12,0.09-4.48,2.06-3.07,2.87c1.41,0.81,2.7-1.45,3.51-0.5c0.81,0.94-1.18,4.52,0.19,4.21
			c1.36-0.3,2.55-3.54,1.43-4.91c-1.12-1.36,0.31-1.98-0.61-2.32C53.78,134.65,53.7,135.28,53.24,135.64z"/>
		<path class="st28" d="M41.31,134.33L41.31,134.33c0,0-0.6-0.65-1.02,1.16c-0.43,1.81-2.68,9.02,4.44,14.32
			c7.12,5.3,13.21,2.28,14.39,0.67c1.18-1.62-3.3,3.1-9.4,1.18c-6.1-1.92-9.18-8.77-9.42-11.48
			C40.06,137.45,41.31,134.33,41.31,134.33z"/>
	</g>
	<g>
		<path class="st12" d="M68.21,121.75c0.32,0.54,0.64,1.12,0.92,1.74c1.59,3.47,1.74,6.8,0.33,7.45c-1.41,0.65-3.85-1.64-5.44-5.11
			c-0.35-0.76-0.63-1.51-0.84-2.23c0.26,1.2,0.7,2.53,1.32,3.88c1.87,4.07,4.62,6.79,6.15,6.09c1.52-0.7,1.25-4.56-0.62-8.63
			C69.49,123.75,68.86,122.67,68.21,121.75z"/>
		<path class="st13" d="M67.07,122.42c-0.86-1.1-1.73-1.68-2.3-1.42c-0.29,0.13-0.46,0.47-0.53,0.95c-0.26-1.17-0.22-2.02,0.17-2.2
			C64.96,119.5,66.04,120.63,67.07,122.42z"/>
		<path class="st14" d="M68.21,121.75c-1.55-2.18-3.24-3.39-4.31-2.9c-1.02,0.47-1.24,2.33-0.71,4.72c0,0.01,0,0.02,0,0.02
			c0.21,0.72,0.49,1.47,0.84,2.23c1.59,3.47,4.02,5.76,5.44,5.11c1.41-0.65,1.26-3.99-0.33-7.45
			C68.85,122.87,68.54,122.29,68.21,121.75z M68.77,129.25c-0.69,0.32-2.23-1.55-3.43-4.17c-0.52-1.14-0.89-2.23-1.09-3.13
			c-0.26-1.17-0.22-2.02,0.17-2.2c0.55-0.25,1.63,0.87,2.66,2.66c0.26,0.46,0.52,0.97,0.77,1.51
			C69.04,126.54,69.46,128.93,68.77,129.25z"/>
	</g>
	<path class="st29" d="M156.23,135.11c-1.11,3.34-3.37,6.27-6.39,8.44c-0.28,0.21-0.57,0.4-0.87,0.59c-0.82,0.53-1.69,1.01-2.6,1.43
		c-2.81,1.29-6.03,2.02-9.44,2.02c-2.87,0-5.6-0.52-8.07-1.45c-0.17-0.06-0.33-0.12-0.5-0.19c-3.37-1.36-6.23-3.52-8.25-6.17
		l8.49-5.02l4.82-2.85l13.73-8.12l1.7-1l3.54-2.1c0.29,0.46,0.58,0.93,0.86,1.41C155.59,126.23,156.53,130.73,156.23,135.11z"/>
</g>
</svg>
