<svg xmlns="http://www.w3.org/2000/svg" width="691" height="691" viewBox="0 0 691 691"><defs><style>.a,.k{fill:#009ba4;}.b,.c,.j{fill:none;}.b{stroke:#fbb03b;}.b,.c,.e,.f,.g,.h{stroke-miterlimit:10;}.b,.c{stroke-width:8px;}.c,.g,.h{stroke:#fff;}.d,.e{fill:#fbb03b;}.f,.g,.h{fill:#fff;}.g{font-size:51px;font-family:CooperBlack, Cooper;}.h{stroke-linecap:round;stroke-width:4px;}.i,.k{stroke:none;}</style></defs><g transform="translate(-291.5 -167.5)"><circle class="a" cx="345.5" cy="345.5" r="345.5" transform="translate(291.5 167.5)"/><g class="b" transform="translate(312.5 188.5)"><circle class="i" cx="324.5" cy="324.5" r="324.5"/><circle class="j" cx="324.5" cy="324.5" r="328.5"/></g><g class="c" transform="translate(402 278)"><circle class="i" cx="235" cy="235" r="235"/><circle class="j" cx="235" cy="235" r="231"/></g><path class="d" d="M624,776c-10.05,0-16,1-25,1v26c193,2,323-116,319-292C921.343,658.084,787,776,624,776Z"/><g class="e"><path class="i" d="M 597 726.0018310546875 L 597 724 L 597 536 L 597 535.503662109375 L 597.2320556640625 535.0648803710938 L 661.2320556640625 414.0648803710938 L 661.246337890625 414.0379333496094 L 661.261474609375 414.0113830566406 L 690.2398071289063 363.0494689941406 C 690.4563598632813 362.6275329589844 692.1268310546875 359.4040832519531 695.0869140625 354.5251159667969 C 697.9523315429688 349.8022766113281 702.6141967773438 342.5838317871094 708.5514526367188 335.0155639648438 C 715.2447509765625 326.4833984375 722.1644897460938 319.2510070800781 729.1185302734375 313.5191650390625 C 737.887939453125 306.2910766601563 746.7516479492188 301.4307861328125 755.4627075195313 299.0734558105469 C 756.0632934570313 298.9002380371094 769.2846069335938 295.10888671875 787.6519165039063 291.3714904785156 C 798.6410522460938 289.135498046875 809.3041381835938 287.3535461425781 819.34521484375 286.0751647949219 C 831.9190673828125 284.4743957519531 843.5525512695313 283.6627197265625 853.922607421875 283.6627197265625 C 857.80908203125 283.6627197265625 861.5789184570313 283.7775573730469 865.1273803710938 284.0040588378906 L 866.6746215820313 284.1028442382813 L 866.9646606445313 285.6257629394531 C 867.0084838867188 285.85595703125 868.0233764648438 291.33740234375 866.7095947265625 297.7749328613281 C 865.926025390625 301.6146545410156 864.474853515625 305.0048217773438 862.396484375 307.8512878417969 C 859.7828979492188 311.4307250976563 856.1924438476563 314.1266174316406 851.7249145507813 315.864013671875 L 851.7073364257813 315.8708190917969 L 851.6896362304688 315.8773193359375 C 851.5679321289063 315.9220581054688 839.3344116210938 320.4408874511719 824.3521118164063 327.9349975585938 C 810.6101684570313 334.8087158203125 791.67919921875 345.6604919433594 779.4868774414063 358.3391723632813 C 778.7906494140625 359.1651000976563 769.5043334960938 370.1958618164063 758.0547485351563 384.5081787109375 C 747.1350708007813 398.157958984375 731.9586791992188 417.668701171875 721.6688232421875 433.102294921875 L 637.9990234375 561.0115966796875 C 637.983642578125 570.1076049804688 637.7999877929688 678.9561767578125 637.7999877929688 679.7999877929688 C 637.7999877929688 689.1726684570313 645.423828125 696.7981567382813 654.7960815429688 696.7999877929688 C 654.8120727539063 696.7994384765625 654.852294921875 696.7965087890625 654.8819580078125 696.7943725585938 C 654.95947265625 696.788818359375 655.055908203125 696.7819213867188 655.1685791015625 696.7794799804688 L 655.325439453125 696.7760620117188 L 655.48095703125 696.7971801757813 C 658.9630126953125 697.2697143554688 662.164794921875 698.9857788085938 664.49658203125 701.6292114257813 C 666.8525390625 704.3001708984375 668.1500854492188 707.7346801757813 668.1500854492188 711.2999877929688 C 668.1500854492188 715.2129516601563 666.6260986328125 718.891845703125 663.8590087890625 721.658935546875 C 661.0918579101563 724.426025390625 657.4129638671875 725.9500122070313 653.5 725.9500122070313 C 653.2794189453125 725.9500732421875 599.5446166992188 725.99951171875 599.0018310546875 726 L 597 726.0018310546875 Z"/><path class="k" d="M 853.922607421875 285.6627197265625 C 808.8278198242188 285.662109375 756 301 756 301 C 719 311 692 364 692 364 L 663 415 L 599 536 L 599 724 C 599 724 653.3309936523438 723.9500122070313 653.5 723.9500122070313 C 660.4860229492188 723.9500122070313 666.1500244140625 718.2860107421875 666.1500244140625 711.2999877929688 C 666.1500244140625 704.89599609375 661.3870239257813 699.6170043945313 655.2119750976563 698.7789916992188 C 655.073974609375 698.781982421875 654.9390258789063 698.7999877929688 654.7999877929688 698.7999877929688 C 644.3070068359375 698.7999877929688 635.7999877929688 690.29296875 635.7999877929688 679.7999877929688 C 635.7999877929688 678.9119873046875 636 560.4140014648438 636 560.4140014648438 L 720 432 C 740 402 778 357 778 357 C 802 332 851 314 851 314 C 869 307 865 286 865 286 C 861.385498046875 285.769287109375 857.6795043945313 285.6627807617188 853.922607421875 285.6627197265625 M 853.919677734375 281.6627197265625 L 853.919677734375 285.6627197265625 L 853.9208374023438 281.6627197265625 C 857.8529052734375 281.6627807617188 861.6656494140625 281.7789916992188 865.2548217773438 282.0081176757813 L 868.3491821289063 282.2056884765625 L 868.9293212890625 285.2515258789063 C 868.9761962890625 285.4976196289063 870.0609741210938 291.3551635742188 868.669189453125 298.1748657226563 C 867.8277587890625 302.2981567382813 866.2607421875 305.9505615234375 864.01171875 309.0306396484375 C 861.169189453125 312.9236450195313 857.2791748046875 315.8499145507813 852.4498291015625 317.72802734375 L 852.4146728515625 317.7416381835938 L 852.3792724609375 317.754638671875 C 852.2586669921875 317.7990112304688 840.093505859375 322.2944946289063 825.20458984375 329.744873046875 C 805.7572021484375 339.4762573242188 790.4663696289063 349.8248901367188 780.9739990234375 359.6781005859375 C 780.0155639648438 360.8157348632813 770.8571166992188 371.7062377929688 759.609375 385.766357421875 C 748.7188110351563 399.3800659179688 733.5875854492188 418.83203125 723.3392333984375 434.2022705078125 L 639.9979858398438 561.6091918945313 C 639.97705078125 574.0347900390625 639.7999877929688 678.9730834960938 639.7999877929688 679.7999877929688 C 639.7999877929688 688.048828125 646.49365234375 694.7638549804688 654.734130859375 694.7998657226563 L 654.7386474609375 694.799560546875 C 654.8278198242188 694.7930908203125 654.9624633789063 694.783447265625 655.1250610351563 694.7799072265625 L 655.4388427734375 694.7731323242188 L 655.7499389648438 694.8153076171875 C 659.7079467773438 695.3524780273438 663.3468627929688 697.302490234375 665.9963989257813 700.3062133789063 C 668.6748657226563 703.3427734375 670.1500244140625 707.2471313476563 670.1500244140625 711.2999877929688 C 670.1500244140625 713.5458984375 669.709228515625 715.726806640625 668.8397827148438 717.7821044921875 C 668.0009765625 719.76513671875 666.801025390625 721.5452880859375 665.273193359375 723.0732421875 C 663.745361328125 724.6010131835938 661.9651489257813 725.801025390625 659.9820556640625 726.6397705078125 C 657.9268188476563 727.5091552734375 655.745849609375 727.9500122070313 653.5 727.9500122070313 C 653.22314453125 727.9501342773438 599.5458374023438 727.99951171875 599.003662109375 728 L 595 728.003662109375 L 595 724 L 595 536 L 595 535.00732421875 L 595.464111328125 534.1297607421875 L 659.464111328125 413.1298217773438 L 659.49267578125 413.0758666992188 L 659.5228881835938 413.0228271484375 L 688.4802856445313 362.0977172851563 C 688.7756958007813 361.5244750976563 690.4651489257813 358.2872314453125 693.3770751953125 353.4876708984375 C 696.2708129882813 348.7180786132813 700.9793701171875 341.427490234375 706.9778442382813 333.7811279296875 C 713.7600708007813 325.1356201171875 720.78125 317.7992553710938 727.8464965820313 311.9758911132813 C 736.8314208984375 304.5701293945313 745.940673828125 299.5814208984375 754.9228515625 297.1475830078125 C 755.7311401367188 296.9149780273438 768.9613037109375 293.1336669921875 787.2523193359375 289.4116821289063 C 798.289306640625 287.1658935546875 809.0014038085938 285.3757934570313 819.0909423828125 284.0911865234375 C 831.747802734375 282.4797973632813 843.4658813476563 281.6627197265625 853.919677734375 281.6627197265625 Z"/></g><g class="f"><path class="i" d="M 596.1890258789063 726.0018920898438 L 594.1871948242188 726 C 593.6444091796875 725.99951171875 539.9096069335938 725.9500732421875 539.6889038085938 725.9500122070313 C 535.7760620117188 725.9500122070313 532.09716796875 724.4260864257813 529.330078125 721.658935546875 C 526.5629272460938 718.891845703125 525.0390014648438 715.2129516601563 525.0390014648438 711.2999877929688 C 525.0390014648438 707.7348022460938 526.336669921875 704.30029296875 528.6929321289063 701.6292114257813 C 531.0247192382813 698.9857788085938 534.2263793945313 697.2697143554688 537.7080078125 696.7971801757813 L 537.8634033203125 696.7760620117188 L 538.0201416015625 696.7794799804688 C 538.1336669921875 696.7819213867188 538.2305297851563 696.7888793945313 538.3082885742188 696.79443359375 C 538.3377075195313 696.796630859375 538.3776245117188 696.7994995117188 538.3932495117188 696.7999877929688 C 547.7637939453125 696.7981567382813 555.3861694335938 689.176025390625 555.3889770507813 679.8057250976563 C 555.3871459960938 679.49462890625 555.2575073242188 668.6956787109375 555.1891479492188 663.0241088867188 L 555.1890258789063 663.0120239257813 L 555.1890258789063 663 L 555.1890258789063 561.02880859375 L 531.4893188476563 526.1234741210938 L 472.3593139648438 439.1439514160156 C 472.1105346679688 438.796142578125 468.4637756347656 433.7015380859375 464.5210571289063 428.4447326660156 C 462.1423645019531 425.2732238769531 460.1247253417969 422.6663513183594 458.5242004394531 420.696533203125 C 455.8072814941406 417.3528747558594 455.0206909179688 416.7508239746094 454.8905944824219 416.6640930175781 C 454.5175476074219 416.4154052734375 454.1504821777344 416.1404113769531 453.7618408203125 415.8492126464844 C 450.8416137695313 413.6615600585938 445.9540710449219 410 427 410 C 419.2956848144531 410 413.7291870117188 410 409.8431396484375 408.9280090332031 C 407.5536804199219 408.2964172363281 405.8909606933594 407.2949523925781 404.7600708007813 405.8663940429688 C 403.5943908691406 404.3939819335938 403.018310546875 402.5119323730469 403.0004577636719 400.1155090332031 C 402.9369506835938 399.4229431152344 402.9635925292969 397.5314636230469 404.6882934570313 395.3755798339844 C 406.9736633300781 392.5188598632813 411.3092346191406 390.3891906738281 417.5742492675781 389.0458374023438 L 476.4810180664063 376.06640625 C 477.1461486816406 375.8597412109375 480.5646057128906 374.87890625 485.5072326660156 374.87890625 C 488.3645935058594 374.87890625 491.2230224609375 375.206787109375 494.0030517578125 375.8534240722656 C 497.4322814941406 376.6510925292969 500.7604675292969 377.9401245117188 503.8952331542969 379.684814453125 C 511.71875 384.0390930175781 518.4007568359375 391.2247619628906 523.7557983398438 401.0423278808594 C 542.212646484375 434.8800048828125 595.4161987304688 534.0567626953125 595.9514770507813 535.0545654296875 L 596.1890258789063 535.4974365234375 L 596.1890258789063 536 L 596.1890258789063 724 L 596.1890258789063 726.0018920898438 Z"/><path class="k" d="M 485.5072021484375 376.87890625 C 480.3626708984375 376.8787231445313 477 378 477 378 L 418 391 C 404 394 405 400 405 400 C 405 408 412 408 427 408 C 449.0230102539063 408 453 413 456 415 C 459 417 474 438 474 438 L 533.1439819335938 525 L 557.1890258789063 560.4140014648438 L 557.1890258789063 663 C 557.1890258789063 663 557.3889770507813 679.593017578125 557.3889770507813 679.7999877929688 C 557.3889770507813 690.29296875 548.8829956054688 698.7999877929688 538.3889770507813 698.7999877929688 C 538.25 698.7999877929688 538.1160278320313 698.781982421875 537.9769897460938 698.7789916992188 C 531.802978515625 699.6170043945313 527.0390014648438 704.89599609375 527.0390014648438 711.2999877929688 C 527.0390014648438 718.2860107421875 532.7030029296875 723.9500122070313 539.6890258789063 723.9500122070313 C 539.8580322265625 723.9500122070313 594.1890258789063 724 594.1890258789063 724 L 594.1890258789063 536 C 594.1890258789063 536 540.6669921875 436.2230224609375 522 402 C 510.3533935546875 380.6478881835938 494.9378051757813 376.8792114257813 485.5072021484375 376.87890625 M 485.506103515625 372.87890625 L 485.506103515625 376.87890625 L 485.5064697265625 372.87890625 C 488.5170288085938 372.8790283203125 491.5278930664063 373.2244262695313 494.4561462402344 373.9055786132813 C 498.0670776367188 374.7455444335938 501.5700988769531 376.1019897460938 504.8678283691406 377.9373779296875 C 513.0270385742188 382.4783935546875 519.9725341796875 389.9298706054688 525.5115966796875 400.0845947265625 C 543.9716796875 433.9283447265625 597.1785888671875 533.111328125 597.7139282226563 534.1091918945313 L 598.1890258789063 534.994873046875 L 598.1890258789063 536 L 598.1890258789063 724 L 598.1890258789063 728.003662109375 L 594.1853637695313 728 C 593.6431884765625 727.99951171875 539.9658813476563 727.9500732421875 539.688232421875 727.9500122070313 C 537.443115234375 727.9500122070313 535.26220703125 727.5092163085938 533.2069091796875 726.6398315429688 C 531.2238159179688 725.801025390625 529.4436645507813 724.6010131835938 527.9158325195313 723.0731201171875 C 526.3880004882813 721.54541015625 525.18798828125 719.76513671875 524.34912109375 717.7820434570313 C 523.479736328125 715.726806640625 523.0390014648438 713.5458984375 523.0390014648438 711.2999877929688 C 523.0390014648438 707.2471923828125 524.5142822265625 703.3428344726563 527.1930541992188 700.3060913085938 C 529.8426513671875 697.302490234375 533.4814453125 695.3525390625 537.43896484375 694.8153686523438 L 537.749755859375 694.773193359375 L 538.063232421875 694.7799072265625 C 538.22705078125 694.783447265625 538.3623046875 694.793212890625 538.4517822265625 694.7996215820313 L 538.4549560546875 694.7998657226563 C 546.6919555664063 694.7638549804688 553.3832397460938 688.05517578125 553.3889770507813 679.8111572265625 C 553.3848876953125 679.320556640625 553.2568969726563 668.654052734375 553.1893310546875 663.0482177734375 L 553.1890258789063 663.0241088867188 L 553.1890258789063 663 L 553.1890258789063 561.6436157226563 L 529.8346557617188 527.2468872070313 L 470.7180786132813 440.2872314453125 C 470.3789672851563 439.8132934570313 466.929443359375 434.9979248046875 463.15234375 429.9534301757813 C 455.939453125 420.3202514648438 454.0733642578125 418.5736083984375 453.7322998046875 418.2954711914063 C 453.33203125 418.0262451171875 452.9578857421875 417.7459716796875 452.5626831054688 417.4498901367188 C 451.13330078125 416.3790893554688 449.5132446289063 415.1654052734375 446.02197265625 414.0928955078125 C 441.50146484375 412.7041625976563 435.1015014648438 412 427 412 C 419.1384887695313 412 413.4583740234375 412 409.311279296875 410.85595703125 C 406.5975952148438 410.1073608398438 404.5960083007813 408.88134765625 403.1919555664063 407.1077880859375 C 401.754638671875 405.2922973632813 401.0370483398438 403.0382690429688 401.0014038085938 400.2224731445313 C 400.8743286132813 398.6369018554688 401.3666381835938 396.3261108398438 403.1265258789063 394.126220703125 C 405.7064208984375 390.9013061523438 410.4241943359375 388.5345458984375 417.147705078125 387.0918579101563 L 475.9668579101563 374.1316528320313 C 476.9359130859375 373.835693359375 480.4591064453125 372.87890625 485.506103515625 372.87890625 Z"/></g><rect class="a" width="450" height="69" rx="4.025" transform="translate(412 593)"/><text class="g" transform="translate(425.773 590.043)"><tspan x="0" y="47">YUMMYMAKER</tspan></text><line class="h" x2="417" transform="translate(428 599)"/><line class="h" x2="417" transform="translate(428 655)"/></g></svg>