<?xml version="1.0" encoding="utf-8"?>
<!-- Generator: Adobe Illustrator 25.2.0, SVG Export Plug-In . SVG Version: 6.00 Build 0)  -->
<svg version="1.1" id="Layer_1" xmlns="http://www.w3.org/2000/svg" xmlns:xlink="http://www.w3.org/1999/xlink" x="0px" y="0px"
	 viewBox="0 0 200 200" style="enable-background:new 0 0 200 200;" xml:space="preserve">
<style type="text/css">
	.st0{filter:url(#Adobe_OpacityMaskFilter);}
	.st1{filter:url(#Adobe_OpacityMaskFilter_1_);}
	.st2{mask:url(#SVGID_1_);fill:url(#SVGID_2_);}
	.st3{fill:url(#SVGID_3_);}
	.st4{fill-rule:evenodd;clip-rule:evenodd;fill:#E6E8E8;}
	.st5{opacity:0.4;fill-rule:evenodd;clip-rule:evenodd;fill:#FFFFFF;}
	.st6{opacity:0.7;}
	.st7{clip-path:url(#SVGID_5_);fill:#E6E8E8;}
	.st8{clip-path:url(#SVGID_5_);fill:#E7E9E9;}
	.st9{clip-path:url(#SVGID_5_);fill:#E8EAEA;}
	.st10{clip-path:url(#SVGID_5_);fill:#E9EBEB;}
	.st11{clip-path:url(#SVGID_5_);fill:#EAECEC;}
	.st12{clip-path:url(#SVGID_5_);fill:#EBEDED;}
	.st13{clip-path:url(#SVGID_5_);fill:#ECEEEE;}
	.st14{clip-path:url(#SVGID_5_);fill:#EDEFEF;}
	.st15{clip-path:url(#SVGID_5_);fill:#EEF0F0;}
	.st16{clip-path:url(#SVGID_5_);fill:#EFF1F1;}
	.st17{clip-path:url(#SVGID_5_);fill:#F0F2F2;}
	.st18{clip-path:url(#SVGID_5_);fill:#F1F3F3;}
	.st19{clip-path:url(#SVGID_5_);fill:#F3F4F4;}
	.st20{clip-path:url(#SVGID_5_);fill:#F4F4F4;}
	.st21{clip-path:url(#SVGID_5_);fill:#F5F5F5;}
	.st22{clip-path:url(#SVGID_5_);fill:#F6F6F6;}
	.st23{clip-path:url(#SVGID_5_);fill:#F7F7F7;}
	.st24{clip-path:url(#SVGID_5_);fill:#F8F8F8;}
	.st25{clip-path:url(#SVGID_5_);fill:#F9F9F9;}
	.st26{clip-path:url(#SVGID_5_);fill:#FAFAFA;}
	.st27{clip-path:url(#SVGID_5_);fill:#FBFBFB;}
	.st28{clip-path:url(#SVGID_5_);fill:#FCFCFC;}
	.st29{clip-path:url(#SVGID_5_);fill:#FDFDFD;}
	.st30{clip-path:url(#SVGID_5_);fill:#FEFEFE;}
	.st31{clip-path:url(#SVGID_5_);fill:#FFFFFF;}
	.st32{fill-rule:evenodd;clip-rule:evenodd;fill:#DFE1E3;}
	.st33{opacity:0.1;fill-rule:evenodd;clip-rule:evenodd;fill:#CACCCD;}
	.st34{opacity:0.2;fill-rule:evenodd;clip-rule:evenodd;fill:#FFFFFF;}
	.st35{opacity:0.55;fill:#FFFFFF;}
	.st36{fill:#B1EA00;}
	.st37{fill:#FFE736;}
	.st38{fill:#D89705;}
	.st39{fill:#F04220;}
	.st40{fill:#D37026;}
	.st41{fill:#D19F00;}
	.st42{fill:#A04507;}
	.st43{fill:#9EC400;}
	.st44{fill:#D31F07;}
	.st45{fill:#F2CA06;}
	.st46{fill:#FFC943;}
	.st47{fill:#FFF9CC;}
	.st48{fill:#F7AB1C;}
	.st49{fill:#D7FF31;}
	.st50{fill:#723206;}
	.st51{fill:#FF725F;}
	.st52{fill:#E52815;}
	.st53{fill:#A30F00;}
	.st54{fill:#E59055;}
	.st55{fill:#6A7C00;}
	.st56{fill:#FFF27D;}
	.st57{fill:#FCA800;}
	.st58{fill:#FCBA1C;}
	.st59{fill:#C27305;}
	.st60{fill:#EFB207;}
	.st61{fill:#B35C07;}
	.st62{fill:#98BC00;}
	.st63{fill:#AD581E;}
	.st64{fill:#FFDB06;}
	.st65{fill:#D68F3B;}
	.st66{fill:#E6B505;}
	.st67{fill:#D35205;}
	.st68{fill:#737A00;}
	.st69{fill:#F2E891;}
	.st70{fill:#FFD682;}
	.st71{fill:#FFFFFF;}
</style>
<g>
	<defs>
		<filter id="Adobe_OpacityMaskFilter" filterUnits="userSpaceOnUse" x="-11.82" y="70.85" width="223.64" height="81.82">
			<feFlood  style="flood-color:white;flood-opacity:1" result="back"/>
			<feBlend  in="SourceGraphic" in2="back" mode="normal"/>
		</filter>
	</defs>
	<mask maskUnits="userSpaceOnUse" x="-11.82" y="70.85" width="223.64" height="81.82" id="SVGID_1_">
		<g class="st0">
			<defs>
				<filter id="Adobe_OpacityMaskFilter_1_" filterUnits="userSpaceOnUse" x="-11.82" y="70.85" width="223.64" height="81.82">
					<feFlood  style="flood-color:white;flood-opacity:1" result="back"/>
					<feBlend  in="SourceGraphic" in2="back" mode="normal"/>
				</filter>
			</defs>
			<mask maskUnits="userSpaceOnUse" x="-11.82" y="70.85" width="223.64" height="81.82" id="SVGID_1_">
			</mask>
			
				<radialGradient id="SVGID_2_" cx="102.2388" cy="-110.8818" r="65.7569" gradientTransform="matrix(1.7006 0 0 0.6221 -73.8673 180.7397)" gradientUnits="userSpaceOnUse">
				<stop  offset="0" style="stop-color:#FFFFFF"/>
				<stop  offset="0.0876" style="stop-color:#F8F8F8"/>
				<stop  offset="0.2166" style="stop-color:#E4E4E4"/>
				<stop  offset="0.3711" style="stop-color:#C4C4C4"/>
				<stop  offset="0.5453" style="stop-color:#969696"/>
				<stop  offset="0.7361" style="stop-color:#5C5C5C"/>
				<stop  offset="0.9378" style="stop-color:#171717"/>
				<stop  offset="1" style="stop-color:#000000"/>
			</radialGradient>
			<path class="st2" d="M211.82,111.76c0,22.59-50.06,40.91-111.82,40.91c-61.76,0-111.82-18.32-111.82-40.91
				c0-22.59,50.06-40.91,111.82-40.91C161.76,70.85,211.82,89.17,211.82,111.76z"/>
		</g>
	</mask>
	
		<radialGradient id="SVGID_3_" cx="102.2388" cy="-110.8818" r="65.7569" gradientTransform="matrix(1.7006 0 0 0.6221 -73.8673 180.7397)" gradientUnits="userSpaceOnUse">
		<stop  offset="0" style="stop-color:#0D0B06"/>
		<stop  offset="0.0891" style="stop-color:#14120D"/>
		<stop  offset="0.2201" style="stop-color:#272521"/>
		<stop  offset="0.3771" style="stop-color:#474541"/>
		<stop  offset="0.5541" style="stop-color:#73716F"/>
		<stop  offset="0.748" style="stop-color:#ABAAA9"/>
		<stop  offset="0.953" style="stop-color:#EEEEEE"/>
		<stop  offset="1" style="stop-color:#FFFFFF"/>
	</radialGradient>
	<path class="st3" d="M211.82,111.76c0,22.59-50.06,40.91-111.82,40.91c-61.76,0-111.82-18.32-111.82-40.91
		c0-22.59,50.06-40.91,111.82-40.91C161.76,70.85,211.82,89.17,211.82,111.76z"/>
	<g>
		<g>
			<path class="st4" d="M181.09,94.52c0,22.48-38.18,40.7-85.29,40.7c-47.1,0-85.29-18.22-85.29-40.7
				c0-22.48,38.19-40.69,85.29-40.69C142.9,53.83,181.09,72.04,181.09,94.52z"/>
			<g>
				<g>
					<path class="st4" d="M166.38,71.67c7.87,6.22,12.41,13.56,12.41,21.41c0,22.48-37.16,40.7-83,40.7c-45.84,0-83-18.22-83-40.7
						c0-7.86,4.55-15.19,12.42-21.41C15.92,78.18,10.5,86.05,10.5,94.52c0,22.48,38.19,40.7,85.29,40.7
						c47.11,0,85.29-18.22,85.29-40.7C181.09,86.05,175.66,78.18,166.38,71.67z"/>
				</g>
				<g>
					<path class="st5" d="M25.21,71.67c-4.81,3.37-8.58,7.11-11.1,11.11c-1.67,3.25-2.56,6.65-2.56,10.15
						c0,22.82,37.72,41.31,84.25,41.31c46.53,0,84.25-18.5,84.25-41.31c0-3.5-0.89-6.9-2.56-10.15c-2.52-4-6.29-7.74-11.1-11.11
						c7.87,6.22,12.41,13.56,12.41,21.41c0,22.48-37.16,40.7-83,40.7c-45.84,0-83-18.22-83-40.7
						C12.79,85.23,17.34,77.89,25.21,71.67z"/>
				</g>
			</g>
		</g>
		<g>
			<g>
				<g class="st6">
					<g>
						<defs>
							<path id="SVGID_4_" d="M149.89,95c0,14.8-24.22,26.8-54.09,26.8c-29.87,0-54.09-12-54.09-26.8c0-14.8,24.22-26.8,54.09-26.8
								C125.67,68.2,149.89,80.2,149.89,95z"/>
						</defs>
						<clipPath id="SVGID_5_">
							<use xlink:href="#SVGID_4_"  style="overflow:visible;"/>
						</clipPath>
						<rect x="41.71" y="68.2" class="st7" width="108.18" height="53.6"/>
						<path class="st7" d="M42.78,104.17C41.52,93.19,57.58,81.25,78.61,77.5c21.06-3.75,39.13,2.13,40.37,13.11
							c1.25,11-14.79,22.94-35.85,26.69C62.09,121.03,44.03,115.17,42.78,104.17z"/>
						<path class="st8" d="M44.3,103.91c-1.2-10.56,14.21-22.03,34.41-25.63c20.2-3.59,37.57,2.05,38.75,12.6
							c1.2,10.54-14.21,22.01-34.41,25.6C62.84,120.08,45.49,114.45,44.3,103.91z"/>
						<path class="st9" d="M45.83,103.64C44.68,93.53,59.44,82.53,78.8,79.1c19.37-3.45,35.99,1.95,37.14,12.06
							c1.15,10.11-13.63,21.08-32.98,24.54C63.6,119.15,46.98,113.74,45.83,103.64z"/>
						<path class="st10" d="M47.34,103.36c-1.09-9.67,13.03-20.18,31.56-23.47c18.52-3.3,34.41,1.88,35.52,11.53
							c1.1,9.67-13.03,20.2-31.54,23.47C64.36,118.21,48.44,113.03,47.34,103.36z"/>
						<path class="st11" d="M48.87,103.08c-1.04-9.22,12.43-19.25,30.11-22.41c17.68-3.14,32.87,1.8,33.92,11.02
							c1.04,9.22-12.44,19.27-30.12,22.41C65.1,117.26,49.93,112.32,48.87,103.08z"/>
						<path class="st12" d="M50.4,102.83c-1.01-8.79,11.84-18.34,28.67-21.34c16.84-3,31.31,1.7,32.3,10.48
							c0.99,8.79-11.84,18.34-28.69,21.34C65.86,116.31,51.39,111.61,50.4,102.83z"/>
						<path class="st13" d="M51.91,102.55c-0.95-8.35,11.26-17.43,27.25-20.27c15.99-2.84,29.73,1.62,30.68,9.95
							c0.95,8.37-11.25,17.45-27.24,20.29C66.6,115.36,52.88,110.9,51.91,102.55z"/>
						<path class="st14" d="M53.44,102.27c-0.9-7.92,10.66-16.5,25.8-19.21c15.17-2.69,28.17,1.54,29.08,9.44
							c0.88,7.92-10.66,16.52-25.82,19.21C67.35,114.42,54.34,110.19,53.44,102.27z"/>
						<path class="st15" d="M54.97,102.02c-0.85-7.48,10.06-15.6,24.37-18.16c14.32-2.53,26.61,1.46,27.46,8.92
							c0.85,7.46-10.06,15.6-24.38,18.14C68.11,113.47,55.81,109.48,54.97,102.02z"/>
						<path class="st16" d="M56.49,101.74c-0.79-7.03,9.48-14.69,22.95-17.08c13.47-2.41,25.04,1.36,25.83,8.39
							c0.8,7.03-9.46,14.67-22.93,17.08C68.87,112.52,57.29,108.77,56.49,101.74z"/>
						<path class="st17" d="M58.02,101.46c-0.76-6.59,8.88-13.76,21.51-16.01c12.62-2.25,23.47,1.28,24.22,7.88
							c0.74,6.59-8.89,13.74-21.51,15.99C69.61,111.57,58.77,108.06,58.02,101.46z"/>
						<path class="st18" d="M59.55,101.19c-0.71-6.16,8.28-12.83,20.08-14.92c11.78-2.11,21.89,1.18,22.6,7.32
							c0.69,6.16-8.3,12.85-20.08,14.94C70.37,110.62,60.24,107.35,59.55,101.19z"/>
						<path class="st19" d="M61.06,100.91c-0.65-5.71,7.7-11.92,18.64-13.86c10.94-1.95,20.35,1.11,20.99,6.81
							c0.65,5.7-7.7,11.92-18.64,13.88C71.11,109.68,61.71,106.64,61.06,100.91z"/>
						<path class="st20" d="M62.59,100.66c-0.6-5.27,7.1-11.02,17.21-12.81c10.11-1.8,18.78,1.03,19.38,6.3
							c0.6,5.27-7.11,10.99-17.22,12.81C71.86,108.73,63.19,105.93,62.59,100.66z"/>
						<path class="st21" d="M64.11,100.38c-0.54-4.84,6.53-10.09,15.79-11.75c9.26-1.64,17.21,0.95,17.76,5.76
							c0.55,4.86-6.51,10.11-15.77,11.75C72.62,107.8,64.67,105.22,64.11,100.38z"/>
						<path class="st22" d="M65.63,100.1c-0.49-4.4,5.93-9.18,14.34-10.66c8.42-1.5,15.65,0.85,16.15,5.23
							c0.51,4.4-5.91,9.18-14.34,10.68C73.36,106.85,66.14,104.51,65.63,100.1z"/>
						<path class="st23" d="M67.16,99.85c-0.44-3.97,5.33-8.27,12.9-9.61c7.57-1.34,14.08,0.77,14.54,4.72
							c0.44,3.95-5.33,8.25-12.92,9.59C74.12,105.91,67.61,103.79,67.16,99.85z"/>
						<path class="st24" d="M68.68,99.57c-0.39-3.51,4.75-7.34,11.48-8.55c6.73-1.21,12.52,0.69,12.92,4.2
							c0.39,3.52-4.73,7.34-11.47,8.53C74.86,104.96,69.09,103.08,68.68,99.57z"/>
						<path class="st25" d="M70.21,99.29c-0.35-3.08,4.15-6.42,10.05-7.46c5.88-1.07,10.94,0.59,11.29,3.67
							c0.35,3.06-4.13,6.42-10.03,7.46C75.62,104.01,70.56,102.37,70.21,99.29z"/>
						<path class="st26" d="M71.74,99.02c-0.3-2.63,3.55-5.49,8.6-6.4c5.06-0.91,9.4,0.51,9.7,3.14c0.3,2.65-3.56,5.51-8.61,6.42
							C76.37,103.06,72.04,101.66,71.74,99.02z"/>
						<path class="st27" d="M73.25,98.74c-0.24-2.19,2.97-4.58,7.18-5.33c4.21-0.75,7.82,0.43,8.07,2.63
							c0.25,2.19-2.96,4.58-7.18,5.33C77.13,102.12,73.5,100.95,73.25,98.74z"/>
						<path class="st28" d="M74.78,98.48c-0.21-1.76,2.37-3.67,5.74-4.28c3.36-0.59,6.26,0.36,6.45,2.11
							c0.21,1.76-2.37,3.65-5.72,4.26C77.87,101.17,74.99,100.24,74.78,98.48z"/>
						<path class="st29" d="M76.31,98.21c-0.16-1.32,1.77-2.74,4.29-3.2c2.54-0.45,4.7,0.26,4.86,1.56
							c0.14,1.32-1.78,2.76-4.31,3.22C78.63,100.24,76.45,99.53,76.31,98.21z"/>
						<path class="st30" d="M77.83,97.93c-0.09-0.87,1.2-1.84,2.87-2.13c1.69-0.3,3.14,0.18,3.23,1.05
							c0.11,0.89-1.18,1.84-2.87,2.13C79.37,99.29,77.94,98.82,77.83,97.93z"/>
						<path class="st31" d="M79.36,97.67c-0.05-0.45,0.6-0.93,1.44-1.07c0.85-0.16,1.56,0.08,1.61,0.51
							c0.06,0.43-0.58,0.91-1.42,1.06C80.13,98.35,79.4,98.11,79.36,97.67z"/>
					</g>
				</g>
			</g>
			<path class="st32" d="M95.79,66.27c-32.7,0-59.21,12.65-59.21,28.25c0,15.6,26.51,28.25,59.21,28.25
				c32.7,0,59.2-12.65,59.2-28.25C155,78.92,128.49,66.27,95.79,66.27z M95.79,120.86c-28.82,0-52.18-11.58-52.18-25.86
				c0-14.28,23.36-25.85,52.18-25.85c28.82,0,52.18,11.58,52.18,25.85C147.98,109.28,124.61,120.86,95.79,120.86z"/>
		</g>
		<g>
			<g>
				<path class="st33" d="M53.46,67.71c-3.34,0.02-6.8,0.21-9.88,1.91c-1.79,0.99-6.48,3.41-6.92,5.7c2.33,0.35,4.27-1.24,6.52-1.55
					c-0.73,0.34-1.24,0.97-1.89,1.55c2.67,0.34,5.69-2.33,8.51-2.51c-1.27,1.19-3.04,1.96-3.97,3.47c3.99,0.98,10.29-3.72,14-5.29
					c3.83-1.62,7.64-1.6,11.73-2.38c8.09-1.56,15.97-2.48,24.48-2.48c12.95,0,26.45,0.85,37.94,8.27c-0.1-1.99-2.31-3.36-3.24-5.01
					c0.75,0.1,1.44-0.01,2.18,0.27c-3.21-3.57-9.81-6.23-13.94-7.67c-5.54-1.94-11.61-1.28-17.39-1.28c-6.99,0-14.05-0.01-21.09,0
					c-9.02,0.01-16.71,1.9-25.45,4.48c-2.46,0.72-4.72,1.51-6.95,2.86L53.46,67.71z"/>
				<path class="st33" d="M64.68,65.48c-3.46,0.9-15.85,1.6-16.55,7.29c2.06,0.22,4.51-0.07,6.33-1.09
					c-0.98,0.36-1.9,0.96-2.71,1.71c3.38,0.24,8.03-2.54,11.47-3.37c3.37-0.81,6.68-1.96,10.06-2.64
					c5.15-1.03,10.27-1.59,15.57-1.59c10.67,0,21.87-0.41,32.18,1.85c1.39,0.3,2.88,0.83,4.3,0.66c-0.43-4.19-12.5-5.29-15.27-5.69
					c-6.56-0.95-12.76-1.49-19.32-0.64c-6.64,0.86-13.28,1.86-19.9,3.17c-3.58,0.71-7.45,2.07-11.02,2.24L64.68,65.48z"/>
				<path class="st33" d="M17.19,107.69c-0.43-1.91-1.1-4.54,1.33-4.55c1.93,0,4.14,3.49,5.74,4.78c3.49,2.82,6.56,6.49,10.13,9.17
					c2.71,2.04,5.79,3.67,8.85,4.72c3.8,1.3,7.25,3.11,11.24,3.11c10.14,0,19.87,4.88,30.02,5.52c8.3,0.53,16.96,0.09,25.24-0.49
					c7.28-0.5,14.05-0.42,21.24-2.45c11.34-3.21,21.74-8.79,31.99-15.26c3.78-2.38,7.37-5.11,9.89-9.33
					c1.17-1.96,1.79-3.65,2.29-5.98c0.28-1.27,0.43-5.29,1-6.17c1.69-2.61,1.84,2.14,1.69,3.53c-0.21,1.87-0.45,3.93-0.76,5.75
					c-0.67,3.97-3.37,7.51-5.7,10.11c-4.96,5.54-11.45,8.77-17.46,12.08c-6.58,3.63-13.87,6.24-20.84,7.92
					c-3.18,0.76-6.55,1.09-9.75,1.49c-3.17,0.4-6.23,1.48-9.37,1.67c-6.56,0.4-13.13-0.16-19.66,0.23c-3.19,0.19-6.31,1.1-9.45,0.31
					c-2.89-0.74-5.85-1.74-8.95-1.73c-1.68,0.01-3.46,0.7-5.13,0.49c-1.71-0.21-3.01-1.2-4.81-1.43c-4.15-0.53-8.03-1.32-11.91-2.93
					c-6.53-2.71-13.28-3.78-19.46-7.86c-3.24-2.13-6.37-4.49-9.75-6.51c-1.86-1.12-3.94-1.53-5.7-2.63c-1.75-1.1-1.6-2.88-2.53-4.74
					L17.19,107.69z"/>
				<path class="st33" d="M25.41,116.07c-0.15,0.04-0.18,0.41-0.54,0.19c-0.96-2.69,3.82-0.86,4.7-0.49
					c2.24,0.92,4.43,1.67,6.54,2.99c5.18,3.21,10.95,5.61,16.5,7.56c9.5,3.32,19.68,4.37,29.4,5.09
					c10.21,0.74,20.25-0.01,30.46-0.01c7.72,0,15.04-2.74,22.57-4.08c7.16-1.28,13.35-5.06,20.03-8.79c2.97-1.66,5.95-3.4,8.8-5.39
					c2.46-1.72,5.58-5.05,8.39-5.41c-0.03,4.44-7.06,8.72-9.68,10.48c-4.37,2.94-8.7,5.21-13.48,7.02
					c-7.38,2.8-14.48,5.47-22.13,6.41c-3.68,0.45-7.07,1.14-10.72,1.19c-3.85,0.05-7.2,0.93-10.91,1.38
					c-3.49,0.43-6.76-0.75-10.12-1.15c-3.75-0.46-7.4,0.49-11.14,0.49c-3.72,0-7.79,0.56-11.43-0.29
					c-3.53-0.82-6.94-1.84-10.57-2.33c-3.13-0.43-6.21-1.81-9.33-2.39c-2.91-0.53-5.72-1.8-8.6-2.94c-3.36-1.33-6.47-3.18-9.75-4.92
					c-1.56-0.82-3.15-1.16-4.59-2.15c-1.85-1.27-3.19-2.78-5.16-3.65L25.41,116.07z"/>
				<path class="st33" d="M34.02,120.61c-1.48-1.73-3.95-1.03-5.74-3.1c-1.46-1.68-3.75-3.79-4.38-6.2
					c1.72-0.04,3.47,2.23,4.76,3.55c1.55,1.59,3.04,2.44,4.79,3.59c2.7,1.77,5.5,3.78,8.2,5.21c-5.95,0.54-9.03-2.47-13.37-6.89
					L34.02,120.61z"/>
				<path class="st33" d="M125.44,131.63c3.87,0.04,8.45-1.59,12.2-2.82c3.67-1.2,6.54-3.2,9.78-5.27
					c-4.48,0.07-9.08,3.69-13.55,4.55c-3.75,0.72-7.35,2-11.1,2.58L125.44,131.63z"/>
				<path class="st33" d="M16.62,83.99c-1.76,7.44-4.53,16.92,2.32,22.33c-0.18-5.33-4.61-8.09-2.81-14.67
					c1.9-6.94,9.59-9.77,11.55-15.71c-4.88-0.2-19.19,9.59-12.21,17.63L16.62,83.99z"/>
				<path class="st33" d="M150.87,85.9c-0.49-0.91-7.64-11.37-8.07-7.21c-0.23,2.17,3.99,3.76,4.93,4.91
					c1.26,1.55,2.28,3.98,2.68,6.12c0.32,1.7-0.8,6.19,1.23,6.24c2.91,0.08,0.58-5.38,0.29-6.71c-0.74-3.4-3.18-13.19-7.17-10.54
					L150.87,85.9z"/>
				<path class="st33" d="M148.96,82.07c-0.68-0.69-1.54-1.15-2.62-0.89c0.11,4.35,5.49,7.15,5.36,12.79
					c4.81-2.47-1.57-11.52-3.51-12.38L148.96,82.07z"/>
				<path class="st33" d="M38.8,96.91c-3.32-1.98-0.21-10.88,3.01-11.92c-0.99,5.93-4.68,11.37-1.83,17.5
					c-2.46-2.57-4.12-9.33-1.57-12.28L38.8,96.91z"/>
				<path class="st33" d="M38.8,95c-1.82-1.45-0.45-5.39,1.85-5.68c0.36,2.96,0,11.5-1.47,13.29c-2.33-4.1-1.36-9.72,1.53-12.88
					L38.8,95z"/>
				<path class="st33" d="M43.78,89.25c-1.54,2.69-4.56,12.82,0.33,12.85c-1.23-5.66-3.74-9.02,0.28-14.33
					c-1.34,0.5-1.94,1.72-2.15,3.4L43.78,89.25z"/>
				<path class="st33" d="M77.05,118.46c3.88,3.71,12.81,2.21,17.7,1.9c4.45-0.28,10.65,1.49,14.4-1.31
					c-5.83-0.62-11.89,0.04-17.66,0.38c-5.41,0.32-12.85-1.6-17.12-0.97H77.05z"/>
			</g>
			<g>
				<path class="st34" d="M68.45,69.86c-1.91,0.13-5.95,2.22-7.25,4.02c0.84,0.5,1.79,0.31,2.6-0.22c-0.37,0.24-0.65,0.72-0.88,0.95
					c2.89,0.54,6.6-2.34,9.36-3.37c3.02-1.12,6.31-1.72,9.37-2.1c6.14-0.76,12.7-0.95,18.93-0.96c3.11,0,6.04,0.32,8.99,0.77
					c3.05,0.46,6.9,2.01,9.93,1.57c-0.59-0.48-1.45-0.68-2.25-0.7c0.14-0.28,0.11-0.78,0.34-1.11c-2.54-1.47-6.04-0.96-8.78-1.47
					c-3.11-0.58-6.38-0.73-9.56-0.73c-6.43,0-12.66-0.47-18.93,0.71c-2.36,0.44-4.58,1.13-6.88,1.7c-2.28,0.56-4.8,0.36-6.88,1.42
					L68.45,69.86z"/>
				<path class="st34" d="M116.45,68.43c2.28-0.29,6.99,1.1,8,3.77c-2.31,1.41-6.31-1.22-8.58-1.91c-2.93-0.9-6.33-0.82-9.37-1.14
					c-3.21-0.35-6.35-0.71-9.56-0.71c-1.62,0-3.19-0.04-4.78-0.24c-0.84-0.11-4.29,0-4.79-0.7c-0.14,0-0.21-0.08-0.2-0.26
					c2.13-1.86,6.62-0.79,9.21-0.96c2.87-0.18,5.69,0,8.6,0c5.05,0,9.28,0.31,13.96,2.15H116.45z"/>
				<path class="st34" d="M43.58,95.72c0.99-3.04,0.84-6.04,2.68-9.1c1.89-3.14,4.4-5.06,7.08-6.89c2.49-1.7,5.08-2.95,7.65-4.42
					c2.1-1.2,5.93-1.29,7.44-3.24c-2.63-0.22-4.86,0.07-7.25,1.45c-2.44,1.41-5.02,4.51-7.58,4.93c0.14-0.17,0.3-0.29,0.44-0.45
					c-3.63,1.42-8.05,3.81-9.64,8.39c-1.32,3.81-1.55,8.02-0.77,11.95c0.23-0.49,0.46-1.24,0.53-1.9L43.58,95.72z"/>
				<path class="st34" d="M44.54,107.21c-1.98-1.64-4.24-4.06-3.99-7.38c2.08-0.59,3.74,4.35,5.08,6.01
					c1.81,2.23,3.95,2.89,6.02,4.42c3.94,2.89,8.67,3.64,12.38,6.72c-3.74,0.35-7.94-2.93-11.28-4.92
					c-2.95-1.75-9.55-2.68-9.94-7.72L44.54,107.21z"/>
				<path class="st34" d="M46.64,108.17c-1.59-0.64-2.91-2.52-3.99-4.02c2.52,0.46,4.45,3.36,6.66,4.79c1.94,1.25,3.9,3.1,5.74,4.2
					c-2.4,0.57-4.76-2.02-6.88-3.07c-1.16-0.58-4.04-0.97-4.01-2.87L46.64,108.17z"/>
				<path class="st34" d="M132.32,113.91c2.65-3.25,7.14-4.58,10.18-7.59c2.68-2.66,6.5-9.91,10.26-9.13
					c0.63,4.43-5.67,10.8-8.38,12.95c-3.69,2.93-8.53,5.16-12.76,5.45c3.49-1.5,6.75-3.1,9.88-5.33c2.61-1.86,6.93-4.9,7.44-9.01
					c-2.06,0.25-4.02,3.86-5.52,5.49c-1.5,1.62-3.36,3.23-5.15,4.3c-3.12,1.86-6.12,2.9-9.31,3.85c2.02-0.61,3.9-2.03,5.86-2.89
					L132.32,113.91z"/>
				<path class="st34" d="M143.8,78.72c-1.99-1.72-4.77-2.72-7.08-3.9c-2.35-1.21-4.77-2.93-7.27-3.29
					c-2.78-0.39-5.49-1.51-8.23-2.15c-2.58-0.61-5.68-2.16-8.39-1.64c0.87,2.33,5.53,2.48,7.44,2.83c1.84,0.34,6.47,0.02,7.44,2.35
					c-1.15,0.23-2.25-0.13-3.21-0.63c1.37,2.1,4.4,2.36,6.33,3.26c2.26,1.06,4.6,1.97,6.78,3.18c-1.77-1.09-3.07-2.54-4.72-3.79
					c-1.46-1.1-3.27-1.38-4.57-2.64c3.38-0.73,6.6,3.06,9.74,3.83c2.21,0.54,6.73,1.22,8.03,3.78L143.8,78.72z"/>
				<path class="st34" d="M27.9,70.1c-2.89,2.07-10.14,8.48-9.35,13.13c2.46,0.68,4.43-2.79,6.41-4.01
					c-0.05,0.32-0.06,0.61-0.09,0.9c2.86-0.07,7.09-4.17,9.77-5.7c4.03-2.3,8.08-4.35,12.24-6.24c4.1-1.86,8.48-3.68,12.72-5.03
					c3.83-1.22,7.92-0.69,11.65-1.93c-0.59,0.25-1.13,0.65-1.59,1.18c1.41,0.22,2.8-0.46,4.19-0.75c2.29-0.48,4.57-0.41,6.89-0.41
					c4.36,0,8.82-0.33,13.17,0c7.15,0.54,14.43,0.06,21.64,0.47c11.89,0.68,23.38,6.24,34.91,7.67c1.76,0.22,4.33,0.8,5.95-0.22
					c-0.41-3.76-4.47-5.33-6.86-6.43c-2.66-1.23-5.36-2.17-8.23-2.69c-5.96-1.07-11.7-3.09-17.59-3.83
					c-6.05-0.76-12.22-1.72-18.36-2.1c-6.36-0.4-12.55,0.43-18.93,0.43c-3.15,0-6.37-0.25-9.37,0.53c-2.99,0.78-5.87,1.86-8.99,2.1
					c-6.45,0.5-12.58,1.57-18.72,3.59c-4.39,1.45-8.63,2.88-13.03,4.55c-3.1,1.17-9.78,3.34-11.09,7.66L27.9,70.1z"/>
				<path class="st34" d="M25.41,71.54c-1.56,0.14-5.65,5.4-4.37,7.45c1.2,1.92,10.41-5.65,11.24-7.43
					c-0.73,0.54-1.56,1.41-2.03,2.36c2.72-1.69,5.66-5.23,8.75-5.74c2.29-0.38,4.63-0.69,7.08-1.66c3.02-1.2,6.04-2.22,9.12-3.18
					c2.05-0.64,5.03-0.94,6.74-2.57c-2.05-1.01-7.35-0.84-9.7-0.3c-3.62,0.83-7.12,2.67-10.57,4.19c-5.73,2.54-12.9,3.86-17.98,8.08
					L25.41,71.54z"/>
				<path class="st34" d="M78.01,55.02c-5.27,0.02-10.66,1.67-15.47,4.12c0.56,2.13,7.57-0.27,9.11-0.58
					c5.52-1.12,11.06-2.24,16.65-2.57c8.13-0.49,16.3,0,24.46-0.01c-3.52-0.97-6.88-1.45-10.46-1.68
					c-3.51-0.22-7.07,0.48-10.72,0.48c-6.49,0-15.43-2.11-21.22,2.15L78.01,55.02z"/>
				<path class="st34" d="M110.52,55.26c3.83,0.09,7.59,1.15,11.42,1.2c3.4,0.04,9.53-0.23,12.13,2.86
					c-1.56,2.2-7.01,0.31-9.07-0.05c-6.34-1.12-12.71-1.65-19.07-2.52c-6.76-0.93-13.39,0.16-20.08,1.2
					c-5.21,0.81-10.59,2.43-15.85,2.06c0.59-2.96,9.16-3.05,11.3-3.3c4.8-0.56,9.66-1.51,14.49-1.69
					c7.05-0.26,13.81,0.91,20.85,0.96L110.52,55.26z"/>
				<path class="st34" d="M22.35,74.89c-2.01,0.58-7.13,6.02-6.85,8.82c3.03,0.77,6.26-4.17,8.75-5.67
					c-0.62,0.82-1.28,1.79-1.1,3.04c2.98,0.58,5.01-2.79,7.2-4.76c3.17-2.84,6.45-6.53,10.14-8.1c-0.26,0.44-0.34,1.34-0.52,1.84
					c2.73,0.47,6.2-1.67,8.92-2.3c3.58-0.83,7.4-2.44,11.07-2.23c-0.71,0.52-1.52,0.8-1.82,1.65c5.43,0.17,11.04-2.71,16.42-3.36
					c3.49-0.42,7-0.43,10.56-0.43c5.38,0,10.69-0.66,16.03-0.72c6.42-0.07,12.89,0.74,19.28,0.19c-2.19-6.45-11.43-8.22-16.04-8.81
					c-6.38-0.81-13.04,0.23-19.32,0.24c-12.21,0.01-24.37,2.47-35.95,6.22c-5.59,1.81-11.12,3.35-16.45,6.76
					c-4.75,3.05-10.84,6.08-14.34,11.2L22.35,74.89z"/>
				<path class="st34" d="M155.08,65.56c1.22,0.35,2.28,1.76,3.43,2.46c1.38,0.82,2.76,1.58,4.06,2.51
					c2.74,1.93,5.44,3.69,7.75,6.35c1.96,2.26,4.48,4.22,6.12,6.93c0.71,1.17,1.53,3.26,1.38,4.73c-0.37,3.6-1.27,0.7-1.96-0.7
					c-1.58-3.2-4.55-4.81-6.29-7.84c0.58,1.12,1.03,2.38,0.95,3.72c-2.16,0.28-5.26-4.55-6.84-6.13c-3.49-3.47-7.25-7.41-11.65-8.65
					c0.01,1.09,0.29,2.17,0.13,3.28c-2.74,0.42-5.39-1.42-8-2.18c-3.92-1.15-7.84-1.87-11.71-3.3c-6.16-2.27-12.5-4.11-18.84-5.31
					c-1.56-0.3-5.97-0.4-3.87-3.01c1.78-2.21,6.36-1.49,8.61-1.49c4.85,0,9.12,1.67,13.81,2.58c4.89,0.95,9.55,1.6,14.3,3.59
					c3.64,1.52,7.43,1.99,10.9,3.64L155.08,65.56z"/>
				<path class="st34" d="M51.43,74.73c-2.7-1.98-10.32,2.98-13.06,4.54c-3.98,2.26-7.36,5.02-10.41,8.87
					c-4.1,5.17-9.96,18.66,0,19.15c7.91,0.39,6.41-9,7.92-15.64c1.32-5.82,4.81-10.57,8.67-14.05c1.72-1.55,3.65-3.26,5.65-4.08
					c0.34,0.17-0.17,0.13-0.29,0.26L51.43,74.73z"/>
				<path class="st34" d="M52.7,73.78c-6.94-0.24-13.02,3.82-18.85,8.05c-4.31,3.12-11.2,7.48-10.21,15.17
					c0.47,3.65,2.83,3.88,5.42,2.71c3.75-1.71,3.8-5.26,5.02-9.34c2.65-8.85,12.1-16.75,18.88-19.79L52.7,73.78z"/>
				<path class="st34" d="M47.86,73.14c-4.06,2.62-8.47,4.41-12.55,7.1c-2.66,1.75-10.87,5.56-10.93,10.37
					c-0.07,6.6,9.69-2.14,11.19-3.5c5.62-5.13,10.86-12.31,17.9-14.29L47.86,73.14z"/>
				<path class="st34" d="M45.31,114.63c6.99,3.08,15.1,6.55,22.44,7.67c6.57,1,13.33,1.15,19.95,1.58
					c11.83,0.78,22.99-0.07,34.42-3.57c7.34-2.25,15.32-6.82,22.06-10.86c3.45-2.07,6.99-4.83,10.09-7.52
					c2.25-1.96,3.97-6.48,6.55-7.09c4.4-1.04,6.94,5.28,5.05,9.57c-2.13,4.81-6.44,7.94-10.2,10.29
					c-9.86,6.15-20.98,8.65-31.83,10.39c-8.73,1.41-17.04,3.56-25.8,2.55c-4.04-0.46-8.02-0.3-11.92-1.84
					c-4.14-1.63-8.24-2.58-12.56-3.12c-7.42-0.92-14.79-1.69-22.12-3.02c-2.27-0.41-5.68-1.25-6.44-4.39
					c-0.75-3.1,2.05-4.86,3.38-1.91L45.31,114.63z"/>
				<path class="st34" d="M44.28,120.38c-0.83-0.36-1.95-1.61-1.55-2.89c0.6-1.89,4.35-0.78,5.42-0.55
					c5.79,1.22,10.68,6.31,16.58,7.84c14.72,3.81,30.82,0.45,45.59-1.2c4.93-0.56,9.91-0.78,14.79-1.61
					c5.22-0.88,9.48-4.98,14.09-7.99c2.62-1.71,10.24-8.18,13.46-5.75c4.36,3.29-7.49,9.8-9.14,10.57
					c-9.2,4.36-20.69,5.64-30.45,6.05c-8.16,0.35-16.25,0.64-24.42,0.64c-10.02,0-20.08-0.45-30.04-1.58
					c-3.91-0.45-11.84,0.52-14.34-4.48V120.38z"/>
			</g>
		</g>
	</g>
	<path class="st35" d="M140.75,115.1c-4.11,1.95-12.15,3.59-15.13,6.94c3.86,0.37,8.45-0.52,11.96-2.23
		c2.82-1.38,5.62-4.52,8.92-3.45c-0.54,2.06-3.56,2.37-5.09,3.52c4.22,1.79,8.7-3.33,12.11-5.17c5.49-2.96,10.74-6.31,12.94-12.63
		c0.74-2.13,0.59-5.26-1.76-6.74c-3.4-2.15-1.49,1.18-1.26,2.88c0.8,5.74-5.19,7.33-8.82,9.79
		C150.15,111.05,145.66,112.77,140.75,115.1z"/>
</g>
<g>
	<g>
		<g id="XMLID_1_">
			<g>
				<path class="st36" d="M119.77,84.78c-0.11,1.93-0.06,4.54-0.09,7.07c-1.87,2.18-3.55,4.52-5.09,7c-1.1-2.25-2.15-3.28-3.16-3.67
					C113.18,91.48,119.77,84.78,119.77,84.78z"/>
				<path class="st37" d="M78.51,91.8c-3.59-0.53-6.32-0.34-6.57-1.11l2.27-1.18c5.31-0.13,11.22,2.3,11.22,2.3
					c-0.69,0.66-1.09,1.28-0.75,1.65C82.54,92.54,80.39,92.07,78.51,91.8z"/>
				<path class="st38" d="M77.63,47.72c2.22,0.05,5.14-1.09,8.79-1.91c0.3,0.54,0.47,1.07,0.39,1.56c-0.05,0.26-0.16,0.5-0.35,0.75
					c-1.09,1.36-2.54,0.95-4.16,0.79c-1.2-0.12-2.5-0.08-3.79,0.93c-0.3,0.23-0.6,0.47-0.88,0.7l-1.41-1.63
					c0,0-7.16,3.69-12.53,8.44c-2.87-1.98-3.4,2.99-4.25,3.01c-0.48,0.01-0.46-1.04-0.22-2.21h0.01
					C65.8,51.15,71.93,47.61,77.63,47.72z"/>
				<path class="st39" d="M48.4,77.68c1.68-1.02,1.08-4,3.3-3.97c0.52,0.01,1.14-0.01,1.8-0.04c1.63-0.08,3.55-0.23,4.91-0.36
					c1.05-0.09,1.77-0.16,1.77-0.16c-0.33,0.27-0.66,0.46-1.01,0.56c-1.58,0.49-2.24,1.62-2.41,4.31
					C54.21,79.27,50.64,78.21,48.4,77.68z"/>
				<path class="st40" d="M100.83,103.63c1.1-0.46,2.88-1.58,1.73-3.75c0,0,5.26-1.55,1.37-4.71c0.25,0.09,0.53,0.22,0.83,0.38
					c2.19,1.1,4.35-1.28,6.66-0.38c1.02,0.39,2.06,1.42,3.16,3.67c-1.95,3.11-3.68,6.39-5.34,9.73c-0.77-3.96-1.04-6.81-6.35-5.52
					c-0.15,0.03-0.32,0.07-0.48,0.12C101.87,103.32,101.35,103.47,100.83,103.63z"/>
				<path class="st39" d="M113.04,60.96c-1.91-0.26-4.21-0.46-6.74-0.42v-0.01c-0.62-2.31-0.9-4.48-0.94-6.15
					c-0.02-1.52,0.15-2.65,0.5-3.14c0.12-0.19,0.27-0.29,0.43-0.28c1.1,0.06,7.08,4.66,7.08,4.66c-3.55,2.37-1.38,1.77,0.2,3.74
					c0.36,0.46,0.61,0.95,0.69,1.49c-0.41,0.04-0.82,0.07-1.23,0.13V60.96z"/>
				<path class="st36" d="M103.94,95.17c3.89,3.16-1.37,4.71-1.37,4.71c1.15,2.17-0.63,3.29-1.73,3.75
					c-4.96,1.61-8.41,3.87-8.41,3.87s-0.66-0.36-1.01-1.13c-0.36-0.79-0.4-1.99,1.01-3.64c0,0-1.44-1.92,3.02-4.42
					c0,0,0.93-2.77,3.68-2.77c1.66,0,2.24-0.57,3.12-0.68C102.67,94.81,103.17,94.88,103.94,95.17z"/>
				<path class="st39" d="M95.16,109.49c-6.8,5.12-12.79,6.02-13.1,6.07c-0.01,0-0.01,0-0.01,0c-0.22-1.36-0.39-2.77-0.27-3.46
					c0.27-1.58,6.32-3.95,9.63-5.73c0.35,0.76,1.01,1.13,1.01,1.13S94.82,107.97,95.16,109.49z"/>
				<path class="st38" d="M74.76,120.65c-0.05-0.22-0.09-0.43-0.13-0.66v-0.01c1-0.13,2.18-0.56,3-1.73c0.2,0.96,0.52,1.78,1,2.37
					c0.57,0.71,1.05,1.55,1.44,2.4l-2.24,4.52C76.43,125.76,75.35,123.47,74.76,120.65z"/>
				<path class="st41" d="M74.21,89.5l-2.27,1.18c-0.4-1.18,2.88-5.65,3.94-6.63C74.16,86.99,74.21,89.5,74.21,89.5z"/>
				<path class="st42" d="M86.45,132.23c-0.95,1.36-2.2,1.39-4.28,0.12c0,0-0.15-0.38-0.29-1.09c-0.05-0.25-0.09-0.53-0.13-0.86
					c0.23,0.22,2.88,2.46,4.7-2.86c1.9-5.58,4.13-10.72,10.9-13.28c-1.72,1.45-4.22,3.75-6.15,6.35c0,0.01-0.01,0.01-0.01,0.02
					c-1.28,1.71-2.3,3.56-2.71,5.39C87.82,129.02,87.24,131.09,86.45,132.23z"/>
				<path class="st40" d="M99.39,112.66c0,0-0.83,0.6-2.04,1.61c-6.77,2.55-9,7.7-10.9,13.28c-1.82,5.32-4.46,3.08-4.7,2.86
					c-0.01,0-0.01,0-0.01,0c-0.06-0.53-0.12-1.15-0.12-1.87c-0.02-2.41,0.47-5.91,2.45-10.25c2.87-1.43,9.4-4.85,10.71-7.09
					C96.75,110.8,99.39,112.66,99.39,112.66z"/>
				<path class="st43" d="M44.17,103.05c1.48,1.38,3.33,3.11,4.51,4.96c-1.56,0.48-3.12,0.93-4.5,1.25h-0.01
					c-0.16,0,0.13-1.27-1.68-3.4C40.65,103.69,41.44,102.91,44.17,103.05z"/>
				<path class="st44" d="M158.24,76.49l-2.89,3.56c-2.43-0.96-5.54-1.34-8.93-1.18c3.94-4.47,6.05-6.32,6.05-6.32l2.32,1.58
					L158.24,76.49z"/>
				<path class="st38" d="M46.8,78.02c-0.42-0.02-0.83-0.01-1.22,0.02c1.65-3.34,3.56-6.66,5.65-9.77c0.47,0.69,0.73,1.35,0.48,1.71
					c-0.64,0.97-0.54,2.05,1.8,3.69c-0.67,0.02-1.29,0.05-1.8,0.04c-2.23-0.02-1.63,2.95-3.3,3.97C48,77.92,47.5,78.05,46.8,78.02z"
					/>
				<path class="st40" d="M43.15,109.49c0.33-0.07,0.67-0.14,1.02-0.23h0.01c1.38-0.33,2.94-0.77,4.5-1.25
					c0.93-0.29,1.86-0.59,2.77-0.89c0.87-0.29,1.7-0.57,2.47-0.84c2.6-0.93,4.51-1.65,4.51-1.65c-0.4,0.93-0.81,1.8-1.22,2.65
					c0,0-4.61,5.29-13.14,5.39l-0.93-0.05V109.49z"/>
				<path class="st45" d="M85.42,91.8c0,0-5.91-2.43-11.22-2.3c0,0-0.05-2.51,1.66-5.45c0.47-0.43,2.38-0.22,4.88,0.38
					c3.16,0.76,7.24,2.14,10.45,3.6c-0.81,0.59-1.46,0.73-1.46,0.73S86.9,90.38,85.42,91.8z"/>
				<path class="st37" d="M131.62,76.85c-1.3,0.57-3.04,1.31-4.34,2.23c-0.52-1.2-1.03-2.1-1.55-2.77c0,0,0.36-4.02,4.39-8.96
					l0.01-0.01c0.7-0.42,1.37-0.97,1.97-1.7c-0.38,1.68,0.19,3.7,0.74,5.54C130.13,74.4,130.47,75.74,131.62,76.85z"/>
				<path class="st40" d="M49.17,90.1c0.89-0.59,1.76-0.84,2.53-0.6c-0.88,1.59-1.2,3.54-1.2,3.54s-3.41,6.45-0.91,7.5
					c2.18,0.93,4.05,3.37,4.32,5.73c-0.77,0.27-1.61,0.55-2.47,0.84c-2.09-3.95-5.14-5.39-5.68-6.07
					C45.23,100.37,45.92,95.55,49.17,90.1z"/>
				<path class="st37" d="M73.5,58.88c-3.96-2.18-7.15,1.27-9.05,5.46c-2.6-2.45-1.77-4.66,0.06-6.29c1.75-1.56,4.42-2.58,5.84-2.71
					c0.3-0.02,0.6-0.08,0.88-0.16C71.23,55.18,72.85,57.42,73.5,58.88z"/>
				<path class="st42" d="M130.13,67.34c-2.79,1.65-6.27,1.25-9.2,0.66c-0.66-0.13-1.14-0.13-1.48,0c1-1.04,1.61-1.76,2.31-2.33
					c0.66-0.52,1.39-0.9,2.61-1.32c0.48-0.16,1.03-0.33,1.68-0.5c1.71-0.47,3-0.98,4.05-1.31c1.48-0.46,2.51-0.59,3.62,0.18
					l0.01,0.01c-0.56,0.47-1.08,1.25-1.5,2.48c-0.05,0.14-0.09,0.28-0.12,0.42l-0.01,0.01c-0.6,0.73-1.27,1.28-1.97,1.7
					L130.13,67.34z"/>
				<path class="st38" d="M114.27,60.84c0.05,0.33,0.05,0.68-0.02,1.06c-0.25,1.45-1.39,3.35-3.77,6.11
					c-3.87-0.3-6.57-1.49-8.24,1.93c-1.66,3.41-2.72,5.29-5.34,6.91c-0.83,0.52-1.34,1.16-1.69,1.92c-1.69-0.76-5.04-2.78-7.56-3.33
					c6.11-7.57,14.46-13.28,25.4-14.47C113.45,60.91,113.86,60.87,114.27,60.84z"/>
				<path class="st43" d="M119.67,51.28c2.3,1.34,6.12,3.87,6.36,4.04c-2.41-0.32-5.24,0.02-5.24,0.02
					c-1.79-1.15-2.58,1.2-2.02,4.07c-1.14,0.08-2.75,0.63-4.54,2.48c0.07-0.38,0.07-0.73,0.02-1.06c-0.08-0.54-0.33-1.03-0.69-1.49
					c-1.58-1.97-3.75-1.37-0.2-3.74c0.45-0.3,0.86-0.62,1.21-0.94C117.05,52.47,117.6,50.07,119.67,51.28z"/>
				<path class="st44" d="M51.71,89.5c0.12-0.21,0.25-0.42,0.39-0.61c1.17-1.66,2.63,1.14,3.41,1.79c0.47,0.4,1.37,0.93,2.93,1.66
					c1.04,0.5,2.37,1.09,4.04,1.77c-0.09,0.25-0.18,0.49-0.27,0.75c-0.39,1.1-0.77,2.17-1.16,3.21c-8.52-2.19-10.54-5.04-10.54-5.04
					S50.83,91.1,51.71,89.5z"/>
				<path class="st38" d="M105.67,48.29c2.79,1.48,5.77,3.54,8.92,6.39c-0.35,0.32-0.76,0.63-1.21,0.94c0,0-5.98-4.61-7.08-4.66
					c-0.16-0.01-0.32,0.09-0.43,0.28l-0.01-0.01c-0.43,0.14-0.84,0.27-1.23,0.4C104.64,50.17,105.05,49.17,105.67,48.29z"/>
				<path class="st38" d="M133.73,62.7c-1.11-0.76-2.14-0.63-3.62-0.18c-0.06-0.33-0.2-1.1-0.36-2.17c1.31,0.3,2.98,0.8,5.31,1.69
					c-0.46,0.11-0.9,0.29-1.31,0.67L133.73,62.7z"/>
				<path class="st43" d="M92.96,131.26c0,0-5.87-2.53-1.77-10.62c0-0.01,0.01-0.01,0.01-0.02c1.93-2.6,4.43-4.9,6.15-6.35
					c1.21-1.01,2.04-1.61,2.04-1.61s2.77-1.18,4.08-3.16c-0.21,2.38-0.7,5.6-1.71,9.95c-2.41,2.03-4.57,3.27-5.39,4.09
					c-1.31,1.31-1.05,1.44,2.04,4.28C96.75,129.36,94.89,130.51,92.96,131.26z"/>
				<path class="st37" d="M87.65,75.44c2.52,0.55,5.87,2.57,7.56,3.33c-0.73,1.61-0.7,3.68-1.6,6.01c-0.19,0.49-0.41,0.93-0.64,1.31
					c0,0-4.78-3.28-10.22-3.55c0.57-3.02,3.72-7.25,3.72-7.25v-0.01C86.82,75.28,87.21,75.33,87.65,75.44z"/>
				<path class="st45" d="M96.37,123.53c0.82-0.82,2.98-2.06,5.39-4.09c1.45-1.21,3-2.7,4.41-4.55h0.01
					c-1.25,2.61-2.52,5.2-3.83,7.72c-1.07,2.04-2.41,3.79-3.94,5.19C95.31,124.97,95.05,124.85,96.37,123.53z"/>
				<path class="st43" d="M63.52,66.76c-5.25-2.38-4.08-6.4-4.08-6.4c0.86-0.02,1.38-4.99,4.25-3.01c0.25,0.18,0.53,0.41,0.82,0.7
					c-1.83,1.63-2.66,3.84-0.06,6.29c-0.3,0.67-0.57,1.36-0.81,2.04C63.6,66.51,63.57,66.64,63.52,66.76z"/>
				<path class="st39" d="M61.05,98.08c-0.87,2.34-1.73,4.53-2.61,6.54c0,0-1.91,0.73-4.51,1.65c-0.27-2.36-2.14-4.81-4.32-5.73
					c-2.5-1.05,0.91-7.5,0.91-7.5S52.53,95.89,61.05,98.08z"/>
				<path class="st37" d="M80.35,83.71c-0.48-2.16,2.98-6.61,4.72-8.03c0.35-0.29,0.83-0.41,1.38-0.41v0.01c0,0-3.14,4.23-3.72,7.25
					C82.74,82.54,81.54,82.51,80.35,83.71z"/>
				<path class="st38" d="M91.19,120.64c-4.1,8.09,1.77,10.62,1.77,10.62c-1.55,0.61-3.13,0.95-4.7,1.01
					c-0.01,0.01-0.02,0.01-0.04,0c-0.6,0.04-1.18,0.01-1.77-0.03c0.79-1.14,1.37-3.21,2.03-6.2
					C88.89,124.2,89.91,122.35,91.19,120.64z"/>
				<path class="st37" d="M99.39,112.66c0,0-2.64-1.86-4.61-1.48c0.4-0.67,0.48-1.23,0.38-1.69c-0.34-1.52-2.74-1.99-2.74-1.99
					s3.46-2.26,8.41-3.87c0.52-0.16,1.04-0.32,1.58-0.47c0.16-0.05,0.33-0.08,0.48-0.12c0,0,1.05,1,0.57,6.45
					C102.15,111.47,99.39,112.66,99.39,112.66z"/>
				<path class="st36" d="M118.78,59.41c1.09-0.09,1.76,0.23,1.76,0.23s3.71-0.88,3.83,4.7c-1.22,0.42-1.96,0.81-2.61,1.32
					l-0.04-0.05l-2.05-1.78c0,0-0.71,1.63-6.27,3.33c-1.42,0.43-2.66,1.03-3.7,1.72c0.27-0.3,0.53-0.6,0.77-0.89
					c2.38-2.75,3.53-4.65,3.77-6.11C116.03,60.04,117.65,59.49,118.78,59.41z"/>
				<path class="st42" d="M81.88,131.26c-3.84,1.01-4.55-2.73-4.55-2.73l0.49-0.98l2.24-4.52c1.2,2.66,1.56,5.51,1.56,5.51
					c0,0.73,0.06,1.35,0.12,1.87c0,0,0,0,0.01,0C81.79,130.73,81.83,131.01,81.88,131.26z"/>
				<path class="st44" d="M76.22,48.91l1.41,1.63c-2.31,1.95-4.18,4.03-6.4,4.64c-0.28,0.08-0.57,0.14-0.88,0.16
					c-1.42,0.13-4.09,1.15-5.84,2.71c-0.29-0.29-0.57-0.53-0.82-0.7C69.06,52.6,76.22,48.91,76.22,48.91z"/>
				<path class="st40" d="M124.37,64.34c-0.12-5.58-3.83-4.7-3.83-4.7l0.26-4.3c0,0,2.82-0.34,5.24-0.02c0,0,0,0,0.01,0
					c1.68,0.23,3.15,0.79,3.29,2.03c0.13,1.13,0.27,2.16,0.4,3.01c0.16,1.07,0.3,1.84,0.36,2.17c-1.05,0.33-2.34,0.84-4.05,1.31
					C125.4,64.01,124.85,64.18,124.37,64.34z"/>
				<path class="st40" d="M91.2,88.03c-3.21-1.45-7.29-2.84-10.45-3.6c-0.21-0.19-0.34-0.43-0.4-0.72c1.2-1.21,2.39-1.17,2.39-1.17
					c5.44,0.27,10.22,3.55,10.22,3.55C92.4,87.02,91.76,87.63,91.2,88.03z"/>
				<path class="st36" d="M103.33,52.05c-2.12-3.83-1.57-10.63-1.57-10.63c1.07,1.18,2.5,2.5,4.55,2.1
					c2.05-0.39,2.29,1.58,0.89,3.02c-0.56,0.59-1.1,1.14-1.52,1.75c-0.62,0.88-1.03,1.89-1.04,3.33
					C104.15,51.77,103.71,51.91,103.33,52.05z"/>
				<path class="st42" d="M57.21,107.27c-1.99,4.11-4.05,7.21-6.3,8.95c-0.7,0.74-1.71,1.31-2.81,1.72c0,0,0,0.01-0.01,0
					c-3.07,1.18-6.8,1.12-6.12,0c0.22-0.35,0.46-0.84,0.68-1.38c0.74-1.71,1.43-3.9,1.43-3.9
					C52.61,112.55,57.21,107.27,57.21,107.27z"/>
				<path class="st44" d="M94.78,111.18c-1.31,2.24-7.84,5.66-10.71,7.09c-0.84,0.42-1.37,0.67-1.37,0.67s-0.38-1.65-0.64-3.37
					c0.32-0.05,6.3-0.95,13.1-6.07C95.26,109.95,95.18,110.51,94.78,111.18z"/>
				<path class="st43" d="M44.17,103.05c-1.31-1.24-2.32-2.2-2.28-2.77c0,0,2.16,1,3.88,0.76c0.54,0.68,3.6,2.12,5.68,6.07
					c-0.9,0.3-1.84,0.6-2.77,0.89C47.5,106.15,45.65,104.43,44.17,103.05z"/>
				<path class="st42" d="M51.71,69.98c0,0,2.94,0.68,6.71,3.33c-1.36,0.13-3.28,0.28-4.91,0.36
					C51.17,72.03,51.06,70.95,51.71,69.98z"/>
				<path class="st46" d="M80.35,83.71c0.06,0.28,0.19,0.53,0.4,0.72c-2.5-0.6-4.41-0.81-4.88-0.38c-1.05,0.98-4.34,5.45-3.94,6.63
					c0.26,0.77,2.99,0.59,6.57,1.11c-1.98,5.27-3.26,10.62-3.88,15.47c-11.3,5.64-19.93,10.59-26.53,10.68
					c1.1-0.41,2.11-0.98,2.81-1.72c2.25-1.75,4.31-4.84,6.3-8.95c0.41-0.84,0.82-1.72,1.22-2.65c0.88-2,1.75-4.2,2.61-6.54
					c0.39-1.04,0.77-2.11,1.16-3.21c0.09-0.26,0.18-0.5,0.27-0.75c5.23-14.45,8.45-12.81,19.07-23.47
					c8.04-8.06,17.41-10.05,24.76-10.11c2.53-0.04,4.83,0.16,6.74,0.42v0.01c-10.93,1.2-19.29,6.9-25.4,14.47
					c-0.43-0.11-0.83-0.16-1.19-0.16c-0.55,0-1.03,0.12-1.38,0.41C83.32,77.1,79.87,81.56,80.35,83.71z"/>
				<path class="st43" d="M136.96,71.17c-0.84-1.37-2.03-2.47-4.11,0c-0.55-1.84-1.11-3.87-0.74-5.54l0.01-0.01
					c0.02-0.14,0.07-0.28,0.12-0.42c0.42-1.23,0.94-2.02,1.5-2.48c0.41-0.37,0.86-0.56,1.31-0.67c0.86-0.19,1.78-0.06,2.7,0
					c0,0,1.05,0.18,4.48,3.57c-0.27-0.01-0.57,0.02-0.93,0.11c-1.24,0.28-1.32,1.19-1.09,2.27c0.34,1.76,1.49,3.97-0.22,4.7
					C137.72,73.66,137.6,72.22,136.96,71.17z"/>
				<path class="st36" d="M140.77,76.31c-0.53-1.51-3.68-1.64-9.15,0.54c-1.15-1.1-1.49-2.45,1.23-5.67c2.09-2.47,3.27-1.37,4.11,0
					c0.64,1.04,0.76,2.48,3.02,1.52c1.71-0.73,0.56-2.94,0.22-4.7C148.37,69.71,141.3,77.82,140.77,76.31z"/>
				<path class="st46" d="M127.55,84.78c3.67-2.39,8.06-4.09,12.43-5.04c1.28-0.29,2.57-0.5,3.82-0.66
					c0.89-0.11,1.76-0.18,2.61-0.21c3.39-0.15,6.5,0.22,8.93,1.18c2.6,1.02,4.42,2.71,4.93,5.11c1.69,7.92-12.23,12.97-28.77,22.28
					c-12.6,7.08-31.7,26.31-43.25,24.82c1.57-0.06,3.15-0.4,4.7-1.01c1.93-0.75,3.8-1.9,5.45-3.45c1.52-1.41,2.87-3.15,3.94-5.19
					c1.31-2.52,2.58-5.11,3.83-7.72c1.01-2.11,2.03-4.23,3.07-6.33c1.66-3.34,3.4-6.62,5.34-9.73c1.53-2.47,3.21-4.82,5.09-7
					c1.78-2.07,3.74-4,5.92-5.7C126.21,85.67,126.87,85.2,127.55,84.78z"/>
				<path class="st42" d="M154.78,74.14c3.55,0.39,6.68,0,6.68,0s-0.33,1.44-3.22,2.36L154.78,74.14z"/>
				<path class="st39" d="M113.4,67.17c5.55-1.7,6.27-3.33,6.27-3.33l2.05,1.78l0.04,0.05c-0.7,0.57-1.31,1.29-2.31,2.33
					c-1.58,0.56-0.25,3.7,0.32,7.69c-0.36,0.21-0.73,0.42-1.07,0.62c0,0-2.46,0.66-5.3,2.78h-0.01c-6.64,1.49-5.47,0.64-5.47,0.64
					s-0.22-1.25-1.62-4.02c-1.04-2.05,0.33-4.84,3.4-6.82C110.74,68.2,111.99,67.6,113.4,67.17z"/>
				<path class="st36" d="M59.44,60.36c0,0-1.17,4.02,4.08,6.4c-0.15,0.43-0.3,0.86-0.45,1.24h-0.01c-1.76-0.69-3.09-1.73-4.13-2.92
					c-3.23-3.7-3.36-8.81-3.36-8.81s-0.46-2.19,1.64-3.07c2.1-0.87,3.73,0.96,2.98,2.14c-0.35,0.56-0.75,1.73-0.97,2.8
					C58.98,59.31,58.96,60.37,59.44,60.36z"/>
				<path class="st47" d="M106.3,60.53c-7.35,0.06-16.72,2.05-24.76,10.11C70.92,81.31,67.7,79.67,62.48,94.12
					c-1.68-0.68-3-1.27-4.04-1.77c0.89-2.71,3.06-4.49,0-5.84c-2.63-1.16-5.04-0.21-4.91-1.73c0.01-0.25,0.11-0.56,0.27-0.96
					c1.18-2.85,2.79-3.09,2.98-5.8c0.18-2.69,0.83-3.82,2.41-4.31c0.35-0.11,0.68-0.29,1.01-0.56c0.95-0.77,1.83-2.32,2.87-5.14
					h0.01c0.14-0.39,0.29-0.81,0.45-1.24c0.05-0.12,0.08-0.25,0.13-0.38c0.23-0.68,0.5-1.37,0.81-2.04c1.9-4.2,5.09-7.64,9.05-5.46
					c0,0,5.6-4.27,9.23-3.83c3.65,0.43,3.23,0.94,1.86,2.52c-1.37,1.58-1.72,3.47,0.82,2.07c1.03-0.57,1.9-1.3,2.59-2.14v-0.01
					c1-1.22,1.61-2.68,1.72-4.24c0.06-0.8,0.81-1.43,1.82-1.77c2.3-0.75,5.94,0.04,5.8,3.87c-0.13,3.48,2.04,3.98,3.54,3.25
					c0.48-0.23,0.9-0.6,1.14-1.02c0.2-0.35,0.29-0.75,0.21-1.17c-0.23-1.17,1.24-1.97,3.13-2.03c0.03,1.68,0.32,3.84,0.94,6.15
					V60.53z"/>
				<path class="st36" d="M97.9,43.9c0,0,0.08,10.05,2.99,14.68c-1.5,0.74-3.67,0.23-3.54-3.25c0.14-3.83-3.5-4.62-5.8-3.87
					c-0.86-2.94-1.82-8.21-1.82-8.21c1.12-1.44,3.08-0.93,4.17,0c1.09,0.91,1.8,1.9,3.46,1.18c0.3-0.13,0.47-0.32,0.53-0.54H97.9z"
					/>
				<path class="st47" d="M80.06,123.02c-0.39-0.86-0.87-1.69-1.44-2.4c-0.48-0.59-0.8-1.41-1-2.37c-0.45-2.06-0.32-4.78,0-7.17
					c0.26-1.97,0.67-3.73,1-4.7c0.93-2.72,3.29-2.16,6.7-4.66c3.42-2.51,0.4-7.08-0.66-8.26c-0.34-0.38,0.06-1,0.75-1.65
					c1.48-1.42,4.31-3.05,4.31-3.05s0.66-0.14,1.46-0.73c0.56-0.4,1.21-1.01,1.76-1.93c0.23-0.39,0.46-0.82,0.64-1.31
					c0.9-2.33,0.88-4.41,1.6-6.01c0.35-0.76,0.86-1.41,1.69-1.92c2.62-1.63,3.68-3.5,5.34-6.91c1.66-3.42,4.37-2.24,8.24-1.93
					c-0.25,0.29-0.5,0.59-0.77,0.89c-3.07,1.98-4.44,4.77-3.4,6.82c1.39,2.77,1.62,4.02,1.62,4.02s-1.17,0.84,5.47-0.64
					c-1.56,1.16-3.23,2.78-4.68,4.97v0.03c-1.04,0.05-2.61,0.23-4.86,0.69c-5.12,1.04-1.39,2.23-0.96,8.67l-0.66,1.42
					c-0.88,0.11-1.45,0.68-3.12,0.68c-2.75,0-3.68,2.77-3.68,2.77c-4.46,2.5-3.02,4.42-3.02,4.42c-1.41,1.65-1.37,2.86-1.01,3.64
					c-3.32,1.78-9.36,4.15-9.63,5.73c-0.12,0.69,0.05,2.1,0.27,3.46c0,0,0,0,0.01,0c0.27,1.72,0.64,3.37,0.64,3.37
					s0.53-0.25,1.37-0.67c-1.98,4.35-2.47,7.84-2.45,10.25C81.62,128.53,81.26,125.68,80.06,123.02z"/>
				<path class="st36" d="M84.6,57.57c1.37-1.58,1.78-2.09-1.86-2.52c-3.63-0.43-9.23,3.83-9.23,3.83c-0.66-1.47-2.27-3.7-2.27-3.7
					c2.22-0.61,4.09-2.7,6.4-4.64c0.28-0.23,0.57-0.47,0.88-0.7c1.29-1.01,2.59-1.04,3.79-0.93c0,0,4.84,5.33,5.72,8.58v0.01
					c-0.69,0.84-1.56,1.57-2.59,2.14C82.88,61.04,83.23,59.15,84.6,57.57z"/>
				<path class="st39" d="M77.63,111.08c-0.32,2.39-0.45,5.11,0,7.17c-0.82,1.17-2,1.61-3,1.73c-1,0.15-1.78,0-1.78,0l-0.95-7.32
					c0,0,1.05-0.38,2.31-0.77C75.42,111.51,76.83,111.12,77.63,111.08z"/>
				<path class="st43" d="M100.89,58.59C97.98,53.96,97.9,43.9,97.9,43.9h-0.01c0.28-0.96-1.45-2.63-2.27-3.8
					c-1.01-1.44,5.09,0.13,6.14,1.31c0,0-0.55,6.8,1.57,10.63c-1.55,0.5-2.44,0.8-2.44,0.8s-0.59,2.37,1.14,4.72
					C101.79,57.99,101.37,58.35,100.89,58.59z"/>
				<path class="st40" d="M119.45,68c0.34-0.13,0.82-0.13,1.48,0c2.93,0.6,6.41,1,9.2-0.66c-4.03,4.95-4.39,8.96-4.39,8.96
					c-1.99-2.57-4.08-1.7-5.96-0.62C119.21,71.7,117.87,68.56,119.45,68z"/>
				<path class="st36" d="M44.52,80.27c-1.22-0.38-2.63-0.49-4.39-0.21c0,0,2.32-1.76,5.45-2.02c0.39-0.04,0.8-0.05,1.22-0.02
					c0.7,0.04,1.21-0.09,1.61-0.34c2.24,0.53,5.81,1.59,8.37,0.34c-0.19,2.71-1.79,2.95-2.98,5.8c-0.16,0.4-0.26,0.71-0.27,0.96
					C49.71,83.83,47.77,81.22,44.52,80.27z"/>
				<path class="st44" d="M127.55,84.78c-0.68,0.42-1.34,0.89-1.96,1.37c-2.18,1.7-4.14,3.62-5.92,5.7
					c0.04-2.53-0.01-5.13,0.09-7.07c0.11-1.76,0.33-2.95,0.9-3.02c1.18-0.13,4.83-0.57,4.83-0.57
					C125.18,82.21,125.67,83.41,127.55,84.78z"/>
				<path class="st43" d="M143.8,79.08c-1.25,0.15-2.54,0.36-3.82,0.66v-0.01l0.79-3.42c0.53,1.51,7.61-6.6-0.56-8.31
					c-0.23-1.08-0.15-1.99,1.09-2.27c0.35-0.08,0.66-0.12,0.93-0.11c2.05,0.02,1.8,2.2,3.54,2.6c2.78,0.66,3.82-0.53,2.11-2.5
					c2.66,0.55,4.29,2.41,2.77,4.48c-0.28,0.39-0.68,0.77-1.2,1.17C146.16,73.87,143.8,79.08,143.8,79.08z"/>
				<path class="st43" d="M55.57,56.27c0,0,0.13,5.11,3.36,8.81c-5.07-2.16-8.56-8.4-8.77-8.79c-0.01-0.01-0.01-0.02-0.01-0.02
					S51.35,54.99,55.57,56.27z"/>
				<path class="st38" d="M84.67,93.45c1.06,1.18,4.08,5.75,0.66,8.26c-3.41,2.51-5.78,1.95-6.7,4.66c-0.33,0.97-0.74,2.73-1,4.7
					c-0.8,0.05-2.2,0.43-3.42,0.81c0.07-1.48,0.21-3.02,0.42-4.62c0.62-4.85,1.9-10.2,3.88-15.47
					C80.39,92.07,82.54,92.54,84.67,93.45z"/>
				<path class="st42" d="M120.54,59.64c0,0-0.67-0.33-1.76-0.23c-0.56-2.87,0.22-5.22,2.02-4.07L120.54,59.64z"/>
				<path class="st43" d="M88.01,57.49c-0.88-3.25-5.72-8.58-5.72-8.58c1.62,0.16,3.07,0.57,4.16-0.79c0.19-0.25,0.3-0.49,0.35-0.75
					c0,0,0.89,2.98,2.93,5.87C89.62,54.8,89.01,56.27,88.01,57.49z"/>
				<path class="st42" d="M49.17,90.1c-3.26,5.45-3.95,10.27-3.41,10.95c-1.72,0.23-3.88-0.76-3.88-0.76
					C41.96,99.35,45.73,92.33,49.17,90.1z"/>
				<path class="st38" d="M42.65,116.56c-5.68-3.88-4.18-15.4-2.12-24.72c0.81-3.68,2.2-7.62,4-11.58c3.25,0.95,5.19,3.56,9,4.51
					c-0.13,1.52,2.28,0.57,4.91,1.73c3.06,1.35,0.89,3.13,0,5.84c-1.56-0.74-2.46-1.27-2.93-1.66c-0.79-0.66-2.24-3.46-3.41-1.79
					c-0.14,0.19-0.27,0.4-0.39,0.61c-0.77-0.25-1.64,0.01-2.53,0.6c-3.45,2.23-7.22,9.25-7.29,10.18c-0.04,0.56,0.97,1.52,2.28,2.77
					c-2.73-0.14-3.52,0.64-1.68,2.81c1.8,2.13,1.51,3.4,1.68,3.4c-0.35,0.09-0.69,0.16-1.02,0.23v3.12l0.93,0.05
					C44.08,112.66,43.38,114.85,42.65,116.56z"/>
				<path class="st43" d="M103.94,95.17c-0.76-0.29-1.27-0.36-1.7-0.3l0.66-1.42c0,0,5.7-0.86,7.66-1.61c1.97-0.76,0-7.72,0-7.72
					s-0.49-0.13-1.84-0.04v-0.03c1.44-2.19,3.12-3.81,4.68-4.97h0.01c2.84-2.12,5.3-2.78,5.3-2.78c0.34-0.2,0.7-0.41,1.07-0.62
					c1.89-1.08,3.97-1.95,5.96,0.62c0.52,0.67,1.03,1.57,1.55,2.77v0.01c-0.88,0.61-1.56,1.31-1.78,2.1c0,0-3.64,0.45-4.83,0.57
					c-0.57,0.07-0.8,1.27-0.9,3.02c0,0-6.59,6.7-8.34,10.39c-2.31-0.9-4.47,1.48-6.66,0.38C104.46,95.4,104.18,95.27,103.94,95.17z"
					/>
				<path class="st36" d="M142.22,65.62c-3.42-3.4-4.48-3.57-4.48-3.57c2.11,0.13,0.67-4.21,1.58-4.46
					c0.93-0.26,5.39,7.49,8.54,8.14c1.71,1.97,0.67,3.15-2.11,2.5C144.03,67.82,144.27,65.64,142.22,65.62z"/>
				<path class="st44" d="M102.03,57.57c-1.72-2.36-1.14-4.72-1.14-4.72s0.89-0.29,2.44-0.8c0.39-0.14,0.82-0.28,1.3-0.43
					c0.39-0.13,0.8-0.26,1.23-0.4l0.01,0.01c-0.35,0.49-0.53,1.62-0.5,3.14c-1.89,0.06-3.36,0.86-3.13,2.03
					C102.32,56.82,102.23,57.22,102.03,57.57z"/>
				<path class="st43" d="M140.77,76.31l-0.79,3.42v0.01c-4.37,0.95-8.77,2.65-12.43,5.04c-1.87-1.37-2.37-2.57-2.05-3.6
					c0.22-0.79,0.9-1.49,1.78-2.1v-0.01c1.3-0.91,3.04-1.65,4.34-2.23C137.09,74.67,140.24,74.79,140.77,76.31z"/>
				<path class="st44" d="M106.16,114.9c-1.41,1.85-2.95,3.34-4.41,4.55c1.01-4.35,1.5-7.57,1.71-9.95
					c0.48-5.45-0.57-6.45-0.57-6.45c5.31-1.29,5.58,1.56,6.35,5.52c-1.04,2.1-2.06,4.22-3.07,6.33H106.16z"/>
				<path class="st36" d="M63.06,68c-1.04,2.82-1.92,4.37-2.87,5.14c0,0-0.71,0.07-1.77,0.16c-3.77-2.65-6.71-3.33-6.71-3.33
					c0.25-0.36-0.01-1.02-0.48-1.71c-0.75-1.15-2.05-2.39-2.54-2.65c-0.8-0.42-4.42-3.02-1.89-4.42c2.52-1.37,4.18-3.21,3.37-4.91
					c0.21,0.39,3.69,6.63,8.77,8.79C59.97,66.26,61.3,67.31,63.06,68z"/>
				<path class="st42" d="M146.42,78.87c-0.86,0.03-1.72,0.11-2.61,0.21c0,0,2.36-5.22,5.64-7.71c0.52-0.4,0.91-0.79,1.2-1.17
					c7.09-3.16,10.83,3.94,10.83,3.94s-3.13,0.39-6.68,0l-2.32-1.58C152.46,72.56,150.35,74.41,146.42,78.87z"/>
				<path class="st43" d="M89.73,53.24c-2.04-2.89-2.93-5.87-2.93-5.87c0.08-0.49-0.08-1.02-0.39-1.56
					c-1.02-1.82-3.5-3.64-1.82-4.65c2.43-1.45,5.13,2.1,5.13,2.1s0.96,5.27,1.82,8.21C90.54,51.81,89.79,52.45,89.73,53.24z"/>
				<path class="st44" d="M110.5,91.87c-3.68,1.35-7.79-0.65-9.07-4.35c-0.53-1.54-0.41-2.16,2.43-2.74
					c2.25-0.46,3.82-0.64,4.86-0.69c0.01,0,0.03,0,0.04,0c1.04-0.07,1.98,0.65,2.19,1.67c0.45,2.11,0.96,5.57-0.39,6.09
					C110.54,91.85,110.52,91.86,110.5,91.87z"/>
				<path class="st44" d="M86.69,66.38c-3.23,1.19-6.85-0.57-7.97-3.82c-0.47-1.35-0.36-1.9,2.13-2.41c1.98-0.4,3.36-0.57,4.28-0.61
					c0.01,0,0.02,0,0.04,0c0.91-0.06,1.74,0.57,1.93,1.46c0.4,1.85,0.85,4.9-0.35,5.36C86.72,66.36,86.7,66.37,86.69,66.38z"/>
			</g>
		</g>
	</g>
	<path class="st48" d="M59.13,58.05c1.75-1.87,3.61-3.66,5.62-5.26c2.01-1.6,4.19-3.01,6.58-4c1.2-0.48,2.45-0.85,3.72-1.05
		c0.64-0.1,1.28-0.16,1.93-0.17c0.66,0,1.28,0.02,1.91-0.08c2.52-0.39,4.96-1.26,7.47-1.78l0.03,0.14
		c-1.19,0.56-2.38,1.01-3.56,1.55c-1.21,0.45-2.42,0.91-3.78,1.23c-0.33,0.07-0.72,0.14-1.09,0.18c-0.17,0.02-0.29,0.02-0.51,0.03
		l-0.44,0.02c-0.58,0.04-1.17,0.13-1.74,0.25c-1.15,0.23-2.29,0.57-3.39,1.04c-2.23,0.89-4.34,2.17-6.42,3.55
		c-2.06,1.41-4.12,2.92-6.23,4.44L59.13,58.05z"/>
	<path class="st49" d="M51.6,69.9c0.14-0.66-0.47-1.27-0.92-1.8c-0.49-0.54-1.03-1.05-1.58-1.51c-0.28-0.22-0.56-0.44-0.82-0.56
		c-0.4-0.21-0.71-0.42-1.04-0.66c-0.63-0.49-1.25-1.03-1.71-1.83c-0.21-0.4-0.4-0.94-0.27-1.54c0.14-0.61,0.59-1.01,0.97-1.25
		c0.76-0.38,1.33-0.65,1.95-1.07c0.59-0.41,1.17-0.86,1.54-1.45c0.4-0.58,0.49-1.31,0.19-1.92l-0.07-0.15l0.11-0.1
		c0.45-0.4,0.92-0.49,1.41-0.6c0.48-0.09,0.97-0.11,1.45-0.1c0.97,0.01,1.92,0.17,2.86,0.38l-0.63,0.57c-0.24-1.02-0.03-2.15,0.74-3
		c0.37-0.41,0.87-0.7,1.33-0.88c0.54-0.2,1.09-0.28,1.67-0.19c1.11,0.17,2.33,1.02,2.33,2.53c0,0.34-0.18,0.78-0.32,0.98
		c-0.09,0.16-0.16,0.3-0.24,0.49c-0.15,0.37-0.29,0.76-0.41,1.16c-0.23,0.77-0.43,1.68-0.43,2.31c0,0.06,0.02,0.12,0,0.1
		c0.01-0.01-0.15-0.17-0.31-0.16l-0.03,0c0.02,0-0.23,0.03-0.12,0.01l0.01,0l0.01,0l0.04-0.01c0.07-0.01-0.04,0-0.08,0.03
		c-0.14,0.09-0.05,0.03-0.07,0.05c0.03-0.03,0.08-0.09,0.13-0.16c0.2-0.31,0.4-0.73,0.62-1.12c0.22-0.4,0.49-0.8,0.83-1.18
		c0.33-0.36,0.81-0.73,1.39-0.77c0.58-0.07,1.06,0.21,1.43,0.48c0.38,0.28,0.69,0.62,0.96,0.98l-0.1,0.1
		c-0.68-0.51-1.52-1.03-2.18-0.84c-0.63,0.17-1,0.97-1.31,1.73c-0.17,0.39-0.31,0.8-0.54,1.26c-0.06,0.12-0.14,0.24-0.25,0.38
		c-0.08,0.13-0.48,0.43-0.8,0.39c-0.38,0-0.73-0.33-0.81-0.54c-0.12-0.22-0.14-0.38-0.17-0.53c-0.14-1.14,0.09-1.99,0.3-2.91
		c0.12-0.45,0.25-0.9,0.45-1.35c0.09-0.21,0.21-0.47,0.34-0.69c0.1-0.17,0.08-0.16,0.1-0.26c0.06-0.33-0.4-0.92-1-1.01
		c-0.29-0.07-0.65-0.03-0.94,0.05c-0.37,0.12-0.66,0.28-0.91,0.49c-0.5,0.41-0.72,1.2-0.68,1.9l0.05,0.83l-0.67-0.26
		c-0.85-0.33-1.72-0.59-2.62-0.71c-0.44-0.07-0.9-0.08-1.33-0.03c-0.42,0.04-0.89,0.2-1.16,0.41l0.04-0.25
		c0.38,0.75,0.28,1.69-0.1,2.4c-0.37,0.73-0.9,1.34-1.48,1.87c-0.56,0.52-1.29,1.02-1.83,1.39c-0.45,0.39-0.47,0.57-0.2,1.13
		c0.28,0.52,0.79,1.04,1.32,1.49c0.26,0.23,0.56,0.46,0.82,0.62c0.41,0.23,0.7,0.53,0.97,0.81c0.55,0.57,1.02,1.19,1.43,1.85
		c0.2,0.34,0.38,0.69,0.51,1.07c0.12,0.36,0.25,0.85-0.02,1.21L51.6,69.9z"/>
	<path class="st50" d="M58.35,73.34c-0.71-0.09-1.33-0.24-1.95-0.42c-0.61-0.16-1.2-0.35-1.77-0.55c-0.57-0.19-1.13-0.4-1.68-0.61
		c-0.54-0.18-1.12-0.45-1.58-0.59l1.34-0.54c-0.15,0.17-0.22,0.23-0.26,0.31c-0.09,0.08-0.07,0.31,0.03,0.59
		c0.18,0.59,0.63,1.25,1.02,2.02l-0.08,0.12c-0.63-0.44-1.27-0.91-1.75-1.55c-0.23-0.32-0.44-0.69-0.46-1.11
		c-0.04-0.42,0.12-0.83,0.34-1.17l0.05-0.08l0.09,0.02c1.25,0.3,2.4,0.82,3.53,1.41c1.12,0.59,2.19,1.26,3.21,2L58.35,73.34z"/>
	<path class="st51" d="M50.56,93.06c0.12,1.5,0.01,2.82-0.05,4.01c0.01,0.59-0.07,1.15,0.02,1.55c0.03,0.19,0.05,0.35,0.08,0.37
		c0.03,0.04-0.01-0.13-0.15-0.25l-0.1-0.05l-0.03-0.01l-0.01,0c0.03,0.01-0.08-0.03,0.06,0.03l0.01,0.01l0.11,0.06
		c0.15,0.08,0.27,0.14,0.5,0.28c0.44,0.26,0.75,0.47,1.06,0.76c0.59,0.58,1.13,1.18,1.48,1.9c0.74,1.37,1.05,3.06,0.43,4.51
		l-0.22,0.02c-0.2-1.27-0.8-2.44-1.59-3.43c-0.4-0.5-0.86-0.94-1.37-1.32c-0.52-0.42-1.03-0.6-1.69-0.98
		c-0.63-0.5-0.7-1.31-0.68-1.96c0.04-0.68,0.19-1.33,0.38-1.96c0.38-1.27,0.92-2.47,1.55-3.62L50.56,93.06z"/>
	<path class="st52" d="M62.37,94.22c-1.69,0.44-3.23,0.39-4.7,0.1c-0.76-0.11-1.47-0.35-2.22-0.65c-0.38-0.16-0.74-0.35-1.16-0.6
		c-0.21-0.14-0.42-0.29-0.67-0.51c-0.21-0.19-0.32-0.31-0.4-0.4l-0.24-0.27c-0.49-0.63-0.86-1.12-0.88-1.23
		c0.02-0.02,0.07,0,0.28,0.05c0.19,0.05,0.62,0.06,0.96-0.09c0.34-0.15,0.49-0.33,0.51-0.42c0.03-0.09-0.04-0.01,0.02-0.15
		l-0.21,0.18c-0.8,0.57-1.78,1.66-3.04,2.79l-0.29-0.05c0.21-1.41,0.6-2.8,1.37-4.04c0.17-0.27,0.43-0.68,0.88-0.82
		c0.48-0.15,0.92,0.08,1.21,0.3c0.61,0.47,1.03,1.06,1.48,1.58c0.37,0.52,0.98,0.86,1.57,1.22c0.6,0.34,1.22,0.66,1.85,0.96
		l3.81,1.76L62.37,94.22z"/>
	<path class="st50" d="M57.23,107.28c-0.46,1.27-1.32,2.29-2.29,3.14c-0.97,0.87-2.11,1.53-3.31,2.03
		c-1.21,0.47-2.49,0.78-3.78,0.83c-1.29,0.06-2.59-0.08-3.82-0.59l0-0.15c2.42-0.06,4.83-0.54,7.05-1.47
		c2.23-0.89,4.35-2.17,6.04-3.89L57.23,107.28z"/>
	<path class="st40" d="M41.77,100.23c-0.13-1.47,0.34-2.75,0.82-3.98c0.5-1.24,1.19-2.38,1.98-3.46c0.83-1.05,1.75-2.06,2.95-2.84
		c0.59-0.39,1.25-0.72,1.99-0.9c0.72-0.16,1.61-0.14,2.18,0.34l-0.04,0.14c-1.24-0.33-2.43,0.51-3.36,1.3
		c-0.95,0.84-1.77,1.83-2.53,2.85c-0.78,1.01-1.49,2.07-2.15,3.16c-0.63,1.09-1.34,2.21-1.68,3.4L41.77,100.23z"/>
	<path class="st36" d="M48.63,107.96c-1.42-1.12-2.65-2.19-3.9-3.37c-0.6-0.6-1.22-1.21-1.77-1.9c-0.28-0.34-0.54-0.71-0.77-1.11
		c-0.2-0.39-0.49-0.87-0.35-1.35c0.19,0.4,0.56,0.61,0.89,0.87l1.03,0.75c0.69,0.51,1.35,1.07,1.99,1.67
		c0.62,0.62,1.22,1.27,1.72,2.01C47.99,106.26,48.43,107.07,48.63,107.96z"/>
	<path class="st36" d="M44.13,103.08c-0.75-0.01-1.55-0.03-2.19,0.3c-0.7,0.37-0.23,1.25,0.18,1.8c0.43,0.6,0.97,1.18,1.33,1.87
		c0.19,0.34,0.35,0.69,0.47,1.06c0.06,0.19,0.11,0.37,0.14,0.56l0.05,0.29c-0.01,0.07,0.08,0.24-0.01,0.19l0.03,0.14
		c-0.21,0-0.19-0.12-0.25-0.15l-0.12-0.13l-0.2-0.24c-0.13-0.15-0.25-0.29-0.39-0.41c-0.24-0.26-0.51-0.49-0.74-0.73
		c-0.5-0.49-0.91-0.81-1.53-1.6c-0.24-0.4-0.52-0.8-0.66-1.49c-0.05-0.34-0.07-0.81,0.15-1.29c0.22-0.5,0.64-0.78,0.96-0.9
		c0.65-0.24,1.12-0.13,1.56-0.04c0.43,0.14,0.84,0.31,1.2,0.61L44.13,103.08z"/>
	<path class="st53" d="M50.53,92.96l2.79,0.97c0.89,0.3,1.74,0.67,2.61,1.02c0.85,0.39,1.72,0.78,2.57,1.26
		c0.85,0.48,1.7,1.01,2.53,1.76l-0.04,0.14c-1.91-0.47-3.81-1.04-5.64-1.8c-0.9-0.4-1.79-0.86-2.63-1.38
		c-0.83-0.53-1.66-1.1-2.3-1.89L50.53,92.96z"/>
	<path class="st54" d="M49.26,90.13c0.05,1.97-0.16,3.62-0.38,5.19l-0.63,4.35c-0.05,0.27-0.04,0.63-0.07,0.52
		c-0.02-0.02-0.02-0.15-0.19-0.46c-0.06-0.12-0.14-0.24-0.22-0.34l-0.14-0.17l0,0l0.01,0.01l0.01,0.02l0.02,0.03
		c0.02,0.02,0.1,0.12,0.06,0.07c-0.17-0.15,0.04,0.05,0.16,0.17c0.58,0.55,1.32,1.25,1.86,2.04c1.16,1.54,1.9,3.45,1.78,5.43
		l-0.26,0.14c-0.84-1.43-1.88-2.73-3.1-3.83c-0.62-0.55-1.27-1.04-1.95-1.53c-0.17-0.13-0.34-0.24-0.53-0.41
		c-0.08-0.09-0.15-0.12-0.26-0.3c-0.07-0.14-0.1-0.26-0.12-0.38c-0.07-0.47-0.04-0.9,0-1.33c0.22-1.71,0.75-3.32,1.38-4.89
		c0.62-1.57,1.41-3.07,2.32-4.48L49.26,90.13z"/>
	<path class="st54" d="M120.83,55.31c0.5,0.39,0.75,0.76,0.92,1.13c0.18,0.37,0.21,0.73,0.21,1.09c-0.05,0.36-0.12,0.71-0.34,1.06
		c-0.21,0.35-0.5,0.69-1.04,1.01l-0.15-0.01l0.06-2.15l0.21-2.14L120.83,55.31z"/>
	<path class="st50" d="M161.43,74.17c-0.5,0.59-1.06,0.9-1.63,1.12c-0.57,0.23-1.15,0.3-1.73,0.32c-0.58-0.02-1.16-0.09-1.73-0.32
		c-0.57-0.21-1.12-0.53-1.62-1.11l0.02-0.15c1.11,0.1,2.22,0.13,3.33,0.1c1.11,0.02,2.23,0,3.33-0.1L161.43,74.17z"/>
	<path class="st54" d="M143.69,79.01c0.8-1.71,1.76-3.35,2.88-4.88c0.57-0.76,1.18-1.49,1.87-2.15c0.69-0.67,1.51-1.16,2.04-1.91
		l0.02-0.03l0.04-0.02c1.94-0.9,4.29-1.13,6.3-0.27c2,0.84,3.59,2.45,4.65,4.3l-0.13,0.07c-0.77-0.76-1.53-1.47-2.4-2
		c-0.81-0.59-1.68-1.03-2.57-1.25c-0.88-0.24-1.76-0.33-2.64-0.22c-0.88,0.07-1.75,0.37-2.61,0.72l0.53-0.43
		c-0.19,0.24-0.39,0.47-0.6,0.67c-0.2,0.2-0.48,0.44-0.64,0.56c-0.44,0.35-0.69,0.51-1.05,0.8c-0.65,0.55-1.27,1.18-1.9,1.83
		c-0.6,0.67-1.22,1.36-1.82,2.07c-0.64,0.7-1.19,1.45-1.83,2.19L143.69,79.01z"/>
	<path class="st55" d="M140.83,76.22c0.06,0.19,0.29,0.1,0.49-0.02c0.2-0.12,0.39-0.29,0.56-0.46c0.35-0.34,0.67-0.74,0.94-1.15
		c0.54-0.83,0.95-1.77,1.02-2.74c0.11-0.96-0.26-1.93-1.02-2.55c-0.75-0.62-1.72-0.97-2.69-1.23l0.04-0.22
		c1.16-0.54,2.47-0.61,3.78,0.08c0.67,0.33,1.25,0.96,1.66,1.71c0.38,0.77,0.48,1.62,0.45,2.38c-0.17,1.52-0.84,2.7-1.77,3.55
		c-0.45,0.44-0.99,0.78-1.59,1.04c-0.32,0.11-0.63,0.22-1.01,0.26c-0.19,0.01-0.39,0.02-0.63-0.03c-0.12-0.04-0.26-0.1-0.35-0.21
		c-0.09-0.11-0.12-0.27-0.09-0.32L140.83,76.22z"/>
	<path class="st56" d="M86.45,75.28c-0.19,1.54-0.75,2.74-1.36,3.91c-0.33,0.57-0.66,1.13-1.05,1.67c-0.37,0.55-0.8,1.06-1.29,1.66
		l-0.11-0.02c0.26-1.36,0.84-2.62,1.47-3.84c0.68-1.2,1.43-2.34,2.25-3.44L86.45,75.28z"/>
	<path class="st55" d="M111.32,95.1c0.02-1.25,0.47-2.39,0.99-3.42c0.52-1.04,1.19-1.97,1.91-2.85c0.75-0.85,1.54-1.67,2.44-2.36
		c0.89-0.71,1.86-1.34,3.01-1.78l0.11,0.1c-1.53,1.61-3.01,3.28-4.43,4.99c-1.43,1.7-2.88,3.41-3.9,5.38L111.32,95.1z"/>
	<path class="st49" d="M111.25,95.07c0.44-1.04,1.06-2,1.71-2.9c0.65-0.91,1.34-1.8,2.05-2.66c1.48-1.68,2.96-3.35,4.61-4.86
		l0.21,0.21c-0.03,1.52-0.37,2.69-0.83,3.75c-0.44,1.08-1.04,1.99-1.72,2.81c-0.69,0.82-1.47,1.55-2.41,2.15
		c-0.92,0.64-1.93,1.13-3.35,1.64L111.25,95.07z"/>
	<path class="st51" d="M102.93,102.93c0.83,0.44,1.19,1.22,1.55,1.93c0.31,0.73,0.54,1.48,0.66,2.22c0.29,1.49,0.23,2.96,0.09,4.39
		c-0.22,1.43-0.53,2.82-1.09,4.16c-0.53,1.34-1.23,2.63-2.3,3.81l-0.22-0.05c0.53-2.73,1.09-5.44,1.4-8.2
		c0.18-1.37,0.32-2.75,0.35-4.13c0.01-0.69-0.01-1.38-0.08-2.06c-0.07-0.66-0.17-1.4-0.51-1.91L102.93,102.93z"/>
	<path class="st57" d="M94.73,111.07c0.36-0.35,0.87-0.51,1.35-0.59c0.49-0.07,0.98-0.07,1.44,0.02c0.48,0.06,0.91,0.22,1.34,0.37
		c0.44,0.17,0.8,0.39,1.24,0.66l-1.29-0.14c0.3-0.14,0.7-0.3,1.03-0.48c0.38-0.14,0.72-0.33,1.1-0.47l2.41-1.03l0.12,0.08
		c-0.48,0.75-1.13,1.36-1.83,1.9c-0.7,0.53-1.45,0.99-2.26,1.36l-0.07,0.03l-0.07-0.05c-0.66-0.46-1.38-0.86-2.14-1.16
		c-0.75-0.29-1.57-0.5-2.37-0.36L94.73,111.07z"/>
	<path class="st58" d="M48.04,117.91c2.4-0.19,4.69-0.95,6.88-1.87c2.19-0.92,4.31-2.02,6.4-3.17c4.18-2.31,8.29-4.81,12.47-7.22
		l0.93,3.06c-4.41,1.87-8.15,3.94-12.65,5.74c-2.25,0.9-4.53,1.74-6.87,2.41C52.87,117.53,50.45,118.01,48.04,117.91z"/>
	<path class="st59" d="M75.3,119.81c0.04,0.37,0.06,0.66,0.12,1c0.05,0.34,0.1,0.69,0.17,1.01c0.12,0.65,0.28,1.31,0.48,1.96
		c0.4,1.29,0.96,2.55,1.71,3.72c-0.94-1.01-1.75-2.18-2.4-3.43c-0.33-0.63-0.61-1.27-0.87-1.95c-0.14-0.34-0.24-0.66-0.35-0.99
		c-0.12-0.32-0.22-0.71-0.31-1.02L75.3,119.81z"/>
	<path class="st58" d="M160.46,85.09c0.45,1.87-0.15,3.9-1.27,5.41c-1.11,1.54-2.55,2.77-4.04,3.89c-3.01,2.21-6.26,4-9.51,5.78
		l-9.77,5.25c-1.62,0.89-3.24,1.78-4.83,2.7c-1.57,0.93-3.11,1.95-4.62,3c-6.07,4.18-11.86,8.81-17.97,13
		c-3.06,2.09-6.19,4.09-9.53,5.74c-1.67,0.81-3.4,1.54-5.2,2.04c-1.8,0.5-3.69,0.78-5.58,0.54l0.06-0.44
		c3.67-0.44,6.73-2.27,9.68-4.24c2.96-1.96,5.75-4.25,8.58-6.51c2.77-2.35,5.65-4.6,8.48-6.97c2.88-2.31,5.85-4.57,8.95-6.81
		c1.6-1.08,3.2-2.09,4.99-3.11c1.69-0.92,3.31-1.81,5-2.63c3.39-1.59,6.71-3.23,10.1-4.65l4.98-2.23c1.65-0.73,3.26-1.5,4.79-2.35
		c1.55-0.81,3-1.75,4.2-2.88c1.17-1.12,2.07-2.57,2.07-4.45L160.46,85.09z"/>
	<path class="st48" d="M78.74,91.8c-2.48,6.27-3.99,12.93-4.4,20.06c-0.83-6.75-0.2-13.76,1.7-20.34L78.74,91.8z"/>
	<path class="st48" d="M82.57,77.48c6.97-10.24,17.89-17.2,31.69-16.51c-5.17,0.43,0,0,0,0c-10.87,1.14-19.67,6.02-26.39,14.63
		l-2.42-0.36L82.57,77.48z"/>
	<path class="st59" d="M87.61,75.37c6.69-7.63,15.68-12.94,26.65-14.34c-2.53,0.97,0,0,0,0c-9.51,3.65-16.68,9.26-22.37,16.05
		L87.61,75.37z"/>
	<path class="st59" d="M82.02,92.5c-3.09,6.17-5.66,12.73-8.09,19.34c0.27-6.99,1.64-13.84,4.03-20.15L82.02,92.5z"/>
	<path class="st51" d="M155.22,79.95c0.2-0.83,0.48-1.58,0.79-2.32c0.14-0.38,0.33-0.72,0.49-1.08c0.16-0.36,0.34-0.71,0.54-1.04
		l0.32,2.19c-0.54-0.25-1.09-0.47-1.6-0.77c-0.51-0.29-1.04-0.54-1.54-0.85l-1.48-0.93c-0.49-0.31-0.95-0.68-1.42-1.02l2.38-0.14
		c-0.46,0.4-1.05,0.87-1.6,1.3c-0.54,0.46-1.15,0.87-1.73,1.31c-1.21,0.84-2.45,1.66-3.92,2.3l-0.17-0.15
		c1.88-2.24,3.85-4.38,5.99-6.4l0.12-0.11l0.14,0.09c1.94,1.29,3.84,2.65,5.76,3.97l0.16,0.11l-0.13,0.15
		c-0.97,1.18-1.96,2.35-2.95,3.51L155.22,79.95z"/>
	<path class="st49" d="M150.53,70.12c0.35-0.69,0.44-1.45,0.16-2.01c-0.28-0.57-0.85-0.95-1.46-1.19c-0.31-0.12-0.63-0.23-0.96-0.3
		c-0.17-0.03-0.33-0.06-0.5-0.08c-0.28-0.05-0.35-0.04-0.66-0.14c-1-0.32-1.65-0.83-2.32-1.34c-1.32-1.03-2.34-2.25-3.39-3.41
		l-1.47-1.77c-0.24-0.29-0.48-0.57-0.71-0.81c-0.11-0.12-0.22-0.22-0.31-0.29c-0.03-0.02-0.07-0.05-0.03-0.02
		c-0.02-0.01,0.1,0.06,0.19,0.07c0.01,0,0.16,0.04,0.3,0.03c0.07,0,0.14-0.01,0.2-0.03l0.05-0.01c-0.15,0.06,0.27-0.1,0.22-0.08
		l-0.02,0.01c-0.01,0-0.08,0.03-0.03,0.01c0.12-0.05,0.23-0.13,0.32-0.22c0.11-0.1,0.14-0.19,0.16-0.22
		c0.04-0.11,0.03-0.08,0.03-0.07c-0.01,0.06-0.03,0.21-0.03,0.37l-0.01,1.13c-0.01,0.42-0.02,0.86-0.12,1.38
		c-0.11,0.48-0.28,1.28-1.18,1.83c-0.42,0.24-0.9,0.3-1.23,0.28c-0.28-0.02-0.42-0.04-0.63-0.06c-0.38-0.04-0.74-0.09-1.06-0.1
		c-0.65-0.02-1.12,0.03-1.55,0.28c-0.44,0.25-0.85,0.77-1.18,1.37c-0.08,0.15-0.16,0.31-0.24,0.47l-0.1,0.21l-0.1,0.27
		c-0.1,0.26-0.16,0.6-0.21,0.94c-0.24,1.39,0.08,2.94,0.24,4.48l-0.14,0.04c-0.43-1.47-0.9-2.98-0.88-4.55
		c0-0.79,0.23-1.56,0.55-2.27c0.31-0.71,0.74-1.4,1.37-1.89c0.64-0.5,1.47-0.67,2.25-0.66c0.39,0,0.78,0.03,1.16,0.06
		c0.38,0.02,0.78,0.11,1.06-0.07c0.56-0.39,0.55-1.29,0.56-2.02l-0.01-1.16c0-0.2,0.01-0.39,0.05-0.6c0.04-0.18,0.09-0.47,0.36-0.58
		c0.38-0.07,0.49,0.15,0.66,0.25c0.15,0.13,0.29,0.27,0.42,0.42c0.27,0.29,0.51,0.59,0.76,0.89l1.44,1.81
		c0.97,1.2,1.94,2.39,3.08,3.42c0.56,0.51,1.18,0.99,1.87,1.26c0.71,0.22,1.51,0.37,2.18,0.78c0.67,0.38,1.31,0.95,1.55,1.73
		c0.25,0.78-0.04,1.63-0.51,2.24L150.53,70.12z"/>
	<path class="st55" d="M119.52,91.8c-0.77-1.28-1.18-2.53-1.45-3.81c-0.29-1.28-0.37-2.57-0.3-3.96c0.11-0.71,0.14-1.38,0.54-2.37
		c0.13-0.26,0.25-0.54,0.6-0.94c0.18-0.19,0.43-0.42,0.81-0.59c0.17-0.08,0.4-0.14,0.6-0.17c0.21-0.03,0.13-0.01,0.2-0.01
		c0.31,0,0.64,0.03,0.96,0.07c1.29,0.13,2.6,0.39,3.95,1.01l0.03,0.22c-1.25,0.19-2.51,0.37-3.77,0.52l-0.95,0.12
		c-0.25-0.01-0.35,0.21-0.47,0.5c-0.19,0.56-0.24,1.2-0.29,1.82c-0.21,2.51-0.1,5.06-0.24,7.59L119.52,91.8z"/>
	<path class="st51" d="M119.52,91.8c-0.04-2.54-0.11-5.07,0.02-7.63c0.06-0.64,0.13-1.28,0.35-1.92c0.06-0.16,0.13-0.32,0.26-0.48
		c0.1-0.16,0.4-0.28,0.54-0.27l0.95-0.1c1.26-0.14,2.52-0.27,3.79-0.38l0.03,0.22c-1.17,0.93-2.38,1.48-3.61,1.91
		c-0.31,0.11-0.61,0.22-0.93,0.29c0,0.01-0.16,0.03-0.03,0.02c0.13-0.01,0.28-0.06,0.38-0.1c0.24-0.1,0.36-0.22,0.44-0.29
		c0.15-0.16,0.14-0.14,0.16-0.11c-0.02,0.22-0.11,0.82-0.11,1.37l-0.18,1.78c-0.12,0.61-0.16,1.24-0.34,1.87
		c-0.28,1.26-0.69,2.54-1.5,3.8L119.52,91.8z"/>
	<path class="st55" d="M147.91,65.61c0.44,0.55,1,1.2,0.83,2.04c-0.12,0.42-0.52,0.66-0.89,0.75c-0.37,0.1-0.75,0.1-1.12,0.08
		c-0.71-0.07-1.54-0.16-2.09-0.76c-0.54-0.55-0.82-1.25-1.36-1.65c-0.53-0.4-1.27-0.38-1.95-0.23c-0.7,0.11-1.14,0.64-1.07,1.35
		c0.06,1.38,0.89,2.7,0.8,4.28c-0.04,0.39-0.23,0.82-0.56,1.08c-0.34,0.27-0.7,0.38-1.06,0.49c-0.37,0.1-0.77,0.18-1.18,0.06
		c-0.42-0.11-0.74-0.45-0.92-0.77c-0.37-0.67-0.62-1.31-1.09-1.84c-0.43-0.54-1.09-0.85-1.73-0.57c-0.63,0.25-1.15,0.77-1.61,1.3
		c-0.47,0.55-0.91,1.11-1.29,1.72c-0.37,0.6-0.71,1.25-0.77,1.94c-0.08,0.7,0.28,1.35,0.8,1.83l-0.15,0.16
		c-0.33-0.19-0.66-0.42-0.93-0.77c-0.26-0.35-0.42-0.82-0.46-1.27c-0.07-0.93,0.23-1.75,0.53-2.5c0.32-0.73,0.75-1.43,1.14-2.06
		c0.49-0.7,1-1.4,2.13-1.98c0.56-0.28,1.45-0.4,2.21-0.15c0.76,0.24,1.25,0.69,1.61,1.07c0.37,0.4,0.62,0.74,0.89,1.16
		c0.26,0.43,0.42,0.75,0.52,0.86c0.14,0.14-0.03-0.13-0.3-0.19c-0.26-0.04-0.11-0.02-0.02-0.07c-0.01,0.02,0.25-0.09,0.39-0.15
		c-0.05,0.01-0.04,0-0.11,0.05c-0.15,0.1-0.26,0.36-0.24,0.33c0.04-0.06-0.05-0.72-0.23-1.37c-0.15-0.7-0.44-1.42-0.46-2.61
		c0-0.56,0.13-1.47,0.77-2.22c0.32-0.37,0.67-0.61,1.05-0.79c0.17-0.08,0.49-0.19,0.55-0.2l0.38-0.08c0.47-0.08,0.98-0.13,1.59-0.06
		c0.59,0.07,1.31,0.35,1.82,0.78c0.51,0.44,0.79,0.9,0.98,1.24l0.4,0.75c0.11,0.16,0.09,0.23,0.29,0.34c0.2,0.11,0.56,0.22,0.83,0.3
		c0.59,0.2,1.08,0.16,1.19,0.13c0.25-0.19,0.05-1.06-0.27-1.68L147.91,65.61z"/>
	<path class="st49" d="M147.87,65.65c0.5,0.49,1.17,1.05,1.04,2.06c-0.11,0.51-0.59,0.84-0.99,0.97c-0.42,0.14-0.83,0.18-1.23,0.19
		c-0.41-0.01-0.77-0.05-1.19-0.13c-0.42-0.08-0.91-0.34-1.23-0.65c-0.65-0.63-0.99-1.3-1.38-1.5c-0.34-0.2-0.82-0.18-1.43-0.04
		c-0.33,0.09-0.37,0.14-0.43,0.22c-0.03,0.05-0.08,0.18-0.07,0.44c0.03,0.51,0.25,1.19,0.45,1.88c0.19,0.72,0.48,1.45,0.4,2.51
		c-0.06,0.52-0.34,1.19-0.84,1.58c-0.25,0.19-0.48,0.32-0.76,0.43c-0.18,0.06-0.3,0.12-0.57,0.19c-0.47,0.12-0.95,0.23-1.6,0.06
		c-0.65-0.17-1.13-0.72-1.34-1.11c-0.68-1.48-1.33-2.46-1.98-2.21c-0.94,0.3-1.99,1.6-2.8,2.65c-0.42,0.54-0.79,1.13-0.91,1.76
		c-0.14,0.62,0.12,1.29,0.58,1.85l-0.08,0.08c-0.54-0.48-0.95-1.2-0.87-1.96c0.06-0.75,0.41-1.42,0.78-2.04
		c0.38-0.62,0.83-1.2,1.29-1.76c0.47-0.55,0.99-1.1,1.69-1.39c0.72-0.34,1.58,0.05,2.02,0.63c0.5,0.55,0.8,1.25,1.14,1.86
		c0.18,0.3,0.43,0.55,0.75,0.64c0.32,0.09,0.68,0.03,1.01-0.07c0.34-0.11,0.69-0.22,0.94-0.43c0.26-0.21,0.4-0.54,0.44-0.88
		c0.1-1.41-0.7-2.75-0.76-4.24c-0.01-0.37,0.06-0.77,0.31-1.08c0.24-0.31,0.64-0.46,0.99-0.53c0.7-0.15,1.53-0.18,2.15,0.29
		c0.61,0.47,0.88,1.19,1.38,1.69c0.48,0.54,1.24,0.63,1.95,0.71c0.66,0.05,1.57,0.01,1.81-0.67c0.16-0.69-0.34-1.35-0.78-1.88
		L147.87,65.65z"/>
	<path class="st49" d="M109.14,69.3c1.44-2.4,3.24-4.56,4.28-6.87c0.26-0.57,0.43-1.15,0.36-1.74c-0.05-0.59-0.38-1.19-0.84-1.66
		c-0.23-0.23-0.49-0.45-0.77-0.64c-0.28-0.21-0.58-0.33-0.89-0.69c-0.18-0.2-0.14-0.6-0.01-0.76c0.11-0.2,0.23-0.35,0.36-0.48
		c0.26-0.28,0.53-0.51,0.8-0.74c1.13-0.9,2-1.76,2.85-2.82c0.42-0.52,0.81-1.08,1.3-1.66c0.25-0.29,0.54-0.59,0.98-0.83
		c0.42-0.25,1.06-0.36,1.55-0.23c0.48,0.11,0.9,0.38,1.16,0.54c0.3,0.19,0.59,0.38,0.88,0.58c0.58,0.39,1.14,0.8,1.7,1.22
		c1.1,0.85,2.19,1.73,3.21,2.7l-0.08,0.12c-1.29-0.56-2.52-1.2-3.75-1.84l-1.82-0.98c-0.58-0.29-1.28-0.77-1.62-0.8
		c-0.5-0.27-1.51,1.08-2.44,2.08c-0.48,0.53-1.02,1.03-1.6,1.47c-0.58,0.45-1.25,0.77-1.83,1.1c-0.29,0.17-0.58,0.35-0.83,0.55
		c-0.27,0.2-0.45,0.42-0.36,0.51c0.32,0.4,1.07,0.77,1.57,1.26c0.53,0.48,1.05,1.05,1.31,1.82c0.26,0.76,0.2,1.61,0,2.34
		c-0.44,1.47-1.34,2.63-2.25,3.7c-0.92,1.07-1.96,2.02-3.09,2.86L109.14,69.3z"/>
	<path class="st48" d="M129.86,59.6c1.8,0.67,3.49,1.52,5.14,2.41c-1.82-0.43-3.66-0.8-5.48-0.97L129.86,59.6z"/>
	<path class="st36" d="M127.1,79.1c-0.84-0.67-1.53-1.28-2.25-1.77c-0.68-0.49-1.39-0.71-1.72-0.64c-0.18,0.02-0.29,0.12-0.45,0.2
		c-0.16,0.07-0.38,0.18-0.64,0.34c-0.51,0.35-1.22,0.77-2.06,1.32l0.12-0.08l-0.76,0.34c-0.22,0.1-0.73,0.29-1.13,0.43
		c-0.42,0.16-0.85,0.35-1.26,0.55c-0.86,0.37-1.71,0.79-2.57,1.23c-0.44,0.21-0.88,0.44-1.3,0.69c-0.46,0.22-0.9,0.47-1.35,0.73
		c-0.93,0.5-1.83,1.08-2.92,1.64l-0.25-0.16c1.17-1.82,2.63-3.45,4.33-4.81c0.85-0.68,1.75-1.29,2.7-1.82
		c0.96-0.52,1.92-1.01,3.01-1.31l-0.07,0.03c0.81-0.45,1.61-0.95,2.51-1.3c0.88-0.35,1.95-0.52,2.89-0.14
		c0.94,0.37,1.62,1.12,2.16,1.89c0.53,0.79,0.95,1.65,1.3,2.51L127.1,79.1z"/>
	<path class="st54" d="M118.71,59.61c-0.22-1-0.33-2.05-0.16-3.09c0.1-0.5,0.26-1.05,0.7-1.41c0.48-0.38,1.14-0.2,1.56,0.09
		l-0.08-0.02c1.24-0.14,2.48-0.21,3.72-0.18c1.24,0.05,2.51,0.18,3.67,0.71c0.56,0.27,1.13,0.74,1.25,1.42l0.22,1.85
		c0.16,1.22,0.34,2.45,0.56,3.66l-0.15,0.03c-0.59-1.15-1.02-2.35-1.36-3.56c-0.19-0.56-0.31-1.33-0.45-1.74
		c-0.09-0.13-0.24-0.27-0.66-0.43c-0.82-0.3-2-0.41-3.13-0.47c-1.15-0.05-2.36-0.05-3.51-0.03l-0.53,0.01l-0.24-0.19
		c-0.12-0.09-0.21-0.17-0.23-0.19c-0.03-0.03,0.05-0.07,0.02-0.09c-0.08-0.04-0.38,0.3-0.51,0.7c-0.32,0.82-0.45,1.84-0.55,2.9
		L118.71,59.61z"/>
	<path class="st55" d="M103.92,95.03c0.62-0.22,1.37-0.08,1.65-0.31c0.37-0.14,0.64-0.37,1.01-0.58c0.71-0.44,1.69-1.04,3.29-1.21
		c0.79-0.03,1.73,0.13,2.47,0.55c0.72,0.45,1.29,0.98,1.62,1.58c0.71,1.17,0.9,2.39,0.68,3.69l-0.2,0.1
		c-0.5-0.92-1.06-1.83-1.76-2.58c-0.7-0.75-1.66-1.23-2.66-1.13c-1.01,0.05-1.99,0.5-3.05,0.73c-0.53,0.11-1.1,0.15-1.65,0.02
		c-0.57-0.15-0.98-0.47-1.47-0.66L103.92,95.03z"/>
	<path class="st54" d="M103.91,95.06c0.5,0.17,0.96,0.48,1.46,0.58c0.5,0.11,1.03,0.06,1.53-0.06c1.01-0.23,1.99-0.72,3.09-0.81
		c1.12-0.1,2.2,0.49,2.9,1.29c0.73,0.8,1.25,1.74,1.71,2.7l-0.13,0.07c-0.93-0.71-1.69-1.45-2.43-1.96
		c-0.78-0.51-1.29-0.68-1.96-0.61c-0.71,0.01-1.69,0.38-2.94,0.47c-0.62,0.05-1.33-0.02-1.96-0.32c-0.68-0.35-0.92-0.77-1.34-1.21
		L103.91,95.06z"/>
	<path class="st49" d="M92.34,107.53c-0.81-0.48-1.38-1.43-1.27-2.4c0.09-0.96,0.63-1.8,1.22-2.51l0,0.14
		c-0.31-0.47-0.3-1.04-0.15-1.53c0.16-0.5,0.46-0.92,0.8-1.3c0.69-0.74,1.52-1.31,2.39-1.79l-0.07,0.08c0.31-0.8,0.81-1.5,1.47-2.03
		c0.66-0.53,1.52-0.8,2.36-0.79c0.82,0.01,1.59-0.18,2.37-0.48c0.79-0.34,1.7-0.18,2.45,0.14l-0.05,0.14
		c-0.42-0.03-0.84-0.04-1.19,0.02c-0.36,0.08-0.62,0.19-0.96,0.4c-0.62,0.42-1.74,0.85-2.57,0.9c-0.7,0.11-1.13,0.35-1.55,0.73
		c-0.38,0.37-0.78,0.98-0.93,1.44l-0.15,0.44l-0.46,0.29c-0.76,0.48-1.53,0.93-2.06,1.48c-0.25,0.27-0.48,0.52-0.58,0.74
		c-0.05,0.11-0.08,0.2-0.09,0.28c-0.03,0.05,0.03,0.22-0.07,0.12l0.66,0.68l-0.7,0.67c-0.59,0.56-1.11,1.15-1.33,1.81
		c-0.26,0.64-0.07,1.47,0.54,2.2L92.34,107.53z"/>
	<path class="st57" d="M100.73,103.74c-0.49,0.99-1.03,1.62-1.62,2.15c-0.28,0.3-0.6,0.47-0.9,0.71c-0.31,0.19-0.64,0.35-0.96,0.53
		c-0.68,0.27-1.36,0.52-2.15,0.59c-0.78,0.1-1.62,0.1-2.67-0.16l-0.12-0.19c1.26-0.9,2.64-1.59,4.01-2.27
		c1.41-0.61,2.84-1.19,4.33-1.58L100.73,103.74z"/>
	<path class="st42" d="M109.05,108.56c-0.26-1.01-0.46-2.03-0.75-3c-0.3-0.96-0.79-1.88-1.65-2.26c-0.84-0.42-1.9-0.37-2.89-0.22
		c-1,0.17-2.01,0.45-3.01,0.7l-0.09-0.28c0.33-0.69,0.76-1.17,1.16-1.63c0.47-0.43,0.95-0.83,1.54-1.1
		c0.57-0.32,1.22-0.51,1.99-0.59c0.75-0.07,1.66,0.02,2.6,0.46c0.93,0.44,1.72,1.27,2.11,2.06c0.39,0.8,0.54,1.52,0.51,2.19
		c0,1.32-0.39,2.41-1.22,3.63L109.05,108.56z"/>
	<path class="st55" d="M98.29,127.85c-0.86-0.22-1.6-0.55-2.37-0.93c-0.37-0.22-0.74-0.42-1.16-0.81c-0.21-0.2-0.45-0.48-0.61-1.02
		c-0.18-0.56-0.01-1.28,0.18-1.64c0.38-0.75,0.61-0.99,0.94-1.38c0.42-0.43,0.69-0.68,1.02-0.97c0.64-0.53,1.26-0.97,1.86-1.44
		c1.25-0.86,2.46-1.7,3.75-2.49c1.28-0.81,2.59-1.6,4.15-2.36l0.18,0.13c-1.83,2.57-4.25,4.66-6.77,6.52l-1.92,1.35
		c-0.63,0.44-1.26,0.93-1.66,1.53c-0.19,0.29-0.09,0.58,0.13,0.89c0.22,0.3,0.49,0.57,0.77,0.85l1.68,1.63L98.29,127.85z"/>
	<path class="st37" d="M98.29,127.85l-1.76-1.55c-0.29-0.27-0.57-0.55-0.82-0.88c-0.12-0.17-0.24-0.35-0.29-0.59
		c-0.06-0.24,0.01-0.5,0.12-0.69c0.47-0.72,1.1-1.2,1.74-1.67l1.9-1.38c2.56-1.78,4.9-3.87,6.86-6.29l0.18,0.13
		c-0.33,1.73-1.16,3.23-2.18,4.55c-1,1.34-2.27,2.43-3.55,3.41c-0.67,0.45-1.34,0.89-1.97,1.28l-0.83,0.47
		c-0.23,0.15-0.58,0.46-0.61,0.38c-0.01-0.02,0.05-0.34-0.04-0.52c-0.08-0.16-0.12-0.1-0.1,0.02c0.04,0.24,0.24,0.58,0.43,0.91
		c0.36,0.71,0.79,1.42,1.08,2.26L98.29,127.85z"/>
	<path class="st51" d="M110.48,84.19c-1.44,0.61-2.72,1.23-4.07,1.69c-0.66,0.28-1.34,0.44-2.01,0.68
		c-0.67,0.18-1.31,0.37-1.58,0.53c-0.16,0.06,0.06,0,0.22-0.45c0.07-0.41-0.02-0.32,0.03-0.07c0.05,0.52,0.32,1.29,0.4,2.07
		c0.25,1.57,0.17,3.25-0.52,4.76l-0.22,0.01c-0.14-1.44-0.46-2.84-0.93-4.2c-0.23-0.68-0.52-1.34-0.75-2.06
		c-0.1-0.35-0.21-0.76-0.08-1.19c0.14-0.45,0.53-0.7,0.86-0.87c1.42-0.58,2.86-0.71,4.3-0.97c1.45-0.19,2.9-0.39,4.39-0.16
		L110.48,84.19z"/>
	<path class="st55" d="M102.84,93.33c1.31-0.21,2.62-0.45,3.92-0.71c1.28-0.28,2.63-0.53,3.81-1.01c0.49-0.29,0.62-1.02,0.68-1.64
		c0.05-0.65,0.01-1.31-0.06-1.97c-0.15-1.31-0.41-2.62-0.74-3.9l0.14-0.04c0.85,1.16,1.4,2.43,1.76,3.8c0.19,0.69,0.27,1.4,0.29,2.2
		c0,0.4-0.06,0.82-0.2,1.3c-0.17,0.46-0.37,1.09-1.2,1.57l-0.11,0.06l-0.16,0.07l-0.04,0.01l-0.07,0.02l-0.28,0.09l-0.53,0.15
		c-0.35,0.08-0.69,0.17-1.03,0.23c-0.69,0.09-1.36,0.21-2.04,0.22c-1.36,0.07-2.72,0.03-4.12-0.29L102.84,93.33z"/>
	<path class="st51" d="M120.14,64.1c0.01-0.03,0.02-0.04,0.04-0.07l-0.09,0.02l-0.38-0.34l-0.09-0.08l-0.08,0.11
		c-0.52,0.77-1.45,1.29-2.31,1.74c-0.89,0.45-1.81,0.81-2.75,1.13c-1.89,0.57-3.85,1.25-5.48,2.46c-0.82,0.59-1.57,1.29-2.16,2.13
		c-0.58,0.83-1.03,1.81-1.06,2.85c-0.01,0.52,0.08,1.05,0.3,1.52l0.66,1.35c0.4,0.88,0.79,1.79,1.03,2.71
		c-0.05,0.05-0.09,0.12-0.03,0.25c0.1,0.11,0.17,0.1,0.24,0.12c0.14,0.02,0.26,0.02,0.39,0.01c0.25-0.01,0.49-0.04,0.74-0.07
		c0.49-0.06,0.97-0.15,1.44-0.24c0.96-0.18,1.91-0.39,2.86-0.61l-0.04-0.17c-0.5,0.01-1-0.02-1.49,0.01l-1.46,0.04l-1.43-0.01
		c-0.05,0-0.09-0.01-0.14-0.01c-0.08-0.42-0.18-0.77-0.29-1.16c-0.15-0.51-0.32-1.01-0.5-1.5c-0.15-0.47-0.43-1.03-0.56-1.38
		c-0.1-0.28-0.11-0.52-0.08-0.83c0.08-0.58,0.35-1.27,0.83-1.9c0.48-0.62,1.1-1.22,1.78-1.75c0.68-0.54,1.47-0.96,2.27-1.38
		c0.8-0.43,1.65-0.67,2.66-1.12c0.95-0.43,1.91-0.87,2.8-1.48c0.45-0.3,0.89-0.62,1.3-0.99c0.2-0.19,0.4-0.4,0.59-0.62
		c0.07-0.1,0.14-0.18,0.21-0.28l0.57,0.35c0.38,0.25,0.81,0.45,1.21,0.68l0.12-0.13L120.14,64.1z"/>
	<path class="st54" d="M119.58,75.67c-0.29-1.78-0.8-3.5-1.09-5.31c-0.07-0.46-0.11-0.92-0.06-1.42c0.03-0.48,0.36-1.1,0.92-1.25
		c1.06-0.28,1.93,0.12,2.81,0.21c1.75,0.31,3.55,0.46,5.29,0.13c1.73-0.32,3.34-1.2,4.5-2.54l0.23,0.19
		c-0.32,2.11-2.17,3.92-4.27,4.67c-2.1,0.82-4.3,0.79-6.23,0.48c-0.46-0.08-1.02-0.2-1.37-0.28c-0.22-0.1-0.45-0.04-0.05-0.18
		c0.19-0.07,0.56-0.35,0.7-0.64c0.15-0.28,0.12-0.43,0.08-0.42c-0.07,0.02-0.16,0.36-0.21,0.74c-0.14,1.57-0.16,3.66-0.96,5.59
		L119.58,75.67z"/>
	<path class="st60" d="M125.62,76.26c0.22-1.69,0.82-3.3,1.56-4.82c0.79-1.5,1.77-2.9,2.85-4.19l0.11,0.09
		c-0.13,0.98-0.39,1.79-0.68,2.57c-0.28,0.78-0.63,1.49-0.97,2.2c-0.38,0.69-0.74,1.39-1.19,2.06c-0.43,0.69-0.92,1.36-1.54,2.1
		L125.62,76.26z"/>
	<path class="st61" d="M119.36,67.91c0.92-0.95,1.74-2.05,2.9-2.79c1.16-0.73,2.47-1.1,3.75-1.48c1.29-0.34,2.54-0.78,3.82-1.19
		c0.64-0.2,1.29-0.39,1.98-0.42c0.69-0.04,1.38,0.18,1.93,0.58l-0.08,0.12c-1.42-0.34-2.27,0.28-3.47,0.83
		c-1.15,0.59-2.45,1.12-3.77,1.51c-1.27,0.34-2.49,0.64-3.53,1.04c-1.02,0.4-2.1,1.3-3.41,1.9L119.36,67.91z"/>
	<path class="st49" d="M114.01,61.96c0.2-0.63,0.59-1.18,1.04-1.64c0.46-0.45,1.01-0.86,1.66-1.04c0.66-0.18,1.35-0.12,1.98-0.15
		c0.65,0,1.24-0.09,2,0.08l-0.29-0.03c0.68-0.28,1.39-0.29,2.1-0.04c0.7,0.23,1.33,0.75,1.68,1.37c0.69,1.27,0.65,2.62,0.22,3.79
		l-0.15,0c-0.5-1.14-0.85-2.21-1.4-2.96c-0.26-0.37-0.54-0.68-0.92-0.91c-0.37-0.21-0.87-0.35-1.34-0.42l-0.3-0.04l0.01,0.01
		c-0.37-0.3-1.02-0.49-1.58-0.39c-0.58,0.08-1.08,0.47-1.52,0.79c-0.46,0.31-0.95,0.56-1.45,0.84c-0.51,0.28-1.01,0.57-1.64,0.82
		L114.01,61.96z"/>
	<path class="st62" d="M100,103.79c0.37-0.36,0.72-0.68,1.01-1.02c0.29-0.32,0.51-0.66,0.62-0.93c0.1-0.29,0.08-0.48,0.04-0.66
		c-0.07-0.18-0.14-0.43-0.31-0.71l-0.72-1.22l1.51-0.66c0.36-0.16,0.85-0.32,1.2-0.53c0.37-0.2,0.68-0.4,0.82-0.54
		c0.15-0.11,0.3-0.31,0.22-0.78c-0.06-0.45-0.31-0.96-0.55-1.54l0.09-0.11c0.44,0.35,0.86,0.74,1.16,1.24
		c0.32,0.47,0.45,1.14,0.19,1.69c-0.24,0.55-0.71,0.95-1.18,1.26c-0.49,0.31-1,0.55-1.55,0.72l0.09-0.2
		c0.22,0.43,0.38,0.91,0.37,1.41c0,0.5-0.21,0.98-0.52,1.35c-0.64,0.74-1.55,1.14-2.46,1.39L100,103.79z"/>
	<path class="st36" d="M92.88,131.28c-1.17,0.01-2.21-0.72-2.73-1.72c-0.24-0.52-0.25-1.12-0.37-1.62c-0.12-0.51-0.3-1-0.47-1.53
		c-0.39-1.05-0.31-2.2-0.04-3.24c0.35-1.02,0.93-1.95,1.81-2.64l0.13,0.07c-0.03,1.11-0.23,2.06-0.42,2.99
		c-0.24,0.91-0.47,1.79-0.68,2.76c-0.09,0.48-0.09,1,0.12,1.44c0.2,0.45,0.63,0.77,0.95,1.09c0.61,0.68,1.11,1.37,1.76,2.26
		L92.88,131.28z"/>
	<path class="st56" d="M75.86,84.05c-0.92,1.5-1.71,3.08-2.46,4.58c-0.17,0.38-0.33,0.76-0.47,1.12c-0.06,0.18-0.12,0.36-0.14,0.5
		c-0.01,0.07-0.02,0.13-0.01,0.16c-0.01,0,0.05,0.09-0.04-0.16l0.04,0.07c0-0.02-0.04-0.09-0.07-0.13
		c-0.11-0.11-0.07-0.07-0.09-0.09c0,0,0.04,0.02,0.1,0.03c0.12,0.04,0.3,0.07,0.49,0.1c0.38,0.06,0.81,0.09,1.24,0.12
		c1.72,0.16,3.53,0.35,5.28,0.82c1.75,0.44,3.44,1.17,4.92,2.19l-0.04,0.1c-1.61-0.68-3.31-1.13-5.03-1.44
		c-1.72-0.31-3.47-0.44-5.22-0.57c-0.44-0.04-0.88-0.08-1.31-0.16c-0.41-0.1-0.94-0.11-1.23-0.57c-0.15-0.52,0.08-0.93,0.23-1.35
		c0.18-0.41,0.38-0.8,0.6-1.18c0.91-1.51,1.92-2.95,3.15-4.22L75.86,84.05z"/>
	<path class="st63" d="M91.12,88.06c-2.45-1.07-4.97-1.96-7.53-2.72c-1.27-0.4-2.56-0.76-3.86-1.05c-0.65-0.14-1.3-0.27-1.96-0.35
		c-0.63-0.05-1.38-0.18-1.9,0.13l-0.1-0.11c0.24-0.35,0.65-0.49,1-0.6c0.36-0.11,0.72-0.15,1.08-0.2c0.72-0.06,1.42-0.07,2.12-0.01
		c1.39,0.09,2.73,0.4,4.05,0.78c1.3,0.42,2.57,0.9,3.78,1.56c1.21,0.64,2.37,1.41,3.38,2.44L91.12,88.06z"/>
	<path class="st64" d="M91.12,88.06c-1.43-0.07-2.75-0.3-4.05-0.59c-1.3-0.27-2.56-0.63-3.82-0.99c-1.25-0.4-2.49-0.8-3.71-1.27
		l-1.83-0.68c-0.61-0.21-1.23-0.51-1.83-0.46l-0.1-0.11c0.65-0.4,1.36-0.23,2.02-0.21c0.67,0.07,1.33,0.19,1.99,0.32
		c1.31,0.27,2.61,0.61,3.9,0.99c2.55,0.81,5.07,1.75,7.5,2.86L91.12,88.06z"/>
	<path class="st64" d="M86.41,75.31c-0.49,0.27-0.87,0.57-0.95,0.87c-0.28,0.42-0.48,0.81-0.74,1.22c-0.48,0.82-1.02,1.58-1.53,2.36
		c-0.54,0.75-1.06,1.5-1.57,2.22c-0.24,0.37-0.48,0.73-0.66,1.09c-0.19,0.37-0.34,0.72-0.2,1.26l-0.1,0.11
		c-0.4-0.36-0.53-0.93-0.48-1.43c0.04-0.51,0.18-1,0.36-1.47c0.37-0.94,0.87-1.8,1.43-2.63c0.58-0.81,1.21-1.59,1.9-2.31
		c0.34-0.36,0.71-0.71,1.09-1.02c0.42-0.34,0.96-0.42,1.45-0.42L86.41,75.31z"/>
	<path class="st59" d="M95.13,78.8c-1.44-0.66-2.83-1.41-4.28-2.05c-1.42-0.66-2.88-1.35-4.45-1.43l0-0.15
		c0.83-0.51,1.8-0.54,2.65-0.45c0.87,0.08,1.66,0.37,2.42,0.69c0.73,0.37,1.43,0.78,2.05,1.32c0.63,0.53,1.18,1.13,1.67,1.94
		L95.13,78.8z"/>
	<path class="st56" d="M95.14,78.78c-1.77-0.01-3.24-0.65-4.64-1.26c-0.69-0.34-1.37-0.67-2.03-1.06c-0.67-0.35-1.29-0.79-2.06-1.17
		v-0.11c1.61,0.05,3.11,0.7,4.55,1.33c1.43,0.68,2.8,1.47,4.22,2.17L95.14,78.78z"/>
	<path class="st51" d="M77.59,111.11c-0.93,0.43-1.79,0.93-2.68,1.36c-0.88,0.45-1.78,0.87-2.66,1.27l0.78-1.27
		c0.12,0.61,0.27,1.21,0.35,1.82c0.09,0.61,0.21,1.22,0.27,1.83c0.15,1.22,0.24,2.45,0.29,3.69l-0.91-0.97
		c0.26,0.1,0.69,0.18,1.05,0.2c0.38,0.02,0.77,0.06,1.15,0.01c0.77-0.07,1.54-0.33,2.31-0.87l0.12,0.09
		c-0.52,0.75-1.3,1.31-2.17,1.59c-0.87,0.28-1.79,0.35-2.7,0.22l-0.08-0.01l-0.01-0.09c-0.34-2.44-0.67-4.88-0.96-7.33l-0.01-0.1
		l0.09-0.03c0.94-0.32,1.89-0.63,2.85-0.9c0.96-0.27,1.92-0.55,2.92-0.64L77.59,111.11z"/>
	<path class="st40" d="M80.08,123.01c0.02,1.15-0.18,2.19-0.47,3.19c-0.28,1.01-0.68,1.95-1.12,2.88l0.12-0.83
		c0.03,0.24,0.19,0.66,0.33,0.96c0.13,0.33,0.33,0.58,0.54,0.85c0.43,0.5,1.24,0.86,2.35,1.1l0.04,0.14
		c-0.96,0.27-2.09,0.3-2.99-0.25c-0.9-0.55-1.46-1.51-1.71-2.52l-0.01-0.05l0.02-0.05l2.79-5.48L80.08,123.01z"/>
	<path class="st65" d="M144.08,90.52c0.06,1.5,5.8,0.22,4.58-1.92C147.43,86.45,144.01,88.94,144.08,90.52z"/>
	<path class="st65" d="M144.93,93.41c-1.05,1.05,2.63,0.71,2.63,0.71S145.98,92.36,144.93,93.41z"/>
	<path class="st65" d="M113.8,111.21c-0.12,3.51,4.75,3.93,5.4,1.41C119.84,110.1,113.84,109.88,113.8,111.21z"/>
	<path class="st65" d="M118.56,104.97c-2.61,1.82,2.2,2.1,2.2,2.1S120.83,103.39,118.56,104.97z"/>
	<path class="st65" d="M126.55,104.58c1.04,0.65,2.79-1.04,1.92-1.57C127.59,102.47,125.51,103.92,126.55,104.58z"/>
	<path class="st65" d="M106.26,120.57c1.8-0.3,0.58,2.8-0.94,2.41C103.81,122.58,104.9,120.8,106.26,120.57z"/>
	<path class="st65" d="M127.23,93.41c-1.35,1.18,0.01,2.32,1.23,1.42C129.69,93.93,128.59,92.23,127.23,93.41z"/>
	<path class="st66" d="M95.16,72.52c-0.03,2.94,5.23-0.53,4.18-1.91C98.29,69.23,95.19,70.02,95.16,72.52z"/>
	<path class="st66" d="M81.5,98c1.94,0.4,1.21-2.1,0-2.23C80.29,95.64,79.56,97.6,81.5,98z"/>
	<path class="st67" d="M92.87,86.12c-2.43-0.38-4.45-1.05-6.52-1.63c-1.02-0.32-2.04-0.59-3.07-0.89L82.9,83.5l-0.2-0.05
		c-0.03-0.01-0.01-0.03-0.08-0.04c-0.18-0.05-0.42-0.06-0.66-0.04c-0.49,0.01-1.02,0.16-1.61,0.36l-0.11-0.1
		c0.78-0.82,1.98-1.41,3.15-1.17c1.14,0.09,2.27,0.32,3.38,0.63c2.19,0.68,4.27,1.66,6.18,2.93L92.87,86.12z"/>
	<path class="st60" d="M85.34,91.83c-1.79-0.68-3.63-1.22-5.5-1.61c-1.87-0.38-3.77-0.64-5.68-0.63l-0.13,0l0.01-0.12
		c0.09-1.96,0.75-3.83,1.72-5.5l0.13,0.07c-0.17,1-0.32,1.94-0.43,2.84c-0.04,0.46-0.08,0.9-0.1,1.34c0,0.42-0.02,0.91,0.01,1.22
		l-1.24-1.18c1.03-0.13,2.05-0.06,3.06,0.03c1,0.15,1.99,0.31,2.94,0.63c0.96,0.28,1.88,0.66,2.77,1.11
		c0.89,0.45,1.74,0.98,2.51,1.67L85.34,91.83z"/>
	<path class="st48" d="M105.66,48.18c1.05-0.04,2.02,0.2,2.91,0.55c0.9,0.33,1.72,0.82,2.5,1.36c0.75,0.57,1.46,1.19,2.06,1.94
		c0.61,0.74,1.14,1.55,1.47,2.55l-0.1,0.11c-1.38-1.21-2.8-2.35-4.3-3.41c-1.47-1.09-3-2.09-4.6-2.97L105.66,48.18z"/>
	<path class="st48" d="M45.47,77.97c0.81-1.7,1.68-3.38,2.6-5.02c0.97-1.62,1.98-3.21,3.05-4.76l0.12,0.08
		c-0.09,1.07-0.36,2-0.7,2.89c-0.32,0.9-0.75,1.72-1.19,2.53c-0.48,0.79-0.98,1.58-1.6,2.3c-0.59,0.72-1.27,1.44-2.16,2.05
		L45.47,77.97z"/>
	<path class="st48" d="M42.56,116.58c-1.34-0.9-2.3-2.29-2.89-3.78c-0.61-1.49-0.89-3.09-1.04-4.69c-0.27-3.2,0-6.41,0.44-9.57
		c0.5-3.16,1.11-6.3,1.97-9.38c0.89-3.08,2.05-6.06,3.38-8.97l0.13,0.06c-0.4,1.57-0.89,3.08-1.26,4.63
		c-0.43,1.52-0.83,3.05-1.14,4.58c-0.63,3.06-1.24,6.17-1.61,9.29c-0.55,3.09-0.81,6.2-0.76,9.26c0.02,1.53,0.18,3.06,0.62,4.5
		c0.37,1.47,1.1,2.82,2.26,3.95L42.56,116.58z"/>
	<path class="st51" d="M48.32,77.58c1-0.64,1.13-1.92,1.65-2.97c0.25-0.54,0.8-1.02,1.44-1.06l1.76-0.06
		c2.33-0.08,4.66-0.26,6.98-0.46l0.02,0.15c-1.11,0.64-2.25,1.01-3.41,1.29c-1.16,0.29-2.33,0.43-3.52,0.5l-0.91,0l-0.46-0.01
		l-0.22-0.01c-0.03,0-0.07-0.01-0.09-0.01c-0.21-0.02-0.2-0.11-0.54,0.22c-0.27,0.32-0.57,0.87-0.96,1.4
		c-0.39,0.51-0.97,1.08-1.65,1.15L48.32,77.58z"/>
	<path class="st49" d="M50.45,82.79c-0.94-0.71-1.86-1.49-2.92-2.2c-1.04-0.71-2.26-1.31-3.59-1.58c0.09-0.03,0.18-0.08,0.27-0.11
		c0.65-0.22,1.32-0.37,2.01-0.5c0.66-0.09,1.6-0.14,2.16-0.71l-0.06-0.1c-0.62,0.39-1.37,0.33-2.1,0.31c-0.74,0-1.47,0.09-2.19,0.26
		c-1.43,0.34-2.8,0.93-4.02,1.77l-0.36,0.25l0.44-0.07c1.19-0.18,2.4-0.21,3.58,0.02c1.18,0.22,2.29,0.72,3.33,1.33
		c1.04,0.61,2.03,1.32,3.09,1.93c1.05,0.61,2.18,1.11,3.36,1.4l0.03-0.11C52.38,84.14,51.39,83.51,50.45,82.79z"/>
	<path class="st51" d="M106.15,60.51c-0.44-1.48-0.76-3.01-0.92-4.55c-0.12-1.54-0.29-3.11,0.28-4.69c0.1-0.19,0.22-0.41,0.5-0.53
		c0.3-0.11,0.53,0.02,0.72,0.09c0.38,0.16,0.71,0.36,1.04,0.57c0.66,0.41,1.3,0.85,1.93,1.29c1.27,0.89,2.49,1.82,3.69,2.8
		l-0.14,0.18c-1.7-0.31-3.17-0.89-4.57-1.52c-0.71-0.28-1.36-0.67-2.01-0.94c-0.31-0.13-0.63-0.32-0.79-0.36
		c-0.01,0-0.03-0.01-0.03-0.01c0.07,0.03,0.14,0.05,0.22,0.05l-0.07-0.01l-0.04,0l-0.01,0l0.21,0.02l0.07,0
		c0.2,0,0.39-0.04,0.57-0.11c0.69-0.34,0.64-0.53,0.69-0.54c-0.01-0.03-0.11,0.25-0.16,0.52c-0.06,0.28-0.08,0.6-0.13,0.93
		c-0.13,0.66-0.12,1.37-0.23,2.1c-0.13,1.46-0.27,2.98-0.63,4.67L106.15,60.51z"/>
	<path class="st51" d="M101.92,57.57c-1-1.34-1.51-3.09-1.21-4.8l0.01-0.08l0.08-0.03l5-1.56l0.04,0.14
		c-0.67,0.78-1.41,1.31-2.18,1.75c-0.76,0.46-1.58,0.79-2.39,1.07l0.87-0.94c-0.06,0.16-0.09,0.57-0.13,0.87
		c-0.05,0.33-0.04,0.67-0.07,1.03c0.01,0.35-0.02,0.74,0.02,1.13c-0.01,0.4,0.06,0.81,0.08,1.32L101.92,57.57z"/>
	<path class="st57" d="M71.22,55.29l-0.37,0.48c-0.14,0.13-0.34,0.26-0.49,0.39c-0.25,0.23-0.44,0.43-0.66,0.67
		c-0.43,0.41-0.84,0.84-1.25,1.2c-0.8,0.77-1.57,1.41-2.2,1.97c-0.32,0.27-0.58,0.52-0.79,0.7c-0.22,0.19-0.37,0.29-0.59,0.46
		c-0.42,0.32-0.56,1.46-0.36,3.05l-0.2,0.22c-0.93-0.79-1.8-1.92-1.79-3.29c0.01-1.37,0.85-2.52,1.78-3.36
		c0.97-0.83,2.08-1.44,3.24-1.92c0.58-0.24,1.17-0.44,1.79-0.58c0.31-0.06,0.63-0.12,0.94-0.13c0.29-0.02,0.59-0.06,0.89-0.13
		L71.22,55.29z"/>
	<path class="st51" d="M77.53,50.55c-0.68-0.37-1.27-0.8-1.87-1.24l0.83,0.16c-0.99,0.81-1.99,1.61-3.03,2.33
		c-1.03,0.73-2.08,1.43-3.15,2.09c-1.06,0.68-2.16,1.3-3.27,1.91c-1.13,0.6-2.26,1.2-3.52,1.7l-0.1-0.11
		c1.9-1.72,3.96-3.27,6.08-4.71c2.13-1.43,4.36-2.71,6.63-3.9l0.07-0.03l0.05,0.06l1.39,1.65L77.53,50.55z"/>
	<path class="st65" d="M65.44,104.58c-2.19-0.22-1.45,3.36,0,3.39C66.89,107.99,66.76,104.71,65.44,104.58z"/>
	<path class="st65" d="M67.15,100.77c0.66,0.92,2.1-1.1,1.58-1.27C68.2,99.32,67.15,100.77,67.15,100.77z"/>
	<path class="st65" d="M70.53,94.83c-0.49,1.47,0.96,0.97,1.35,0.3C72.28,94.46,70.53,94.83,70.53,94.83z"/>
	<path class="st65" d="M80.26,77.98c1.09,0.06,0.72-2.23,0.05-2.33C79.63,75.54,79.17,77.92,80.26,77.98z"/>
	<path class="st55" d="M48.38,77.57c1.39,0.31,2.77,0.65,4.18,0.77c1.39,0.17,2.85,0.17,4.13-0.43l0.07,0.13
		c-0.42,0.8-1.2,1.28-1.98,1.54c-0.79,0.28-1.6,0.3-2.38,0.23c-0.77-0.11-1.51-0.3-2.18-0.65c-0.68-0.34-1.3-0.78-1.87-1.45
		L48.38,77.57z"/>
	<path class="st49" d="M59.47,60.34c-0.28,1.32,0.09,2.74,0.89,3.81c0.76,1.11,1.91,1.92,3.14,2.5l-0.06,0.13
		c-0.85,0.19-1.64,0.06-2.38-0.25c-0.75-0.3-1.4-0.85-1.91-1.53c-0.48-0.7-0.8-1.55-0.78-2.42c0-0.85,0.28-1.71,0.96-2.29
		L59.47,60.34z"/>
	<path class="st49" d="M98.6,43.85c-0.07,2.47,0.02,5,0.31,7.48c0.31,2.47,0.75,4.99,1.94,7.23c-1.41-2.12-2.11-4.63-2.67-7.1
		c-0.54-2.5-0.88-5.02-1.06-7.59L98.6,43.85z"/>
	<path class="st55" d="M87.46,47.11c0.2,1.01,0.51,2.08,0.88,3.09c0.37,1.02,0.82,2.03,1.34,3c-0.73-0.83-1.4-1.72-2.01-2.67
		c-0.61-0.95-1.16-1.91-1.64-2.99L87.46,47.11z"/>
	<path class="st49" d="M73.39,58.87c-0.74-1.24-1.63-2.38-2.51-3.5l-0.32-0.41l0.53-0.18c1.17-0.39,2.18-1.2,3.13-2.07
		c0.98-0.85,1.9-1.8,2.92-2.67c0.53-0.44,0.96-0.87,1.69-1.28c0.66-0.38,1.44-0.55,2.17-0.59c1.47-0.07,2.8,0.43,3.87,0.28
		c0.52-0.08,0.98-0.36,1.33-0.84c0.26-0.34,0.24-0.93-0.02-1.49c-0.5-1.14-1.49-2.07-2.17-3.29c-0.16-0.31-0.3-0.68-0.21-1.1
		c0.08-0.43,0.43-0.7,0.74-0.88c0.62-0.37,1.42-0.43,2.1-0.23c1.37,0.42,2.45,1.31,3.37,2.35l-0.62,0c0.5-0.73,1.46-1.19,2.35-1.14
		c0.9,0.03,1.73,0.35,2.44,0.88c0.65,0.5,1.19,1.06,1.69,1.21c0.25,0.07,0.48,0.08,0.76,0c0.14-0.04,0.28-0.09,0.43-0.15
		c0.16-0.08,0.13-0.09,0.15-0.1c-0.01,0.05,0.02-0.12-0.13-0.4c-0.13-0.26-0.34-0.55-0.55-0.84c-0.44-0.58-0.96-1.13-1.46-1.78
		l-0.09-0.13l-0.11-0.18c-0.1-0.18-0.27-0.62-0.02-1.05c0.24-0.38,0.55-0.46,0.7-0.51c0.19-0.05,0.31-0.06,0.45-0.07
		c0.51-0.02,0.91,0.04,1.32,0.11c0.81,0.14,1.58,0.35,2.34,0.61c0.76,0.29,1.49,0.56,2.27,1.11c0.48,0.39,0.62,0.64,0.89,0.89
		c0.25,0.25,0.5,0.49,0.77,0.7c0.53,0.42,1.11,0.69,1.74,0.77c0.34,0.04,0.58,0.01,1.01-0.04c0.16-0.02,0.43-0.03,0.71-0.01
		c0.26,0.04,0.52,0.11,0.78,0.26c0.52,0.31,0.81,0.94,0.78,1.45c-0.01,0.51-0.17,0.96-0.39,1.34c-0.46,0.8-1.13,1.25-1.62,1.79
		c-0.52,0.53-1,1.09-1.33,1.75c-0.33,0.65-0.5,1.39-0.58,2.15h-0.15c-0.18-1.55,0.44-3.21,1.49-4.4c0.49-0.63,1.07-1.15,1.31-1.73
		c0.28-0.6,0.19-1.24-0.11-1.34c-0.08-0.04-0.19-0.06-0.31-0.08c-0.11,0.01-0.22,0-0.43,0.04c-0.32,0.06-0.84,0.15-1.27,0.11
		c-0.91-0.05-1.78-0.41-2.48-0.9c-0.35-0.24-0.68-0.51-0.97-0.8c-0.29-0.27-0.6-0.65-0.74-0.72c-0.49-0.33-1.2-0.61-1.88-0.84
		c-0.69-0.23-1.4-0.43-2.1-0.56c-0.34-0.06-0.7-0.1-0.96-0.09c-0.06,0-0.12,0.01-0.12,0.01c-0.03,0,0.08,0.01,0.22-0.21
		c0.14-0.26,0.05-0.49,0.02-0.51c0.01,0.01,0.08,0.14,0.03,0.06l0.07,0.11l1.39,1.82c0.24,0.33,0.47,0.68,0.67,1.1
		c0.1,0.22,0.19,0.45,0.23,0.76c0.04,0.3-0.01,0.71-0.24,1.03c-0.19,0.3-0.57,0.51-0.75,0.58c-0.21,0.08-0.43,0.16-0.66,0.21
		c-0.46,0.12-1.03,0.09-1.5-0.1c-0.95-0.4-1.44-1.08-1.98-1.52c-0.97-0.85-2.59-1.23-3.44-0.16l-0.32,0.39l-0.31-0.4
		c-0.75-0.97-1.71-1.96-2.89-2.32c-0.58-0.18-1.2-0.15-1.74,0.14c-0.25,0.14-0.48,0.32-0.53,0.56c-0.05,0.24,0.04,0.53,0.19,0.79
		c0.62,1.1,1.67,1.97,2.38,3.19c0.35,0.59,0.61,1.48,0.13,2.3c-0.36,0.63-1.05,1.2-1.83,1.38c-1.56,0.33-2.85-0.13-4.02-0.01
		c-1.2,0.05-2.07,0.64-3.1,1.53c-2.01,1.59-3.88,3.73-6.68,4.49l0.21-0.59c0.41,0.61,0.76,1.25,1.11,1.89
		c0.35,0.64,0.68,1.3,0.92,1.99L73.39,58.87z"/>
	<path class="st49" d="M82.8,48.37c1.08,1.4,2.08,2.83,3,4.33c0.89,1.5,1.79,3.05,2.17,4.75c-0.62-1.62-1.7-2.99-2.77-4.32
		c-1.1-1.32-2.28-2.58-3.5-3.76L82.8,48.37z"/>
	<path class="st66" d="M45.72,86.47c-1.73,2.96,2.1,2.33,2.64,1.28C48.89,86.71,46.63,84.93,45.72,86.47z"/>
	<path class="st66" d="M41.85,91.76c-1.7,1.6,0.64,1.77,0.95,1.31C43.11,92.62,41.85,91.76,41.85,91.76z"/>
	<path class="st68" d="M71.19,61.83c-0.49,1.49,1.88,1.63,2.27,0.84C73.85,61.88,71.67,60.33,71.19,61.83z"/>
	<path class="st68" d="M77.59,65.58c-0.92-0.4-1.05,1.61-0.29,1.72C78.06,67.39,78.56,66,77.59,65.58z"/>
	<path class="st68" d="M91.51,58.84c-0.38-0.97-1.44,0.19-0.91,0.76C91.13,60.17,91.76,59.47,91.51,58.84z"/>
	<path class="st68" d="M68.86,73.11c-0.79,0.06-0.59,1.18,0,1.18C69.45,74.29,69.65,73.05,68.86,73.11z"/>
	<path class="st68" d="M63.03,79.3c1.04,1.09,2.22-1.88,1.69-2.49C64.2,76.2,61.73,77.94,63.03,79.3z"/>
	<path class="st68" d="M62.03,86.77c0.56,0.61,1.26-1.45,0.63-1.45C62.03,85.33,61.31,85.99,62.03,86.77z"/>
	<path class="st68" d="M83.38,105.83c-0.99,0.06-0.53,1.38,0,1.25C83.9,106.94,84.36,105.76,83.38,105.83z"/>
	<path class="st68" d="M88.56,94.73c0.45,0.44,1.68-0.47,0.94-1.32C88.77,92.55,87.96,94.14,88.56,94.73z"/>
	<path class="st68" d="M96.06,87.88c0.39-0.06,0.59-0.88,0-1C95.47,86.77,95.66,87.94,96.06,87.88z"/>
	<path class="st68" d="M97.32,93.16c0.11,0.53,2.28-0.42,2.02-0.84C99.08,91.9,97.14,92.26,97.32,93.16z"/>
	<path class="st68" d="M101.72,79.93c0.54,0.91,1.29-0.96,0.8-1.13C102.04,78.63,101.4,79.39,101.72,79.93z"/>
	<path class="st69" d="M58.25,92.27c0.31-0.98,0.82-1.88,1.23-2.78c0.19-0.45,0.37-0.93,0.32-1.38c-0.03-0.46-0.36-0.82-0.75-1.09
		c-0.82-0.52-1.8-0.8-2.78-0.94c-0.49-0.07-0.99-0.11-1.5-0.16c-0.26-0.03-0.51-0.06-0.78-0.15c-0.26-0.08-0.57-0.28-0.66-0.61
		c0.02-2.31,1.82-3.75,2.75-5.42c0.47-0.87,0.41-1.86,0.56-2.9c0.15-0.99,0.43-2.12,1.33-2.82c0.41-0.34,1-0.51,1.41-0.68
		c0.42-0.19,0.79-0.5,1.11-0.87c0.63-0.74,1.09-1.64,1.5-2.55c0.85-1.82,1.34-3.77,2.18-5.66c0.84-1.85,1.9-3.67,3.51-5.04
		c0.8-0.67,1.78-1.19,2.86-1.32c1.08-0.14,2.16,0.17,3.09,0.66l-0.32,0.02c1.77-1.3,3.65-2.42,5.71-3.22
		c1.03-0.38,2.12-0.69,3.26-0.68c0.59,0.02,1.1,0.11,1.65,0.2c0.54,0.12,1.09,0.15,1.65,0.58c0.14,0.11,0.26,0.34,0.25,0.56
		c-0.01,0.21-0.08,0.36-0.15,0.5c-0.15,0.27-0.33,0.48-0.5,0.7c-0.36,0.43-0.71,0.8-0.98,1.25c-0.26,0.4-0.51,1-0.4,1.27
		c0.02,0.08,0.22,0.12,0.46,0.06c0.23-0.05,0.47-0.15,0.7-0.26c1.88-0.93,3.46-2.54,4.15-4.53c0.17-0.5,0.29-1.01,0.35-1.53
		c0.03-0.26,0.04-0.54,0.18-0.86c0.13-0.28,0.33-0.51,0.55-0.71c0.91-0.75,2.08-0.97,3.19-0.95c1.11,0.04,2.27,0.4,3.07,1.24
		c0.82,0.82,1.1,2.04,1.05,3.12c-0.03,1.05,0.12,2.18,0.87,2.87c0.75,0.68,1.98,0.56,2.8-0.03c0.41-0.29,0.75-0.71,0.86-1.19
		c0.07-0.25,0.03-0.46-0.01-0.75c-0.03-0.3,0.07-0.63,0.24-0.87c0.77-0.96,1.99-1.12,3.06-1.18l0.01,0.3
		c-1.01,0.15-2.17,0.59-2.49,1.27c-0.08,0.17-0.07,0.25-0.05,0.39l0.04,0.17c0.02,0.09,0.04,0.18,0.05,0.28
		c0.02,0.19,0.01,0.38-0.02,0.57c-0.13,0.76-0.58,1.38-1.11,1.82c-0.54,0.44-1.2,0.75-1.95,0.83c-0.74,0.1-1.62-0.11-2.28-0.63
		c-1.34-1.1-1.54-2.73-1.62-3.85c-0.04-0.96-0.32-1.49-0.75-1.85c-0.42-0.35-1.12-0.52-1.84-0.48c-0.69,0.02-1.53,0.34-1.68,0.58
		c-0.03,0.04-0.01,0.05,0.05-0.03c0.03-0.05,0.07-0.14,0.08-0.21c0.02-0.15-0.01,0.06-0.01,0.09l-0.01,0.05l0,0.03l0,0.01
		c-0.02,0.17,0.03-0.21,0.02-0.17l-0.01,0.13l-0.02,0.26c-0.06,0.69-0.18,1.38-0.39,2.05c-0.82,2.7-2.82,4.85-5.25,6.12
		c-0.34,0.17-0.7,0.35-1.29,0.49c-0.31,0.06-0.65,0.14-1.27,0.07c-0.17-0.03-0.34-0.07-0.51-0.12c-0.21-0.08-0.39-0.15-0.6-0.28
		c-0.41-0.25-0.79-0.66-1-1.07c-0.42-0.85-0.35-1.4-0.33-1.8c0.04-0.4,0.12-0.67,0.21-0.93c0.17-0.5,0.36-0.86,0.56-1.21
		c0.21-0.35,0.39-0.63,0.66-0.97l0.5-0.63c0.13-0.16,0.24-0.34,0.18-0.26c-0.02,0.05-0.16,0.2-0.2,0.77
		c-0.01,0.26,0.05,0.66,0.2,0.97c0.13,0.3,0.34,0.52,0.46,0.63c0.52,0.41,0.41,0.24,0.3,0.25c-0.12-0.03-0.33-0.07-0.54-0.11
		l-0.68-0.09l-0.36-0.04c-0.06,0-0.1-0.01-0.17-0.01c-0.52,0-1.35,0.2-2.17,0.53c-1.65,0.64-3.44,1.79-4.96,2.85l-1.43,1l-1.45-0.79
		c-0.54-0.29-0.96-0.39-1.34-0.36c-0.38,0.03-0.85,0.22-1.37,0.64c-1.05,0.84-2.03,2.36-2.82,3.95c-0.74,1.47-1.38,3.64-2.35,5.59
		c-0.49,1-1.02,2.04-1.99,3.1c-0.48,0.52-1.15,1.07-1.98,1.42l-0.36,0.14l-0.22,0.07c-0.06,0.02-0.13,0.03-0.17,0.05
		c-0.11,0.03-0.16,0.06-0.22,0.08c-0.14-0.01-0.46,0.48-0.62,1.32c-0.05,0.21-0.07,0.37-0.11,0.62l-0.05,0.35
		c-0.02,0.16-0.04,0.32-0.07,0.49c-0.12,0.65-0.34,1.36-0.69,1.99c-0.75,1.27-1.52,1.86-1.99,2.54c-0.26,0.34-0.48,0.69-0.68,1.07
		c-0.1,0.19-0.18,0.37-0.24,0.5c-0.07,0.13-0.05,0.21-0.12,0.01c-0.04-0.11-0.15-0.27-0.25-0.32c-0.1-0.06-0.11-0.04-0.1-0.03
		c0.06,0.04,0.26,0.11,0.47,0.15l1.52,0.31c1.09,0.26,2.16,0.64,3.14,1.38c0.48,0.36,1.03,1.03,1.03,1.8
		c0.01,0.74-0.27,1.27-0.52,1.73c-0.55,0.92-1.14,1.69-1.56,2.61L58.25,92.27z"/>
	<path class="st69" d="M110.42,68.11c-1.38,0.1-2.8,0.06-4.08,0.13c-0.64,0.05-1.23,0.16-1.67,0.4c-0.44,0.24-0.74,0.58-0.98,1.03
		c-0.12,0.23-0.23,0.48-0.32,0.74l-0.35,0.97c-0.26,0.65-0.53,1.3-0.85,1.96c-0.62,1.31-1.46,2.71-2.65,3.84
		c-0.29,0.28-0.6,0.54-0.91,0.79l-0.87,0.65c-0.22,0.21-0.43,0.49-0.56,0.83c-0.29,0.69-0.39,1.99-0.66,3.44
		c-0.28,1.46-0.65,3.05-1.61,4.66c-0.47,0.78-1.07,1.52-1.81,2.16c-0.37,0.32-0.77,0.6-1.22,0.85c-0.22,0.12-0.45,0.24-0.7,0.35
		c-0.29,0.11-0.42,0.19-0.94,0.32l0.74-0.28c-0.76,0.46-1.58,1-2.31,1.52c-0.7,0.5-1.49,1.16-1.7,1.46
		c-0.04,0.02,0.01,0.11,0.17-0.45c0.06-0.23,0.09-0.9-0.21-1.42c-0.06-0.13-0.14-0.25-0.23-0.35c-0.09-0.1,0.01,0.01,0.01,0.01
		l0.16,0.19c0.44,0.55,0.76,1.04,1.08,1.58c0.62,1.07,1.14,2.23,1.41,3.65c0.27,1.38,0.18,3.22-0.79,4.74
		c-0.46,0.75-1.06,1.35-1.67,1.81c-0.47,0.35-1.02,0.68-1.52,0.96c-1.03,0.57-2.15,1.01-3.03,1.34c-0.44,0.17-0.8,0.32-1.01,0.44
		c-0.21,0.12-0.28,0.17-0.38,0.29c-0.17,0.15-0.54,1.25-0.77,2.09c-0.25,0.9-0.47,1.83-0.64,2.76c-0.33,1.86-0.62,3.76-0.55,5.55
		c0.04,0.88,0.17,1.75,0.42,2.4c0.06,0.22,0.49,0.81,0.71,1.3c0.25,0.5,0.46,1,0.64,1.51c0.71,2.03,1.01,4.08,0.99,6.14l-0.29,0.04
		c-0.3-1.96-0.84-3.91-1.68-5.71c-0.42-0.92-0.97-1.68-1.59-2.53c-0.55-0.9-0.77-1.92-0.91-2.93c-0.26-2.02-0.15-4.05,0.09-6.06
		c0.12-1,0.29-2,0.5-2.99c0.24-0.98,0.4-1.98,0.94-2.93c0.56-0.95,1.59-1.45,2.5-1.84c0.93-0.4,1.83-0.79,2.68-1.3
		c0.84-0.52,1.7-1.05,2.17-1.85c0.49-0.79,0.56-1.78,0.38-2.72c-0.19-0.94-0.59-1.84-1.09-2.68c-0.25-0.42-0.53-0.82-0.84-1.2
		c-0.08-0.11-0.14-0.14-0.26-0.35c-0.09-0.18-0.11-0.4-0.06-0.56c0.08-0.33,0.25-0.56,0.41-0.78c1.43-1.58,3.17-2.58,4.9-3.63
		l0.02-0.01l0.05-0.02c1.2-0.34,2.27-1.27,2.97-2.37c0.72-1.11,1.1-2.41,1.4-3.73c0.3-1.31,0.44-2.71,1.09-3.99
		c0.33-0.64,0.82-1.19,1.42-1.59c0.58-0.37,1.13-0.73,1.64-1.17c1.02-0.86,1.82-1.96,2.49-3.13c0.72-1.16,1.16-2.42,1.96-3.61
		c0.42-0.57,1.01-1.04,1.69-1.27c0.68-0.24,1.39-0.26,2.08-0.23c1.38,0.08,2.72,0.35,4.07,0.45L110.42,68.11z"/>
	<path class="st54" d="M82.06,132.33c-0.41-1.16-0.55-2.38-0.59-3.59c-0.04-1.22,0.05-2.44,0.24-3.64c0.42-2.4,1.23-4.71,2.25-6.9
		l0.13,0.06c-0.03,1.31-0.2,2.5-0.38,3.67l-0.55,3.42c-0.21,1.12-0.36,2.24-0.53,3.37c-0.15,1.14-0.32,2.29-0.44,3.57L82.06,132.33z
		"/>
	<path class="st50" d="M81.75,130.31c0.73,0.68,1.92,0.87,2.71,0.21c0.8-0.61,1.26-1.57,1.63-2.5c0.67-1.93,1.32-3.89,2.24-5.74
		c0.93-1.84,2.12-3.57,3.66-4.97c1.52-1.4,3.35-2.44,5.28-3.16l0.05,0.14c-0.85,0.63-1.7,1.17-2.44,1.85
		c-0.78,0.61-1.49,1.28-2.11,2.01c-1.24,1.46-2.27,3.04-3.12,4.79c-0.9,1.75-1.57,3.55-2.48,5.51c-0.5,0.99-1.13,2.03-2.26,2.7
		c-0.57,0.31-1.3,0.43-1.9,0.25c-0.61-0.16-1.07-0.54-1.38-0.99L81.75,130.31z"/>
	<path class="st42" d="M82.62,118.83c2.96-1.45,5.88-3.01,8.62-4.82c0.69-0.45,1.36-0.92,1.99-1.44c0.62-0.53,1.25-1.08,1.58-1.81
		c0.38-0.7,0.31-1.61-0.3-2.16c-0.58-0.55-1.37-0.87-2.15-1.06l0.03-0.15c0.88-0.07,1.79,0.06,2.67,0.65
		c0.43,0.3,0.83,0.82,0.97,1.45c0.15,0.65,0.03,1.22-0.17,1.78l-0.13,0.33c-0.07,0.15-0.13,0.27-0.2,0.39
		c-0.14,0.24-0.3,0.44-0.45,0.63c-0.31,0.38-0.63,0.71-0.96,1.02c-0.66,0.61-1.37,1.11-2.07,1.6c-1.44,0.92-2.93,1.72-4.49,2.34
		c-1.56,0.63-3.17,1.15-4.89,1.38L82.62,118.83z"/>
	<path class="st51" d="M82.04,115.52c0.3,0.24,0.47,0.5,0.62,0.76c0.15,0.26,0.2,0.54,0.3,0.81c0,0.29,0.07,0.56,0.02,0.86
		c-0.04,0.3-0.1,0.6-0.29,0.94l-0.07,0.02c-0.29-1.11-0.51-2.24-0.65-3.37L82.04,115.52z"/>
	<path class="st51" d="M91.42,106.43c-0.73,1.28-1.7,2.2-2.69,2.98c-0.48,0.43-1.02,0.72-1.51,1.08l-1.54,0.9
		c-0.53,0.24-1.02,0.52-1.49,0.76c-0.23,0.11-0.46,0.22-0.63,0.31c-0.17,0.09-0.31,0.19-0.31,0.04c-0.01-0.04,0.01-0.09,0-0.23
		c-0.03,0.08-0.06,0.15-0.07,0.15c-0.04,0.05-0.08,0.19-0.13,0.31c-0.1,0.26-0.17,0.55-0.26,0.85c-0.2,0.61-0.36,1.25-0.67,1.92
		l-0.22,0.04c-0.19-1.23-0.55-2.41-0.26-3.77c0.33-0.64,0.88-0.99,1.38-1.36c0.52-0.35,1.06-0.67,1.6-0.97
		c2.21-1.15,4.47-2.14,6.69-3.21L91.42,106.43z"/>
	<path class="st53" d="M82,115.45c2.38-0.44,4.67-1.31,6.84-2.36c2.2-1.02,4.28-2.27,6.24-3.71l0.09,0.12
		c-0.66,1.15-1.54,2.08-2.51,2.89c-0.96,0.83-2.05,1.47-3.18,2.04c-1.15,0.52-2.35,0.96-3.6,1.17c-1.25,0.23-2.55,0.31-3.85-0.01
		L82,115.45z"/>
	<path class="st36" d="M127.42,84.86c-0.74-0.54-1.48-1.15-1.94-2.01c-0.23-0.43-0.35-0.93-0.29-1.43c0.06-0.5,0.3-0.96,0.59-1.34
		c1.24-1.49,2.99-2.26,4.63-3.06c1.66-0.82,3.42-1.37,5.23-1.79c0.91-0.19,1.83-0.33,2.78-0.3c0.47,0.02,0.95,0.07,1.41,0.25
		c0.45,0.17,0.92,0.51,1.08,1.02l0.02,0.05l-0.01,0.05l-0.83,3.41l-0.29-0.07c-0.16-0.64-0.27-1.26-0.35-1.88
		c-0.06-0.61-0.13-1.23-0.15-1.84l0.04,0.81c-0.09,0.13-0.04,0.29-0.23,0.33c-0.16,0.06-0.44,0.07-0.76,0.16
		c-0.63,0.18-1.38,0.37-2.12,0.65c-1.48,0.52-3.14,1.16-4.64,1.76c-0.8,0.35-1.59,0.62-2.31,0.92c-0.69,0.32-1.38,0.59-1.79,0.85
		c-0.38,0.29-0.67,0.12-0.74,0.79c-0.01,0.64,0.4,1.52,0.85,2.41L127.42,84.86z"/>
	<path class="st70" d="M86.42,132.07c4.24,0.37,8.48-1.35,11.6-4.17c1.57-1.41,2.89-3.1,3.91-4.95c1-1.87,1.93-3.78,2.86-5.7
		c3.71-7.64,7.16-15.51,12.19-22.45c2.53-3.44,5.47-6.62,8.91-9.18c3.46-2.55,7.43-4.3,11.54-5.47c4.11-1.15,8.41-1.74,12.68-1.4
		c2.13,0.19,4.27,0.61,6.2,1.57c1.92,0.92,3.62,2.62,4.04,4.79l-0.22,0.05c-0.63-2.04-2.3-3.42-4.15-4.18
		c-1.87-0.76-3.93-1.03-5.97-1.06c-4.09-0.13-8.22,0.62-12.11,1.89c-3.86,1.34-7.66,3.01-10.79,5.43c-3.21,2.48-5.95,5.53-8.33,8.87
		c-2.46,3.29-4.6,6.88-6.59,10.59c-2.02,3.69-3.76,7.57-5.84,11.31c-1.02,1.89-2.03,3.75-3.15,5.65c-1.17,1.94-2.65,3.69-4.4,5.12
		c-3.51,2.77-8.11,4.34-12.4,3.52L86.42,132.07z"/>
	<path class="st50" d="M119.39,67.88c0.49-0.47,1.26-0.51,1.83-0.57c0.57-0.03,1.14-0.07,1.68-0.08c1.1-0.05,2.14-0.03,3.15-0.12
		c1.01-0.04,1.96-0.19,2.92-0.42c0.96-0.25,1.93-0.63,3.04-1.16l0.11,0.09c-0.71,0.89-1.63,1.63-2.66,2.12
		c-1.04,0.5-2.18,0.75-3.32,0.84c-1.14,0.07-2.29-0.03-3.41-0.2c-0.56-0.08-1.12-0.19-1.68-0.31c-0.55-0.12-1.11-0.23-1.64-0.06
		L119.39,67.88z"/>
	<path class="st54" d="M58.42,104.65c-1.16,0.71-2.38,1.29-3.58,1.91c-1.21,0.59-2.44,1.15-3.7,1.65c-2.5,1.02-5.05,1.92-7.76,2.53
		l1.04-1.28c0.02,1.04,0.03,2.08,0.01,3.12l-1.25-1.32l0.92,0.06l1.7,0.11L45.28,113c-0.42,1.3-0.89,2.54-1.48,3.8
		c-0.15,0.31-0.3,0.63-0.47,0.95l-0.27,0.48c-0.05,0.08-0.1,0.17-0.16,0.25l-0.01,0.01l0,0c0.13-0.25,0.03-0.07,0.06-0.12
		l-0.01,0.01l-0.02,0.03l-0.03,0.05c-0.06,0.11,0.06-0.11,0.05-0.22c0.02-0.25-0.07-0.44-0.16-0.55c-0.08-0.1-0.15-0.12-0.15-0.12
		c-0.04,0,0.06,0.05,0.15,0.08c0.21,0.07,0.49,0.12,0.78,0.14c1.18,0.11,2.45-0.06,3.69-0.28c1.25-0.23,2.46-0.65,3.55-1.4l0.11,0.1
		c-0.94,0.96-2.18,1.55-3.44,1.97c-1.26,0.41-2.58,0.66-3.92,0.67c-0.33,0-0.67-0.02-1.01-0.09c-0.17-0.04-0.34-0.08-0.5-0.17
		c-0.15-0.08-0.34-0.25-0.32-0.5c0.29-0.69,0.6-1.19,0.84-1.82c0.5-1.22,0.93-2.46,1.32-3.72l0.13,0.18l-0.92-0.04l-0.14-0.01v-0.14
		l0-3.12v-0.11l0.11-0.02c2.61-0.55,5.17-1.33,7.71-2.15c2.54-0.83,5.07-1.72,7.57-2.65L58.42,104.65z"/>
	<path class="st70" d="M112.99,61.02c-3.77-0.08-7.5,0.02-11.11,0.78c-3.61,0.63-7.09,1.77-10.25,3.47
		c-3.14,1.73-6.05,3.82-8.52,6.41c-2.61,2.72-5.55,5.33-8.43,7.73c-1.45,1.19-2.85,2.33-4.04,3.58c-1.2,1.24-2.19,2.62-3.1,4.13
		c-1.84,3.04-3.09,6.48-4.55,9.98c-1.46,3.5-2.97,6.99-4.8,10.35c-0.95,1.66-1.98,3.29-3.14,4.82c-1.15,1.53-2.5,2.97-4.13,3.99
		l-0.14-0.18c2.91-2.37,4.72-5.8,6.35-9.14c1.61-3.39,2.95-6.9,4.23-10.43c1.24-3.54,2.5-7.12,4.35-10.42
		c0.93-1.65,2.04-3.21,3.34-4.59c1.3-1.38,2.75-2.6,4.19-3.8c2.92-2.37,5.73-4.84,8.38-7.51c2.7-2.64,5.82-4.86,9.24-6.48
		c6.85-3.27,14.69-3.96,22.13-2.91L112.99,61.02z"/>
	<path class="st71" d="M90.45,108.01c-0.89,0.87-1.92,1.52-2.99,2.09c-0.54,0.27-1.1,0.53-1.68,0.72c-0.58,0.18-1.19,0.37-1.82,0.31
		c0.56-0.24,1.07-0.55,1.6-0.83c0.52-0.3,1.05-0.57,1.57-0.86C88.2,108.9,89.27,108.37,90.45,108.01z"/>
	<path class="st71" d="M105.37,85.88c-0.33,0.25-0.68,0.41-1.03,0.57c-0.34,0.16-0.72,0.27-0.98,0.41
		c-0.14,0.07-0.18,0.11-0.22,0.18c-0.05,0.08-0.06,0.26-0.08,0.44c-0.03,0.37-0.05,0.76-0.17,1.15c-0.19-0.36-0.31-0.72-0.4-1.11
		c-0.05-0.2-0.08-0.41-0.01-0.69c0.07-0.3,0.34-0.52,0.54-0.62c0.42-0.19,0.79-0.26,1.18-0.3
		C104.58,85.86,104.96,85.84,105.37,85.88z"/>
	<path class="st71" d="M122.54,82.54c-0.3,0.32-0.67,0.58-0.88,0.86c-0.18,0.25-0.17,0.56-0.2,1c-0.06,0.85-0.24,1.73-0.7,2.49
		c-0.11-0.89-0.07-1.69-0.04-2.54c0.02-0.21,0.03-0.43,0.1-0.68c0.07-0.24,0.22-0.53,0.44-0.67
		C121.68,82.69,122.09,82.6,122.54,82.54z"/>
	<path class="st71" d="M104.07,104.57c0.99,1.4,1.38,3.13,1.4,4.83c0,1.7-0.41,3.44-1.4,4.83c0.15-1.69,0.31-3.24,0.29-4.83
		C104.36,107.81,104.23,106.25,104.07,104.57z"/>
	<path class="st71" d="M113,69.2c-1.21,1.22-2.57,2.2-3.58,3.36c-0.51,0.58-0.89,1.2-1.02,1.9c-0.13,0.7,0.01,1.51,0.28,2.34
		c-0.62-0.58-1.13-1.41-1.14-2.39c-0.03-0.99,0.47-1.89,1.05-2.57C109.8,70.5,111.35,69.68,113,69.2z"/>
	<path class="st71" d="M50.64,95.77c-0.13,1.06-0.22,1.96,0.08,2.62c0.26,0.68,0.98,1.21,1.82,1.89c-0.53,0.08-1.09,0.03-1.6-0.22
		c-0.52-0.22-1-0.67-1.24-1.25C49.23,97.6,49.77,96.37,50.64,95.77z"/>
	<path class="st71" d="M55.21,74.29c-0.82,0.42-1.75,0.52-2.61,0.52c-0.44-0.01-0.81-0.01-1.13,0.1c-0.33,0.13-0.65,0.44-1,0.73
		c0.1-0.45,0.29-0.88,0.71-1.22c0.45-0.34,0.99-0.34,1.42-0.35C53.48,74.1,54.3,74.14,55.21,74.29z"/>
	<path class="st71" d="M75.21,50.31c-0.89,0.97-1.91,1.75-2.96,2.49c-1.07,0.72-2.16,1.39-3.38,1.88c0.89-0.97,1.91-1.75,2.96-2.49
		C72.89,51.47,73.99,50.8,75.21,50.31z"/>
	<path class="st71" d="M107.66,53.16c-0.14,0.08-0.33,0.11-0.38,0.2c0,0.03,0,0.11,0.01,0.26c0.03,0.28,0.02,0.59-0.01,0.89
		c-0.07,0.6-0.21,1.21-0.58,1.76c-0.21-0.64-0.2-1.23-0.16-1.83c0.04-0.3,0.07-0.59,0.18-0.91c0.06-0.13,0.12-0.41,0.41-0.5
		C107.38,53.01,107.5,53.08,107.66,53.16z"/>
	<path class="st71" d="M61,74.97c0.86-0.52,1.43-1.25,1.89-2.03c0.46-0.8,0.83-1.66,1.17-2.54c0.71-1.76,1.32-3.63,2.42-5.31
		c-0.27,1.97-0.67,3.86-1.38,5.72c-0.38,0.92-0.83,1.84-1.5,2.63C62.96,74.24,62,74.87,61,74.97z"/>
	<path class="st71" d="M75.21,59.81c0.85-1.08,1.96-1.83,3.16-2.4c0.61-0.27,1.24-0.5,1.93-0.61c0.66-0.12,1.43-0.11,2.04,0.23
		c-0.67,0.09-1.22,0.37-1.8,0.6l-1.7,0.79C77.68,58.93,76.53,59.47,75.21,59.81z"/>
	<path class="st71" d="M91.01,90.1c1.71-0.96,2.81-2.33,3.5-4c0.74-1.64,1.11-3.5,1.92-5.29c0.06,1.93-0.1,3.88-0.9,5.73
		c-0.41,0.91-0.98,1.79-1.78,2.44C92.97,89.65,91.98,90.03,91.01,90.1z"/>
	<path class="st71" d="M78.51,117.92c-0.42-2.02-0.28-4.08,0.04-6.08c0.19-1,0.42-1.99,0.78-2.96c0.36-0.94,0.79-1.96,1.62-2.62
		c-0.46,0.9-0.56,1.89-0.78,2.85l-0.52,2.92C79.29,113.99,78.96,115.93,78.51,117.92z"/>
</g>
</svg>
